<?xml version="1.0" standalone="no"?>
<!DOCTYPE svg PUBLIC "-//W3C//DTD SVG 20010904//EN"
 "http://www.w3.org/TR/2001/REC-SVG-20010904/DTD/svg10.dtd">
<svg version="1.0" xmlns="http://www.w3.org/2000/svg"
 width="320.000000pt" height="320.000000pt" viewBox="0 0 320.000000 320.000000"
 preserveAspectRatio="xMidYMid meet">
<metadata>
Created by potrace 1.14, written by Peter Selinger 2001-2017
</metadata>
<g transform="translate(0.000000,320.000000) scale(0.100000,-0.100000)"
fill="#000000" stroke="none">
<path d="M1939 1969 c-13 -3 17 -7 66 -7 82 -2 296 -11 370 -17 17 -2 55 -3
85 -4 53 -2 54 -2 30 -16 -25 -14 -25 -14 9 -8 30 5 33 4 28 -11 -4 -10 -3
-15 3 -11 6 3 10 12 10 19 0 20 27 15 264 -50 188 -52 239 -57 156 -16 -30 15
-113 51 -184 81 l-130 53 -342 -3 c-188 -2 -352 -6 -365 -10z"/>
<path d="M31 1892 c-11 -21 -6 -31 32 -55 35 -22 22 -47 -20 -39 -18 3 -24 1
-19 -7 12 -19 64 -13 76 10 9 16 8 25 -6 40 -9 10 -23 19 -31 19 -7 0 -13 7
-13 15 0 15 11 19 39 16 7 -2 10 2 6 8 -10 18 -53 13 -64 -7z"/>
<path d="M147 1847 c-25 -62 -26 -87 -3 -54 17 22 52 22 65 0 5 -10 13 -15 17
-11 7 8 -33 115 -46 123 -4 3 -19 -23 -33 -58z m43 -9 c0 -5 -7 -8 -15 -8 -17
0 -18 2 -9 25 5 13 8 14 15 3 5 -7 9 -16 9 -20z"/>
<path d="M260 1845 c0 -37 4 -65 10 -65 6 0 10 12 10 26 0 14 3 23 8 21 17
-11 52 13 52 36 0 31 -18 47 -52 47 -28 0 -28 0 -28 -65z m60 25 c0 -13 -7
-20 -20 -20 -13 0 -20 7 -20 20 0 13 7 20 20 20 13 0 20 -7 20 -20z"/>
<path d="M365 1848 c0 -73 19 -82 21 -11 1 51 -4 73 -15 73 -4 0 -7 -28 -6
-62z"/>
<path d="M420 1845 c0 -64 16 -91 22 -37 l3 27 28 -29 c26 -28 52 -31 29 -3
-7 8 -9 29 -5 51 7 43 -5 56 -49 56 -28 0 -28 -1 -28 -65z m60 26 c0 -10 -9
-21 -20 -24 -16 -4 -20 0 -20 19 0 17 6 24 20 24 13 0 20 -7 20 -19z"/>
<path d="M562 1867 c-29 -66 -35 -87 -23 -87 6 0 11 7 11 15 0 21 50 19 66 -2
23 -33 25 -5 3 49 -12 29 -26 57 -30 62 -4 4 -16 -12 -27 -37z m26 -36 c-15
-5 -19 4 -11 24 6 18 7 18 13 -1 4 -10 3 -21 -2 -23z"/>
<path d="M667 1893 c-8 -31 -2 -108 8 -105 6 1 10 18 10 37 0 19 2 35 4 35 3
0 25 -19 48 -42 l43 -42 0 67 c0 73 -17 93 -22 26 l-3 -42 -42 42 c-35 35 -42
39 -46 24z"/>
<path d="M827 1892 c-10 -10 -17 -33 -17 -50 0 -38 35 -65 77 -60 24 3 28 8
28 33 0 22 -5 30 -17 30 -10 0 -17 -4 -15 -10 1 -5 5 -9 10 -7 4 1 7 -5 7 -13
0 -18 -41 -20 -58 -3 -15 15 -15 51 0 66 7 7 25 12 40 12 15 0 28 5 28 10 0
18 -66 11 -83 -8z"/>
<path d="M966 1849 c-15 -34 -24 -64 -21 -68 4 -3 11 2 16 12 6 9 21 17 34 17
13 0 28 -8 34 -17 5 -10 12 -15 16 -12 6 7 -31 108 -44 122 -4 4 -20 -20 -35
-54z m44 -11 c0 -5 -7 -8 -15 -8 -17 0 -18 2 -9 25 5 13 8 14 15 3 5 -7 9 -16
9 -20z"/>
<path d="M2434 1899 c-4 -7 -22 -9 -48 -6 -28 4 -35 3 -21 -3 31 -13 61 -12
75 5 7 8 10 15 7 15 -3 0 -9 -5 -13 -11z"/>
<path d="M2561 1898 c8 -7 23 -22 33 -33 14 -15 13 -11 -3 13 -12 17 -27 32
-34 32 -6 0 -5 -5 4 -12z"/>
<path d="M2500 1841 c0 -6 -11 -13 -25 -17 -14 -3 -25 -10 -25 -14 0 -13 85
-23 125 -16 22 4 35 3 35 -4 0 -5 4 -10 10 -10 5 0 6 8 3 18 -6 15 -5 16 12 2
18 -15 18 -14 1 12 -15 23 -23 26 -64 24 -26 -2 -53 1 -59 7 -9 6 -13 6 -13
-2z"/>
<path d="M81 1679 c-33 -20 -61 -71 -61 -110 0 -33 29 -86 57 -104 13 -9 43
-18 66 -19 59 -4 61 -26 2 -26 -28 0 -44 -4 -40 -10 9 -15 81 -12 94 4 13 15
5 46 -13 47 -85 6 -109 17 -131 59 -23 45 -19 85 14 122 25 28 35 32 92 36 50
2 73 -1 102 -17 22 -11 37 -14 34 -8 -13 42 -161 60 -216 26z"/>
<path d="M2048 1693 c-10 -2 -18 -9 -18 -14 0 -6 9 -7 22 -3 36 11 116 5 148
-11 64 -33 69 -92 14 -172 -58 -85 -58 -86 -43 -81 7 2 32 33 56 67 63 92 55
169 -21 205 -32 15 -117 20 -158 9z"/>
<path d="M2404 1686 c-67 -30 -106 -98 -105 -186 0 -153 133 -241 262 -174 75
38 112 175 71 266 -38 88 -145 132 -228 94z m147 -28 c98 -55 108 -227 18
-303 -69 -58 -183 -35 -228 46 -48 84 -23 210 51 258 44 28 109 27 159 -1z"/>
<path d="M2399 1646 c-98 -67 -90 -250 13 -296 101 -45 195 17 205 136 4 49 0
67 -19 103 -41 79 -130 104 -199 57z m139 -16 c45 -27 66 -80 59 -147 -8 -81
-46 -122 -116 -128 -77 -6 -133 56 -133 146 1 119 98 185 190 129z"/>
<path d="M2423 1627 c-11 -5 -30 -27 -43 -49 -43 -76 -12 -180 61 -204 93 -31
169 64 139 175 -18 69 -93 107 -157 78z m110 -33 c47 -47 46 -145 -2 -188 -41
-37 -111 -22 -135 29 -29 61 -13 148 31 174 33 19 79 13 106 -15z"/>
<path d="M2440 1597 c-32 -16 -54 -76 -46 -122 9 -48 38 -75 79 -75 43 0 73
32 80 84 11 87 -47 146 -113 113z m70 -25 c27 -22 34 -84 14 -124 -19 -37 -74
-40 -98 -6 -25 35 -20 94 9 123 29 30 45 31 75 7z"/>
<path d="M2693 1693 c-22 -8 -14 -25 8 -18 65 21 172 -7 185 -48 17 -55 7 -88
-53 -166 -31 -42 -37 -61 -14 -46 6 3 30 33 52 67 32 46 41 69 41 100 -1 50
-24 86 -67 104 -33 13 -126 18 -152 7z"/>
<path d="M2958 1693 c-40 -10 -14 -19 46 -15 99 6 156 -31 156 -102 0 -12 -22
-55 -49 -94 -28 -40 -44 -72 -38 -72 7 0 32 29 56 65 69 102 60 175 -26 211
-31 13 -108 17 -145 7z"/>
<path d="M338 1689 c-6 -19 -4 -222 3 -251 20 -80 90 -131 179 -132 68 -1 113
23 155 83 29 41 30 46 31 167 1 68 -2 124 -7 124 -5 0 -9 -17 -9 -37 -1 -179
-5 -209 -30 -245 -35 -52 -75 -72 -140 -72 -65 0 -105 20 -140 72 -23 32 -25
46 -27 160 -2 104 -7 152 -15 131z"/>
<path d="M368 1678 c-2 -7 -3 -63 -2 -125 2 -126 15 -159 72 -195 71 -44 182
-16 219 55 17 34 26 246 11 270 -10 15 -9 22 -11 -119 -2 -95 -6 -126 -20
-147 -24 -36 -55 -55 -101 -61 -51 -6 -97 14 -126 54 -21 30 -24 45 -25 151
-1 112 -7 147 -17 117z"/>
<path d="M399 1663 c-3 -128 4 -220 17 -240 48 -75 160 -74 209 1 11 16 16 49
16 102 1 134 -1 165 -10 160 -4 -3 -8 -57 -8 -119 -1 -63 -6 -123 -12 -134
-14 -26 -79 -53 -114 -46 -36 7 -77 47 -78 75 0 13 -1 67 -1 121 0 53 -4 100
-9 103 -5 3 -9 -7 -10 -23z"/>
<path d="M430 1572 c0 -113 1 -121 25 -146 33 -35 91 -36 129 -1 25 23 26 27
26 145 0 75 -4 119 -10 115 -5 -3 -9 -56 -9 -117 0 -128 -9 -148 -71 -148 -60
0 -69 19 -71 148 0 62 -5 115 -10 118 -5 3 -9 -46 -9 -114z"/>
<path d="M743 1504 c0 -101 4 -184 9 -184 4 0 8 73 8 163 0 89 4 157 8 150 4
-6 7 -80 6 -163 -1 -108 2 -150 10 -147 6 2 10 18 9 35 -1 18 3 32 8 32 5 0 9
-16 9 -36 0 -19 4 -33 8 -30 10 6 9 192 -1 202 -7 7 -11 -31 -9 -93 1 -18 -2
-33 -7 -33 -4 0 -7 33 -7 73 1 39 -1 84 -5 100 -4 15 -6 27 -4 27 2 0 20 -32
40 -71 20 -39 31 -68 25 -64 -6 4 -10 -19 -10 -69 0 -44 4 -76 10 -76 6 0 10
29 10 68 l0 67 21 -25 c11 -14 19 -18 17 -10 -6 29 -130 259 -143 263 -9 4
-12 -36 -12 -179z"/>
<path d="M781 1684 c19 -47 143 -274 151 -274 12 0 16 -10 -59 136 -34 67 -70
127 -79 135 -10 8 -15 9 -13 3z"/>
<path d="M820 1684 c0 -12 127 -255 140 -268 5 -5 18 6 30 28 23 37 37 50 22
19 -11 -24 -8 -136 4 -140 5 -2 9 40 10 94 0 83 3 103 22 133 l22 35 0 -132
c0 -73 4 -133 9 -133 12 0 13 262 2 270 -5 3 -3 16 4 30 13 22 14 6 15 -137 0
-104 4 -163 10 -163 7 0 10 63 8 183 -2 101 -7 181 -12 180 -5 -1 -36 -52 -69
-115 -32 -62 -62 -116 -66 -120 -4 -4 -33 43 -65 105 -56 107 -86 153 -86 131z"/>
<path d="M1008 1649 c-45 -78 -69 -130 -65 -142 2 -6 25 28 51 76 49 89 61
147 14 66z"/>
<path d="M1012 1589 c-29 -55 -52 -106 -50 -114 2 -9 29 34 61 94 31 61 54
112 49 114 -4 3 -31 -40 -60 -94z"/>
<path d="M1160 1505 c0 -102 4 -185 8 -185 5 0 8 70 8 155 -1 85 2 155 7 155
9 0 9 4 7 -167 -1 -96 2 -143 9 -143 8 0 10 44 9 135 -2 74 -2 135 -1 135 2 0
23 -41 48 -90 25 -50 49 -88 54 -85 5 2 -20 59 -55 126 -35 67 -64 125 -64
129 0 4 -7 10 -15 14 -13 5 -15 -19 -15 -179z"/>
<path d="M1231 1684 c17 -43 143 -274 150 -274 4 0 27 37 50 81 29 55 45 77
48 66 3 -9 5 -66 5 -127 -1 -60 3 -110 7 -110 5 0 9 61 9 136 0 94 -3 133 -11
128 -6 -3 -3 8 5 25 9 17 18 31 19 31 1 0 2 -70 2 -156 0 -85 3 -158 7 -160
10 -6 10 -6 12 191 0 93 -3 163 -9 167 -5 4 -39 -48 -76 -118 -49 -94 -68
-122 -76 -112 -6 7 -33 58 -61 114 -28 55 -58 107 -68 115 -9 7 -15 9 -13 3z"/>
<path d="M1427 1653 c-39 -61 -79 -144 -73 -151 8 -7 6 -10 60 91 49 91 57
130 13 60z"/>
<path d="M1570 1506 c0 -117 4 -186 10 -186 6 0 10 66 10 179 0 109 -4 182
-10 186 -7 4 -10 -58 -10 -179z"/>
<path d="M1608 1679 c-6 -52 -3 -359 4 -359 9 0 10 5 8 209 0 85 -3 157 -5
160 -3 2 -6 -2 -7 -10z"/>
<path d="M1670 1641 c0 -28 -4 -51 -9 -51 -5 0 -8 18 -7 40 0 22 -3 39 -9 37
-14 -3 -14 -347 0 -347 6 0 10 49 10 130 0 72 3 130 8 130 5 0 8 -26 7 -57 -3
-117 0 -206 8 -199 10 11 11 356 0 362 -4 3 -8 -18 -8 -45z"/>
<path d="M1723 1675 c2 -5 22 -9 45 -9 23 0 42 -3 42 -7 0 -4 -20 -7 -45 -5
-27 2 -45 -2 -45 -8 0 -8 39 -11 118 -11 73 0 116 4 114 10 -1 6 -20 9 -42 8
-22 -1 -40 2 -40 6 0 5 10 8 23 8 53 1 70 3 63 10 -12 12 -237 10 -233 -2z
m132 -15 c-3 -5 -13 -10 -21 -10 -8 0 -12 5 -9 10 3 6 13 10 21 10 8 0 12 -4
9 -10z"/>
<path d="M1200 1675 c0 -7 96 -189 123 -234 32 -54 31 -20 -1 40 -16 30 -46
87 -67 127 -20 39 -41 72 -46 72 -5 0 -9 -2 -9 -5z"/>
<path d="M1421 1580 c-29 -55 -51 -106 -49 -112 4 -10 118 190 118 206 0 24
-23 -8 -69 -94z"/>
<path d="M115 1661 c-64 -27 -82 -114 -32 -157 18 -15 41 -24 63 -24 48 0 74
-16 74 -44 0 -44 -44 -59 -117 -42 -37 9 -47 -8 -10 -18 47 -12 114 -6 130 12
21 23 22 66 1 86 -17 18 -16 17 -62 21 -75 5 -108 54 -78 113 23 44 80 54 156
27 31 -11 41 -12 38 -2 -10 28 -118 46 -163 28z"/>
<path d="M2052 1662 c-6 -2 -12 -7 -12 -12 0 -4 28 -5 63 -3 53 4 66 2 90 -17
39 -31 34 -63 -23 -145 -47 -66 -57 -91 -26 -66 27 23 96 137 96 160 0 56 -52
93 -128 90 -26 -1 -53 -4 -60 -7z"/>
<path d="M2698 1663 c-39 -10 -14 -18 58 -18 83 0 104 -13 104 -64 0 -32 -100
-182 -120 -180 -34 3 -60 -2 -60 -10 0 -6 48 -9 110 -9 60 0 107 5 104 9 -3 5
-32 9 -65 9 l-60 0 34 43 c95 116 102 187 23 217 -27 10 -95 12 -128 3z"/>
<path d="M2957 1663 c-35 -9 -6 -20 43 -15 101 9 148 -37 110 -111 -12 -21
-26 -45 -33 -51 -7 -7 -23 -29 -37 -49 -21 -32 -30 -37 -63 -37 -21 0 -36 -4
-33 -8 7 -12 216 -13 216 -1 0 5 -29 9 -65 9 l-66 0 21 22 c39 42 93 127 94
150 3 37 -21 75 -55 87 -32 11 -98 13 -132 4z"/>
<path d="M124 1630 c-29 -11 -37 -26 -36 -64 1 -36 24 -56 66 -56 52 0 74 -11
89 -42 16 -34 8 -76 -19 -99 -27 -22 -94 -19 -156 6 -10 4 -18 3 -18 -3 0 -14
48 -32 95 -36 75 -6 124 32 125 96 0 56 -34 89 -96 95 -27 3 -53 9 -58 13 -10
10 -11 58 -2 68 11 10 99 11 119 1 17 -9 26 4 10 14 -18 11 -100 16 -119 7z"/>
<path d="M2068 1633 c-39 -9 -15 -22 30 -16 55 6 92 -8 92 -35 0 -15 -61 -117
-79 -132 -3 -3 -12 -13 -20 -22 -11 -15 -11 -18 0 -18 8 0 38 36 68 79 73 108
64 141 -39 146 -19 1 -43 0 -52 -2z"/>
<path d="M2713 1633 c-44 -9 -23 -22 25 -16 57 6 92 -8 92 -39 0 -11 -23 -52
-51 -90 -28 -38 -49 -72 -45 -75 7 -8 2 -14 65 73 53 74 60 98 38 127 -12 18
-82 29 -124 20z"/>
<path d="M2968 1632 c-10 -2 -18 -7 -18 -12 0 -5 24 -6 54 -3 46 5 57 2 75
-16 l22 -22 -22 -38 c-12 -21 -39 -58 -61 -82 -38 -42 -39 -42 -14 -6 14 20
37 52 51 70 14 19 25 41 25 50 0 20 -27 34 -57 31 -13 -1 -32 -2 -43 -3 -11 0
-20 -6 -20 -11 0 -7 18 -8 50 -4 41 5 50 4 50 -9 0 -12 -50 -88 -101 -153 -6
-7 0 -11 19 -12 23 0 36 11 80 71 65 88 69 121 17 143 -32 13 -64 15 -107 6z"/>
<path d="M1725 1610 c4 -6 12 -10 18 -9 36 4 37 0 37 -141 0 -188 18 -186 23
3 l3 142 2 -142 c1 -87 6 -143 12 -143 6 0 10 54 10 141 0 77 4 138 8 135 4
-2 7 -64 7 -136 0 -72 3 -134 7 -136 7 -5 11 87 9 224 0 29 3 51 8 48 4 -3 7
-66 7 -141 -1 -89 2 -134 9 -132 6 2 11 54 11 133 1 71 2 134 3 140 0 6 12 10
26 9 14 -2 27 1 31 6 3 5 -46 9 -116 9 -80 0 -119 -3 -115 -10z"/>
<path d="M136 1597 c-10 -7 -17 -22 -15 -33 3 -15 14 -20 48 -22 75 -6 124
-57 115 -122 -11 -71 -65 -106 -147 -96 -28 4 -63 14 -78 22 -36 18 -45 18
-29 -1 20 -24 115 -48 161 -40 94 16 138 110 92 198 -16 32 -66 57 -114 57
-20 0 -29 4 -26 13 2 7 20 11 46 11 22 -1 41 2 41 7 0 5 -6 9 -12 10 -7 0 -24
3 -38 5 -15 2 -34 -2 -44 -9z"/>
<path d="M2061 1592 c-13 -11 -8 -12 35 -7 33 4 54 3 59 -4 3 -6 -16 -42 -42
-79 -62 -84 -66 -92 -55 -92 12 0 107 129 116 157 6 19 2 25 -19 33 -33 12
-73 9 -94 -8z"/>
<path d="M2713 1599 c-36 -13 -27 -18 28 -16 29 1 54 -3 56 -9 2 -5 -21 -43
-52 -84 -59 -79 -60 -80 -46 -80 13 0 121 149 121 166 0 28 -60 41 -107 23z"/>
<path d="M1220 1433 c0 -69 4 -113 10 -113 13 0 13 190 0 210 -7 10 -10 -21
-10 -97z"/>
<path d="M1456 1524 c-10 -27 -7 -204 4 -204 6 0 10 43 10 110 0 61 -2 110 -4
110 -2 0 -7 -7 -10 -16z"/>
<path d="M1047 1523 c-4 -3 -7 -51 -7 -106 0 -55 3 -97 8 -93 5 6 12 206 6
206 0 0 -4 -3 -7 -7z"/>
<path d="M1426 1464 c-10 -26 -7 -144 4 -144 6 0 10 33 10 80 0 81 -3 93 -14
64z"/>
<path d="M1250 1396 c0 -44 4 -76 10 -76 6 0 10 30 10 69 0 39 -4 73 -10 76
-6 4 -10 -22 -10 -69z"/>
<path d="M2098 1402 c-99 -5 -63 -20 47 -20 58 0 105 4 105 8 0 10 -76 16
-152 12z"/>
<path d="M2035 1360 c-4 -6 33 -10 104 -10 67 0 111 4 111 10 0 6 -41 10 -104
10 -59 0 -108 -4 -111 -10z"/>
<path d="M2680 1360 c0 -6 42 -10 105 -10 63 0 105 4 105 10 0 6 -42 10 -105
10 -63 0 -105 -4 -105 -10z"/>
<path d="M2940 1360 c0 -6 44 -10 111 -10 71 0 108 4 104 10 -3 6 -52 10 -111
10 -63 0 -104 -4 -104 -10z"/>
<path d="M2040 1330 c0 -6 42 -10 105 -10 63 0 105 4 105 10 0 6 -42 10 -105
10 -63 0 -105 -4 -105 -10z"/>
<path d="M2680 1330 c0 -6 44 -10 111 -10 71 0 108 4 104 10 -3 6 -52 10 -111
10 -63 0 -104 -4 -104 -10z"/>
<path d="M2940 1330 c0 -6 44 -10 111 -10 71 0 108 4 104 10 -3 6 -52 10 -111
10 -63 0 -104 -4 -104 -10z"/>
<path d="M113 1213 c-7 -3 -13 -20 -13 -39 0 -31 3 -34 28 -33 23 2 24 2 5 6
-13 2 -23 9 -23 14 0 5 10 9 23 10 21 0 21 1 -3 11 l-25 11 25 6 c18 5 21 9
10 12 -8 4 -21 4 -27 2z"/>
<path d="M329 1207 c0 -7 -2 -19 -4 -28 -1 -9 1 -23 6 -30 7 -11 9 -11 9 3 0
9 8 19 18 21 16 4 16 5 0 6 -10 0 -18 5 -18 10 0 5 8 11 18 13 14 3 13 5 -5
10 -14 4 -23 2 -24 -5z"/>
<path d="M685 1209 c-11 -4 -14 -8 -7 -8 6 -1 13 -15 13 -33 l2 -33 4 30 c3
16 9 33 15 36 17 10 -5 17 -27 8z"/>
<path d="M1243 1209 c-16 -16 -3 -69 17 -69 24 0 43 25 35 48 -6 22 -39 34
-52 21z m41 -18 c9 -14 -4 -41 -20 -41 -8 0 -14 10 -14 25 0 25 23 35 34 16z"/>
<path d="M1326 1212 c-3 -3 -6 -20 -6 -39 0 -30 3 -33 28 -32 l27 1 -25 8 -25
7 25 11 c24 10 24 11 3 11 -13 1 -23 5 -23 10 0 5 10 11 23 13 l22 3 -22 7
c-12 3 -24 3 -27 0z"/>
<path d="M1586 1212 c-11 -10 -6 -73 4 -67 6 4 8 10 5 15 -3 5 3 11 12 13 17
4 17 5 1 6 -26 2 -22 19 5 23 l22 3 -22 7 c-12 3 -24 3 -27 0z"/>
<path d="M1865 1209 c-11 -4 -14 -8 -7 -8 6 -1 12 -8 12 -16 0 -8 5 -15 11
-15 5 0 7 5 3 11 -3 6 -1 15 6 19 18 11 -2 19 -25 9z"/>
<path d="M2019 1217 c-1 -1 -2 -19 -3 -39 -2 -35 0 -38 24 -37 17 1 19 3 8 6
-10 2 -18 8 -18 13 0 5 8 11 18 13 16 4 16 5 0 6 -10 0 -18 5 -18 10 0 5 8 11
18 13 14 3 13 5 -5 10 -13 3 -24 5 -24 5z"/>
<path d="M2226 1212 c-3 -3 -6 -20 -6 -39 0 -30 3 -33 28 -32 23 2 24 2 5 6
-13 2 -23 9 -23 14 0 5 10 9 23 10 21 0 21 1 -3 11 l-25 11 25 6 c24 7 25 7 3
13 -12 3 -24 3 -27 0z"/>
<path d="M2331 1200 c0 -14 6 -33 13 -43 13 -16 15 -15 25 14 6 18 9 34 7 36
-2 3 -8 -6 -12 -19 -7 -23 -7 -23 -20 7 -13 29 -13 29 -13 5z"/>
<path d="M2468 1213 c-22 -6 -33 -40 -18 -58 13 -15 42 -20 53 -9 8 8 -3 34
-14 34 -4 0 -6 -7 -3 -15 7 -16 -4 -19 -24 -7 -18 12 -4 40 21 44 12 2 18 6
12 9 -5 3 -18 4 -27 2z"/>
<path d="M2698 1201 c-8 -38 4 -61 31 -60 23 2 24 2 4 6 -27 5 -30 20 -5 26
16 4 16 5 0 6 -26 2 -22 19 5 23 20 3 20 4 -5 9 -20 5 -28 2 -30 -10z"/>
<path d="M2924 1203 c3 -8 6 -26 6 -39 0 -13 4 -24 8 -24 4 0 8 12 7 28 0 15
3 30 8 33 5 3 -1 9 -13 12 -16 4 -20 2 -16 -10z"/>
<path d="M2988 1190 c-3 -16 -1 -35 4 -42 4 -8 8 4 8 30 0 49 -6 55 -12 12z"/>
<path d="M11 1174 c2 -31 3 -33 6 -11 l4 28 21 -26 c23 -30 36 -26 32 11 -3
34 -14 44 -14 14 l0 -23 -25 23 -25 23 1 -39z"/>
<path d="M182 1180 c12 -36 28 -48 28 -23 1 17 1 17 14 0 13 -16 15 -15 25 14
6 18 9 34 7 36 -2 3 -7 -6 -11 -18 l-7 -22 -14 24 c-10 18 -13 20 -14 7 0 -22
-20 -24 -20 -3 0 8 -4 15 -9 15 -6 0 -6 -12 1 -30z"/>
<path d="M393 1175 c-1 -32 2 -35 26 -34 21 1 22 2 5 6 -17 3 -21 10 -18 34 2
16 0 29 -4 29 -4 0 -8 -16 -9 -35z"/>
<path d="M469 1208 c-5 -16 -2 -68 4 -68 4 0 7 16 7 35 0 19 -2 35 -5 35 -3 0
-5 -1 -6 -2z"/>
<path d="M505 1199 c-4 -5 -4 -21 -1 -35 5 -17 13 -24 30 -24 27 0 42 25 21
34 -9 3 -12 0 -8 -10 7 -19 -11 -18 -27 1 -15 18 -6 30 25 38 15 4 14 5 -7 6
-15 0 -30 -4 -33 -10z"/>
<path d="M592 1175 c0 -22 2 -32 5 -22 2 9 11 17 18 17 8 0 19 -8 24 -17 8
-15 10 -11 11 20 0 23 -4 36 -10 32 -6 -4 -8 -11 -5 -16 4 -5 -3 -9 -14 -9
-11 0 -22 8 -24 18 -3 9 -5 -1 -5 -23z"/>
<path d="M746 1201 c-3 -5 1 -14 9 -21 20 -16 19 -28 -2 -33 -14 -4 -13 -5 3
-6 26 -1 41 27 19 35 -20 8 -19 22 3 27 13 4 12 5 -5 6 -12 0 -24 -3 -27 -8z"/>
<path d="M881 1174 c2 -29 3 -32 6 -12 l4 28 25 -25 c30 -30 33 -31 31 -5 -1
11 -6 19 -12 16 -5 -2 -20 6 -32 17 l-23 20 1 -39z"/>
<path d="M930 1200 c0 -5 5 -10 10 -10 6 0 10 5 10 10 0 6 -4 10 -10 10 -5 0
-10 -4 -10 -10z"/>
<path d="M973 1175 c0 -31 3 -35 26 -34 17 1 20 3 9 6 -10 2 -18 9 -18 14 0 5
8 9 18 10 11 1 8 4 -8 9 l-25 7 25 11 25 11 -26 0 c-23 1 -26 -3 -26 -34z"/>
<path d="M1051 1180 c6 -16 15 -30 21 -30 5 0 7 6 4 13 -3 6 -9 20 -12 30 -4
9 -10 17 -15 17 -4 0 -3 -13 2 -30z"/>
<path d="M1080 1193 c0 -13 5 -23 10 -23 13 0 13 11 0 30 -8 12 -10 11 -10 -7z"/>
<path d="M1112 1185 c-14 -30 -16 -54 -4 -39 15 17 32 64 23 64 -4 0 -13 -11
-19 -25z"/>
<path d="M1203 1175 c0 -22 2 -30 4 -17 2 12 2 30 0 40 -3 9 -5 -1 -4 -23z"/>
<path d="M1406 1182 c-20 -39 -20 -48 -1 -32 12 10 18 10 31 -1 15 -12 16 -11
9 11 -16 52 -22 55 -39 22z"/>
<path d="M1475 1199 c-4 -6 3 -18 16 -27 l23 -16 -24 -7 c-23 -7 -23 -7 -3 -8
32 -1 40 19 14 40 l-21 18 22 4 c23 4 23 4 1 6 -12 0 -25 -4 -28 -10z"/>
<path d="M1652 1198 c-17 -22 4 -58 32 -58 19 0 27 7 32 24 3 14 3 30 -1 35
-9 15 -50 14 -63 -1z m53 -23 c0 -30 -39 -27 -43 3 -3 20 0 23 20 20 15 -2 23
-10 23 -23z"/>
<path d="M1744 1180 c1 -16 6 -33 10 -37 4 -4 7 -3 6 2 -5 23 1 28 13 11 12
-17 14 -15 15 18 1 32 -1 36 -23 36 -20 0 -23 -4 -21 -30z m36 10 c0 -5 -4
-10 -10 -10 -5 0 -10 5 -10 10 0 6 5 10 10 10 6 0 10 -4 10 -10z"/>
<path d="M1930 1205 c-6 -33 -6 -57 2 -61 4 -3 8 2 8 10 0 9 7 16 15 16 8 0
15 -7 15 -15 0 -32 15 -13 16 20 0 19 -3 35 -8 35 -4 0 -8 -7 -8 -15 0 -21
-28 -19 -33 3 -3 9 -6 13 -7 7z"/>
<path d="M2131 1174 c1 -25 3 -31 6 -16 l5 24 23 -22 23 -21 4 31 c3 17 1 33
-4 36 -4 3 -8 -5 -8 -17 l0 -22 -25 23 -25 23 1 -39z"/>
<path d="M2303 1175 c8 -26 13 -32 21 -24 8 8 7 13 -1 16 -7 3 -13 13 -13 24
0 10 -4 19 -9 19 -5 0 -4 -15 2 -35z"/>
<path d="M2530 1175 c0 -32 2 -35 28 -34 23 2 24 2 5 6 -27 5 -31 23 -5 23 15
1 14 2 -3 12 -19 12 -19 12 5 19 l25 7 -27 1 c-25 1 -28 -2 -28 -34z"/>
<path d="M2609 1209 c-6 -19 -3 -69 4 -69 5 0 7 6 4 14 -10 25 6 27 30 4 l23
-21 -1 39 c-1 25 -3 31 -6 16 l-5 -24 -24 23 c-13 12 -25 21 -25 18z"/>
<path d="M2770 1173 c0 -27 3 -34 9 -24 8 12 13 12 24 3 12 -11 14 -7 13 20
-1 26 -6 34 -24 36 -19 3 -22 -1 -22 -35z m35 17 c3 -5 -1 -10 -9 -10 -9 0
-16 5 -16 10 0 6 4 10 9 10 6 0 13 -4 16 -10z"/>
<path d="M2867 1203 c-4 -6 -11 -23 -17 -38 -9 -25 -9 -26 5 -15 12 10 18 10
31 -1 15 -12 16 -11 9 11 -12 39 -22 54 -28 43z"/>
<path d="M3029 1194 c-17 -21 0 -49 31 -49 31 0 48 28 31 49 -8 9 -21 16 -31
16 -10 0 -23 -7 -31 -16z m54 -6 c6 -18 -3 -38 -17 -38 -22 0 -37 17 -30 33 7
20 40 23 47 5z"/>
<path d="M3121 1174 c1 -23 4 -30 6 -16 5 27 11 28 39 1 l22 -21 -1 36 c-1 38
-17 51 -17 14 l0 -21 -25 23 -25 23 1 -39z"/>
<path d="M1870 1150 c0 -5 5 -10 11 -10 5 0 7 5 4 10 -3 6 -8 10 -11 10 -2 0
-4 -4 -4 -10z"/>
</g>
</svg>
