<svg width="320" height="90" viewBox="0 0 320 90" fill="none" xmlns="http://www.w3.org/2000/svg">
<path d="M16.7432 47.8516H14.0845C12.9565 47.8516 12.1436 47.5659 11.6455 46.9946C11.1475 46.4087 10.8984 45.6396 10.8984 44.6875C10.8984 42.5781 12.4731 41.5234 15.6226 41.5234C18.5815 41.5234 20.8081 41.9629 22.3022 42.8418L21.0278 43.8086C20.0024 43.3398 18.2007 43.1055 15.6226 43.1055C14.3628 43.1055 13.5132 43.2446 13.0737 43.5229C12.6489 43.8013 12.4365 44.1895 12.4365 44.6875C12.4365 45.1855 12.5537 45.5737 12.7881 45.8521C13.0225 46.1304 13.4546 46.2695 14.0845 46.2695H16.8091C18.7866 46.2695 20.5664 46.6064 22.1484 47.2803C23.7451 47.9541 25.0562 48.877 26.0815 50.0488C27.1069 51.2061 27.8906 52.5464 28.4326 54.0698C28.9746 55.5786 29.2456 57.1973 29.2456 58.9258C29.2456 60.332 29.0479 61.665 28.6523 62.9248C28.2568 64.1846 27.6562 65.3418 26.8506 66.3965C26.0596 67.4512 25.1001 68.3667 23.9722 69.1431C22.8589 69.9048 21.5259 70.498 19.9731 70.9229C18.4351 71.3623 16.7651 71.582 14.9634 71.582C12.1362 71.582 9.48486 71.1499 7.00928 70.2856C4.54834 69.436 2.49756 68.2422 0.856934 66.7041L2.13135 65.7593C3.62549 67.1069 5.49316 68.1543 7.73438 68.9014C9.99023 69.6338 12.3999 70 14.9634 70C16.9702 70 18.7793 69.7144 20.3906 69.1431C22.0166 68.5571 23.3496 67.7588 24.3896 66.748C25.4443 65.7373 26.25 64.5654 26.8066 63.2324C27.3779 61.8994 27.6636 60.4639 27.6636 58.9258C27.6636 56.8896 27.2534 55.0513 26.4331 53.4106C25.6128 51.7554 24.3604 50.415 22.6758 49.3896C21.0059 48.3643 19.0283 47.8516 16.7432 47.8516ZM14.0845 49.4336H16.5894C19.563 49.4336 21.8848 50.3418 23.5547 52.1582C25.2393 53.9746 26.0815 56.2305 26.0815 58.9258C26.0815 61.665 25.1074 63.9355 23.1592 65.7373C21.2109 67.5244 18.479 68.418 14.9634 68.418C12.6196 68.418 10.4297 68.0957 8.39355 67.4512C6.35742 66.8066 4.66553 65.8984 3.31787 64.7266L4.54834 63.7378C5.74951 64.7192 7.2583 65.481 9.07471 66.0229C10.9058 66.5649 12.8687 66.8359 14.9634 66.8359C18.0542 66.8359 20.4126 66.0962 22.0386 64.6167C23.6792 63.1372 24.4995 61.2402 24.4995 58.9258C24.4995 56.6406 23.811 54.751 22.4341 53.2568C21.0718 51.7627 19.1162 51.0156 16.5674 51.0156H14.0845C11.9458 51.0156 10.3418 50.4297 9.27246 49.2578C8.20312 48.0859 7.66846 46.5625 7.66846 44.6875C7.66846 42.8125 8.32764 41.2891 9.646 40.1172C10.979 38.9453 12.9712 38.3594 15.6226 38.3594C17.4829 38.3594 19.2114 38.5791 20.8081 39.0186C22.4048 39.4434 23.7231 40.0586 24.7632 40.8643L23.5107 41.8311C21.6797 40.5713 19.0503 39.9414 15.6226 39.9414C13.4106 39.9414 11.792 40.3809 10.7666 41.2598C9.75586 42.124 9.25049 43.2666 9.25049 44.6875C9.25049 46.123 9.62402 47.2729 10.3711 48.1372C11.1328 49.0015 12.3706 49.4336 14.0845 49.4336ZM14.0845 52.5977H16.5015C18.6401 52.5977 20.2441 53.1909 21.3135 54.3774C22.3828 55.564 22.9175 57.0801 22.9175 58.9258C22.9175 60.8008 22.251 62.3242 20.918 63.4961C19.5996 64.668 17.6147 65.2539 14.9634 65.2539C13.103 65.2539 11.3672 65.0415 9.75586 64.6167C8.15918 64.1772 6.84082 63.5547 5.80078 62.749L7.05322 61.7822C8.88428 63.042 11.521 63.6719 14.9634 63.6719C17.1753 63.6719 18.7866 63.2397 19.7974 62.3755C20.8228 61.4966 21.3354 60.3467 21.3354 58.9258C21.3354 57.5049 20.9546 56.3623 20.1929 55.498C19.4312 54.6191 18.1934 54.1797 16.4795 54.1797H14.0845C11.0815 54.1797 8.73047 53.2861 7.03125 51.499C5.34668 49.6973 4.50439 47.4268 4.50439 44.6875C4.50439 41.9482 5.47852 39.6851 7.42676 37.8979C9.375 36.0962 12.1069 35.1953 15.6226 35.1953C17.9663 35.1953 20.1489 35.5176 22.1704 36.1621C24.2065 36.8066 25.8984 37.7148 27.2461 38.8867L26.0156 39.8755C24.8145 38.894 23.3057 38.1323 21.4893 37.5903C19.6729 37.0483 17.7173 36.7773 15.6226 36.7773C12.5317 36.7773 10.166 37.5171 8.52539 38.9966C6.89941 40.4761 6.08643 42.373 6.08643 44.6875C6.08643 46.9873 6.7749 48.8843 8.15186 50.3784C9.52881 51.8579 11.5063 52.5977 14.0845 52.5977ZM14.0845 55.7617H16.5015C17.6294 55.7617 18.4424 56.0547 18.9404 56.6406C19.4385 57.2266 19.6875 57.9883 19.6875 58.9258C19.6875 61.0352 18.1128 62.0898 14.9634 62.0898C11.9897 62.0898 9.75586 61.6504 8.26172 60.7715L9.53613 59.8047C10.5615 60.2734 12.3706 60.5078 14.9634 60.5078C16.2231 60.5078 17.0654 60.3687 17.4902 60.0903C17.9297 59.812 18.1494 59.4238 18.1494 58.9258C18.1494 58.4424 18.0249 58.0615 17.7759 57.7832C17.5415 57.4902 17.1021 57.3438 16.4575 57.3438H14.0845C12.063 57.3438 10.2319 57.0142 8.59131 56.355C6.96533 55.6958 5.625 54.7876 4.57031 53.6304C3.53027 52.4731 2.73193 51.1328 2.17529 49.6094C1.61865 48.0859 1.34033 46.4453 1.34033 44.6875C1.34033 43.2812 1.53809 41.9482 1.93359 40.6885C2.3291 39.4287 2.92236 38.2715 3.71338 37.2168C4.51904 36.1621 5.47852 35.2539 6.5918 34.4922C7.71973 33.7158 9.05273 33.1152 10.5908 32.6904C12.1436 32.251 13.8208 32.0312 15.6226 32.0312C18.4497 32.0312 21.0938 32.4634 23.5547 33.3276C26.0156 34.1772 28.0664 35.3711 29.707 36.9092L28.4326 37.854C26.9385 36.5063 25.0708 35.4663 22.8296 34.7339C20.5884 33.9868 18.186 33.6133 15.6226 33.6133C13.6157 33.6133 11.7993 33.9062 10.1733 34.4922C8.56201 35.0635 7.229 35.8545 6.17432 36.8652C5.13428 37.876 4.32861 39.0479 3.75732 40.3809C3.20068 41.7139 2.92236 43.1494 2.92236 44.6875C2.92236 46.7529 3.33984 48.6133 4.1748 50.2686C5.00977 51.9238 6.28418 53.2568 7.99805 54.2676C9.71191 55.2637 11.7407 55.7617 14.0845 55.7617ZM58.3813 54.0039V33.6133H59.9634V54.0039C59.9634 56.2305 59.0845 58.1348 57.3267 59.7168C55.5688 61.2988 53.4595 62.0898 50.9985 62.0898C48.5376 62.0898 46.4282 61.2988 44.6704 59.7168C42.9126 58.1348 42.0337 56.2305 42.0337 54.0039V33.6133H43.6157V54.0039C43.6157 55.791 44.3335 57.3218 45.769 58.5962C47.2192 59.8706 48.9624 60.5078 50.9985 60.5078C53.0347 60.5078 54.7705 59.8706 56.2061 58.5962C57.6562 57.3218 58.3813 55.791 58.3813 54.0039ZM61.5454 54.0039V33.6133H63.1274V54.0039C63.1274 55.5273 62.8052 56.9849 62.1606 58.3765C61.5161 59.7534 60.6519 60.9473 59.5679 61.958C58.4839 62.9688 57.1948 63.7744 55.7007 64.375C54.2065 64.9609 52.6392 65.2539 50.9985 65.2539C49.3579 65.2539 47.7905 64.9609 46.2964 64.375C44.8022 63.7744 43.5132 62.9688 42.4292 61.958C41.3452 60.9473 40.481 59.7534 39.8364 58.3765C39.1919 56.9849 38.8696 55.5273 38.8696 54.0039V33.6133H40.4517V54.0039C40.4517 55.7471 40.9204 57.3657 41.8579 58.8599C42.8101 60.3394 44.0918 61.5112 45.7031 62.3755C47.3291 63.2397 49.0942 63.6719 50.9985 63.6719C52.9028 63.6719 54.6606 63.2397 56.272 62.3755C57.8979 61.5112 59.1797 60.3394 60.1172 58.8599C61.0693 57.3657 61.5454 55.7471 61.5454 54.0039ZM64.7095 54.0039V33.6133H66.2915V54.0039C66.2915 55.9521 65.8813 57.8198 65.061 59.6069C64.2554 61.3794 63.1714 62.9102 61.8091 64.1992C60.4468 65.4883 58.8208 66.5137 56.9312 67.2754C55.0415 68.0371 53.064 68.418 50.9985 68.418C48.9331 68.418 46.9556 68.0371 45.0659 67.2754C43.1763 66.5137 41.5503 65.4883 40.188 64.1992C38.8257 62.9102 37.7344 61.3794 36.9141 59.6069C36.1084 57.8198 35.7056 55.9521 35.7056 54.0039V33.6133H37.2876V54.0039C37.2876 56.3184 37.9028 58.4644 39.1333 60.4419C40.3638 62.4048 42.0264 63.9648 44.1211 65.1221C46.2305 66.2646 48.5229 66.8359 50.9985 66.8359C53.4741 66.8359 55.7593 66.2646 57.854 65.1221C59.9634 63.9648 61.6333 62.4048 62.8638 60.4419C64.0942 58.4644 64.7095 56.3184 64.7095 54.0039ZM67.8735 54.0039V33.6133H69.4556V54.0039C69.4556 57.168 68.6279 60.105 66.9727 62.8149C65.3174 65.5103 63.0688 67.6489 60.2271 69.231C57.3999 70.7983 54.3237 71.582 50.9985 71.582C47.6733 71.582 44.5898 70.7983 41.748 69.231C38.9209 67.6489 36.6797 65.5103 35.0244 62.8149C33.3691 60.105 32.5415 57.168 32.5415 54.0039V33.6133H34.1235V54.0039C34.1235 56.1572 34.5703 58.2227 35.4639 60.2002C36.3574 62.1777 37.5586 63.8843 39.0674 65.3198C40.5762 66.7407 42.3706 67.876 44.4507 68.7256C46.5454 69.5752 48.728 70 50.9985 70C53.269 70 55.4443 69.5752 57.5244 68.7256C59.6191 67.876 61.4209 66.7407 62.9297 65.3198C64.4385 63.8843 65.6396 62.1777 66.5332 60.2002C67.4268 58.2227 67.8735 56.1572 67.8735 54.0039ZM99.6899 56.7285L101.272 53.7402V70H99.6899V56.7285ZM102.854 50.6641L104.436 47.6758V70H102.854V50.6641ZM106.018 44.6875L107.6 41.6772V70H106.018V44.6875ZM95.4053 55.9814L94.5044 54.3335L105.403 33.6133H107.183L95.4053 55.9814ZM93.5815 52.5317L92.6587 50.8618L101.799 33.6133H103.601L93.5815 52.5317ZM82.9907 53.916L84.5728 56.9043V70H82.9907V53.916ZM79.8267 47.8955L81.4087 50.8838V70H79.8267V47.8955ZM76.6626 41.875L78.2446 44.8853V70H76.6626V41.875ZM89.4507 60.5078H87.6709L75.0806 36.6235V70H73.4985V33.6133H75.2783L89.4507 60.5078ZM93.0322 60.5078H91.2305L77.0801 33.6133H78.8818L93.0322 60.5078ZM109.182 36.6235L96.5918 60.5078H94.79L80.6616 33.6133H82.4414L95.7129 58.8379L108.962 33.6133H110.764V70H109.182V36.6235ZM141.13 56.7285L142.712 53.7402V70H141.13V56.7285ZM144.294 50.6641L145.876 47.6758V70H144.294V50.6641ZM147.458 44.6875L149.041 41.6772V70H147.458V44.6875ZM136.846 55.9814L135.945 54.3335L146.843 33.6133H148.623L136.846 55.9814ZM135.022 52.5317L134.099 50.8618L143.24 33.6133H145.042L135.022 52.5317ZM124.431 53.916L126.013 56.9043V70H124.431V53.916ZM121.267 47.8955L122.849 50.8838V70H121.267V47.8955ZM118.103 41.875L119.685 44.8853V70H118.103V41.875ZM130.891 60.5078H129.111L116.521 36.6235V70H114.939V33.6133H116.719L130.891 60.5078ZM134.473 60.5078H132.671L118.521 33.6133H120.322L134.473 60.5078ZM150.623 36.6235L138.032 60.5078H136.23L122.102 33.6133H123.882L137.153 58.8379L150.403 33.6133H152.205V70H150.623V36.6235ZM165.872 33.6133H167.454V70H165.872V33.6133ZM162.708 33.6133H164.29V70H162.708V33.6133ZM159.543 33.6133H161.125V70H159.543V33.6133ZM156.379 33.6133H157.961V70H156.379V33.6133ZM170.925 35.1953V33.6133H194.656V35.1953H170.925ZM170.925 38.3594V36.7773H194.656V38.3594H170.925ZM170.925 41.5234V39.9414H194.656V41.5234H188.328V70H186.746V41.5234H185.164V70H183.582V41.5234H182V70H180.417V41.5234H178.835V70H177.253V41.5234H170.925ZM202.786 63.6719V62.0898H224.231V63.6719H202.786ZM202.786 66.8359V65.2539H224.231V66.8359H202.786ZM202.786 70V68.418H224.231V70H202.786ZM205.225 61.2109H203.379C204.404 59.8193 205.415 58.457 206.411 57.124C207.407 55.791 208.235 54.6851 208.894 53.8062C209.568 52.9126 210.22 52.041 210.85 51.1914C211.479 50.3418 211.985 49.6606 212.366 49.1479C212.761 48.6353 213.135 48.1372 213.486 47.6538C213.838 47.1704 214.102 46.7969 214.277 46.5332C214.453 46.2549 214.607 45.9912 214.739 45.7422C214.885 45.4932 214.98 45.2954 215.024 45.1489C215.068 44.9878 215.09 44.834 215.09 44.6875C215.09 44.0137 214.812 43.5815 214.255 43.3911C213.699 43.2007 212.717 43.1055 211.311 43.1055C209.026 43.1055 206.741 43.4058 204.456 44.0063L204.126 42.4902C204.492 42.3291 205.415 42.124 206.895 41.875C208.389 41.6113 209.824 41.4795 211.201 41.4795C212.036 41.4795 212.761 41.5308 213.376 41.6333C213.992 41.7212 214.548 41.8823 215.046 42.1167C215.559 42.3364 215.947 42.666 216.211 43.1055C216.475 43.5303 216.606 44.0576 216.606 44.6875C216.606 45.3174 216.284 46.123 215.64 47.1045C214.995 48.0859 213.34 50.3564 210.674 53.916C208.506 56.8018 206.689 59.2334 205.225 61.2109ZM208.806 61.2109H206.96C212.424 53.8574 215.457 49.7485 216.057 48.8843C217.288 47.1265 217.976 45.874 218.123 45.127C218.167 44.9219 218.188 44.7021 218.188 44.4678C218.188 41.4355 215.889 39.9194 211.289 39.9194C209.883 39.9194 208.455 40.0439 207.004 40.293C205.554 40.542 204.492 40.791 203.818 41.04L203.511 39.5239C206.016 38.7476 208.616 38.3594 211.311 38.3594C212.249 38.3594 213.113 38.4253 213.904 38.5571C214.709 38.6743 215.479 38.8794 216.211 39.1724C216.943 39.4653 217.566 39.8462 218.079 40.3149C218.591 40.769 218.994 41.3477 219.287 42.0508C219.595 42.7539 219.749 43.5596 219.749 44.4678C219.749 45.4053 219.287 46.5845 218.364 48.0054C217.441 49.4263 214.68 53.2495 210.081 59.4751C209.524 60.2222 209.099 60.8008 208.806 61.2109ZM212.476 61.2109H210.63C215.625 54.3848 218.657 50.1367 219.727 48.4668C220.796 46.7822 221.331 45.376 221.331 44.248C221.331 42.8711 221.06 41.6846 220.518 40.6885C219.99 39.6924 219.243 38.916 218.276 38.3594C217.324 37.8027 216.27 37.3999 215.112 37.1509C213.97 36.9019 212.695 36.7773 211.289 36.7773C208.579 36.7773 205.876 37.1875 203.181 38.0078L202.852 36.4038C205.737 35.5542 208.528 35.1294 211.223 35.1294C212.542 35.1294 213.765 35.2246 214.893 35.415C216.021 35.6055 217.083 35.9277 218.079 36.3818C219.089 36.8213 219.939 37.3853 220.627 38.0737C221.331 38.7622 221.887 39.6338 222.297 40.6885C222.708 41.7285 222.913 42.915 222.913 44.248C222.913 45.2002 222.686 46.1743 222.231 47.1704C221.792 48.1519 220.869 49.6533 219.463 51.6748C218.071 53.6963 215.742 56.875 212.476 61.2109ZM216.277 61.2109H214.431C217.522 57.124 219.756 54.0552 221.133 52.0044C222.524 49.939 223.433 48.3789 223.857 47.3242C224.282 46.2549 224.495 45.1562 224.495 44.0283C224.495 42.5928 224.275 41.2964 223.835 40.1392C223.411 38.9673 222.803 37.9858 222.012 37.1948C221.235 36.3892 220.298 35.7153 219.199 35.1733C218.101 34.6313 216.892 34.2358 215.574 33.9868C214.27 33.7378 212.856 33.6133 211.333 33.6133C208.521 33.6133 205.591 34.0527 202.544 34.9316L202.214 33.3716C205.305 32.478 208.33 32.0312 211.289 32.0312C213.486 32.0312 215.471 32.2729 217.244 32.7563C219.031 33.2251 220.583 33.9355 221.902 34.8877C223.235 35.8398 224.26 37.0923 224.978 38.645C225.71 40.1978 226.077 41.9922 226.077 44.0283C226.077 45.3174 225.864 46.5332 225.439 47.6758C225.029 48.8184 224.121 50.437 222.715 52.5317C221.323 54.6265 219.177 57.5195 216.277 61.2109ZM231.042 62.1338C229.519 59.1162 228.757 55.6738 228.757 51.8066C228.757 47.9395 229.519 44.4971 231.042 41.4795C232.566 38.4619 234.661 36.1328 237.327 34.4922C239.993 32.8516 242.996 32.0312 246.335 32.0312C249.675 32.0312 252.678 32.8516 255.344 34.4922C258.01 36.1328 260.105 38.4619 261.628 41.4795C263.152 44.4971 263.914 47.9395 263.914 51.8066C263.914 55.6738 263.152 59.1162 261.628 62.1338C260.105 65.1514 258.01 67.4805 255.344 69.1211C252.678 70.7617 249.675 71.582 246.335 71.582C242.996 71.582 239.993 70.7617 237.327 69.1211C234.661 67.4805 232.566 65.1514 231.042 62.1338ZM252.224 44.248C253.689 46.0498 254.421 48.5693 254.421 51.8066C254.421 55.0439 253.689 57.5708 252.224 59.3872C250.774 61.189 248.811 62.0898 246.335 62.0898C243.86 62.0898 241.89 61.189 240.425 59.3872C238.975 57.5708 238.25 55.0439 238.25 51.8066C238.25 48.5693 238.975 46.0498 240.425 44.248C241.89 42.4316 243.86 41.5234 246.335 41.5234C248.811 41.5234 250.774 42.4316 252.224 44.248ZM254.465 42.0068C256.545 44.4385 257.585 47.7051 257.585 51.8066C257.585 55.9082 256.545 59.1748 254.465 61.6064C252.4 64.0381 249.69 65.2539 246.335 65.2539C242.981 65.2539 240.264 64.0381 238.184 61.6064C236.118 59.1748 235.085 55.9082 235.085 51.8066C235.085 47.7051 236.118 44.4385 238.184 42.0068C240.264 39.5752 242.981 38.3594 246.335 38.3594C249.69 38.3594 252.4 39.5752 254.465 42.0068ZM258.882 43.0835C260.127 45.603 260.75 48.5107 260.75 51.8066C260.75 55.1025 260.127 58.0176 258.882 60.5518C257.651 63.0713 255.945 65.0122 253.762 66.3745C251.58 67.7368 249.104 68.418 246.335 68.418C243.567 68.418 241.091 67.7368 238.909 66.3745C236.726 65.0122 235.012 63.0713 233.767 60.5518C232.537 58.0176 231.921 55.1025 231.921 51.8066C231.921 48.5107 232.537 45.603 233.767 43.0835C235.012 40.5493 236.726 38.6011 238.909 37.2388C241.091 35.8765 243.567 35.1953 246.335 35.1953C249.104 35.1953 251.58 35.8765 253.762 37.2388C255.945 38.6011 257.651 40.5493 258.882 43.0835ZM241.545 45.3467C240.403 46.8408 239.832 48.9941 239.832 51.8066C239.832 54.6191 240.403 56.7725 241.545 58.2666C242.703 59.7607 244.299 60.5078 246.335 60.5078C248.372 60.5078 249.961 59.7607 251.104 58.2666C252.261 56.7725 252.839 54.6191 252.839 51.8066C252.839 48.9941 252.261 46.8408 251.104 45.3467C249.961 43.8525 248.372 43.1055 246.335 43.1055C244.299 43.1055 242.703 43.8525 241.545 45.3467ZM239.304 43.1274C237.546 45.2368 236.667 48.1299 236.667 51.8066C236.667 55.4834 237.546 58.3838 239.304 60.5078C241.077 62.6172 243.42 63.6719 246.335 63.6719C249.25 63.6719 251.587 62.6172 253.345 60.5078C255.117 58.3838 256.003 55.4834 256.003 51.8066C256.003 48.1299 255.117 45.2368 253.345 43.1274C251.587 41.0034 249.25 39.9414 246.335 39.9414C243.42 39.9414 241.077 41.0034 239.304 43.1274ZM237.063 40.8862C234.69 43.6255 233.503 47.2656 233.503 51.8066C233.503 56.3477 234.69 59.9878 237.063 62.7271C239.451 65.4663 242.542 66.8359 246.335 66.8359C250.129 66.8359 253.213 65.4663 255.586 62.7271C257.974 59.9878 259.167 56.3477 259.167 51.8066C259.167 47.2656 257.974 43.6255 255.586 40.8862C253.213 38.147 250.129 36.7773 246.335 36.7773C242.542 36.7773 239.451 38.147 237.063 40.8862ZM231.548 44.3799C230.742 46.6504 230.339 49.126 230.339 51.8066C230.339 54.4873 230.742 56.9702 231.548 59.2554C232.354 61.5259 233.459 63.4448 234.866 65.0122C236.287 66.5796 237.979 67.8027 239.941 68.6816C241.919 69.5605 244.05 70 246.335 70C248.621 70 250.745 69.5605 252.708 68.6816C254.685 67.8027 256.377 66.5796 257.783 65.0122C259.204 63.4448 260.317 61.5259 261.123 59.2554C261.929 56.9702 262.332 54.4873 262.332 51.8066C262.332 49.126 261.929 46.6504 261.123 44.3799C260.317 42.0947 259.204 40.1685 257.783 38.6011C256.377 37.0337 254.685 35.8105 252.708 34.9316C250.745 34.0527 248.621 33.6133 246.335 33.6133C244.05 33.6133 241.919 34.0527 239.941 34.9316C237.979 35.8105 236.287 37.0337 234.866 38.6011C233.459 40.1685 232.354 42.0947 231.548 44.3799ZM266.99 63.6719V62.0898H288.435V63.6719H266.99ZM266.99 66.8359V65.2539H288.435V66.8359H266.99ZM266.99 70V68.418H288.435V70H266.99ZM269.429 61.2109H267.583C268.608 59.8193 269.619 58.457 270.615 57.124C271.611 55.791 272.439 54.6851 273.098 53.8062C273.772 52.9126 274.424 52.041 275.054 51.1914C275.684 50.3418 276.189 49.6606 276.57 49.1479C276.965 48.6353 277.339 48.1372 277.69 47.6538C278.042 47.1704 278.306 46.7969 278.481 46.5332C278.657 46.2549 278.811 45.9912 278.943 45.7422C279.089 45.4932 279.185 45.2954 279.229 45.1489C279.272 44.9878 279.294 44.834 279.294 44.6875C279.294 44.0137 279.016 43.5815 278.459 43.3911C277.903 43.2007 276.921 43.1055 275.515 43.1055C273.23 43.1055 270.945 43.4058 268.66 44.0063L268.33 42.4902C268.696 42.3291 269.619 42.124 271.099 41.875C272.593 41.6113 274.028 41.4795 275.405 41.4795C276.24 41.4795 276.965 41.5308 277.581 41.6333C278.196 41.7212 278.752 41.8823 279.25 42.1167C279.763 42.3364 280.151 42.666 280.415 43.1055C280.679 43.5303 280.811 44.0576 280.811 44.6875C280.811 45.3174 280.488 46.123 279.844 47.1045C279.199 48.0859 277.544 50.3564 274.878 53.916C272.71 56.8018 270.894 59.2334 269.429 61.2109ZM273.01 61.2109H271.165C276.628 53.8574 279.661 49.7485 280.261 48.8843C281.492 47.1265 282.18 45.874 282.327 45.127C282.371 44.9219 282.393 44.7021 282.393 44.4678C282.393 41.4355 280.093 39.9194 275.493 39.9194C274.087 39.9194 272.659 40.0439 271.208 40.293C269.758 40.542 268.696 40.791 268.022 41.04L267.715 39.5239C270.22 38.7476 272.82 38.3594 275.515 38.3594C276.453 38.3594 277.317 38.4253 278.108 38.5571C278.914 38.6743 279.683 38.8794 280.415 39.1724C281.147 39.4653 281.77 39.8462 282.283 40.3149C282.795 40.769 283.198 41.3477 283.491 42.0508C283.799 42.7539 283.953 43.5596 283.953 44.4678C283.953 45.4053 283.491 46.5845 282.568 48.0054C281.646 49.4263 278.884 53.2495 274.285 59.4751C273.728 60.2222 273.303 60.8008 273.01 61.2109ZM276.68 61.2109H274.834C279.829 54.3848 282.861 50.1367 283.931 48.4668C285 46.7822 285.535 45.376 285.535 44.248C285.535 42.8711 285.264 41.6846 284.722 40.6885C284.194 39.6924 283.447 38.916 282.48 38.3594C281.528 37.8027 280.474 37.3999 279.316 37.1509C278.174 36.9019 276.899 36.7773 275.493 36.7773C272.783 36.7773 270.081 37.1875 267.385 38.0078L267.056 36.4038C269.941 35.5542 272.732 35.1294 275.427 35.1294C276.746 35.1294 277.969 35.2246 279.097 35.415C280.225 35.6055 281.287 35.9277 282.283 36.3818C283.293 36.8213 284.143 37.3853 284.832 38.0737C285.535 38.7622 286.091 39.6338 286.501 40.6885C286.912 41.7285 287.117 42.915 287.117 44.248C287.117 45.2002 286.89 46.1743 286.436 47.1704C285.996 48.1519 285.073 49.6533 283.667 51.6748C282.275 53.6963 279.946 56.875 276.68 61.2109ZM280.481 61.2109H278.635C281.726 57.124 283.96 54.0552 285.337 52.0044C286.729 49.939 287.637 48.3789 288.062 47.3242C288.486 46.2549 288.699 45.1562 288.699 44.0283C288.699 42.5928 288.479 41.2964 288.04 40.1392C287.615 38.9673 287.007 37.9858 286.216 37.1948C285.439 36.3892 284.502 35.7153 283.403 35.1733C282.305 34.6313 281.096 34.2358 279.778 33.9868C278.474 33.7378 277.061 33.6133 275.537 33.6133C272.725 33.6133 269.795 34.0527 266.748 34.9316L266.418 33.3716C269.509 32.478 272.534 32.0312 275.493 32.0312C277.69 32.0312 279.675 32.2729 281.448 32.7563C283.235 33.2251 284.788 33.9355 286.106 34.8877C287.439 35.8398 288.464 37.0923 289.182 38.645C289.915 40.1978 290.281 41.9922 290.281 44.0283C290.281 45.3174 290.068 46.5332 289.644 47.6758C289.233 48.8184 288.325 50.437 286.919 52.5317C285.527 54.6265 283.381 57.5195 280.481 61.2109ZM293.225 63.6719V62.0898H314.67V63.6719H293.225ZM293.225 66.8359V65.2539H314.67V66.8359H293.225ZM293.225 70V68.418H314.67V70H293.225ZM295.664 61.2109H293.818C294.844 59.8193 295.854 58.457 296.851 57.124C297.847 55.791 298.674 54.6851 299.333 53.8062C300.007 52.9126 300.659 52.041 301.289 51.1914C301.919 50.3418 302.424 49.6606 302.805 49.1479C303.201 48.6353 303.574 48.1372 303.926 47.6538C304.277 47.1704 304.541 46.7969 304.717 46.5332C304.893 46.2549 305.046 45.9912 305.178 45.7422C305.325 45.4932 305.42 45.2954 305.464 45.1489C305.508 44.9878 305.53 44.834 305.53 44.6875C305.53 44.0137 305.251 43.5815 304.695 43.3911C304.138 43.2007 303.157 43.1055 301.75 43.1055C299.465 43.1055 297.18 43.4058 294.895 44.0063L294.565 42.4902C294.932 42.3291 295.854 42.124 297.334 41.875C298.828 41.6113 300.264 41.4795 301.641 41.4795C302.476 41.4795 303.201 41.5308 303.816 41.6333C304.431 41.7212 304.988 41.8823 305.486 42.1167C305.999 42.3364 306.387 42.666 306.65 43.1055C306.914 43.5303 307.046 44.0576 307.046 44.6875C307.046 45.3174 306.724 46.123 306.079 47.1045C305.435 48.0859 303.779 50.3564 301.113 53.916C298.945 56.8018 297.129 59.2334 295.664 61.2109ZM299.246 61.2109H297.4C302.864 53.8574 305.896 49.7485 306.497 48.8843C307.727 47.1265 308.416 45.874 308.562 45.127C308.606 44.9219 308.628 44.7021 308.628 44.4678C308.628 41.4355 306.328 39.9194 301.729 39.9194C300.322 39.9194 298.894 40.0439 297.444 40.293C295.994 40.542 294.932 40.791 294.258 41.04L293.95 39.5239C296.455 38.7476 299.055 38.3594 301.75 38.3594C302.688 38.3594 303.552 38.4253 304.343 38.5571C305.149 38.6743 305.918 38.8794 306.65 39.1724C307.383 39.4653 308.005 39.8462 308.518 40.3149C309.031 40.769 309.434 41.3477 309.727 42.0508C310.034 42.7539 310.188 43.5596 310.188 44.4678C310.188 45.4053 309.727 46.5845 308.804 48.0054C307.881 49.4263 305.12 53.2495 300.52 59.4751C299.963 60.2222 299.539 60.8008 299.246 61.2109ZM302.915 61.2109H301.069C306.064 54.3848 309.097 50.1367 310.166 48.4668C311.235 46.7822 311.77 45.376 311.77 44.248C311.77 42.8711 311.499 41.6846 310.957 40.6885C310.43 39.6924 309.683 38.916 308.716 38.3594C307.764 37.8027 306.709 37.3999 305.552 37.1509C304.409 36.9019 303.135 36.7773 301.729 36.7773C299.019 36.7773 296.316 37.1875 293.621 38.0078L293.291 36.4038C296.177 35.5542 298.967 35.1294 301.663 35.1294C302.981 35.1294 304.204 35.2246 305.332 35.415C306.46 35.6055 307.522 35.9277 308.518 36.3818C309.529 36.8213 310.378 37.3853 311.067 38.0737C311.77 38.7622 312.327 39.6338 312.737 40.6885C313.147 41.7285 313.352 42.915 313.352 44.248C313.352 45.2002 313.125 46.1743 312.671 47.1704C312.231 48.1519 311.309 49.6533 309.902 51.6748C308.511 53.6963 306.182 56.875 302.915 61.2109ZM306.716 61.2109H304.871C307.961 57.124 310.195 54.0552 311.572 52.0044C312.964 49.939 313.872 48.3789 314.297 47.3242C314.722 46.2549 314.934 45.1562 314.934 44.0283C314.934 42.5928 314.714 41.2964 314.275 40.1392C313.85 38.9673 313.242 37.9858 312.451 37.1948C311.675 36.3892 310.737 35.7153 309.639 35.1733C308.54 34.6313 307.332 34.2358 306.013 33.9868C304.709 33.7378 303.296 33.6133 301.772 33.6133C298.96 33.6133 296.03 34.0527 292.983 34.9316L292.654 33.3716C295.745 32.478 298.77 32.0312 301.729 32.0312C303.926 32.0312 305.911 32.2729 307.683 32.7563C309.47 33.2251 311.023 33.9355 312.341 34.8877C313.674 35.8398 314.7 37.0923 315.417 38.645C316.15 40.1978 316.516 41.9922 316.516 44.0283C316.516 45.3174 316.304 46.5332 315.879 47.6758C315.469 48.8184 314.561 50.437 313.154 52.5317C311.763 54.6265 309.617 57.5195 306.716 61.2109Z" fill="white"/>
<path d="M11.472 4.744C10.88 4.44 10.232 4.176 9.528 3.952C8.824 3.728 8.136 3.616 7.464 3.616C6.536 3.616 5.792 3.832 5.232 4.264C4.688 4.696 4.416 5.272 4.416 5.992C4.416 6.536 4.592 7 4.944 7.384C5.296 7.752 5.76 8.072 6.336 8.344C6.912 8.616 7.512 8.872 8.136 9.112C8.68 9.32 9.216 9.552 9.744 9.808C10.272 10.064 10.744 10.384 11.16 10.768C11.592 11.152 11.928 11.624 12.168 12.184C12.424 12.744 12.552 13.44 12.552 14.272C12.552 15.184 12.32 16.016 11.856 16.768C11.408 17.52 10.76 18.112 9.912 18.544C9.064 18.976 8.056 19.192 6.888 19.192C6.12 19.192 5.384 19.104 4.68 18.928C3.992 18.752 3.352 18.528 2.76 18.256C2.168 17.968 1.64 17.672 1.176 17.368L2.208 15.544C2.592 15.816 3.032 16.08 3.528 16.336C4.024 16.576 4.544 16.776 5.088 16.936C5.632 17.08 6.16 17.152 6.672 17.152C7.216 17.152 7.752 17.056 8.28 16.864C8.824 16.656 9.272 16.344 9.624 15.928C9.976 15.512 10.152 14.96 10.152 14.272C10.152 13.68 9.992 13.192 9.672 12.808C9.368 12.408 8.96 12.072 8.448 11.8C7.936 11.512 7.392 11.256 6.816 11.032C6.272 10.824 5.72 10.6 5.16 10.36C4.6 10.104 4.08 9.8 3.6 9.448C3.12 9.08 2.736 8.632 2.448 8.104C2.16 7.576 2.016 6.936 2.016 6.184C2.016 5.272 2.232 4.48 2.664 3.808C3.112 3.12 3.72 2.584 4.488 2.2C5.256 1.8 6.136 1.584 7.128 1.552C8.248 1.552 9.232 1.688 10.08 1.96C10.944 2.232 11.704 2.568 12.36 2.968L11.472 4.744ZM18.3368 19L25.9208 0.927999H26.0648L33.6248 19H30.9608L25.2968 4.576L26.9528 3.496L20.6168 19H18.3368ZM22.7768 12.424H29.2328L30.0008 14.44H22.1048L22.7768 12.424ZM45.1249 1.648C46.3889 1.648 47.4689 1.864 48.3649 2.296C49.2609 2.712 49.9489 3.32 50.4289 4.12C50.9249 4.92 51.1729 5.888 51.1729 7.024C51.1729 7.712 51.0689 8.392 50.8609 9.064C50.6529 9.72 50.3169 10.32 49.8529 10.864C49.4049 11.392 48.8129 11.816 48.0769 12.136C47.3409 12.456 46.4449 12.616 45.3889 12.616H42.8209V19H40.4929V1.648H45.1249ZM45.3649 10.384C46.0529 10.384 46.6209 10.272 47.0689 10.048C47.5169 9.824 47.8689 9.544 48.1249 9.208C48.3809 8.856 48.5649 8.488 48.6769 8.104C48.7889 7.72 48.8449 7.376 48.8449 7.072C48.8449 6.72 48.7889 6.36 48.6769 5.992C48.5649 5.608 48.3729 5.264 48.1009 4.96C47.8449 4.64 47.5009 4.384 47.0689 4.192C46.6529 3.984 46.1329 3.88 45.5089 3.88H42.8209V10.384H45.3649ZM58.3663 1.648H60.6943V19H58.3663V1.648ZM73.8868 1.648C74.7668 1.648 75.5748 1.768 76.3108 2.008C77.0628 2.232 77.7108 2.576 78.2548 3.04C78.8148 3.488 79.2468 4.048 79.5508 4.72C79.8708 5.376 80.0308 6.144 80.0308 7.024C80.0308 7.712 79.9268 8.384 79.7188 9.04C79.5268 9.696 79.1988 10.296 78.7348 10.84C78.2708 11.368 77.6628 11.8 76.9108 12.136C76.1748 12.456 75.2628 12.616 74.1748 12.616H71.6068V19H69.2788V1.648H73.8868ZM74.1268 10.384C74.8148 10.384 75.3828 10.28 75.8308 10.072C76.2948 9.864 76.6548 9.6 76.9108 9.28C77.1668 8.944 77.3508 8.584 77.4628 8.2C77.5748 7.816 77.6308 7.456 77.6308 7.12C77.6308 6.768 77.5668 6.408 77.4388 6.04C77.3268 5.656 77.1348 5.304 76.8628 4.984C76.6068 4.664 76.2628 4.4 75.8308 4.192C75.4148 3.984 74.9028 3.88 74.2948 3.88H71.6068V10.384H74.1268ZM76.9828 11.704L81.5188 19H78.8308L74.2228 11.776L76.9828 11.704ZM86.9711 19L94.5551 0.927999H94.6991L102.259 19H99.5951L93.9311 4.576L95.5871 3.496L89.2511 19H86.9711ZM91.4111 12.424H97.8671L98.6351 14.44H90.7391L91.4111 12.424ZM124.151 19.552L110.735 5.944L111.407 6.112L111.455 19H109.127V1.12H109.247L122.519 14.776L121.967 14.656L121.919 1.648H124.223V19.552H124.151ZM146.397 17.512C146.157 17.72 145.821 17.928 145.389 18.136C144.957 18.328 144.477 18.504 143.949 18.664C143.437 18.824 142.901 18.952 142.341 19.048C141.797 19.144 141.285 19.192 140.805 19.192C139.413 19.192 138.157 18.976 137.037 18.544C135.933 18.112 134.981 17.512 134.181 16.744C133.397 15.976 132.789 15.072 132.357 14.032C131.941 12.992 131.733 11.864 131.733 10.648C131.733 9.208 131.965 7.92 132.429 6.784C132.909 5.632 133.557 4.664 134.373 3.88C135.205 3.08 136.157 2.48 137.229 2.08C138.301 1.664 139.437 1.456 140.637 1.456C141.645 1.456 142.581 1.576 143.445 1.816C144.309 2.056 145.069 2.36 145.725 2.728L144.933 4.864C144.613 4.672 144.213 4.496 143.733 4.336C143.269 4.176 142.789 4.048 142.293 3.952C141.797 3.84 141.333 3.784 140.901 3.784C139.877 3.784 138.949 3.944 138.117 4.264C137.285 4.568 136.573 5.016 135.981 5.608C135.389 6.184 134.933 6.888 134.613 7.72C134.293 8.536 134.133 9.456 134.133 10.48C134.133 11.424 134.293 12.288 134.613 13.072C134.933 13.856 135.389 14.536 135.981 15.112C136.573 15.672 137.277 16.112 138.093 16.432C138.925 16.736 139.837 16.888 140.829 16.888C141.421 16.888 142.005 16.832 142.581 16.72C143.157 16.592 143.653 16.416 144.069 16.192V12.736H140.613V10.504H146.397V17.512ZM152.709 19L160.293 0.927999H160.437L167.997 19H165.333L159.669 4.576L161.325 3.496L154.989 19H152.709ZM157.149 12.424H163.605L164.373 14.44H156.477L157.149 12.424Z" fill="white"/>
<path d="M7.3 88.23L1.71 82.56L1.99 82.63L2.01 88H1.04V80.55H1.09L6.62 86.24L6.39 86.19L6.37 80.77H7.33V88.23H7.3ZM10.3091 80.77H15.0091V81.7H11.2791V83.9H14.6091V84.83H11.2791V87.07H15.1491V88H10.3091V80.77ZM17.1026 80.81H18.2226L20.1826 86.33L20.0126 86.26L21.4426 82.56L21.8926 83.87L19.9826 88.33L17.1026 80.81ZM20.5726 80.81H21.5426L23.6626 86.25L23.4626 86.21L25.3326 80.81H26.3626L23.5226 88.32L20.5726 80.81ZM32.7748 80.77H37.0648V81.7H33.7448V84.01H36.6548V84.93H33.7448V88H32.7748V80.77ZM39.5634 80.77H40.5334V87.07H44.2034V88H39.5634V80.77ZM46.6841 80.77H47.6541V88H46.6841V80.77ZM56.291 87.38C56.191 87.4667 56.051 87.5533 55.871 87.64C55.691 87.72 55.491 87.7933 55.271 87.86C55.0577 87.9267 54.8343 87.98 54.601 88.02C54.3743 88.06 54.161 88.08 53.961 88.08C53.381 88.08 52.8577 87.99 52.391 87.81C51.931 87.63 51.5343 87.38 51.201 87.06C50.8743 86.74 50.621 86.3633 50.441 85.93C50.2677 85.4967 50.181 85.0267 50.181 84.52C50.181 83.92 50.2777 83.3833 50.471 82.91C50.671 82.43 50.941 82.0267 51.281 81.7C51.6277 81.3667 52.0243 81.1167 52.471 80.95C52.9177 80.7767 53.391 80.69 53.891 80.69C54.311 80.69 54.701 80.74 55.061 80.84C55.421 80.94 55.7377 81.0667 56.011 81.22L55.681 82.11C55.5477 82.03 55.381 81.9567 55.181 81.89C54.9877 81.8233 54.7877 81.77 54.581 81.73C54.3743 81.6833 54.181 81.66 54.001 81.66C53.5743 81.66 53.1877 81.7267 52.841 81.86C52.4943 81.9867 52.1977 82.1733 51.951 82.42C51.7043 82.66 51.5143 82.9533 51.381 83.3C51.2477 83.64 51.181 84.0233 51.181 84.45C51.181 84.8433 51.2477 85.2033 51.381 85.53C51.5143 85.8567 51.7043 86.14 51.951 86.38C52.1977 86.6133 52.491 86.7967 52.831 86.93C53.1777 87.0567 53.5577 87.12 53.971 87.12C54.2177 87.12 54.461 87.0967 54.701 87.05C54.941 86.9967 55.1477 86.9233 55.321 86.83V85.39H53.881V84.46H56.291V87.38ZM64.7608 80.77V88H63.8008V84.83H60.0108V88H59.0408V80.77H60.0108V83.91H63.8008V80.77H64.7608ZM67.2135 80.77H72.0135V81.7H70.0735V88H69.1035V81.7H67.2135V80.77ZM78.1941 82.06C77.9474 81.9333 77.6774 81.8233 77.3841 81.73C77.0907 81.6367 76.8041 81.59 76.5241 81.59C76.1374 81.59 75.8274 81.68 75.5941 81.86C75.3674 82.04 75.2541 82.28 75.2541 82.58C75.2541 82.8067 75.3274 83 75.4741 83.16C75.6207 83.3133 75.8141 83.4467 76.0541 83.56C76.2941 83.6733 76.5441 83.78 76.8041 83.88C77.0307 83.9667 77.2541 84.0633 77.4741 84.17C77.6941 84.2767 77.8907 84.41 78.0641 84.57C78.2441 84.73 78.3841 84.9267 78.4841 85.16C78.5907 85.3933 78.6441 85.6833 78.6441 86.03C78.6441 86.41 78.5474 86.7567 78.3541 87.07C78.1674 87.3833 77.8974 87.63 77.5441 87.81C77.1907 87.99 76.7707 88.08 76.2841 88.08C75.9641 88.08 75.6574 88.0433 75.3641 87.97C75.0774 87.8967 74.8107 87.8033 74.5641 87.69C74.3174 87.57 74.0974 87.4467 73.9041 87.32L74.3341 86.56C74.4941 86.6733 74.6774 86.7833 74.8841 86.89C75.0907 86.99 75.3074 87.0733 75.5341 87.14C75.7607 87.2 75.9807 87.23 76.1941 87.23C76.4207 87.23 76.6441 87.19 76.8641 87.11C77.0907 87.0233 77.2774 86.8933 77.4241 86.72C77.5707 86.5467 77.6441 86.3167 77.6441 86.03C77.6441 85.7833 77.5774 85.58 77.4441 85.42C77.3174 85.2533 77.1474 85.1133 76.9341 85C76.7207 84.88 76.4941 84.7733 76.2541 84.68C76.0274 84.5933 75.7974 84.5 75.5641 84.4C75.3307 84.2933 75.1141 84.1667 74.9141 84.02C74.7141 83.8667 74.5541 83.68 74.4341 83.46C74.3141 83.24 74.2541 82.9733 74.2541 82.66C74.2541 82.28 74.3441 81.95 74.5241 81.67C74.7107 81.3833 74.9641 81.16 75.2841 81C75.6041 80.8333 75.9707 80.7433 76.3841 80.73C76.8507 80.73 77.2607 80.7867 77.6141 80.9C77.9741 81.0133 78.2907 81.1533 78.5641 81.32L78.1941 82.06ZM81.7844 87.13C81.6377 87.4767 81.491 87.82 81.3444 88.16C81.2044 88.5067 81.061 88.8567 80.9144 89.21H80.1644C80.2977 88.8567 80.4277 88.5067 80.5544 88.16C80.681 87.82 80.811 87.4767 80.9444 87.13H81.7844ZM94.4297 88.23L88.8397 82.56L89.1197 82.63L89.1397 88H88.1697V80.55H88.2197L93.7497 86.24L93.5197 86.19L93.4997 80.77H94.4597V88.23H94.4297ZM97.4388 80.77H102.139V81.7H98.4088V83.9H101.739V84.83H98.4088V87.07H102.279V88H97.4388V80.77ZM104.232 80.81H105.352L107.312 86.33L107.142 86.26L108.572 82.56L109.022 83.87L107.112 88.33L104.232 80.81ZM107.702 80.81H108.672L110.792 86.25L110.592 86.21L112.462 80.81H113.492L110.652 88.32L107.702 80.81ZM119.904 80.77H120.874V88H119.904V80.77ZM123.851 88V80.77H125.821C126.535 80.77 127.141 80.88 127.641 81.1C128.148 81.32 128.555 81.61 128.861 81.97C129.168 82.33 129.391 82.73 129.531 83.17C129.678 83.6033 129.751 84.0367 129.751 84.47C129.751 85.0167 129.655 85.5067 129.461 85.94C129.275 86.3733 129.015 86.7433 128.681 87.05C128.348 87.3567 127.965 87.5933 127.531 87.76C127.105 87.92 126.651 88 126.171 88H123.851ZM124.821 87.07H125.981C126.381 87.07 126.748 87.01 127.081 86.89C127.421 86.77 127.715 86.5967 127.961 86.37C128.215 86.1433 128.411 85.8667 128.551 85.54C128.691 85.2067 128.761 84.83 128.761 84.41C128.761 83.9633 128.688 83.5733 128.541 83.24C128.395 82.9 128.195 82.6167 127.941 82.39C127.688 82.1633 127.401 81.9933 127.081 81.88C126.761 81.76 126.425 81.7 126.071 81.7H124.821V87.07ZM132.281 80.77H136.981V81.7H133.251V83.9H136.581V84.83H133.251V87.07H137.121V88H132.281V80.77ZM138.984 88L142.144 80.47H142.204L145.354 88H144.244L141.884 81.99L142.574 81.54L139.934 88H138.984ZM140.834 85.26H143.524L143.844 86.1H140.554L140.834 85.26ZM151.356 82.06C151.109 81.9333 150.839 81.8233 150.546 81.73C150.252 81.6367 149.966 81.59 149.686 81.59C149.299 81.59 148.989 81.68 148.756 81.86C148.529 82.04 148.416 82.28 148.416 82.58C148.416 82.8067 148.489 83 148.636 83.16C148.782 83.3133 148.976 83.4467 149.216 83.56C149.456 83.6733 149.706 83.78 149.966 83.88C150.192 83.9667 150.416 84.0633 150.636 84.17C150.856 84.2767 151.052 84.41 151.226 84.57C151.406 84.73 151.546 84.9267 151.646 85.16C151.752 85.3933 151.806 85.6833 151.806 86.03C151.806 86.41 151.709 86.7567 151.516 87.07C151.329 87.3833 151.059 87.63 150.706 87.81C150.352 87.99 149.932 88.08 149.446 88.08C149.126 88.08 148.819 88.0433 148.526 87.97C148.239 87.8967 147.972 87.8033 147.726 87.69C147.479 87.57 147.259 87.4467 147.066 87.32L147.496 86.56C147.656 86.6733 147.839 86.7833 148.046 86.89C148.252 86.99 148.469 87.0733 148.696 87.14C148.922 87.2 149.142 87.23 149.356 87.23C149.582 87.23 149.806 87.19 150.026 87.11C150.252 87.0233 150.439 86.8933 150.586 86.72C150.732 86.5467 150.806 86.3167 150.806 86.03C150.806 85.7833 150.739 85.58 150.606 85.42C150.479 85.2533 150.309 85.1133 150.096 85C149.882 84.88 149.656 84.7733 149.416 84.68C149.189 84.5933 148.959 84.5 148.726 84.4C148.492 84.2933 148.276 84.1667 148.076 84.02C147.876 83.8667 147.716 83.68 147.596 83.46C147.476 83.24 147.416 82.9733 147.416 82.66C147.416 82.28 147.506 81.95 147.686 81.67C147.872 81.3833 148.126 81.16 148.446 81C148.766 80.8333 149.132 80.7433 149.546 80.73C150.012 80.73 150.422 80.7867 150.776 80.9C151.136 81.0133 151.452 81.1533 151.726 81.32L151.356 82.06ZM158.4 80.77H162.69V81.7H159.37V84.01H162.28V84.93H159.37V88H158.4V80.77ZM164.592 84.39C164.592 83.89 164.686 83.42 164.872 82.98C165.066 82.5333 165.332 82.14 165.672 81.8C166.012 81.4533 166.402 81.1833 166.842 80.99C167.289 80.79 167.769 80.69 168.282 80.69C168.789 80.69 169.262 80.79 169.702 80.99C170.149 81.1833 170.542 81.4533 170.882 81.8C171.229 82.14 171.499 82.5333 171.692 82.98C171.886 83.42 171.982 83.89 171.982 84.39C171.982 84.9033 171.886 85.3833 171.692 85.83C171.499 86.2767 171.229 86.67 170.882 87.01C170.542 87.3433 170.149 87.6067 169.702 87.8C169.262 87.9867 168.789 88.08 168.282 88.08C167.769 88.08 167.289 87.9867 166.842 87.8C166.402 87.6133 166.012 87.3533 165.672 87.02C165.332 86.6867 165.066 86.2967 164.872 85.85C164.686 85.4033 164.592 84.9167 164.592 84.39ZM165.592 84.4C165.592 84.78 165.662 85.1367 165.802 85.47C165.942 85.7967 166.136 86.0867 166.382 86.34C166.629 86.5933 166.916 86.7933 167.242 86.94C167.569 87.08 167.922 87.15 168.302 87.15C168.676 87.15 169.026 87.08 169.352 86.94C169.679 86.7933 169.962 86.5933 170.202 86.34C170.442 86.0867 170.632 85.7967 170.772 85.47C170.912 85.1367 170.982 84.7767 170.982 84.39C170.982 84.01 170.912 83.6533 170.772 83.32C170.632 82.98 170.439 82.6833 170.192 82.43C169.946 82.1767 169.659 81.98 169.332 81.84C169.006 81.6933 168.656 81.62 168.282 81.62C167.902 81.62 167.549 81.6933 167.222 81.84C166.896 81.9867 166.609 82.1867 166.362 82.44C166.116 82.6933 165.926 82.99 165.792 83.33C165.659 83.6633 165.592 84.02 165.592 84.4ZM176.437 80.77C176.803 80.77 177.14 80.82 177.447 80.92C177.76 81.0133 178.03 81.1567 178.257 81.35C178.49 81.5367 178.67 81.77 178.797 82.05C178.93 82.3233 178.997 82.6433 178.997 83.01C178.997 83.2967 178.953 83.5767 178.867 83.85C178.787 84.1233 178.65 84.3733 178.457 84.6C178.263 84.82 178.01 85 177.697 85.14C177.39 85.2733 177.01 85.34 176.557 85.34H175.487V88H174.517V80.77H176.437ZM176.537 84.41C176.823 84.41 177.06 84.3667 177.247 84.28C177.44 84.1933 177.59 84.0833 177.697 83.95C177.803 83.81 177.88 83.66 177.927 83.5C177.973 83.34 177.997 83.19 177.997 83.05C177.997 82.9033 177.97 82.7533 177.917 82.6C177.87 82.44 177.79 82.2933 177.677 82.16C177.57 82.0267 177.427 81.9167 177.247 81.83C177.073 81.7433 176.86 81.7 176.607 81.7H175.487V84.41H176.537ZM177.727 84.96L179.617 88H178.497L176.577 84.99L177.727 84.96ZM185.542 80.77H190.342V81.7H188.402V88H187.432V81.7H185.542V80.77ZM198.503 80.77V88H197.543V84.83H193.753V88H192.783V80.77H193.753V83.91H197.543V80.77H198.503ZM201.486 80.77H206.186V81.7H202.456V83.9H205.786V84.83H202.456V87.07H206.326V88H201.486V80.77ZM219.233 88.23L213.643 82.56L213.923 82.63L213.943 88H212.973V80.55H213.023L218.553 86.24L218.323 86.19L218.303 80.77H219.263V88.23H219.233ZM222.242 80.77H226.942V81.7H223.212V83.9H226.542V84.83H223.212V87.07H227.082V88H222.242V80.77ZM229.036 80.81H230.156L232.116 86.33L231.946 86.26L233.376 82.56L233.826 83.87L231.916 88.33L229.036 80.81ZM232.506 80.81H233.476L235.596 86.25L235.396 86.21L237.266 80.81H238.296L235.456 88.32L232.506 80.81ZM250.368 87.38C250.268 87.4667 250.128 87.5533 249.948 87.64C249.768 87.72 249.568 87.7933 249.348 87.86C249.135 87.9267 248.911 87.98 248.678 88.02C248.451 88.06 248.238 88.08 248.038 88.08C247.458 88.08 246.935 87.99 246.468 87.81C246.008 87.63 245.611 87.38 245.278 87.06C244.951 86.74 244.698 86.3633 244.518 85.93C244.345 85.4967 244.258 85.0267 244.258 84.52C244.258 83.92 244.355 83.3833 244.548 82.91C244.748 82.43 245.018 82.0267 245.358 81.7C245.705 81.3667 246.101 81.1167 246.548 80.95C246.995 80.7767 247.468 80.69 247.968 80.69C248.388 80.69 248.778 80.74 249.138 80.84C249.498 80.94 249.815 81.0667 250.088 81.22L249.758 82.11C249.625 82.03 249.458 81.9567 249.258 81.89C249.065 81.8233 248.865 81.77 248.658 81.73C248.451 81.6833 248.258 81.66 248.078 81.66C247.651 81.66 247.265 81.7267 246.918 81.86C246.571 81.9867 246.275 82.1733 246.028 82.42C245.781 82.66 245.591 82.9533 245.458 83.3C245.325 83.64 245.258 84.0233 245.258 84.45C245.258 84.8433 245.325 85.2033 245.458 85.53C245.591 85.8567 245.781 86.14 246.028 86.38C246.275 86.6133 246.568 86.7967 246.908 86.93C247.255 87.0567 247.635 87.12 248.048 87.12C248.295 87.12 248.538 87.0967 248.778 87.05C249.018 86.9967 249.225 86.9233 249.398 86.83V85.39H247.958V84.46H250.368V87.38ZM253.118 80.77H257.818V81.7H254.088V83.9H257.418V84.83H254.088V87.07H257.958V88H253.118V80.77ZM266.801 88.23L261.211 82.56L261.491 82.63L261.511 88H260.541V80.55H260.591L266.121 86.24L265.891 86.19L265.871 80.77H266.831V88.23H266.801ZM269.81 80.77H274.51V81.7H270.78V83.9H274.11V84.83H270.78V87.07H274.65V88H269.81V80.77ZM279.154 80.77C279.52 80.77 279.857 80.82 280.164 80.92C280.477 81.0133 280.747 81.1567 280.974 81.35C281.207 81.5367 281.387 81.77 281.514 82.05C281.647 82.3233 281.714 82.6433 281.714 83.01C281.714 83.2967 281.67 83.5767 281.584 83.85C281.504 84.1233 281.367 84.3733 281.174 84.6C280.98 84.82 280.727 85 280.414 85.14C280.107 85.2733 279.727 85.34 279.274 85.34H278.204V88H277.234V80.77H279.154ZM279.254 84.41C279.54 84.41 279.777 84.3667 279.964 84.28C280.157 84.1933 280.307 84.0833 280.414 83.95C280.52 83.81 280.597 83.66 280.644 83.5C280.69 83.34 280.714 83.19 280.714 83.05C280.714 82.9033 280.687 82.7533 280.634 82.6C280.587 82.44 280.507 82.2933 280.394 82.16C280.287 82.0267 280.144 81.9167 279.964 81.83C279.79 81.7433 279.577 81.7 279.324 81.7H278.204V84.41H279.254ZM280.444 84.96L282.334 88H281.214L279.294 84.99L280.444 84.96ZM284.006 88L287.166 80.47H287.226L290.376 88H289.266L286.906 81.99L287.596 81.54L284.956 88H284.006ZM285.856 85.26H288.546L288.866 86.1H285.576L285.856 85.26ZM291.541 80.77H296.341V81.7H294.401V88H293.431V81.7H291.541V80.77ZM298.781 80.77H299.751V88H298.781V80.77ZM302.278 84.39C302.278 83.89 302.372 83.42 302.558 82.98C302.752 82.5333 303.018 82.14 303.358 81.8C303.698 81.4533 304.088 81.1833 304.528 80.99C304.975 80.79 305.455 80.69 305.968 80.69C306.475 80.69 306.948 80.79 307.388 80.99C307.835 81.1833 308.228 81.4533 308.568 81.8C308.915 82.14 309.185 82.5333 309.378 82.98C309.572 83.42 309.668 83.89 309.668 84.39C309.668 84.9033 309.572 85.3833 309.378 85.83C309.185 86.2767 308.915 86.67 308.568 87.01C308.228 87.3433 307.835 87.6067 307.388 87.8C306.948 87.9867 306.475 88.08 305.968 88.08C305.455 88.08 304.975 87.9867 304.528 87.8C304.088 87.6133 303.698 87.3533 303.358 87.02C303.018 86.6867 302.752 86.2967 302.558 85.85C302.372 85.4033 302.278 84.9167 302.278 84.39ZM303.278 84.4C303.278 84.78 303.348 85.1367 303.488 85.47C303.628 85.7967 303.822 86.0867 304.068 86.34C304.315 86.5933 304.602 86.7933 304.928 86.94C305.255 87.08 305.608 87.15 305.988 87.15C306.362 87.15 306.712 87.08 307.038 86.94C307.365 86.7933 307.648 86.5933 307.888 86.34C308.128 86.0867 308.318 85.7967 308.458 85.47C308.598 85.1367 308.668 84.7767 308.668 84.39C308.668 84.01 308.598 83.6533 308.458 83.32C308.318 82.98 308.125 82.6833 307.878 82.43C307.632 82.1767 307.345 81.98 307.018 81.84C306.692 81.6933 306.342 81.62 305.968 81.62C305.588 81.62 305.235 81.6933 304.908 81.84C304.582 81.9867 304.295 82.1867 304.048 82.44C303.802 82.6933 303.612 82.99 303.478 83.33C303.345 83.6633 303.278 84.02 303.278 84.4ZM318.463 88.23L312.873 82.56L313.153 82.63L313.173 88H312.203V80.55H312.253L317.783 86.24L317.553 86.19L317.533 80.77H318.493V88.23H318.463Z" fill="white"/>
<path d="M255.974 5.52658C230.76 5.86489 197.675 6.49209 194.502 6.70176C192.512 6.81685 190.164 6.93473 189.303 6.94142C187.635 6.95439 186.883 7.05986 187.028 7.25798C187.191 7.45596 188.5 7.5027 194.204 7.54376C197.271 7.56261 201.091 7.61831 202.724 7.67678C204.357 7.74948 207.388 7.854 209.452 7.92335C217.255 8.19002 224.288 8.47692 228.11 8.70338C229.797 8.80413 231.932 8.90139 232.865 8.93683C236.578 9.07875 244.33 9.58776 249.068 10.0206C250.073 10.1124 250.2 10.2964 249.467 10.601C249.181 10.7313 248.145 11.1805 247.18 11.615C246.215 12.0494 245.089 12.5563 244.677 12.7303C243.945 13.0491 239.92 14.5035 238.99 14.7812C238.507 14.9415 235.438 14.638 231.146 14.0167C230.015 13.8547 229.064 13.7625 229.011 13.8056C228.868 13.9206 229.012 13.9479 232.46 14.5758C234.148 14.89 235.837 15.2042 236.232 15.2723L236.932 15.4234L236.504 15.6829C235.826 16.0866 236.203 16.1691 237.151 15.8344C238.081 15.4856 237.973 15.4864 241.797 15.9406C242.982 16.0737 244.274 16.1918 244.668 16.1745L245.386 16.1689L244.577 15.9759C244.128 15.8798 242.817 15.6338 241.649 15.4294C240.482 15.225 239.548 15.033 239.584 15.0043C239.78 14.8462 244.555 13.1582 245.683 12.8506C247.275 12.4112 249.673 11.6383 250.316 11.3629C250.978 11.0731 251.408 11.0982 251.285 11.3981C251.232 11.5408 251.022 12.1686 250.812 12.7965C250.619 13.4242 250.339 14.2518 250.216 14.6512C250.094 15.0364 249.778 15.9782 249.533 16.7201C248.675 19.3597 248.061 21.1577 247.989 21.2009C247.972 21.2153 247.578 21.3607 247.131 21.5065C245.861 21.9575 243.771 23.0127 243.379 23.4142C243.184 23.615 243.025 23.9009 243.026 24.0289C243.028 24.3847 244.269 24.7451 245.902 24.8747C246.638 24.9402 248.324 25.0694 249.635 25.173C251.788 25.3555 252.093 25.3532 252.558 25.1503C253.702 24.6718 257.739 24.9393 258.695 25.558C259.109 25.8252 259.325 25.8662 260.042 25.8037C260.508 25.7574 261.243 25.7802 261.692 25.8621C263.147 26.1069 263.145 25.9219 261.584 23.5431C260.84 22.3961 260.222 21.362 260.222 21.2624C260.221 21.1628 260.076 20.9362 259.877 20.7527C259.298 20.1737 253.87 11.6342 253.867 11.2926C253.866 11.1218 253.793 11.0228 253.686 11.0663C253.596 11.1097 253.506 11.0677 253.506 10.9539C253.503 10.6692 255.3 11.0538 260.152 12.3538C262.183 12.9073 264.717 13.5707 265.814 13.8469C266.892 14.1231 267.988 14.4419 268.24 14.5396C268.492 14.6373 268.798 14.7203 268.923 14.7193C269.067 14.7182 270.109 14.9947 271.259 15.3416C272.428 15.6883 274.208 16.2295 275.25 16.5345C276.293 16.8395 277.551 17.2282 278.037 17.381C278.54 17.5336 279.673 17.8664 280.553 18.1157C281.452 18.3649 282.747 18.7675 283.43 18.9899C285.336 19.6155 288.5 20.5445 289.901 20.8894C293.495 21.7723 293.872 21.8263 295.881 21.8676C297.765 21.9099 297.89 21.8947 297.888 21.6385C297.887 21.4393 297.166 21.0179 295.329 20.1071C290.054 17.5295 284.943 15.1925 278.536 12.4244C277.259 11.8793 275.225 10.9985 274.037 10.4812C272.85 9.96381 271.356 9.32076 270.708 9.05539C270.061 8.77579 269.467 8.51 269.359 8.45392C269.268 8.39769 268.333 8.00647 267.289 7.5734C266.246 7.15456 264.68 6.4836 263.78 6.0921C262.665 5.60266 261.999 5.39436 261.623 5.41152C261.336 5.44221 258.79 5.49047 255.974 5.52658ZM253.169 11.5257C253.514 12.0923 253.552 12.3055 253.454 13.5302C253.406 14.2849 253.349 16.2208 253.344 17.8148C253.329 20.5901 253.312 20.7041 252.954 20.8065C252.597 20.9232 248.92 20.8948 248.775 20.7963C248.739 20.7681 248.861 20.2975 249.054 19.7552C249.23 19.2273 249.563 18.2712 249.755 17.6435C251.209 13.1634 251.981 10.9088 252.123 10.7511C252.354 10.5074 252.679 10.7326 253.169 11.5257ZM256.418 16.5101L258.76 20.1779L258.153 20.4815C257.814 20.6407 257.528 20.8421 257.529 20.9418C257.53 21.1268 254.588 20.9931 254.066 20.7837C253.76 20.658 253.74 20.4019 253.766 16.7442C253.785 14.595 253.843 12.8441 253.915 12.8435C254.004 12.8428 255.111 14.4993 256.418 16.5101ZM261.211 23.9445C261.774 24.7941 262.174 25.5452 262.121 25.6168C262.05 25.7027 261.942 25.7036 261.834 25.619C261.726 25.5345 261.402 25.5085 261.08 25.5537C259.844 25.7199 258.971 24.2323 259.771 23.3153C259.931 23.129 260.054 22.8292 260.053 22.63C260.049 22.1603 260.067 22.1744 261.211 23.9445ZM258.454 24.6348L258.458 25.0902L257.632 24.997C256.43 24.8783 256.339 24.7651 257.216 24.4879C258.343 24.1234 258.45 24.1368 258.454 24.6348Z" fill="white"/>
</svg>
