<?xml version="1.0" standalone="no"?>
<!DOCTYPE svg PUBLIC "-//W3C//DTD SVG 20010904//EN" "http://www.w3.org/TR/2001/REC-SVG-20010904/DTD/svg10.dtd">
<svg version="1.0" xmlns="http://www.w3.org/2000/svg" width="1186.000000pt" height="800.000000pt" viewBox="0 0 1186.000000 800.000000" preserveAspectRatio="xMidYMid meet">

    <g transform="translate(0.000000,800.000000) scale(0.100000,-0.100000)" fill="#fff" stroke="none">
        <path d="M6090 6919 c-260 -40 -416 -110 -640 -288 -186 -148 -300 -276 -513
-577 -70 -98 -153 -215 -184 -259 -31 -44 -138 -195 -237 -335 -99 -140 -263
-372 -364 -515 -252 -355 -485 -683 -692 -975 -95 -135 -260 -366 -365 -515
-317 -446 -403 -567 -570 -804 -88 -125 -186 -263 -217 -306 -32 -44 -136
-190 -231 -325 -324 -458 -590 -834 -747 -1055 -280 -395 -330 -466 -330 -470
0 -3 519 -5 1154 -5 l1154 0 209 295 c313 444 576 816 903 1279 287 405 590
834 863 1221 74 105 235 332 357 505 123 173 291 412 375 530 198 281 264 370
275 370 11 0 40 -42 525 -760 214 -316 517 -762 673 -990 157 -228 319 -464
360 -525 42 -60 106 -152 144 -203 37 -50 68 -96 68 -101 0 -16 -24 -18 -150
-10 -69 4 -673 8 -1342 8 l-1216 1 -120 -162 c-65 -90 -186 -255 -267 -368
-82 -113 -221 -304 -309 -425 -404 -557 -476 -657 -476 -661 0 -2 1654 -4
3675 -4 2021 0 3675 3 3675 6 0 3 -40 63 -88 132 -49 70 -180 260 -292 422
-112 162 -287 417 -390 565 -103 149 -274 396 -380 550 -106 154 -238 345
-294 425 -55 80 -159 231 -231 335 -72 105 -214 309 -315 455 -101 146 -264
382 -362 525 -99 143 -257 373 -353 510 -95 138 -236 342 -313 455 -78 113
-236 342 -352 510 -117 168 -296 427 -398 575 -245 358 -285 410 -421 546
-260 259 -475 373 -788 419 -84 12 -383 11 -463 -1z" />
    </g>
</svg>