<svg width="19" height="19" viewBox="0 0 19 19" fill="none" xmlns="http://www.w3.org/2000/svg">
<g clip-path="url(#clip0_1044_7815)">
<path d="M18.0365 5.31608C17.9925 4.35324 17.8396 3.6957 17.616 3.12042C17.3889 2.51684 17.0328 1.97014 16.5727 1.51825C16.1209 1.05808 15.5741 0.701845 14.9705 0.47466C14.3951 0.251201 13.7377 0.0984102 12.7748 0.054657C11.8102 0.0104897 11.502 0 9.04545 0C6.58893 0 6.28072 0.0104897 5.31608 0.0543809C4.35324 0.0984102 3.69583 0.251339 3.12042 0.474936C2.51684 0.701983 1.97014 1.05808 1.51825 1.51825C1.05808 1.97 0.701845 2.51671 0.47466 3.12028C0.251201 3.6957 0.0984102 4.35324 0.054657 5.31594C0.0104897 6.28072 0 6.58879 0 9.04532C0 11.502 0.0104897 11.8102 0.054657 12.7748C0.0985482 13.7375 0.251477 14.3951 0.475074 14.9705C0.702121 15.5739 1.05822 16.1208 1.51839 16.5725C1.97014 17.0327 2.51698 17.3888 3.12055 17.6158C3.69583 17.8396 4.35337 17.9924 5.31622 18.0364C6.281 18.0804 6.58907 18.0908 9.04559 18.0908C11.5021 18.0908 11.8103 18.0804 12.775 18.0364C13.7378 17.9924 14.3952 17.8396 14.9706 17.6158C16.1856 17.146 17.1461 16.1855 17.616 14.9705C17.8397 14.3951 17.9925 13.7375 18.0365 12.7748C18.0804 11.81 18.0909 11.502 18.0909 9.04545C18.0909 6.58879 18.0804 6.28072 18.0365 5.31608V5.31608ZM16.4083 12.7007C16.3681 13.5827 16.2207 14.0616 16.0969 14.3803C15.7926 15.1692 15.1691 15.7927 14.3802 16.097C14.0615 16.2208 13.5825 16.3682 12.7006 16.4084C11.747 16.452 11.4609 16.4611 9.04545 16.4611C6.62992 16.4611 6.34394 16.452 5.3902 16.4084C4.50837 16.3682 4.02943 16.2208 3.7106 16.097C3.31779 15.952 2.96238 15.7208 2.6706 15.4203C2.37013 15.1285 2.13894 14.7733 1.99388 14.3803C1.87007 14.0616 1.72266 13.5827 1.6825 12.7007C1.63902 11.747 1.62977 11.4609 1.62977 9.04559C1.62977 6.6302 1.63902 6.34421 1.6825 5.39034C1.7228 4.50837 1.87007 4.02943 1.99388 3.71074C2.13894 3.31779 2.37026 2.96238 2.6706 2.6706C2.96238 2.37013 3.31779 2.13894 3.71074 1.99401C4.02943 1.87007 4.50837 1.7228 5.39034 1.6825C6.34407 1.63902 6.6302 1.62977 9.04545 1.62977H9.04532C11.4606 1.62977 11.7467 1.63902 12.7006 1.68263C13.5825 1.7228 14.0613 1.87021 14.3802 1.99401C14.773 2.13908 15.1284 2.37026 15.4202 2.6706C15.7206 2.96238 15.9518 3.31779 16.0968 3.71074C16.2207 4.02943 16.3681 4.50837 16.4083 5.39034C16.4518 6.34407 16.461 6.6302 16.461 9.04545C16.461 11.4609 16.4519 11.7468 16.4083 12.7007Z" fill="url(#paint0_linear_1044_7815)"/>
<path d="M9.04527 4.39893C6.47998 4.39893 4.40039 6.47865 4.40039 9.04394C4.40039 11.6092 6.47998 13.6888 9.04527 13.6888C11.6107 13.6888 13.6903 11.6092 13.6903 9.04394C13.6903 6.47865 11.6107 4.39893 9.04527 4.39893V4.39893ZM9.04527 12.059C7.38016 12.0589 6.03016 10.709 6.0303 9.0438C6.0303 7.3787 7.38016 6.0287 9.0454 6.0287C10.7106 6.02884 12.0605 7.3787 12.0605 9.0438C12.0605 10.709 10.7105 12.059 9.04527 12.059V12.059Z" fill="url(#paint1_linear_1044_7815)"/>
<path d="M14.959 4.21543C14.959 4.81486 14.4731 5.30084 13.8736 5.30084C13.2741 5.30084 12.7881 4.81486 12.7881 4.21543C12.7881 3.61586 13.2741 3.12988 13.8736 3.12988C14.4731 3.12988 14.959 3.61586 14.959 4.21543V4.21543Z" fill="url(#paint2_linear_1044_7815)"/>
</g>
<defs>
<linearGradient id="paint0_linear_1044_7815" x1="1.51816" y1="16.5726" x2="16.5727" y2="1.51801" gradientUnits="userSpaceOnUse">
<stop stop-color="#FFD600"/>
<stop offset="0.5" stop-color="#FF0100"/>
<stop offset="1" stop-color="#D800B9"/>
</linearGradient>
<linearGradient id="paint1_linear_1044_7815" x1="5.76088" y1="12.3284" x2="12.3298" y2="5.75941" gradientUnits="userSpaceOnUse">
<stop stop-color="#FF6400"/>
<stop offset="0.5" stop-color="#FF0100"/>
<stop offset="1" stop-color="#FD0056"/>
</linearGradient>
<linearGradient id="paint2_linear_1044_7815" x1="13.1061" y1="4.98288" x2="14.6411" y2="3.44785" gradientUnits="userSpaceOnUse">
<stop stop-color="#F30072"/>
<stop offset="1" stop-color="#E50097"/>
</linearGradient>
<clipPath id="clip0_1044_7815">
<rect width="18.0909" height="18.0909" fill="white"/>
</clipPath>
</defs>
</svg>
