<svg width="872" height="109" viewBox="0 0 872 109" fill="none" xmlns="http://www.w3.org/2000/svg">
<path d="M97.7819 64.68C94.6085 64.68 91.7185 63.9717 89.1119 62.555C86.5619 61.0817 84.5219 59.0417 82.9919 56.435C81.5185 53.8283 80.7819 50.7967 80.7819 47.34C80.7819 43.6567 81.5752 40.5117 83.1619 37.905C84.7485 35.2417 86.9019 33.23 89.6219 31.87C92.3419 30.4533 95.4302 29.745 98.8869 29.745C101.834 29.745 104.61 30.6233 107.217 32.38C109.88 34.1367 111.779 36.3467 112.912 39.01L112.317 40.2L112.827 30.765H116.397V64H112.402V53.715L113.252 55.245C112.855 56.3783 112.175 57.5117 111.212 58.645C110.249 59.7217 109.059 60.7417 107.642 61.705C106.282 62.6117 104.752 63.3483 103.052 63.915C101.409 64.425 99.6519 64.68 97.7819 64.68ZM98.6319 61.28C101.125 61.28 103.364 60.77 105.347 59.75C107.387 58.6733 109.03 57.2 110.277 55.33C111.524 53.46 112.232 51.3067 112.402 48.87V44.11C111.949 42.0133 111.042 40.1433 109.682 38.5C108.379 36.8567 106.764 35.5533 104.837 34.59C102.91 33.6267 100.814 33.145 98.5469 33.145C96.0535 33.145 93.7585 33.74 91.6619 34.93C89.5652 36.0633 87.8935 37.6783 86.6469 39.775C85.4002 41.8717 84.7769 44.3367 84.7769 47.17C84.7769 49.7767 85.4002 52.1567 86.6469 54.31C87.8935 56.4067 89.5652 58.1067 91.6619 59.41C93.8152 60.6567 96.1385 61.28 98.6319 61.28ZM251.478 64.78C248.834 64.78 246.473 64.1733 244.393 62.96C242.313 61.7033 240.666 59.905 239.453 57.565C238.283 55.225 237.698 52.4517 237.698 49.245C237.698 46.0383 238.348 43.3083 239.648 41.055C240.948 38.8017 242.724 37.09 244.978 35.92C247.231 34.75 249.788 34.165 252.648 34.165C254.468 34.165 256.201 34.4467 257.848 35.01C259.538 35.5733 260.946 36.44 262.073 37.61V40.47V12.715H271.108V64H262.008V58.475L262.723 60.425C261.249 61.6383 259.603 62.6783 257.783 63.545C255.963 64.3683 253.861 64.78 251.478 64.78ZM254.468 57.11C255.681 57.11 256.743 56.9583 257.653 56.655C258.606 56.3083 259.429 55.8317 260.123 55.225C260.859 54.575 261.488 53.7733 262.008 52.82V45.865C261.661 44.9117 261.119 44.11 260.383 43.46C259.689 42.7667 258.823 42.2467 257.783 41.9C256.786 41.51 255.681 41.315 254.468 41.315C253.124 41.315 251.868 41.6617 250.698 42.355C249.571 43.005 248.661 43.915 247.968 45.085C247.274 46.255 246.928 47.5983 246.928 49.115C246.928 50.6317 247.274 51.9967 247.968 53.21C248.661 54.4233 249.571 55.3767 250.698 56.07C251.868 56.7633 253.124 57.11 254.468 57.11ZM300.944 64.78C297.477 64.78 294.531 64.13 292.104 62.83C289.721 61.53 287.901 59.7317 286.644 57.435C285.387 55.1383 284.759 52.495 284.759 49.505C284.759 46.645 285.496 44.0667 286.969 41.77C288.442 39.4733 290.414 37.6533 292.884 36.31C295.354 34.9233 298.106 34.23 301.139 34.23C305.212 34.23 308.549 35.4217 311.149 37.805C313.792 40.145 315.504 43.5467 316.284 48.01L294.184 55.03L292.169 50.09L308.159 44.695L306.274 45.54C305.927 44.4133 305.299 43.4383 304.389 42.615C303.522 41.7483 302.201 41.315 300.424 41.315C299.081 41.315 297.889 41.64 296.849 42.29C295.852 42.8967 295.072 43.785 294.509 44.955C293.989 46.0817 293.729 47.425 293.729 48.985C293.729 50.7617 294.054 52.2567 294.704 53.47C295.354 54.64 296.242 55.5283 297.369 56.135C298.496 56.7417 299.752 57.045 301.139 57.045C302.136 57.045 303.089 56.8717 303.999 56.525C304.952 56.1783 305.884 55.7233 306.794 55.16L310.824 61.92C309.307 62.7867 307.661 63.48 305.884 64C304.151 64.52 302.504 64.78 300.944 64.78ZM354.824 49.44C354.824 46.5367 355.496 43.9367 356.839 41.64C358.226 39.3433 360.154 37.545 362.624 36.245C365.094 34.9017 367.933 34.23 371.139 34.23C374.389 34.23 377.206 34.9017 379.589 36.245C381.973 37.545 383.793 39.3433 385.049 41.64C386.349 43.9367 386.999 46.5367 386.999 49.44C386.999 52.3433 386.349 54.965 385.049 57.305C383.793 59.6017 381.973 61.4217 379.589 62.765C377.206 64.1083 374.346 64.78 371.009 64.78C367.889 64.78 365.094 64.1733 362.624 62.96C360.198 61.7467 358.291 59.9917 356.904 57.695C355.518 55.3983 354.824 52.6467 354.824 49.44ZM363.989 49.505C363.989 50.9783 364.293 52.3217 364.899 53.535C365.506 54.705 366.329 55.6367 367.369 56.33C368.409 57.0233 369.579 57.37 370.879 57.37C372.309 57.37 373.544 57.0233 374.584 56.33C375.624 55.6367 376.426 54.705 376.989 53.535C377.553 52.3217 377.834 50.9783 377.834 49.505C377.834 47.9883 377.553 46.645 376.989 45.475C376.426 44.305 375.624 43.3733 374.584 42.68C373.544 41.9867 372.309 41.64 370.879 41.64C369.579 41.64 368.409 41.9867 367.369 42.68C366.329 43.3733 365.506 44.305 364.899 45.475C364.293 46.645 363.989 47.9883 363.989 49.505ZM409.833 65.365C407.277 65.365 405.132 64.585 403.398 63.025C401.665 61.4217 400.755 59.3633 400.668 56.85V35.595H409.768V53.47C409.855 54.7267 410.18 55.745 410.743 56.525C411.307 57.2617 412.26 57.63 413.603 57.63C414.947 57.63 416.095 57.175 417.048 56.265C418.045 55.355 418.803 54.12 419.323 52.56C419.887 50.9567 420.168 49.1583 420.168 47.165V35.595H429.268V64H421.013L420.298 58.8L420.428 59.385C419.778 60.555 418.955 61.595 417.958 62.505C416.962 63.415 415.77 64.1083 414.383 64.585C413.04 65.105 411.523 65.365 409.833 65.365ZM447.792 23.115H456.892V35.465H463.782V42.55H456.892V64H447.792V42.55H443.372V35.465H447.792V23.115ZM486.373 65.365C483.817 65.365 481.672 64.585 479.938 63.025C478.205 61.4217 477.295 59.3633 477.208 56.85V35.595H486.308V53.47C486.395 54.7267 486.72 55.745 487.283 56.525C487.847 57.2617 488.8 57.63 490.143 57.63C491.487 57.63 492.635 57.175 493.588 56.265C494.585 55.355 495.343 54.12 495.863 52.56C496.427 50.9567 496.708 49.1583 496.708 47.165V35.595H505.808V64H497.553L496.838 58.8L496.968 59.385C496.318 60.555 495.495 61.595 494.498 62.505C493.502 63.415 492.31 64.1083 490.923 64.585C489.58 65.105 488.063 65.365 486.373 65.365ZM540.322 64.78C537.939 64.78 535.924 64.39 534.277 63.61C532.674 62.7867 531.266 61.725 530.052 60.425L530.767 58.475V64H521.667V12.715H530.702V40.47V37.545C531.829 36.5917 533.324 35.79 535.187 35.14C537.051 34.49 539.174 34.165 541.557 34.165C544.027 34.165 546.281 34.75 548.317 35.92C550.354 37.09 551.979 38.8017 553.192 41.055C554.449 43.265 555.077 45.9733 555.077 49.18C555.077 52.3867 554.384 55.16 552.997 57.5C551.654 59.84 549.856 61.6383 547.602 62.895C545.349 64.1517 542.922 64.78 540.322 64.78ZM538.307 57.11C539.651 57.11 540.886 56.7633 542.012 56.07C543.182 55.3767 544.114 54.4233 544.807 53.21C545.501 51.9967 545.847 50.6317 545.847 49.115C545.847 47.5983 545.501 46.255 544.807 45.085C544.114 43.915 543.182 43.005 542.012 42.355C540.886 41.6617 539.651 41.315 538.307 41.315C537.137 41.315 536.032 41.51 534.992 41.9C533.996 42.2467 533.129 42.7667 532.392 43.46C531.699 44.11 531.157 44.9117 530.767 45.865V52.82C531.287 53.7733 531.894 54.575 532.587 55.225C533.324 55.8317 534.169 56.3083 535.122 56.655C536.076 56.9583 537.137 57.11 538.307 57.11ZM576.919 35.595L577.764 43.395L577.569 42.225C578.392 40.535 579.519 39.105 580.949 37.935C582.379 36.7217 583.787 35.79 585.174 35.14C586.604 34.49 587.687 34.165 588.424 34.165L587.969 43.265C585.845 43.005 584.025 43.3517 582.509 44.305C580.992 45.2583 579.822 46.515 578.999 48.075C578.175 49.635 577.764 51.2383 577.764 52.885V64H568.729V35.595H576.919ZM598.409 49.44C598.409 46.5367 599.081 43.9367 600.424 41.64C601.811 39.3433 603.739 37.545 606.209 36.245C608.679 34.9017 611.518 34.23 614.724 34.23C617.974 34.23 620.791 34.9017 623.174 36.245C625.558 37.545 627.378 39.3433 628.634 41.64C629.934 43.9367 630.584 46.5367 630.584 49.44C630.584 52.3433 629.934 54.965 628.634 57.305C627.378 59.6017 625.558 61.4217 623.174 62.765C620.791 64.1083 617.931 64.78 614.594 64.78C611.474 64.78 608.679 64.1733 606.209 62.96C603.783 61.7467 601.876 59.9917 600.489 57.695C599.103 55.3983 598.409 52.6467 598.409 49.44ZM607.574 49.505C607.574 50.9783 607.878 52.3217 608.484 53.535C609.091 54.705 609.914 55.6367 610.954 56.33C611.994 57.0233 613.164 57.37 614.464 57.37C615.894 57.37 617.129 57.0233 618.169 56.33C619.209 55.6367 620.011 54.705 620.574 53.535C621.138 52.3217 621.419 50.9783 621.419 49.505C621.419 47.9883 621.138 46.645 620.574 45.475C620.011 44.305 619.209 43.3733 618.169 42.68C617.129 41.9867 615.894 41.64 614.464 41.64C613.164 41.64 611.994 41.9867 610.954 42.68C609.914 43.3733 609.091 44.305 608.484 45.475C607.878 46.645 607.574 47.9883 607.574 49.505Z" fill="#FDFDFD"/>
<path d="M0.85 51.675H-0.15V52.675H0.85V51.675ZM0.85 51.59L0.0713066 50.9626L-0.15 51.2373V51.59H0.85ZM36.805 6.965V5.965H36.3265L36.0263 6.33759L36.805 6.965ZM36.89 6.965H37.89V5.965H36.89V6.965ZM36.89 42.325H35.89V43.325H36.89V42.325ZM43.605 42.325H44.605V41.325H43.605V42.325ZM43.605 51.675V52.675H44.605V51.675H43.605ZM36.89 51.675V50.675H35.89V51.675H36.89ZM36.89 64V65H37.89V64H36.89ZM24.48 64H23.48V65H24.48V64ZM24.48 51.675H25.48V50.675H24.48V51.675ZM25.075 34.08L25.8759 34.6788L26.3944 33.9852L25.7821 33.3729L25.075 34.08ZM18.53 42.835L18.1361 43.7541L18.8596 44.0642L19.3309 43.4338L18.53 42.835ZM17.34 42.325V41.325L16.9461 43.2441L17.34 42.325ZM24.48 42.325V43.325H25.48V42.325H24.48ZM24.48 33.485L25.1871 32.7779L23.48 31.0708V33.485H24.48ZM1.85 51.675V51.59H-0.15V51.675H1.85ZM1.62869 52.2174L37.5837 7.5924L36.0263 6.33759L0.0713066 50.9626L1.62869 52.2174ZM36.805 7.965H36.89V5.965H36.805V7.965ZM35.89 6.965V42.325H37.89V6.965H35.89ZM36.89 43.325H43.605V41.325H36.89V43.325ZM42.605 42.325V51.675H44.605V42.325H42.605ZM43.605 50.675H36.89V52.675H43.605V50.675ZM35.89 51.675V64H37.89V51.675H35.89ZM36.89 63H24.48V65H36.89V63ZM25.48 64V51.675H23.48V64H25.48ZM24.48 50.675H0.85V52.675H24.48V50.675ZM24.2741 33.4812L17.7291 42.2362L19.3309 43.4338L25.8759 34.6788L24.2741 33.4812ZM18.9239 41.9159L17.7339 41.4059L16.9461 43.2441L18.1361 43.7541L18.9239 41.9159ZM17.34 43.325H24.48V41.325H17.34V43.325ZM25.48 42.325V33.485H23.48V42.325H25.48ZM23.7729 34.1921L24.3679 34.7871L25.7821 33.3729L25.1871 32.7779L23.7729 34.1921ZM89.1119 62.555L88.6116 63.4209L88.6229 63.4274L88.6344 63.4336L89.1119 62.555ZM82.9919 56.435L82.1213 56.9271L82.1253 56.9342L82.1295 56.9412L82.9919 56.435ZM83.1619 37.905L84.0161 38.425L84.021 38.4168L83.1619 37.905ZM89.6219 31.87L90.0691 32.7644L90.0765 32.7607L90.0838 32.7569L89.6219 31.87ZM107.217 32.38L106.658 33.2093L106.666 33.2148L107.217 32.38ZM112.912 39.01L113.806 39.4572L114.013 39.0438L113.832 38.6184L112.912 39.01ZM112.317 40.2L111.318 40.146L113.211 40.6472L112.317 40.2ZM112.827 30.765V29.765H111.879L111.828 30.711L112.827 30.765ZM116.397 30.765H117.397V29.765H116.397V30.765ZM116.397 64V65H117.397V64H116.397ZM112.402 64H111.402V65H112.402V64ZM112.402 53.715L113.276 53.2294L111.402 49.8559V53.715H112.402ZM113.252 55.245L114.196 55.5753L114.344 55.1517L114.126 54.7594L113.252 55.245ZM111.212 58.645L111.957 59.3118L111.966 59.3023L111.974 59.2926L111.212 58.645ZM107.642 61.705L108.197 62.5371L108.204 62.5319L107.642 61.705ZM103.052 63.915L103.348 64.8701L103.358 64.867L103.368 64.8637L103.052 63.915ZM105.347 59.75L105.804 60.6393L105.814 60.6344L105.347 59.75ZM110.277 55.33L111.109 55.8847L110.277 55.33ZM112.402 48.87L113.399 48.9396L113.402 48.9048V48.87H112.402ZM112.402 44.11H113.402V44.0031L113.379 43.8987L112.402 44.11ZM109.682 38.5L108.898 39.1214L108.905 39.1295L108.911 39.1376L109.682 38.5ZM91.6619 34.93L92.1374 35.8097L92.1465 35.8048L92.1555 35.7997L91.6619 34.93ZM86.6469 39.775L85.7873 39.2639L86.6469 39.775ZM86.6469 54.31L85.7814 54.8111L85.7873 54.8211L86.6469 54.31ZM91.6619 59.41L91.1339 60.2593L91.1473 60.2676L91.1608 60.2754L91.6619 59.41ZM97.7819 63.68C94.7634 63.68 92.0393 63.0079 89.5894 61.6764L88.6344 63.4336C91.3978 64.9355 94.4537 65.68 97.7819 65.68V63.68ZM89.6122 61.6891C87.216 60.3047 85.2991 58.3904 83.8543 55.9288L82.1295 56.9412C83.7446 59.693 85.9077 61.8586 88.6116 63.4209L89.6122 61.6891ZM83.8624 55.9429C82.4863 53.5082 81.7819 50.6512 81.7819 47.34H79.7819C79.7819 50.9422 80.5508 54.1485 82.1213 56.9271L83.8624 55.9429ZM81.7819 47.34C81.7819 43.802 82.5428 40.8453 84.0161 38.4249L82.3077 37.3851C80.6076 40.178 79.7819 43.5114 79.7819 47.34H81.7819ZM84.021 38.4168C85.5118 35.9144 87.5236 34.0372 90.0691 32.7644L89.1747 30.9756C86.2801 32.4228 83.9853 34.5689 82.3028 37.3932L84.021 38.4168ZM90.0838 32.7569C92.6439 31.4235 95.5704 30.745 98.8869 30.745V28.745C95.2901 28.745 92.0399 29.4831 89.1599 30.9831L90.0838 32.7569ZM98.8869 30.745C101.621 30.745 104.205 31.5561 106.658 33.2093L107.776 31.5507C105.016 29.6906 102.046 28.745 98.8869 28.745V30.745ZM106.666 33.2148C109.183 34.8747 110.943 36.9374 111.992 39.4016L113.832 38.6184C112.614 35.7559 110.577 33.3986 107.767 31.5452L106.666 33.2148ZM112.017 38.5628L111.422 39.7528L113.211 40.6472L113.806 39.4572L112.017 38.5628ZM113.315 40.254L113.825 30.819L111.828 30.711L111.318 40.146L113.315 40.254ZM112.827 31.765H116.397V29.765H112.827V31.765ZM115.397 30.765V64H117.397V30.765H115.397ZM116.397 63H112.402V65H116.397V63ZM113.402 64V53.715H111.402V64H113.402ZM111.528 54.2006L112.378 55.7306L114.126 54.7594L113.276 53.2294L111.528 54.2006ZM112.308 54.9146C111.96 55.9079 111.352 56.9361 110.45 57.9974L111.974 59.2926C112.998 58.0872 113.75 56.8488 114.196 55.5753L112.308 54.9146ZM110.467 57.9782C109.566 58.9843 108.441 59.9523 107.08 60.8781L108.204 62.5319C109.676 61.5311 110.931 60.4591 111.957 59.3118L110.467 57.9782ZM107.087 60.873C105.808 61.7258 104.359 62.4251 102.736 62.9663L103.368 64.8637C105.144 64.2716 106.756 63.4975 108.197 62.537L107.087 60.873ZM102.755 62.9599C101.216 63.4377 99.5601 63.68 97.7819 63.68V65.68C99.7437 65.68 101.601 65.4123 103.348 64.8701L102.755 62.9599ZM98.6319 62.28C101.265 62.28 103.663 61.7403 105.804 60.6393L104.89 58.8607C103.064 59.7997 100.985 60.28 98.6319 60.28V62.28ZM105.814 60.6344C107.997 59.4821 109.767 57.8971 111.109 55.8847L109.445 54.7753C108.293 56.5029 106.777 57.8646 104.88 58.8656L105.814 60.6344ZM111.109 55.8847C112.46 53.8577 113.218 51.5341 113.399 48.9396L111.404 48.8004C111.245 51.0792 110.587 53.0623 109.445 54.7753L111.109 55.8847ZM113.402 48.87V44.11H111.402V48.87H113.402ZM113.379 43.8987C112.892 41.6463 111.915 39.6299 110.452 37.8624L108.911 39.1376C110.169 40.6567 111.005 42.3804 111.424 44.3213L113.379 43.8987ZM110.465 37.8786C109.069 36.1176 107.338 34.7224 105.284 33.6956L104.39 35.4844C106.189 36.3842 107.688 37.5957 108.898 39.1214L110.465 37.8786ZM105.284 33.6956C103.211 32.6592 100.96 32.145 98.5469 32.145V34.145C100.667 34.145 102.609 34.5942 104.39 35.4844L105.284 33.6956ZM98.5469 32.145C95.8867 32.145 93.4207 32.7819 91.1683 34.0603L92.1555 35.7997C94.0964 34.6981 96.2204 34.145 98.5469 34.145V32.145ZM91.1864 34.0503C88.9269 35.2716 87.1241 37.0158 85.7873 39.2639L87.5064 40.2861C88.663 38.3409 90.2036 36.855 92.1374 35.8097L91.1864 34.0503ZM85.7873 39.2639C84.4348 41.5387 83.7769 44.1862 83.7769 47.17H85.7769C85.7769 44.4871 86.3657 42.2046 87.5064 40.2861L85.7873 39.2639ZM83.7769 47.17C83.7769 49.9439 84.4424 52.4981 85.7814 54.811L87.5123 53.809C86.3581 51.8153 85.7769 49.6094 85.7769 47.17H83.7769ZM85.7873 54.8211C87.1169 57.0571 88.903 58.8725 91.1339 60.2593L92.1898 58.5607C90.2275 57.3409 88.6702 55.7562 87.5064 53.7989L85.7873 54.8211ZM91.1608 60.2754C93.4668 61.6104 95.963 62.28 98.6319 62.28V60.28C96.3141 60.28 94.1637 59.7029 92.1629 58.5446L91.1608 60.2754ZM164.187 62.81L163.821 63.7408L164.187 62.81ZM156.792 58.305L155.952 57.7621L155.513 58.4407L156.085 59.0121L156.792 58.305ZM163.167 48.445L163.941 47.8118L163.072 46.7499L162.327 47.902L163.167 48.445ZM167.502 51.59L167.088 52.5004L167.104 52.5078L167.121 52.5147L167.502 51.59ZM176.682 51.93L177.129 52.8244V52.8244L176.682 51.93ZM179.402 49.38L180.259 49.8945L179.402 49.38ZM179.317 40.455L178.422 40.9022L178.43 40.9169L178.438 40.9313L179.317 40.455ZM176.257 37.31L175.737 38.1642L175.758 38.1773L175.781 38.1893L176.257 37.31ZM166.567 36.885L166.842 37.8465L166.857 37.842L166.873 37.837L166.567 36.885ZM160.957 39.265V40.265H161.204L161.423 40.1499L160.957 39.265ZM160.872 39.265H159.872V40.265H160.872V39.265ZM160.872 7.645V6.645H159.872V7.645H160.872ZM189.007 7.645H190.007V6.645H189.007V7.645ZM189.007 19.545V20.545H190.007V19.545H189.007ZM171.497 19.545V18.545H170.497V19.545H171.497ZM171.497 28.64L170.627 29.133L172.497 32.4331V28.64H171.497ZM170.052 26.09L169.91 25.1L168.459 25.3074L169.182 26.583L170.052 26.09ZM172.347 25.835L172.27 24.8379H172.27L172.347 25.835ZM184.587 28.385L184.044 29.2251L184.052 29.2301L184.587 28.385ZM190.962 35.355L191.853 34.9008L190.962 35.355ZM190.622 54.905L189.752 54.4124L190.622 54.905ZM183.652 62.045L183.14 61.186L183.132 61.1905L183.652 62.045ZM173.962 63.68C170.746 63.68 167.612 63.0811 164.552 61.8792L163.821 63.7408C167.109 65.0322 170.491 65.68 173.962 65.68V63.68ZM164.552 61.8792C161.462 60.6653 159.129 59.2283 157.499 57.5979L156.085 59.0121C157.968 60.895 160.565 62.4614 163.821 63.7408L164.552 61.8792ZM157.632 58.8479L164.007 48.9879L162.327 47.902L155.952 57.7621L157.632 58.8479ZM162.393 49.0782C163.533 50.4718 165.116 51.6038 167.088 52.5004L167.916 50.6796C166.148 49.8762 164.841 48.9115 163.941 47.8118L162.393 49.0782ZM167.121 52.5147C169.146 53.3487 171.118 53.78 173.027 53.78V51.78C171.423 51.78 169.71 51.418 167.883 50.6653L167.121 52.5147ZM173.027 53.78C174.481 53.78 175.853 53.4625 177.129 52.8244L176.235 51.0356C175.244 51.5308 174.179 51.78 173.027 51.78V53.78ZM177.129 52.8244C178.44 52.1689 179.486 51.1835 180.259 49.8945L178.544 48.8655C177.958 49.8431 177.19 50.5577 176.235 51.0356L177.129 52.8244ZM180.259 49.8945C181.053 48.572 181.422 46.9958 181.422 45.215H179.422C179.422 46.7209 179.111 47.9213 178.544 48.8655L180.259 49.8945ZM181.422 45.215C181.422 43.2641 181.025 41.5083 180.196 39.9787L178.438 40.9313C179.082 42.1217 179.422 43.5392 179.422 45.215H181.422ZM180.211 40.0078C179.438 38.4609 178.27 37.2633 176.733 36.4307L175.781 38.1893C176.963 38.83 177.836 39.7291 178.422 40.9022L180.211 40.0078ZM176.777 36.4558C175.289 35.5505 173.544 35.12 171.582 35.12V37.12C173.247 37.12 174.618 37.4829 175.737 38.1642L176.777 36.4558ZM171.582 35.12C169.727 35.12 167.952 35.3895 166.261 35.933L166.873 37.837C168.355 37.3605 169.923 37.12 171.582 37.12V35.12ZM166.292 35.9235C164.616 36.4023 162.679 37.2283 160.491 38.3801L161.423 40.1499C163.541 39.035 165.344 38.2744 166.842 37.8465L166.292 35.9235ZM160.957 38.265H160.872V40.265H160.957V38.265ZM161.872 39.265V7.645H159.872V39.265H161.872ZM160.872 8.645H189.007V6.645H160.872V8.645ZM188.007 7.645V19.545H190.007V7.645H188.007ZM189.007 18.545H171.497V20.545H189.007V18.545ZM170.497 19.545V28.64H172.497V19.545H170.497ZM172.367 28.147L170.922 25.597L169.182 26.583L170.627 29.133L172.367 28.147ZM170.193 27.0799C170.967 26.9694 171.71 26.8869 172.423 26.8321L172.27 24.8379C171.51 24.8964 170.723 24.9839 169.91 25.1L170.193 27.0799ZM172.423 26.8321C173.135 26.7773 173.846 26.75 174.557 26.75V24.75C173.794 24.75 173.032 24.7793 172.27 24.8379L172.423 26.8321ZM174.557 26.75C178.375 26.75 181.519 27.5941 184.044 29.225L185.129 27.545C182.215 25.6625 178.672 24.75 174.557 24.75V26.75ZM184.052 29.2301C186.679 30.8921 188.68 33.0812 190.071 35.8092L191.853 34.9008C190.297 31.8487 188.048 29.3912 185.121 27.5399L184.052 29.2301ZM190.071 35.8092C191.469 38.5517 192.172 41.5401 192.172 44.79H194.172C194.172 41.2399 193.401 37.9383 191.853 34.9008L190.071 35.8092ZM192.172 44.79C192.172 48.3722 191.359 51.5718 189.752 54.4124L191.492 55.3976C193.284 52.2316 194.172 48.6878 194.172 44.79H192.172ZM189.752 54.4124C188.137 57.2655 185.936 59.5189 183.14 61.1861L184.164 62.9039C187.261 61.0578 189.707 58.5511 191.492 55.3976L189.752 54.4124ZM183.132 61.1905C180.408 62.8466 177.359 63.68 173.962 63.68V65.68C177.704 65.68 181.116 64.7567 184.171 62.8995L183.132 61.1905ZM244.393 62.96L243.875 63.8159L243.882 63.8199L243.889 63.8238L244.393 62.96ZM239.453 57.565L238.558 58.0122L238.561 58.0188L238.565 58.0253L239.453 57.565ZM239.648 41.055L240.514 41.5547L239.648 41.055ZM244.978 35.92L245.438 36.8075L244.978 35.92ZM257.848 35.01L257.524 35.9562L257.531 35.9587L257.848 35.01ZM262.073 37.61H263.073V37.2068L262.793 36.9164L262.073 37.61ZM262.073 12.715V11.715H261.073V12.715H262.073ZM271.108 12.715H272.108V11.715H271.108V12.715ZM271.108 64V65H272.108V64H271.108ZM262.008 64H261.008V65H262.008V64ZM262.008 58.475L262.946 58.1307L261.008 58.475H262.008ZM262.723 60.425L263.358 61.1969L263.905 60.7463L263.661 60.0807L262.723 60.425ZM257.783 63.545L258.195 64.4561L258.204 64.4521L258.212 64.4479L257.783 63.545ZM257.653 56.655L257.969 57.6037L257.982 57.5994L257.994 57.5948L257.653 56.655ZM260.123 55.225L260.781 55.9776L260.784 55.9748L260.123 55.225ZM262.008 52.82L262.885 53.2989L263.008 53.075V52.82H262.008ZM262.008 45.865H263.008V45.6888L262.947 45.5233L262.008 45.865ZM260.383 43.46L259.675 44.1671L259.698 44.1892L259.721 44.2098L260.383 43.46ZM257.783 41.9L257.418 42.8312L257.442 42.8406L257.466 42.8487L257.783 41.9ZM250.698 42.355L251.197 43.2212L251.207 43.2153L250.698 42.355ZM250.698 56.07L250.173 56.9217L250.181 56.926L250.188 56.9303L250.698 56.07ZM251.478 63.78C248.993 63.78 246.809 63.2118 244.896 62.0962L243.889 63.8238C246.136 65.1349 248.675 65.78 251.478 65.78V63.78ZM244.91 62.1041C243.001 60.9507 241.476 59.2956 240.34 57.1047L238.565 58.0253C239.855 60.5144 241.625 62.456 243.875 63.8159L244.91 62.1041ZM240.347 57.1178C239.26 54.9445 238.698 52.3309 238.698 49.245H236.698C236.698 52.5725 237.305 55.5055 238.558 58.0122L240.347 57.1178ZM238.698 49.245C238.698 46.1733 239.32 43.6245 240.514 41.5547L238.781 40.5553C237.375 42.9922 236.698 45.9034 236.698 49.245H238.698ZM240.514 41.5547C241.721 39.4624 243.359 37.8873 245.438 36.8075L244.517 35.0325C242.09 36.2927 240.174 38.141 238.781 40.5553L240.514 41.5547ZM245.438 36.8075C247.532 35.7203 249.927 35.165 252.648 35.165V33.165C249.648 33.165 246.93 33.7797 244.517 35.0325L245.438 36.8075ZM252.648 35.165C254.363 35.165 255.986 35.4301 257.524 35.9562L258.171 34.0638C256.416 33.4632 254.573 33.165 252.648 33.165V35.165ZM257.531 35.9587C259.083 36.4759 260.348 37.261 261.352 38.3036L262.793 36.9164C261.544 35.619 259.992 34.6707 258.164 34.0613L257.531 35.9587ZM261.073 37.61V40.47H263.073V37.61H261.073ZM263.073 40.47V12.715H261.073V40.47H263.073ZM262.073 13.715H271.108V11.715H262.073V13.715ZM270.108 12.715V64H272.108V12.715H270.108ZM271.108 63H262.008V65H271.108V63ZM263.008 64V58.475H261.008V64H263.008ZM261.069 58.8193L261.784 60.7693L263.661 60.0807L262.946 58.1307L261.069 58.8193ZM262.087 59.6531C260.68 60.8117 259.103 61.8086 257.353 62.6421L258.212 64.4479C260.102 63.5481 261.818 62.465 263.358 61.1969L262.087 59.6531ZM257.37 62.6339C255.702 63.3884 253.746 63.78 251.478 63.78V65.78C253.976 65.78 256.223 65.3482 258.195 64.4561L257.37 62.6339ZM254.468 58.11C255.761 58.11 256.934 57.9486 257.969 57.6037L257.336 55.7063C256.551 55.968 255.601 56.11 254.468 56.11V58.11ZM257.994 57.5948C259.052 57.2101 259.986 56.6736 260.781 55.9776L259.464 54.4724C258.873 54.9898 258.16 55.4065 257.311 55.7152L257.994 57.5948ZM260.784 55.9748C261.617 55.2401 262.316 54.3437 262.885 53.2989L261.13 52.3411C260.66 53.203 260.102 53.9099 259.461 54.4752L260.784 55.9748ZM263.008 52.82V45.865H261.008V52.82H263.008ZM262.947 45.5233C262.545 44.4181 261.91 43.4745 261.044 42.7102L259.721 44.2098C260.328 44.7455 260.776 45.4052 261.068 46.2067L262.947 45.5233ZM261.09 42.7529C260.274 41.9374 259.268 41.3412 258.099 40.9513L257.466 42.8487C258.377 43.1521 259.104 43.5959 259.675 44.1671L261.09 42.7529ZM258.147 40.9688C257.02 40.5277 255.789 40.315 254.468 40.315V42.315C255.573 42.315 256.552 42.4923 257.418 42.8312L258.147 40.9688ZM254.468 40.315C252.942 40.315 251.51 40.7111 250.188 41.4947L251.207 43.2153C252.225 42.6122 253.306 42.315 254.468 42.315V40.315ZM250.198 41.4888C248.915 42.2286 247.884 43.2644 247.107 44.5752L248.828 45.5948C249.438 44.5656 250.226 43.7814 251.197 43.2212L250.198 41.4888ZM247.107 44.5752C246.312 45.9168 245.928 47.4401 245.928 49.115H247.928C247.928 47.7565 248.236 46.5932 248.828 45.5948L247.107 44.5752ZM245.928 49.115C245.928 50.7904 246.312 52.329 247.099 53.7061L248.836 52.7139C248.236 51.6644 247.928 50.4729 247.928 49.115H245.928ZM247.099 53.7061C247.871 55.0565 248.896 56.1355 250.173 56.9217L251.222 55.2183C250.246 54.6178 249.451 53.7902 248.836 52.7139L247.099 53.7061ZM250.188 56.9303C251.51 57.7139 252.942 58.11 254.468 58.11V56.11C253.306 56.11 252.225 55.8128 251.207 55.2097L250.188 56.9303ZM292.104 62.83L291.625 63.7079L291.632 63.7115L292.104 62.83ZM286.644 57.435L285.767 57.915L286.644 57.435ZM292.884 36.31L293.362 37.1886L293.374 37.182L292.884 36.31ZM311.149 37.805L310.473 38.5422L310.48 38.548L310.486 38.5538L311.149 37.805ZM316.284 48.01L316.587 48.9631L317.42 48.6986L317.269 47.8379L316.284 48.01ZM294.184 55.03L293.258 55.4077L293.607 56.2626L294.487 55.9831L294.184 55.03ZM292.169 50.09L291.849 49.1425L290.841 49.4826L291.243 50.4677L292.169 50.09ZM308.159 44.695L308.568 45.6075L307.839 43.7475L308.159 44.695ZM306.274 45.54L305.318 45.8341L305.651 46.9152L306.683 46.4525L306.274 45.54ZM304.389 42.615L303.682 43.3221L303.7 43.3398L303.718 43.3565L304.389 42.615ZM296.849 42.29L297.369 43.1443L297.379 43.138L296.849 42.29ZM294.509 44.955L293.608 44.5212L293.605 44.5285L293.601 44.5359L294.509 44.955ZM294.704 53.47L293.823 53.9422L293.826 53.949L293.83 53.9556L294.704 53.47ZM297.369 56.135L296.895 57.0155L297.369 56.135ZM303.999 56.525L303.657 55.5852L303.65 55.5878L303.643 55.5905L303.999 56.525ZM306.794 55.16L307.653 54.6479L307.132 53.7745L306.268 54.3097L306.794 55.16ZM310.824 61.92L311.32 62.7882L312.205 62.2829L311.683 61.4079L310.824 61.92ZM305.884 64L305.603 63.0402L305.597 63.0422L305.884 64ZM300.944 63.78C297.6 63.78 294.825 63.1531 292.576 61.9485L291.632 63.7115C294.237 65.1069 297.354 65.78 300.944 65.78V63.78ZM292.583 61.9521C290.361 60.7403 288.683 59.0772 287.521 56.955L285.767 57.915C287.119 60.3862 289.08 62.3197 291.625 63.7079L292.583 61.9521ZM287.521 56.955C286.356 54.8253 285.759 52.3513 285.759 49.505H283.759C283.759 52.6387 284.419 55.4514 285.767 57.915L287.521 56.955ZM285.759 49.505C285.759 46.8267 286.446 44.4375 287.811 42.31L286.127 41.23C284.546 43.6958 283.759 46.4633 283.759 49.505H285.759ZM287.811 42.31C289.19 40.1594 291.035 38.4539 293.362 37.1885L292.406 35.4315C289.793 36.8527 287.694 38.7873 286.127 41.23L287.811 42.31ZM293.374 37.182C295.684 35.8852 298.265 35.23 301.139 35.23V33.23C297.947 33.23 295.025 33.9615 292.395 35.438L293.374 37.182ZM301.139 35.23C305.004 35.23 308.086 36.3539 310.473 38.5422L311.825 37.0678C309.012 34.4894 305.421 33.23 301.139 33.23V35.23ZM310.486 38.5538C312.917 40.7055 314.547 43.8778 315.299 48.1821L317.269 47.8379C316.461 43.2155 314.668 39.5845 311.812 37.0562L310.486 38.5538ZM315.981 47.0569L293.881 54.0769L294.487 55.9831L316.587 48.9631L315.981 47.0569ZM295.11 54.6523L293.095 49.7123L291.243 50.4677L293.258 55.4077L295.11 54.6523ZM292.489 51.0375L308.479 45.6425L307.839 43.7475L291.849 49.1425L292.489 51.0375ZM307.75 43.7825L305.865 44.6275L306.683 46.4525L308.568 45.6075L307.75 43.7825ZM307.23 45.2459C306.828 43.9399 306.098 42.8124 305.06 41.8735L303.718 43.3565C304.5 44.0643 305.027 44.8867 305.318 45.8341L307.23 45.2459ZM305.096 41.9079C303.972 40.7834 302.347 40.315 300.424 40.315V42.315C302.055 42.315 303.073 42.7132 303.682 43.3221L305.096 41.9079ZM300.424 40.315C298.912 40.315 297.533 40.6833 296.319 41.442L297.379 43.138C298.245 42.5967 299.25 42.315 300.424 42.315V40.315ZM296.329 41.4358C295.149 42.154 294.245 43.1975 293.608 44.5212L295.41 45.3888C295.899 44.3725 296.556 43.6393 297.369 43.1442L296.329 41.4358ZM293.601 44.5359C293.007 45.8232 292.729 47.3164 292.729 48.985H294.729C294.729 47.5336 294.971 46.3401 295.417 45.3741L293.601 44.5359ZM292.729 48.985C292.729 50.8799 293.075 52.5475 293.823 53.9422L295.586 52.9978C295.033 51.9658 294.729 50.6434 294.729 48.985H292.729ZM293.83 53.9556C294.568 55.2847 295.592 56.3139 296.895 57.0155L297.843 55.2545C296.893 54.7428 296.14 53.9953 295.578 52.9844L293.83 53.9556ZM296.895 57.0155C298.179 57.7071 299.601 58.045 301.139 58.045V56.045C299.904 56.045 298.812 55.7763 297.843 55.2545L296.895 57.0155ZM301.139 58.045C302.254 58.045 303.329 57.8505 304.355 57.4595L303.643 55.5905C302.849 55.8928 302.017 56.045 301.139 56.045V58.045ZM304.341 57.4648C305.362 57.0934 306.355 56.6077 307.32 56.0103L306.268 54.3097C305.413 54.839 304.543 55.2632 303.657 55.5852L304.341 57.4648ZM305.935 55.6721L309.965 62.4321L311.683 61.4079L307.653 54.6479L305.935 55.6721ZM310.328 61.0518C308.883 61.8774 307.309 62.5409 305.603 63.0403L306.165 64.9597C308.012 64.4191 309.732 63.696 311.32 62.7882L310.328 61.0518ZM305.597 63.0422C303.942 63.5386 302.393 63.78 300.944 63.78V65.78C302.616 65.78 304.359 65.5014 306.171 64.9578L305.597 63.0422ZM356.839 41.64L355.983 41.1231L355.976 41.1351L356.839 41.64ZM362.624 36.245L363.09 37.13L363.102 37.1235L362.624 36.245ZM379.59 36.245L379.098 37.1162L379.111 37.1229L379.59 36.245ZM385.049 41.64L384.172 42.12L384.176 42.1263L384.179 42.1326L385.049 41.64ZM385.049 57.305L384.175 56.8193L384.172 56.825L385.049 57.305ZM379.59 62.765L379.098 61.8938L379.59 62.765ZM362.624 62.96L362.177 63.8545L362.184 63.8576L362.624 62.96ZM356.904 57.695L356.048 58.2119L356.904 57.695ZM364.9 53.535L364.005 53.9822L364.008 53.9888L364.012 53.9953L364.9 53.535ZM367.37 56.33L366.815 57.162L367.37 56.33ZM374.585 56.33L374.03 55.4979L374.585 56.33ZM376.99 53.535L377.891 53.9689L377.897 53.9561L376.99 53.535ZM376.99 45.475L376.089 45.9088L376.99 45.475ZM374.585 42.68L374.03 43.5121L374.585 42.68ZM367.37 42.68L366.815 41.8479L367.37 42.68ZM364.9 45.475L364.012 45.0147V45.0147L364.9 45.475ZM355.824 49.44C355.824 46.6974 356.457 44.2746 357.703 42.1449L355.976 41.1351C354.535 43.5987 353.824 46.3759 353.824 49.44H355.824ZM357.696 42.1569C358.984 40.0226 360.775 38.3487 363.09 37.1299L362.159 35.3601C359.534 36.7413 357.468 38.6641 355.983 41.1231L357.696 42.1569ZM363.102 37.1235C365.406 35.8705 368.076 35.23 371.139 35.23V33.23C367.79 33.23 364.783 33.9328 362.147 35.3665L363.102 37.1235ZM371.139 35.23C374.25 35.23 376.891 35.8719 379.098 37.1161L380.081 35.3738C377.521 33.9314 374.529 33.23 371.139 33.23V35.23ZM379.111 37.1229C381.332 38.3347 383.011 39.9978 384.172 42.12L385.927 41.16C384.575 38.6888 382.613 36.7553 380.068 35.3671L379.111 37.1229ZM384.179 42.1326C385.386 44.2643 385.999 46.6916 385.999 49.44H387.999C387.999 46.3817 387.313 43.609 385.92 41.1474L384.179 42.1326ZM385.999 49.44C385.999 52.1882 385.386 54.6403 384.175 56.8194L385.924 57.7906C387.313 55.2897 387.999 52.4985 387.999 49.44H385.999ZM384.172 56.825C383.009 58.9502 381.327 60.6379 379.098 61.8938L380.081 63.6362C382.619 62.2054 384.576 60.2532 385.927 57.785L384.172 56.825ZM379.098 61.8938C376.895 63.136 374.212 63.78 371.009 63.78V65.78C374.481 65.78 377.518 65.0807 380.081 63.6362L379.098 61.8938ZM371.009 63.78C368.022 63.78 365.381 63.1999 363.065 62.0624L362.184 63.8576C364.808 65.1468 367.757 65.78 371.009 65.78V63.78ZM363.072 62.0656C360.812 60.9359 359.048 59.3109 357.761 57.1781L356.048 58.2119C357.534 60.6725 359.583 62.5575 362.177 63.8544L363.072 62.0656ZM357.761 57.1781C356.485 55.0655 355.824 52.5003 355.824 49.44H353.824C353.824 52.7931 354.551 55.7312 356.048 58.2119L357.761 57.1781ZM362.99 49.505C362.99 51.12 363.323 52.6183 364.005 53.9822L365.794 53.0878C365.263 52.025 364.99 50.8367 364.99 49.505H362.99ZM364.012 53.9953C364.692 55.3069 365.626 56.3698 366.815 57.162L367.924 55.4979C367.033 54.9035 366.32 54.1031 365.787 53.0747L364.012 53.9953ZM366.815 57.162C368.026 57.9694 369.39 58.37 370.879 58.37V56.37C369.769 56.37 368.793 56.0772 367.924 55.4979L366.815 57.162ZM370.879 58.37C372.478 58.37 373.912 57.9801 375.139 57.162L374.03 55.4979C373.177 56.0666 372.141 56.37 370.879 56.37V58.37ZM375.139 57.162C376.334 56.3654 377.253 55.2936 377.891 53.9688L376.089 53.1012C375.6 54.1164 374.915 54.9079 374.03 55.4979L375.139 57.162ZM377.897 53.9561C378.527 52.598 378.835 51.1089 378.835 49.505H376.835C376.835 50.8478 376.579 52.0454 376.082 53.1139L377.897 53.9561ZM378.835 49.505C378.835 47.8632 378.529 46.3675 377.891 45.0412L376.089 45.9088C376.577 46.9225 376.835 48.1134 376.835 49.505H378.835ZM377.891 45.0412C377.253 43.7164 376.334 42.6446 375.139 41.8479L374.03 43.5121C374.915 44.1021 375.6 44.8936 376.089 45.9088L377.891 45.0412ZM375.139 41.8479C373.912 41.0299 372.478 40.64 370.879 40.64V42.64C372.141 42.64 373.177 42.9434 374.03 43.5121L375.139 41.8479ZM370.879 40.64C369.39 40.64 368.026 41.0406 366.815 41.8479L367.924 43.5121C368.793 42.9328 369.769 42.64 370.879 42.64V40.64ZM366.815 41.8479C365.626 42.6402 364.692 43.7031 364.012 45.0147L365.787 45.9353C366.32 44.9069 367.033 44.1065 367.924 43.5121L366.815 41.8479ZM364.012 45.0147C363.321 46.347 362.99 47.8524 362.99 49.505H364.99C364.99 48.1243 365.265 46.943 365.787 45.9353L364.012 45.0147ZM403.398 63.025L402.719 63.7592L402.729 63.7683L403.398 63.025ZM400.668 56.85H399.668V56.8672L399.669 56.8845L400.668 56.85ZM400.668 35.595V34.595H399.668V35.595H400.668ZM409.768 35.595H410.768V34.595H409.768V35.595ZM409.768 53.47H408.768V53.5044L408.771 53.5388L409.768 53.47ZM410.743 56.525L409.933 57.1105L409.941 57.1216L409.949 57.1325L410.743 56.525ZM417.048 56.265L416.374 55.5265L416.366 55.534L416.358 55.5416L417.048 56.265ZM419.323 52.56L418.38 52.2285L418.377 52.2361L418.375 52.2438L419.323 52.56ZM420.168 35.595V34.595H419.168V35.595H420.168ZM429.268 35.595H430.268V34.595H429.268V35.595ZM429.268 64V65H430.268V64H429.268ZM421.013 64L420.023 64.1362L420.141 65H421.013V64ZM420.298 58.8L421.274 58.5831L419.308 58.9362L420.298 58.8ZM420.428 59.385L421.302 59.8706L421.487 59.5387L421.404 59.1681L420.428 59.385ZM417.958 62.505L417.284 61.7665L417.958 62.505ZM414.383 64.585L414.058 63.6393L414.04 63.6455L414.022 63.6524L414.383 64.585ZM409.833 64.365C407.498 64.365 405.599 63.66 404.067 62.2817L402.729 63.7683C404.665 65.51 407.055 66.365 409.833 66.365V64.365ZM404.077 62.2909C402.554 60.8814 401.746 59.0815 401.668 56.8155L399.669 56.8845C399.764 59.6451 400.776 61.9619 402.719 63.7591L404.077 62.2909ZM401.668 56.85V35.595H399.668V56.85H401.668ZM400.668 36.595H409.768V34.595H400.668V36.595ZM408.768 35.595V53.47H410.768V35.595H408.768ZM408.771 53.5388C408.866 54.9253 409.231 56.139 409.933 57.1105L411.554 55.9395C411.129 55.351 410.844 54.528 410.766 53.4012L408.771 53.5388ZM409.949 57.1325C410.775 58.2133 412.095 58.63 413.603 58.63V56.63C412.425 56.63 411.838 56.31 411.538 55.9175L409.949 57.1325ZM413.603 58.63C415.198 58.63 416.595 58.0797 417.739 56.9884L416.358 55.5416C415.594 56.2703 414.695 56.63 413.603 56.63V58.63ZM417.723 57.0035C418.87 55.9558 419.71 54.563 420.272 52.8762L418.375 52.2438C417.897 53.677 417.22 54.7542 416.374 55.5265L417.723 57.0035ZM420.267 52.8915C420.873 51.165 421.168 49.2521 421.168 47.165H419.168C419.168 49.0645 418.9 50.7483 418.38 52.2285L420.267 52.8915ZM421.168 47.165V35.595H419.168V47.165H421.168ZM420.168 36.595H429.268V34.595H420.168V36.595ZM428.268 35.595V64H430.268V35.595H428.268ZM429.268 63H421.013V65H429.268V63ZM422.004 63.8638L421.289 58.6638L419.308 58.9362L420.023 64.1362L422.004 63.8638ZM419.322 59.0169L419.452 59.6019L421.404 59.1681L421.274 58.5831L419.322 59.0169ZM419.554 58.8994C418.957 59.974 418.202 60.9288 417.284 61.7665L418.633 63.2435C419.708 62.2612 420.599 61.136 421.302 59.8706L419.554 58.8994ZM417.284 61.7665C416.397 62.5766 415.327 63.2032 414.058 63.6393L414.708 65.5307C416.213 65.0134 417.526 64.2534 418.633 63.2435L417.284 61.7665ZM414.022 63.6524C412.812 64.1209 411.421 64.365 409.833 64.365V66.365C411.626 66.365 413.268 66.0891 414.744 65.5176L414.022 63.6524ZM447.792 23.115V22.115H446.792V23.115H447.792ZM456.892 23.115H457.892V22.115H456.892V23.115ZM456.892 35.465H455.892V36.465H456.892V35.465ZM463.782 35.465H464.782V34.465H463.782V35.465ZM463.782 42.55V43.55H464.782V42.55H463.782ZM456.892 42.55V41.55H455.892V42.55H456.892ZM456.892 64V65H457.892V64H456.892ZM447.792 64H446.792V65H447.792V64ZM447.792 42.55H448.792V41.55H447.792V42.55ZM443.372 42.55H442.372V43.55H443.372V42.55ZM443.372 35.465V34.465H442.372V35.465H443.372ZM447.792 35.465V36.465H448.792V35.465H447.792ZM447.792 24.115H456.892V22.115H447.792V24.115ZM455.892 23.115V35.465H457.892V23.115H455.892ZM456.892 36.465H463.782V34.465H456.892V36.465ZM462.782 35.465V42.55H464.782V35.465H462.782ZM463.782 41.55H456.892V43.55H463.782V41.55ZM455.892 42.55V64H457.892V42.55H455.892ZM456.892 63H447.792V65H456.892V63ZM448.792 64V42.55H446.792V64H448.792ZM447.792 41.55H443.372V43.55H447.792V41.55ZM444.372 42.55V35.465H442.372V42.55H444.372ZM443.372 36.465H447.792V34.465H443.372V36.465ZM448.792 35.465V23.115H446.792V35.465H448.792ZM479.938 63.025L479.259 63.7592L479.269 63.7683L479.938 63.025ZM477.208 56.85H476.208V56.8672L476.209 56.8845L477.208 56.85ZM477.208 35.595V34.595H476.208V35.595H477.208ZM486.308 35.595H487.308V34.595H486.308V35.595ZM486.308 53.47H485.308V53.5044L485.311 53.5388L486.308 53.47ZM487.283 56.525L486.473 57.1105L486.481 57.1216L486.489 57.1325L487.283 56.525ZM493.588 56.265L492.914 55.5265L492.906 55.534L492.898 55.5416L493.588 56.265ZM495.863 52.56L494.92 52.2285L494.917 52.2361L494.915 52.2438L495.863 52.56ZM496.708 35.595V34.595H495.708V35.595H496.708ZM505.808 35.595H506.808V34.595H505.808V35.595ZM505.808 64V65H506.808V64H505.808ZM497.553 64L496.563 64.1362L496.681 65H497.553V64ZM496.838 58.8L497.815 58.5831L495.848 58.9362L496.838 58.8ZM496.968 59.385L497.842 59.8706L498.027 59.5387L497.945 59.1681L496.968 59.385ZM494.498 62.505L493.824 61.7665L494.498 62.505ZM490.923 64.585L490.598 63.6393L490.58 63.6455L490.562 63.6524L490.923 64.585ZM486.373 64.365C484.038 64.365 482.139 63.66 480.607 62.2817L479.269 63.7683C481.205 65.51 483.595 66.365 486.373 66.365V64.365ZM480.617 62.2909C479.094 60.8814 478.286 59.0815 478.208 56.8155L476.209 56.8845C476.304 59.6451 477.316 61.9619 479.259 63.7591L480.617 62.2909ZM478.208 56.85V35.595H476.208V56.85H478.208ZM477.208 36.595H486.308V34.595H477.208V36.595ZM485.308 35.595V53.47H487.308V35.595H485.308ZM485.311 53.5388C485.406 54.9253 485.771 56.139 486.473 57.1105L488.094 55.9395C487.669 55.351 487.384 54.528 487.306 53.4012L485.311 53.5388ZM486.489 57.1325C487.315 58.2133 488.635 58.63 490.143 58.63V56.63C488.965 56.63 488.378 56.31 488.078 55.9175L486.489 57.1325ZM490.143 58.63C491.738 58.63 493.135 58.0797 494.279 56.9884L492.898 55.5416C492.134 56.2703 491.235 56.63 490.143 56.63V58.63ZM494.263 57.0035C495.41 55.9558 496.25 54.563 496.812 52.8762L494.915 52.2438C494.437 53.677 493.76 54.7542 492.914 55.5265L494.263 57.0035ZM496.807 52.8915C497.413 51.165 497.708 49.2521 497.708 47.165H495.708C495.708 49.0645 495.44 50.7483 494.92 52.2285L496.807 52.8915ZM497.708 47.165V35.595H495.708V47.165H497.708ZM496.708 36.595H505.808V34.595H496.708V36.595ZM504.808 35.595V64H506.808V35.595H504.808ZM505.808 63H497.553V65H505.808V63ZM498.544 63.8638L497.829 58.6638L495.848 58.9362L496.563 64.1362L498.544 63.8638ZM495.862 59.0169L495.992 59.6019L497.945 59.1681L497.815 58.5831L495.862 59.0169ZM496.094 58.8994C495.497 59.974 494.742 60.9288 493.824 61.7665L495.173 63.2435C496.248 62.2612 497.14 61.136 497.842 59.8706L496.094 58.8994ZM493.824 61.7665C492.937 62.5766 491.867 63.2032 490.598 63.6393L491.248 65.5307C492.753 65.0134 494.066 64.2534 495.173 63.2435L493.824 61.7665ZM490.562 63.6524C489.352 64.1209 487.961 64.365 486.373 64.365V66.365C488.166 66.365 489.808 66.0891 491.284 65.5176L490.562 63.6524ZM534.277 63.61L533.82 64.4996L533.835 64.5069L533.849 64.5137L534.277 63.61ZM530.052 60.425L529.113 60.0807L528.902 60.6579L529.321 61.1073L530.052 60.425ZM530.767 58.475H531.767L529.828 58.1307L530.767 58.475ZM530.767 64V65H531.767V64H530.767ZM521.667 64H520.667V65H521.667V64ZM521.667 12.715V11.715H520.667V12.715H521.667ZM530.702 12.715H531.702V11.715H530.702V12.715ZM530.702 37.545L530.056 36.7816L529.702 37.0812V37.545H530.702ZM535.187 35.14L534.858 34.1958L535.187 35.14ZM548.317 35.92L547.819 36.7871L548.317 35.92ZM553.192 41.055L552.312 41.5291L552.317 41.5393L552.323 41.5493L553.192 41.055ZM552.997 57.5L552.137 56.9902L552.13 57.0021L552.997 57.5ZM547.602 62.895L548.089 63.7684L547.602 62.895ZM542.012 56.07L541.503 55.2097L541.495 55.214L541.488 55.2183L542.012 56.07ZM542.012 42.355L541.488 43.2067L541.507 43.2183L541.527 43.2292L542.012 42.355ZM534.992 41.9L535.321 42.8445L535.332 42.8405L535.343 42.8363L534.992 41.9ZM532.392 43.46L533.076 44.1895L533.078 44.1882L532.392 43.46ZM530.767 45.865L529.842 45.4864L529.767 45.6684V45.865H530.767ZM530.767 52.82H529.767V53.075L529.889 53.2989L530.767 52.82ZM532.587 55.225L531.903 55.9545L531.927 55.9765L531.952 55.9969L532.587 55.225ZM535.122 56.655L534.781 57.5948L534.8 57.6018L534.819 57.6079L535.122 56.655ZM540.322 63.78C538.043 63.78 536.184 63.4065 534.705 62.7063L533.849 64.5137C535.664 65.3735 537.835 65.78 540.322 65.78V63.78ZM534.734 62.7204C533.232 61.9491 531.917 60.9571 530.783 59.7427L529.321 61.1073C530.614 62.4929 532.116 63.6242 533.82 64.4996L534.734 62.7204ZM530.991 60.7693L531.706 58.8193L529.828 58.1307L529.113 60.0807L530.991 60.7693ZM529.767 58.475V64H531.767V58.475H529.767ZM530.767 63H521.667V65H530.767V63ZM522.667 64V12.715H520.667V64H522.667ZM521.667 13.715H530.702V11.715H521.667V13.715ZM529.702 12.715V40.47H531.702V12.715H529.702ZM531.702 40.47V37.545H529.702V40.47H531.702ZM531.348 38.3084C532.356 37.4559 533.732 36.7066 535.517 36.0842L534.858 34.1958C532.916 34.8734 531.302 35.7274 530.056 36.7816L531.348 38.3084ZM535.517 36.0842C537.255 35.4779 539.264 35.165 541.557 35.165V33.165C539.084 33.165 536.847 33.5021 534.858 34.1958L535.517 36.0842ZM541.557 35.165C543.862 35.165 545.942 35.7087 547.819 36.7871L548.815 35.0529C546.619 33.7913 544.193 33.165 541.557 33.165V35.165ZM547.819 36.7871C549.68 37.856 551.179 39.4246 552.312 41.5291L554.073 40.5809C552.779 38.1787 551.028 36.324 548.815 35.0529L547.819 36.7871ZM552.323 41.5493C553.474 43.5741 554.077 46.1021 554.077 49.18H556.077C556.077 45.8446 555.424 42.9559 554.062 40.5607L552.323 41.5493ZM554.077 49.18C554.077 52.2397 553.417 54.8302 552.137 56.9902L553.858 58.0098C555.351 55.4898 556.077 52.5337 556.077 49.18H554.077ZM552.13 57.0021C550.873 59.1923 549.203 60.8575 547.115 62.0216L548.089 63.7684C550.509 62.4192 552.435 60.4877 553.865 57.9979L552.13 57.0021ZM547.115 62.0216C545.012 63.1946 542.753 63.78 540.322 63.78V65.78C543.091 65.78 545.686 65.1087 548.089 63.7684L547.115 62.0216ZM538.307 58.11C539.833 58.11 541.25 57.7136 542.536 56.9217L541.488 55.2183C540.522 55.8131 539.469 56.11 538.307 56.11V58.11ZM542.522 56.9303C543.845 56.1462 544.899 55.0655 545.676 53.7061L543.939 52.7139C543.329 53.7811 542.519 54.6072 541.503 55.2097L542.522 56.9303ZM545.676 53.7061C546.463 52.329 546.847 50.7904 546.847 49.115H544.847C544.847 50.4729 544.539 51.6644 543.939 52.7139L545.676 53.7061ZM546.847 49.115C546.847 47.4401 546.463 45.9168 545.668 44.5752L543.947 45.5948C544.539 46.5932 544.847 47.7565 544.847 49.115H546.847ZM545.668 44.5752C544.885 43.2553 543.826 42.2184 542.498 41.4808L541.527 43.2292C542.539 43.7916 543.343 44.5747 543.947 45.5948L545.668 44.5752ZM542.536 41.5033C541.25 40.7114 539.833 40.315 538.307 40.315V42.315C539.469 42.315 540.522 42.6119 541.488 43.2067L542.536 41.5033ZM538.307 40.315C537.024 40.315 535.799 40.5294 534.641 40.9637L535.343 42.8363C536.265 42.4906 537.251 42.315 538.307 42.315V40.315ZM534.664 40.9555C533.54 41.3463 532.55 41.9379 531.707 42.7318L533.078 44.1882C533.708 43.5954 534.451 43.147 535.321 42.8445L534.664 40.9555ZM531.708 42.7305C530.902 43.4867 530.282 44.4114 529.842 45.4864L531.693 46.2436C532.033 45.412 532.496 44.7333 533.076 44.1895L531.708 42.7305ZM529.767 45.865V52.82H531.767V45.865H529.767ZM529.889 53.2989C530.453 54.3324 531.122 55.2223 531.903 55.9545L533.271 54.4955C532.666 53.9277 532.121 53.2142 531.645 52.3411L529.889 53.2989ZM531.952 55.9969C532.781 56.6803 533.727 57.2117 534.781 57.5948L535.464 55.7152C534.611 55.4049 533.867 54.983 533.223 54.4531L531.952 55.9969ZM534.819 57.6079C535.885 57.9472 537.051 58.11 538.307 58.11V56.11C537.223 56.11 536.266 55.9694 535.426 55.7021L534.819 57.6079ZM576.919 35.595L577.913 35.4873L577.816 34.595H576.919V35.595ZM577.764 43.395L576.777 43.5594L578.758 43.2873L577.764 43.395ZM577.569 42.225L576.67 41.787L576.53 42.0743L576.582 42.3894L577.569 42.225ZM580.949 37.935L581.582 38.709L581.589 38.7033L581.596 38.6975L580.949 37.935ZM585.174 35.14L584.76 34.2296L584.749 34.2345L585.174 35.14ZM588.424 34.165L589.423 34.2149L589.475 33.165H588.424V34.165ZM587.969 43.265L587.847 44.2576L588.914 44.3882L588.968 43.3149L587.969 43.265ZM582.509 44.305L583.041 45.1516L582.509 44.305ZM578.999 48.075L578.114 47.6082L578.999 48.075ZM577.764 64V65H578.764V64H577.764ZM568.729 64H567.729V65H568.729V64ZM568.729 35.595V34.595H567.729V35.595H568.729ZM575.925 35.7027L576.77 43.5027L578.758 43.2873L577.913 35.4873L575.925 35.7027ZM578.75 43.2306L578.555 42.0606L576.582 42.3894L576.777 43.5594L578.75 43.2306ZM578.468 42.663C579.229 41.1005 580.266 39.7858 581.582 38.709L580.316 37.161C578.772 38.4242 577.555 39.9695 576.67 41.787L578.468 42.663ZM581.596 38.6975C582.973 37.5292 584.307 36.6506 585.598 36.0455L584.749 34.2345C583.267 34.9294 581.785 35.9142 580.302 37.1725L581.596 38.6975ZM585.588 36.0504C587.002 35.4074 587.917 35.165 588.424 35.165V33.165C587.457 33.165 586.206 33.5726 584.76 34.2296L585.588 36.0504ZM587.425 34.1151L586.97 43.2151L588.968 43.3149L589.423 34.2149L587.425 34.1151ZM588.09 42.2724C585.785 41.9901 583.724 42.3601 581.977 43.4584L583.041 45.1516C584.327 44.3433 585.906 44.0199 587.847 44.2576L588.09 42.2724ZM581.977 43.4584C580.314 44.5037 579.021 45.8904 578.114 47.6082L579.883 48.5418C580.623 47.1396 581.671 46.013 583.041 45.1516L581.977 43.4584ZM578.114 47.6082C577.221 49.3016 576.764 51.0642 576.764 52.885H578.764C578.764 51.4125 579.13 49.9684 579.883 48.5418L578.114 47.6082ZM576.764 52.885V64H578.764V52.885H576.764ZM577.764 63H568.729V65H577.764V63ZM569.729 64V35.595H567.729V64H569.729ZM568.729 36.595H576.919V34.595H568.729V36.595ZM600.424 41.64L599.568 41.1231L599.561 41.1351L600.424 41.64ZM606.209 36.245L606.675 37.13L606.687 37.1235L606.209 36.245ZM623.174 36.245L622.683 37.1162L622.696 37.1229L623.174 36.245ZM628.634 41.64L627.757 42.12L627.761 42.1263L627.764 42.1326L628.634 41.64ZM628.634 57.305L627.76 56.8193L627.757 56.825L628.634 57.305ZM623.174 62.765L622.683 61.8938L623.174 62.765ZM606.209 62.96L605.762 63.8545L605.769 63.8576L606.209 62.96ZM600.489 57.695L599.633 58.2119L600.489 57.695ZM608.484 53.535L607.59 53.9822L607.593 53.9888L607.597 53.9953L608.484 53.535ZM610.954 56.33L610.4 57.162L610.954 56.33ZM618.169 56.33L617.615 55.4979L618.169 56.33ZM620.574 53.535L621.476 53.9689L621.481 53.9561L620.574 53.535ZM620.574 45.475L619.673 45.9088L620.574 45.475ZM618.169 42.68L617.615 43.5121L618.169 42.68ZM610.954 42.68L610.4 41.8479L610.954 42.68ZM608.484 45.475L607.597 45.0147V45.0147L608.484 45.475ZM599.409 49.44C599.409 46.6974 600.042 44.2746 601.288 42.1449L599.561 41.1351C598.12 43.5987 597.409 46.3759 597.409 49.44H599.409ZM601.281 42.1569C602.569 40.0226 604.36 38.3487 606.675 37.1299L605.744 35.3601C603.119 36.7413 601.053 38.6641 599.568 41.1231L601.281 42.1569ZM606.687 37.1235C608.991 35.8705 611.661 35.23 614.724 35.23V33.23C611.375 33.23 608.368 33.9328 605.732 35.3665L606.687 37.1235ZM614.724 35.23C617.835 35.23 620.476 35.8719 622.683 37.1161L623.665 35.3738C621.106 33.9314 618.114 33.23 614.724 33.23V35.23ZM622.696 37.1229C624.917 38.3347 626.596 39.9978 627.757 42.12L629.512 41.16C628.16 38.6888 626.198 36.7553 623.653 35.3671L622.696 37.1229ZM627.764 42.1326C628.971 44.2643 629.584 46.6916 629.584 49.44H631.584C631.584 46.3817 630.898 43.609 629.505 41.1474L627.764 42.1326ZM629.584 49.44C629.584 52.1882 628.971 54.6403 627.76 56.8194L629.509 57.7906C630.898 55.2897 631.584 52.4985 631.584 49.44H629.584ZM627.757 56.825C626.594 58.9502 624.912 60.6379 622.683 61.8938L623.665 63.6362C626.204 62.2054 628.161 60.2532 629.512 57.785L627.757 56.825ZM622.683 61.8938C620.48 63.136 617.797 63.78 614.594 63.78V65.78C618.066 65.78 621.103 65.0807 623.665 63.6362L622.683 61.8938ZM614.594 63.78C611.607 63.78 608.966 63.1999 606.65 62.0624L605.769 63.8576C608.393 65.1468 611.342 65.78 614.594 65.78V63.78ZM606.657 62.0656C604.397 60.9359 602.633 59.3109 601.346 57.1781L599.633 58.2119C601.119 60.6725 603.168 62.5575 605.762 63.8544L606.657 62.0656ZM601.346 57.1781C600.07 55.0655 599.409 52.5003 599.409 49.44H597.409C597.409 52.7931 598.136 55.7312 599.633 58.2119L601.346 57.1781ZM606.574 49.505C606.574 51.12 606.908 52.6183 607.59 53.9822L609.379 53.0878C608.847 52.025 608.574 50.8367 608.574 49.505H606.574ZM607.597 53.9953C608.277 55.3069 609.211 56.3698 610.4 57.162L611.509 55.4979C610.617 54.9035 609.905 54.1031 609.372 53.0747L607.597 53.9953ZM610.4 57.162C611.611 57.9694 612.975 58.37 614.464 58.37V56.37C613.354 56.37 612.378 56.0772 611.509 55.4979L610.4 57.162ZM614.464 58.37C616.063 58.37 617.497 57.9801 618.724 57.162L617.615 55.4979C616.762 56.0666 615.726 56.37 614.464 56.37V58.37ZM618.724 57.162C619.919 56.3654 620.838 55.2936 621.475 53.9688L619.673 53.1012C619.185 54.1164 618.5 54.9079 617.615 55.4979L618.724 57.162ZM621.481 53.9561C622.112 52.598 622.419 51.1089 622.419 49.505H620.419C620.419 50.8478 620.164 52.0454 619.667 53.1139L621.481 53.9561ZM622.419 49.505C622.419 47.8632 622.114 46.3675 621.475 45.0412L619.673 45.9088C620.162 46.9225 620.419 48.1134 620.419 49.505H622.419ZM621.475 45.0412C620.838 43.7164 619.919 42.6446 618.724 41.8479L617.615 43.5121C618.5 44.1021 619.185 44.8936 619.673 45.9088L621.475 45.0412ZM618.724 41.8479C617.497 41.0299 616.063 40.64 614.464 40.64V42.64C615.726 42.64 616.762 42.9434 617.615 43.5121L618.724 41.8479ZM614.464 40.64C612.975 40.64 611.611 41.0406 610.4 41.8479L611.509 43.5121C612.378 42.9328 613.354 42.64 614.464 42.64V40.64ZM610.4 41.8479C609.211 42.6402 608.277 43.7031 607.597 45.0147L609.372 45.9353C609.905 44.9069 610.617 44.1065 611.509 43.5121L610.4 41.8479ZM607.597 45.0147C606.906 46.347 606.574 47.8524 606.574 49.505H608.574C608.574 48.1243 608.85 46.943 609.372 45.9353L607.597 45.0147Z" fill="white"/>
<path d="M2.825 98V79.85H2.85L11.6 92.275L11.075 92.2L19.8 79.85H19.825V98H18.625V82.675L18.725 83.275L11.325 93.7H11.275L3.825 83.275L4.025 82.725V98H2.825ZM28.9313 98.2C27.9979 98.2 27.1479 97.9917 26.3813 97.575C25.6313 97.1417 25.0313 96.5417 24.5813 95.775C24.1479 95.0083 23.9313 94.1167 23.9313 93.1C23.9313 92.0167 24.1646 91.0917 24.6313 90.325C25.0979 89.5417 25.7313 88.95 26.5313 88.55C27.3313 88.1333 28.2396 87.925 29.2562 87.925C30.1229 87.925 30.9396 88.1833 31.7063 88.7C32.4896 89.2167 33.0479 89.8667 33.3813 90.65L33.2063 91L33.3563 88.225H34.4063V98H33.2313V94.975L33.4813 95.425C33.3646 95.7583 33.1646 96.0917 32.8813 96.425C32.5979 96.7417 32.2479 97.0417 31.8313 97.325C31.4313 97.5917 30.9813 97.8083 30.4813 97.975C29.9979 98.125 29.4813 98.2 28.9313 98.2ZM29.1813 97.2C29.9146 97.2 30.5729 97.05 31.1563 96.75C31.7563 96.4333 32.2396 96 32.6063 95.45C32.9729 94.9 33.1813 94.2667 33.2313 93.55V92.15C33.0979 91.5333 32.8313 90.9833 32.4313 90.5C32.0479 90.0167 31.5729 89.6333 31.0063 89.35C30.4396 89.0667 29.8229 88.925 29.1563 88.925C28.4229 88.925 27.7479 89.1 27.1313 89.45C26.5146 89.7833 26.0229 90.2583 25.6563 90.875C25.2896 91.4917 25.1063 92.2167 25.1063 93.05C25.1063 93.8167 25.2896 94.5167 25.6563 95.15C26.0229 95.7667 26.5146 96.2667 27.1313 96.65C27.7646 97.0167 28.4479 97.2 29.1813 97.2ZM38.8461 88.225H40.0211V98H38.8461V88.225ZM38.5961 84.625C38.5961 84.3917 38.6878 84.2 38.8711 84.05C39.0544 83.8833 39.2544 83.8 39.4711 83.8C39.7044 83.8 39.9044 83.8833 40.0711 84.05C40.2378 84.2 40.3211 84.3917 40.3211 84.625C40.3211 84.875 40.2378 85.0833 40.0711 85.25C39.9044 85.4 39.7044 85.475 39.4711 85.475C39.2544 85.475 39.0544 85.3917 38.8711 85.225C38.6878 85.0583 38.5961 84.8583 38.5961 84.625ZM43.5113 93.05C43.5113 92.1 43.7363 91.2333 44.1863 90.45C44.653 89.6667 45.278 89.05 46.0613 88.6C46.8613 88.1333 47.753 87.9 48.7363 87.9C49.7363 87.9 50.628 88.1333 51.4113 88.6C52.1947 89.05 52.8113 89.6667 53.2613 90.45C53.7113 91.2333 53.9363 92.1 53.9363 93.05C53.9363 94 53.7113 94.8667 53.2613 95.65C52.8113 96.4333 52.1863 97.0583 51.3863 97.525C50.603 97.975 49.7197 98.2 48.7363 98.2C47.7363 98.2 46.8447 97.9833 46.0613 97.55C45.278 97.1 44.653 96.4917 44.1863 95.725C43.7363 94.9417 43.5113 94.05 43.5113 93.05ZM44.6863 93.075C44.6863 93.8417 44.8613 94.5417 45.2113 95.175C45.578 95.7917 46.0613 96.2833 46.6613 96.65C47.278 97.0167 47.9613 97.2 48.7113 97.2C49.4613 97.2 50.1363 97.0167 50.7363 96.65C51.353 96.2833 51.8363 95.7917 52.1863 95.175C52.553 94.5417 52.7363 93.8417 52.7363 93.075C52.7363 92.3083 52.553 91.6167 52.1863 91C51.8363 90.3667 51.353 89.8667 50.7363 89.5C50.1363 89.1167 49.4613 88.925 48.7113 88.925C47.9447 88.925 47.253 89.125 46.6363 89.525C46.0363 89.9083 45.5613 90.4167 45.2113 91.05C44.8613 91.6833 44.6863 92.3583 44.6863 93.075ZM58.4502 88.225L58.5752 91.225L58.4252 90.85C58.6419 90.25 58.9835 89.7333 59.4502 89.3C59.9169 88.8667 60.4335 88.5333 61.0002 88.3C61.5835 88.0667 62.1419 87.95 62.6752 87.95L62.6252 89.1C61.8752 89.1 61.1919 89.2667 60.5752 89.6C59.9752 89.9333 59.4919 90.3833 59.1252 90.95C58.7752 91.5 58.6002 92.125 58.6002 92.825V98H57.4252V88.225H58.4502ZM77.8861 98.2C76.8695 98.2 75.9695 97.975 75.1861 97.525C74.4028 97.075 73.7861 96.4667 73.3361 95.7C72.9028 94.9167 72.6861 94.0417 72.6861 93.075C72.6861 92.125 72.9195 91.2583 73.3861 90.475C73.8528 89.6917 74.4778 89.0667 75.2611 88.6C76.0611 88.1333 76.9445 87.9 77.9111 87.9C79.0778 87.9 80.0528 88.2417 80.8361 88.925C81.6361 89.6083 82.2111 90.5 82.5611 91.6L74.0111 94.9L73.6611 94.05L81.4861 91L81.2361 91.35C80.9528 90.6833 80.5195 90.1083 79.9361 89.625C79.3695 89.1417 78.6695 88.9 77.8361 88.9C77.0861 88.9 76.4111 89.0833 75.8111 89.45C75.2111 89.8167 74.7278 90.3083 74.3611 90.925C74.0111 91.5417 73.8361 92.2417 73.8361 93.025C73.8361 93.7583 74.0028 94.4417 74.3361 95.075C74.6861 95.7083 75.1695 96.2167 75.7861 96.6C76.4028 96.9833 77.1111 97.175 77.9111 97.175C78.4445 97.175 78.9528 97.075 79.4361 96.875C79.9361 96.675 80.3778 96.4167 80.7611 96.1L81.3611 96.95C80.8945 97.3167 80.3528 97.6167 79.7361 97.85C79.1361 98.0833 78.5195 98.2 77.8861 98.2ZM89.024 98.375L84.074 88.225H85.449L89.524 97.1L88.799 97.075L92.724 88.225H94.024L89.174 98.375H89.024ZM101.079 98.2C100.063 98.2 99.1628 97.975 98.3795 97.525C97.5962 97.075 96.9795 96.4667 96.5295 95.7C96.0962 94.9167 95.8795 94.0417 95.8795 93.075C95.8795 92.125 96.1128 91.2583 96.5795 90.475C97.0462 89.6917 97.6712 89.0667 98.4545 88.6C99.2545 88.1333 100.138 87.9 101.104 87.9C102.271 87.9 103.246 88.2417 104.029 88.925C104.829 89.6083 105.404 90.5 105.754 91.6L97.2045 94.9L96.8545 94.05L104.679 91L104.429 91.35C104.146 90.6833 103.713 90.1083 103.129 89.625C102.563 89.1417 101.863 88.9 101.029 88.9C100.279 88.9 99.6045 89.0833 99.0045 89.45C98.4045 89.8167 97.9212 90.3083 97.5545 90.925C97.2045 91.5417 97.0295 92.2417 97.0295 93.025C97.0295 93.7583 97.1962 94.4417 97.5295 95.075C97.8795 95.7083 98.3628 96.2167 98.9795 96.6C99.5962 96.9833 100.304 97.175 101.104 97.175C101.638 97.175 102.146 97.075 102.629 96.875C103.129 96.675 103.571 96.4167 103.954 96.1L104.554 96.95C104.088 97.3167 103.546 97.6167 102.929 97.85C102.329 98.0833 101.713 98.2 101.079 98.2ZM110.037 88.225L110.162 91.3L110.012 90.7C110.295 89.85 110.829 89.1833 111.612 88.7C112.412 88.2 113.295 87.95 114.262 87.95C115.179 87.95 115.92 88.225 116.487 88.775C117.054 89.3083 117.345 90.0083 117.362 90.875V98H116.162V91.2C116.145 90.5667 115.945 90.0417 115.562 89.625C115.179 89.2083 114.62 88.9917 113.887 88.975C113.237 88.975 112.629 89.1333 112.062 89.45C111.495 89.7667 111.037 90.2083 110.687 90.775C110.354 91.3417 110.187 92 110.187 92.75V98H109.012V88.225H110.037ZM122.78 83.925H123.98V88.35H127.005V89.3H123.98V98H122.78V89.3H120.705V88.35H122.78V83.925ZM128.985 93.05C128.985 92.1 129.21 91.2333 129.66 90.45C130.127 89.6667 130.752 89.05 131.535 88.6C132.335 88.1333 133.227 87.9 134.21 87.9C135.21 87.9 136.102 88.1333 136.885 88.6C137.668 89.05 138.285 89.6667 138.735 90.45C139.185 91.2333 139.41 92.1 139.41 93.05C139.41 94 139.185 94.8667 138.735 95.65C138.285 96.4333 137.66 97.0583 136.86 97.525C136.077 97.975 135.193 98.2 134.21 98.2C133.21 98.2 132.318 97.9833 131.535 97.55C130.752 97.1 130.127 96.4917 129.66 95.725C129.21 94.9417 128.985 94.05 128.985 93.05ZM130.16 93.075C130.16 93.8417 130.335 94.5417 130.685 95.175C131.052 95.7917 131.535 96.2833 132.135 96.65C132.752 97.0167 133.435 97.2 134.185 97.2C134.935 97.2 135.61 97.0167 136.21 96.65C136.827 96.2833 137.31 95.7917 137.66 95.175C138.027 94.5417 138.21 93.8417 138.21 93.075C138.21 92.3083 138.027 91.6167 137.66 91C137.31 90.3667 136.827 89.8667 136.21 89.5C135.61 89.1167 134.935 88.925 134.185 88.925C133.418 88.925 132.727 89.125 132.11 89.525C131.51 89.9083 131.035 90.4167 130.685 91.05C130.335 91.6833 130.16 92.3583 130.16 93.075ZM154.565 98.2C153.648 98.2 152.815 97.9833 152.065 97.55C151.315 97.1 150.715 96.4833 150.265 95.7C149.832 94.9167 149.615 94.0333 149.615 93.05C149.615 92 149.84 91.0917 150.29 90.325C150.74 89.5583 151.348 88.9667 152.115 88.55C152.898 88.1333 153.757 87.925 154.69 87.925C155.623 87.925 156.507 88.1667 157.34 88.65C158.19 89.1333 158.807 89.7667 159.19 90.55L158.99 91.1V79H160.165V98H158.965V95L159.215 95.55C158.798 96.3333 158.173 96.975 157.34 97.475C156.507 97.9583 155.582 98.2 154.565 98.2ZM154.865 97.175C155.615 97.175 156.29 97.0167 156.89 96.7C157.49 96.3667 157.973 95.925 158.34 95.375C158.707 94.8083 158.915 94.175 158.965 93.475V92.225C158.848 91.5917 158.59 91.025 158.19 90.525C157.79 90.025 157.307 89.6333 156.74 89.35C156.173 89.05 155.548 88.9 154.865 88.9C154.115 88.9 153.432 89.075 152.815 89.425C152.198 89.775 151.707 90.2583 151.34 90.875C150.973 91.4917 150.79 92.2083 150.79 93.025C150.79 93.7917 150.973 94.4917 151.34 95.125C151.707 95.7417 152.198 96.2417 152.815 96.625C153.448 96.9917 154.132 97.175 154.865 97.175ZM168.853 98.2C167.836 98.2 166.936 97.975 166.153 97.525C165.37 97.075 164.753 96.4667 164.303 95.7C163.87 94.9167 163.653 94.0417 163.653 93.075C163.653 92.125 163.886 91.2583 164.353 90.475C164.82 89.6917 165.445 89.0667 166.228 88.6C167.028 88.1333 167.911 87.9 168.878 87.9C170.045 87.9 171.02 88.2417 171.803 88.925C172.603 89.6083 173.178 90.5 173.528 91.6L164.978 94.9L164.628 94.05L172.453 91L172.203 91.35C171.92 90.6833 171.486 90.1083 170.903 89.625C170.336 89.1417 169.636 88.9 168.803 88.9C168.053 88.9 167.378 89.0833 166.778 89.45C166.178 89.8167 165.695 90.3083 165.328 90.925C164.978 91.5417 164.803 92.2417 164.803 93.025C164.803 93.7583 164.97 94.4417 165.303 95.075C165.653 95.7083 166.136 96.2167 166.753 96.6C167.37 96.9833 168.078 97.175 168.878 97.175C169.411 97.175 169.92 97.075 170.403 96.875C170.903 96.675 171.345 96.4167 171.728 96.1L172.328 96.95C171.861 97.3167 171.32 97.6167 170.703 97.85C170.103 98.0833 169.486 98.2 168.853 98.2ZM184.452 88.225H185.627V98H184.452V88.225ZM184.202 84.625C184.202 84.3917 184.293 84.2 184.477 84.05C184.66 83.8833 184.86 83.8 185.077 83.8C185.31 83.8 185.51 83.8833 185.677 84.05C185.843 84.2 185.927 84.3917 185.927 84.625C185.927 84.875 185.843 85.0833 185.677 85.25C185.51 85.4 185.31 85.475 185.077 85.475C184.86 85.475 184.66 85.3917 184.477 85.225C184.293 85.0583 184.202 84.8583 184.202 84.625ZM191.092 88.225L191.217 91.3L191.067 90.7C191.35 89.85 191.883 89.1833 192.667 88.7C193.467 88.2 194.35 87.95 195.317 87.95C196.233 87.95 196.975 88.225 197.542 88.775C198.108 89.3083 198.4 90.0083 198.417 90.875V98H197.217V91.2C197.2 90.5667 197 90.0417 196.617 89.625C196.233 89.2083 195.675 88.9917 194.942 88.975C194.292 88.975 193.683 89.1333 193.117 89.45C192.55 89.7667 192.092 90.2083 191.742 90.775C191.408 91.3417 191.242 92 191.242 92.75V98H190.067V88.225H191.092ZM201.91 93.05C201.91 92.1 202.135 91.2333 202.585 90.45C203.051 89.6667 203.676 89.05 204.46 88.6C205.26 88.1333 206.151 87.9 207.135 87.9C208.135 87.9 209.026 88.1333 209.81 88.6C210.593 89.05 211.21 89.6667 211.66 90.45C212.11 91.2333 212.335 92.1 212.335 93.05C212.335 94 212.11 94.8667 211.66 95.65C211.21 96.4333 210.585 97.0583 209.785 97.525C209.001 97.975 208.118 98.2 207.135 98.2C206.135 98.2 205.243 97.9833 204.46 97.55C203.676 97.1 203.051 96.4917 202.585 95.725C202.135 94.9417 201.91 94.05 201.91 93.05ZM203.085 93.075C203.085 93.8417 203.26 94.5417 203.61 95.175C203.976 95.7917 204.46 96.2833 205.06 96.65C205.676 97.0167 206.36 97.2 207.11 97.2C207.86 97.2 208.535 97.0167 209.135 96.65C209.751 96.2833 210.235 95.7917 210.585 95.175C210.951 94.5417 211.135 93.8417 211.135 93.075C211.135 92.3083 210.951 91.6167 210.585 91C210.235 90.3667 209.751 89.8667 209.135 89.5C208.535 89.1167 207.86 88.925 207.11 88.925C206.343 88.925 205.651 89.125 205.035 89.525C204.435 89.9083 203.96 90.4167 203.61 91.05C203.26 91.6833 203.085 92.3583 203.085 93.075ZM218.98 98.375L214.03 88.225H215.405L219.48 97.1L218.755 97.075L222.68 88.225H223.98L219.13 98.375H218.98ZM230.64 98.2C229.707 98.2 228.857 97.9917 228.09 97.575C227.34 97.1417 226.74 96.5417 226.29 95.775C225.857 95.0083 225.64 94.1167 225.64 93.1C225.64 92.0167 225.874 91.0917 226.34 90.325C226.807 89.5417 227.44 88.95 228.24 88.55C229.04 88.1333 229.949 87.925 230.965 87.925C231.832 87.925 232.649 88.1833 233.415 88.7C234.199 89.2167 234.757 89.8667 235.09 90.65L234.915 91L235.065 88.225H236.115V98H234.94V94.975L235.19 95.425C235.074 95.7583 234.874 96.0917 234.59 96.425C234.307 96.7417 233.957 97.0417 233.54 97.325C233.14 97.5917 232.69 97.8083 232.19 97.975C231.707 98.125 231.19 98.2 230.64 98.2ZM230.89 97.2C231.624 97.2 232.282 97.05 232.865 96.75C233.465 96.4333 233.949 96 234.315 95.45C234.682 94.9 234.89 94.2667 234.94 93.55V92.15C234.807 91.5333 234.54 90.9833 234.14 90.5C233.757 90.0167 233.282 89.6333 232.715 89.35C232.149 89.0667 231.532 88.925 230.865 88.925C230.132 88.925 229.457 89.1 228.84 89.45C228.224 89.7833 227.732 90.2583 227.365 90.875C226.999 91.4917 226.815 92.2167 226.815 93.05C226.815 93.8167 226.999 94.5167 227.365 95.15C227.732 95.7667 228.224 96.2667 228.84 96.65C229.474 97.0167 230.157 97.2 230.89 97.2ZM248.105 97.05C247.655 97.4167 247.147 97.7 246.58 97.9C246.013 98.1 245.422 98.2 244.805 98.2C243.805 98.2 242.913 97.9833 242.13 97.55C241.347 97.1 240.73 96.4917 240.28 95.725C239.83 94.9583 239.605 94.0833 239.605 93.1C239.605 92.1167 239.838 91.2417 240.305 90.475C240.772 89.7083 241.388 89.1083 242.155 88.675C242.938 88.225 243.788 88 244.705 88C245.388 88 246.022 88.1 246.605 88.3C247.188 88.5 247.697 88.7833 248.13 89.15L247.505 89.95C247.155 89.6667 246.747 89.4333 246.28 89.25C245.813 89.0667 245.313 88.975 244.78 88.975C244.047 88.975 243.372 89.1583 242.755 89.525C242.155 89.8917 241.672 90.3917 241.305 91.025C240.955 91.6417 240.78 92.3333 240.78 93.1C240.78 93.85 240.955 94.5417 241.305 95.175C241.672 95.7917 242.163 96.2833 242.78 96.65C243.413 97.0167 244.113 97.2 244.88 97.2C245.38 97.2 245.847 97.125 246.28 96.975C246.713 96.8083 247.105 96.5917 247.455 96.325L248.105 97.05ZM241.805 102.175C241.988 102.358 242.23 102.508 242.53 102.625C242.847 102.758 243.213 102.825 243.63 102.825C244.213 102.825 244.697 102.7 245.08 102.45C245.48 102.217 245.68 101.883 245.68 101.45C245.68 101.067 245.53 100.733 245.23 100.45C244.93 100.167 244.447 100.025 243.78 100.025C243.513 100.025 243.205 100.058 242.855 100.125C242.505 100.208 242.23 100.292 242.03 100.375L241.655 99.75L243.405 97.8L244.305 97.975L242.63 100.025L242.205 99.75C242.388 99.6333 242.655 99.5333 243.005 99.45C243.355 99.3833 243.688 99.35 244.005 99.35C244.855 99.3333 245.522 99.5 246.005 99.85C246.488 100.217 246.73 100.742 246.73 101.425C246.73 101.908 246.597 102.308 246.33 102.625C246.063 102.942 245.705 103.175 245.255 103.325C244.805 103.475 244.305 103.55 243.755 103.55C243.238 103.55 242.772 103.475 242.355 103.325C241.955 103.175 241.63 102.992 241.38 102.775L241.805 102.175ZM255.421 98.2C254.487 98.2 253.637 97.9917 252.871 97.575C252.121 97.1417 251.521 96.5417 251.071 95.775C250.637 95.0083 250.421 94.1167 250.421 93.1C250.421 92.0167 250.654 91.0917 251.121 90.325C251.587 89.5417 252.221 88.95 253.021 88.55C253.821 88.1333 254.729 87.925 255.746 87.925C256.612 87.925 257.429 88.1833 258.196 88.7C258.979 89.2167 259.537 89.8667 259.871 90.65L259.696 91L259.846 88.225H260.896V98H259.721V94.975L259.971 95.425C259.854 95.7583 259.654 96.0917 259.371 96.425C259.087 96.7417 258.737 97.0417 258.321 97.325C257.921 97.5917 257.471 97.8083 256.971 97.975C256.487 98.125 255.971 98.2 255.421 98.2ZM255.671 97.2C256.404 97.2 257.062 97.05 257.646 96.75C258.246 96.4333 258.729 96 259.096 95.45C259.462 94.9 259.671 94.2667 259.721 93.55V92.15C259.587 91.5333 259.321 90.9833 258.921 90.5C258.537 90.0167 258.062 89.6333 257.496 89.35C256.929 89.0667 256.312 88.925 255.646 88.925C254.912 88.925 254.237 89.1 253.621 89.45C253.004 89.7833 252.512 90.2583 252.146 90.875C251.779 91.4917 251.596 92.2167 251.596 93.05C251.596 93.8167 251.779 94.5167 252.146 95.15C252.512 95.7667 253.004 96.2667 253.621 96.65C254.254 97.0167 254.937 97.2 255.671 97.2ZM258.146 86.55C257.646 86.55 257.237 86.4333 256.921 86.2C256.621 85.95 256.337 85.6833 256.071 85.4C255.854 85.1833 255.629 84.9833 255.396 84.8C255.179 84.6 254.921 84.5 254.621 84.5C254.421 84.5 254.221 84.575 254.021 84.725C253.837 84.8583 253.679 85.0833 253.546 85.4C253.412 85.7 253.337 86.1167 253.321 86.65L252.571 86.625C252.554 85.975 252.637 85.425 252.821 84.975C253.021 84.5083 253.279 84.1583 253.596 83.925C253.912 83.6917 254.271 83.575 254.671 83.575C255.121 83.575 255.496 83.7 255.796 83.95C256.096 84.1833 256.371 84.4333 256.621 84.7C256.837 84.95 257.062 85.175 257.296 85.375C257.529 85.575 257.804 85.675 258.121 85.675C258.454 85.675 258.729 85.5083 258.946 85.175C259.179 84.8417 259.312 84.275 259.346 83.475L260.096 83.5C260.112 84.1667 260.029 84.7333 259.846 85.2C259.679 85.65 259.446 85.9917 259.146 86.225C258.846 86.4417 258.512 86.55 258.146 86.55ZM264.385 93.05C264.385 92.1 264.61 91.2333 265.06 90.45C265.527 89.6667 266.152 89.05 266.935 88.6C267.735 88.1333 268.627 87.9 269.61 87.9C270.61 87.9 271.502 88.1333 272.285 88.6C273.069 89.05 273.685 89.6667 274.135 90.45C274.585 91.2333 274.81 92.1 274.81 93.05C274.81 94 274.585 94.8667 274.135 95.65C273.685 96.4333 273.06 97.0583 272.26 97.525C271.477 97.975 270.594 98.2 269.61 98.2C268.61 98.2 267.719 97.9833 266.935 97.55C266.152 97.1 265.527 96.4917 265.06 95.725C264.61 94.9417 264.385 94.05 264.385 93.05ZM265.56 93.075C265.56 93.8417 265.735 94.5417 266.085 95.175C266.452 95.7917 266.935 96.2833 267.535 96.65C268.152 97.0167 268.835 97.2 269.585 97.2C270.335 97.2 271.01 97.0167 271.61 96.65C272.227 96.2833 272.71 95.7917 273.06 95.175C273.427 94.5417 273.61 93.8417 273.61 93.075C273.61 92.3083 273.427 91.6167 273.06 91C272.71 90.3667 272.227 89.8667 271.61 89.5C271.01 89.1167 270.335 88.925 269.585 88.925C268.819 88.925 268.127 89.125 267.51 89.525C266.91 89.9083 266.435 90.4167 266.085 91.05C265.735 91.6833 265.56 92.3583 265.56 93.075ZM290.215 98.2C289.199 98.2 288.299 97.975 287.515 97.525C286.732 97.075 286.115 96.4667 285.665 95.7C285.232 94.9167 285.015 94.0417 285.015 93.075C285.015 92.125 285.249 91.2583 285.715 90.475C286.182 89.6917 286.807 89.0667 287.59 88.6C288.39 88.1333 289.274 87.9 290.24 87.9C291.407 87.9 292.382 88.2417 293.165 88.925C293.965 89.6083 294.54 90.5 294.89 91.6L286.34 94.9L285.99 94.05L293.815 91L293.565 91.35C293.282 90.6833 292.849 90.1083 292.265 89.625C291.699 89.1417 290.999 88.9 290.165 88.9C289.415 88.9 288.74 89.0833 288.14 89.45C287.54 89.8167 287.057 90.3083 286.69 90.925C286.34 91.5417 286.165 92.2417 286.165 93.025C286.165 93.7583 286.332 94.4417 286.665 95.075C287.015 95.7083 287.499 96.2167 288.115 96.6C288.732 96.9833 289.44 97.175 290.24 97.175C290.774 97.175 291.282 97.075 291.765 96.875C292.265 96.675 292.707 96.4167 293.09 96.1L293.69 96.95C293.224 97.3167 292.682 97.6167 292.065 97.85C291.465 98.0833 290.849 98.2 290.215 98.2ZM310.064 98.2C309.047 98.2 308.147 97.975 307.364 97.525C306.581 97.075 305.964 96.4667 305.514 95.7C305.081 94.9167 304.864 94.0417 304.864 93.075C304.864 92.125 305.097 91.2583 305.564 90.475C306.031 89.6917 306.656 89.0667 307.439 88.6C308.239 88.1333 309.122 87.9 310.089 87.9C311.256 87.9 312.231 88.2417 313.014 88.925C313.814 89.6083 314.389 90.5 314.739 91.6L306.189 94.9L305.839 94.05L313.664 91L313.414 91.35C313.131 90.6833 312.697 90.1083 312.114 89.625C311.547 89.1417 310.847 88.9 310.014 88.9C309.264 88.9 308.589 89.0833 307.989 89.45C307.389 89.8167 306.906 90.3083 306.539 90.925C306.189 91.5417 306.014 92.2417 306.014 93.025C306.014 93.7583 306.181 94.4417 306.514 95.075C306.864 95.7083 307.347 96.2167 307.964 96.6C308.581 96.9833 309.289 97.175 310.089 97.175C310.622 97.175 311.131 97.075 311.614 96.875C312.114 96.675 312.556 96.4167 312.939 96.1L313.539 96.95C313.072 97.3167 312.531 97.6167 311.914 97.85C311.314 98.0833 310.697 98.2 310.064 98.2ZM319.021 88.225L319.146 90.95L318.971 90.7C319.305 89.85 319.855 89.1833 320.621 88.7C321.405 88.2 322.255 87.95 323.171 87.95C323.721 87.95 324.213 88.0583 324.646 88.275C325.096 88.475 325.455 88.7583 325.721 89.125C326.005 89.475 326.171 89.8833 326.221 90.35L326.071 90.5C326.421 89.6667 326.971 89.0333 327.721 88.6C328.471 88.1667 329.28 87.95 330.146 87.95C331.08 87.95 331.821 88.225 332.371 88.775C332.921 89.3083 333.205 90.0083 333.221 90.875V98H332.046V91.125C332.03 90.5417 331.846 90.05 331.496 89.65C331.146 89.2333 330.613 89.0083 329.896 88.975C329.246 88.975 328.646 89.1417 328.096 89.475C327.546 89.8083 327.096 90.25 326.746 90.8C326.413 91.35 326.23 91.9667 326.196 92.65V98H325.021V91.125C325.005 90.5417 324.813 90.05 324.446 89.65C324.096 89.2333 323.563 89.0083 322.846 88.975C322.18 88.975 321.563 89.1417 320.996 89.475C320.446 89.8083 320.005 90.2667 319.671 90.85C319.338 91.4167 319.171 92.05 319.171 92.75V98H317.996V88.225H319.021ZM343.074 98.2C342.141 98.2 341.266 97.9583 340.449 97.475C339.633 96.975 339.033 96.3333 338.649 95.55L338.849 95.125V102.7H337.674V88.15H338.724L338.849 91.35L338.624 90.625C339.058 89.8417 339.691 89.2 340.524 88.7C341.358 88.1833 342.266 87.925 343.249 87.925C344.183 87.925 345.024 88.15 345.774 88.6C346.524 89.05 347.116 89.6667 347.549 90.45C347.999 91.2167 348.224 92.1 348.224 93.1C348.224 94.0833 347.991 94.9667 347.524 95.75C347.074 96.5167 346.458 97.1167 345.674 97.55C344.908 97.9833 344.041 98.2 343.074 98.2ZM342.874 97.225C343.641 97.225 344.333 97.0417 344.949 96.675C345.583 96.3083 346.083 95.8167 346.449 95.2C346.833 94.5667 347.024 93.8667 347.024 93.1C347.024 92.3167 346.841 91.6167 346.474 91C346.108 90.3667 345.616 89.8667 344.999 89.5C344.399 89.1333 343.716 88.95 342.949 88.95C342.216 88.95 341.549 89.1167 340.949 89.45C340.349 89.7833 339.866 90.2333 339.499 90.8C339.133 91.3667 338.916 92.0083 338.849 92.725V93.525C338.899 94.2083 339.108 94.8333 339.474 95.4C339.858 95.9667 340.341 96.4167 340.924 96.75C341.524 97.0667 342.174 97.225 342.874 97.225ZM352.737 88.225L352.862 91.225L352.712 90.85C352.929 90.25 353.271 89.7333 353.737 89.3C354.204 88.8667 354.721 88.5333 355.287 88.3C355.871 88.0667 356.429 87.95 356.962 87.95L356.912 89.1C356.162 89.1 355.479 89.2667 354.862 89.6C354.262 89.9333 353.779 90.3833 353.412 90.95C353.062 91.5 352.887 92.125 352.887 92.825V98H351.712V88.225H352.737ZM364.117 98.2C363.1 98.2 362.2 97.975 361.417 97.525C360.633 97.075 360.017 96.4667 359.567 95.7C359.133 94.9167 358.917 94.0417 358.917 93.075C358.917 92.125 359.15 91.2583 359.617 90.475C360.083 89.6917 360.708 89.0667 361.492 88.6C362.292 88.1333 363.175 87.9 364.142 87.9C365.308 87.9 366.283 88.2417 367.067 88.925C367.867 89.6083 368.442 90.5 368.792 91.6L360.242 94.9L359.892 94.05L367.717 91L367.467 91.35C367.183 90.6833 366.75 90.1083 366.167 89.625C365.6 89.1417 364.9 88.9 364.067 88.9C363.317 88.9 362.642 89.0833 362.042 89.45C361.442 89.8167 360.958 90.3083 360.592 90.925C360.242 91.5417 360.067 92.2417 360.067 93.025C360.067 93.7583 360.233 94.4417 360.567 95.075C360.917 95.7083 361.4 96.2167 362.017 96.6C362.633 96.9833 363.342 97.175 364.142 97.175C364.675 97.175 365.183 97.075 365.667 96.875C366.167 96.675 366.608 96.4167 366.992 96.1L367.592 96.95C367.125 97.3167 366.583 97.6167 365.967 97.85C365.367 98.0833 364.75 98.2 364.117 98.2ZM376.299 98.2C375.283 98.2 374.383 97.975 373.599 97.525C372.816 97.075 372.199 96.4667 371.749 95.7C371.316 94.9167 371.099 94.0417 371.099 93.075C371.099 92.125 371.333 91.2583 371.799 90.475C372.266 89.6917 372.891 89.0667 373.674 88.6C374.474 88.1333 375.358 87.9 376.324 87.9C377.491 87.9 378.466 88.2417 379.249 88.925C380.049 89.6083 380.624 90.5 380.974 91.6L372.424 94.9L372.074 94.05L379.899 91L379.649 91.35C379.366 90.6833 378.933 90.1083 378.349 89.625C377.783 89.1417 377.083 88.9 376.249 88.9C375.499 88.9 374.824 89.0833 374.224 89.45C373.624 89.8167 373.141 90.3083 372.774 90.925C372.424 91.5417 372.249 92.2417 372.249 93.025C372.249 93.7583 372.416 94.4417 372.749 95.075C373.099 95.7083 373.583 96.2167 374.199 96.6C374.816 96.9833 375.524 97.175 376.324 97.175C376.858 97.175 377.366 97.075 377.849 96.875C378.349 96.675 378.791 96.4167 379.174 96.1L379.774 96.95C379.308 97.3167 378.766 97.6167 378.149 97.85C377.549 98.0833 376.933 98.2 376.299 98.2ZM385.257 88.225L385.382 91.3L385.232 90.7C385.515 89.85 386.049 89.1833 386.832 88.7C387.632 88.2 388.515 87.95 389.482 87.95C390.399 87.95 391.14 88.225 391.707 88.775C392.274 89.3083 392.565 90.0083 392.582 90.875V98H391.382V91.2C391.365 90.5667 391.165 90.0417 390.782 89.625C390.399 89.2083 389.84 88.9917 389.107 88.975C388.457 88.975 387.849 89.1333 387.282 89.45C386.715 89.7667 386.257 90.2083 385.907 90.775C385.574 91.3417 385.407 92 385.407 92.75V98H384.232V88.225H385.257ZM401.025 98.2C400.108 98.2 399.275 97.9833 398.525 97.55C397.775 97.1 397.175 96.4833 396.725 95.7C396.291 94.9167 396.075 94.0333 396.075 93.05C396.075 92 396.3 91.0917 396.75 90.325C397.2 89.5583 397.808 88.9667 398.575 88.55C399.358 88.1333 400.216 87.925 401.15 87.925C402.083 87.925 402.966 88.1667 403.8 88.65C404.65 89.1333 405.266 89.7667 405.65 90.55L405.45 91.1V79H406.625V98H405.425V95L405.675 95.55C405.258 96.3333 404.633 96.975 403.8 97.475C402.966 97.9583 402.041 98.2 401.025 98.2ZM401.325 97.175C402.075 97.175 402.75 97.0167 403.35 96.7C403.95 96.3667 404.433 95.925 404.8 95.375C405.166 94.8083 405.375 94.175 405.425 93.475V92.225C405.308 91.5917 405.05 91.025 404.65 90.525C404.25 90.025 403.766 89.6333 403.2 89.35C402.633 89.05 402.008 88.9 401.325 88.9C400.575 88.9 399.891 89.075 399.275 89.425C398.658 89.775 398.166 90.2583 397.8 90.875C397.433 91.4917 397.25 92.2083 397.25 93.025C397.25 93.7917 397.433 94.4917 397.8 95.125C398.166 95.7417 398.658 96.2417 399.275 96.625C399.908 96.9917 400.591 97.175 401.325 97.175ZM415.313 98.2C414.296 98.2 413.396 97.975 412.613 97.525C411.83 97.075 411.213 96.4667 410.763 95.7C410.33 94.9167 410.113 94.0417 410.113 93.075C410.113 92.125 410.346 91.2583 410.813 90.475C411.28 89.6917 411.905 89.0667 412.688 88.6C413.488 88.1333 414.371 87.9 415.338 87.9C416.505 87.9 417.48 88.2417 418.263 88.925C419.063 89.6083 419.638 90.5 419.988 91.6L411.438 94.9L411.088 94.05L418.913 91L418.663 91.35C418.38 90.6833 417.946 90.1083 417.363 89.625C416.796 89.1417 416.096 88.9 415.263 88.9C414.513 88.9 413.838 89.0833 413.238 89.45C412.638 89.8167 412.155 90.3083 411.788 90.925C411.438 91.5417 411.263 92.2417 411.263 93.025C411.263 93.7583 411.43 94.4417 411.763 95.075C412.113 95.7083 412.596 96.2167 413.213 96.6C413.83 96.9833 414.538 97.175 415.338 97.175C415.871 97.175 416.38 97.075 416.863 96.875C417.363 96.675 417.805 96.4167 418.188 96.1L418.788 96.95C418.321 97.3167 417.78 97.6167 417.163 97.85C416.563 98.0833 415.946 98.2 415.313 98.2ZM427.246 98.2C426.329 98.2 425.496 97.9833 424.746 97.55C423.996 97.1 423.396 96.4833 422.946 95.7C422.512 94.9167 422.296 94.0333 422.296 93.05C422.296 92 422.521 91.0917 422.971 90.325C423.421 89.5583 424.029 88.9667 424.796 88.55C425.579 88.1333 426.437 87.925 427.371 87.925C428.304 87.925 429.187 88.1667 430.021 88.65C430.871 89.1333 431.487 89.7667 431.871 90.55L431.671 91.1V79H432.846V98H431.646V95L431.896 95.55C431.479 96.3333 430.854 96.975 430.021 97.475C429.187 97.9583 428.262 98.2 427.246 98.2ZM427.546 97.175C428.296 97.175 428.971 97.0167 429.571 96.7C430.171 96.3667 430.654 95.925 431.021 95.375C431.387 94.8083 431.596 94.175 431.646 93.475V92.225C431.529 91.5917 431.271 91.025 430.871 90.525C430.471 90.025 429.987 89.6333 429.421 89.35C428.854 89.05 428.229 88.9 427.546 88.9C426.796 88.9 426.112 89.075 425.496 89.425C424.879 89.775 424.387 90.2583 424.021 90.875C423.654 91.4917 423.471 92.2083 423.471 93.025C423.471 93.7917 423.654 94.4917 424.021 95.125C424.387 95.7417 424.879 96.2417 425.496 96.625C426.129 96.9917 426.812 97.175 427.546 97.175ZM436.334 93.05C436.334 92.1 436.559 91.2333 437.009 90.45C437.475 89.6667 438.1 89.05 438.884 88.6C439.684 88.1333 440.575 87.9 441.559 87.9C442.559 87.9 443.45 88.1333 444.234 88.6C445.017 89.05 445.634 89.6667 446.084 90.45C446.534 91.2333 446.759 92.1 446.759 93.05C446.759 94 446.534 94.8667 446.084 95.65C445.634 96.4333 445.009 97.0583 444.209 97.525C443.425 97.975 442.542 98.2 441.559 98.2C440.559 98.2 439.667 97.9833 438.884 97.55C438.1 97.1 437.475 96.4917 437.009 95.725C436.559 94.9417 436.334 94.05 436.334 93.05ZM437.509 93.075C437.509 93.8417 437.684 94.5417 438.034 95.175C438.4 95.7917 438.884 96.2833 439.484 96.65C440.1 97.0167 440.784 97.2 441.534 97.2C442.284 97.2 442.959 97.0167 443.559 96.65C444.175 96.2833 444.659 95.7917 445.009 95.175C445.375 94.5417 445.559 93.8417 445.559 93.075C445.559 92.3083 445.375 91.6167 445.009 91C444.659 90.3667 444.175 89.8667 443.559 89.5C442.959 89.1167 442.284 88.925 441.534 88.925C440.767 88.925 440.075 89.125 439.459 89.525C438.859 89.9083 438.384 90.4167 438.034 91.05C437.684 91.6833 437.509 92.3583 437.509 93.075ZM451.272 88.225L451.397 91.225L451.247 90.85C451.464 90.25 451.806 89.7333 452.272 89.3C452.739 88.8667 453.256 88.5333 453.822 88.3C454.406 88.0667 454.964 87.95 455.497 87.95L455.447 89.1C454.697 89.1 454.014 89.2667 453.397 89.6C452.797 89.9333 452.314 90.3833 451.947 90.95C451.597 91.5 451.422 92.125 451.422 92.825V98H450.247V88.225H451.272ZM458.792 88.225H459.967V98H458.792V88.225ZM458.542 84.625C458.542 84.3917 458.634 84.2 458.817 84.05C459.001 83.8833 459.201 83.8 459.417 83.8C459.651 83.8 459.851 83.8833 460.017 84.05C460.184 84.2 460.267 84.3917 460.267 84.625C460.267 84.875 460.184 85.0833 460.017 85.25C459.851 85.4 459.651 85.475 459.417 85.475C459.201 85.475 459.001 85.3917 458.817 85.225C458.634 85.0583 458.542 84.8583 458.542 84.625ZM466.708 98.2C466.141 98.2 465.549 98.1 464.933 97.9C464.316 97.6833 463.816 97.3417 463.433 96.875L463.983 96.1C464.316 96.45 464.708 96.7333 465.158 96.95C465.624 97.15 466.116 97.25 466.633 97.25C467.016 97.25 467.374 97.2 467.708 97.1C468.058 96.9833 468.341 96.7917 468.558 96.525C468.774 96.2583 468.883 95.9 468.883 95.45C468.883 94.9833 468.749 94.625 468.483 94.375C468.233 94.125 467.908 93.925 467.508 93.775C467.124 93.6083 466.716 93.4583 466.283 93.325C465.566 93.0917 464.974 92.775 464.508 92.375C464.058 91.975 463.833 91.4083 463.833 90.675C463.833 90.1417 463.958 89.675 464.208 89.275C464.474 88.875 464.833 88.5667 465.283 88.35C465.733 88.1167 466.241 88 466.808 88C467.324 88 467.833 88.0833 468.333 88.25C468.849 88.4167 469.316 88.7 469.733 89.1L469.208 89.925C468.941 89.5583 468.583 89.3083 468.133 89.175C467.699 89.0417 467.316 88.9667 466.983 88.95C466.699 88.95 466.399 89.0083 466.083 89.125C465.783 89.2417 465.524 89.4167 465.308 89.65C465.108 89.8667 465.008 90.1583 465.008 90.525C465.008 90.9083 465.116 91.225 465.333 91.475C465.549 91.7083 465.824 91.9 466.158 92.05C466.508 92.2 466.866 92.3417 467.233 92.475C467.716 92.625 468.166 92.8083 468.583 93.025C469.016 93.225 469.366 93.5 469.633 93.85C469.916 94.1833 470.058 94.6333 470.058 95.2C470.058 95.7667 469.933 96.2833 469.683 96.75C469.433 97.2 469.058 97.5583 468.558 97.825C468.074 98.075 467.458 98.2 466.708 98.2ZM474.637 88.225L474.762 90.95L474.587 90.7C474.92 89.85 475.47 89.1833 476.237 88.7C477.02 88.2 477.87 87.95 478.787 87.95C479.337 87.95 479.828 88.0583 480.262 88.275C480.712 88.475 481.07 88.7583 481.337 89.125C481.62 89.475 481.787 89.8833 481.837 90.35L481.687 90.5C482.037 89.6667 482.587 89.0333 483.337 88.6C484.087 88.1667 484.895 87.95 485.762 87.95C486.695 87.95 487.437 88.225 487.987 88.775C488.537 89.3083 488.82 90.0083 488.837 90.875V98H487.662V91.125C487.645 90.5417 487.462 90.05 487.112 89.65C486.762 89.2333 486.228 89.0083 485.512 88.975C484.862 88.975 484.262 89.1417 483.712 89.475C483.162 89.8083 482.712 90.25 482.362 90.8C482.028 91.35 481.845 91.9667 481.812 92.65V98H480.637V91.125C480.62 90.5417 480.428 90.05 480.062 89.65C479.712 89.2333 479.178 89.0083 478.462 88.975C477.795 88.975 477.178 89.1417 476.612 89.475C476.062 89.8083 475.62 90.2667 475.287 90.85C474.953 91.4167 474.787 92.05 474.787 92.75V98H473.612V88.225H474.637ZM492.339 93.05C492.339 92.1 492.564 91.2333 493.014 90.45C493.481 89.6667 494.106 89.05 494.889 88.6C495.689 88.1333 496.581 87.9 497.564 87.9C498.564 87.9 499.456 88.1333 500.239 88.6C501.023 89.05 501.639 89.6667 502.089 90.45C502.539 91.2333 502.764 92.1 502.764 93.05C502.764 94 502.539 94.8667 502.089 95.65C501.639 96.4333 501.014 97.0583 500.214 97.525C499.431 97.975 498.548 98.2 497.564 98.2C496.564 98.2 495.673 97.9833 494.889 97.55C494.106 97.1 493.481 96.4917 493.014 95.725C492.564 94.9417 492.339 94.05 492.339 93.05ZM493.514 93.075C493.514 93.8417 493.689 94.5417 494.039 95.175C494.406 95.7917 494.889 96.2833 495.489 96.65C496.106 97.0167 496.789 97.2 497.539 97.2C498.289 97.2 498.964 97.0167 499.564 96.65C500.181 96.2833 500.664 95.7917 501.014 95.175C501.381 94.5417 501.564 93.8417 501.564 93.075C501.564 92.3083 501.381 91.6167 501.014 91C500.664 90.3667 500.181 89.8667 499.564 89.5C498.964 89.1167 498.289 88.925 497.539 88.925C496.773 88.925 496.081 89.125 495.464 89.525C494.864 89.9083 494.389 90.4167 494.039 91.05C493.689 91.6833 493.514 92.3583 493.514 93.075ZM517.919 98.2C517.003 98.2 516.169 97.9833 515.419 97.55C514.669 97.1 514.069 96.4833 513.619 95.7C513.186 94.9167 512.969 94.0333 512.969 93.05C512.969 92 513.194 91.0917 513.644 90.325C514.094 89.5583 514.703 88.9667 515.469 88.55C516.253 88.1333 517.111 87.925 518.044 87.925C518.978 87.925 519.861 88.1667 520.694 88.65C521.544 89.1333 522.161 89.7667 522.544 90.55L522.344 91.1V79H523.519V98H522.319V95L522.569 95.55C522.153 96.3333 521.528 96.975 520.694 97.475C519.861 97.9583 518.936 98.2 517.919 98.2ZM518.219 97.175C518.969 97.175 519.644 97.0167 520.244 96.7C520.844 96.3667 521.328 95.925 521.694 95.375C522.061 94.8083 522.269 94.175 522.319 93.475V92.225C522.203 91.5917 521.944 91.025 521.544 90.525C521.144 90.025 520.661 89.6333 520.094 89.35C519.528 89.05 518.903 88.9 518.219 88.9C517.469 88.9 516.786 89.075 516.169 89.425C515.553 89.775 515.061 90.2583 514.694 90.875C514.328 91.4917 514.144 92.2083 514.144 93.025C514.144 93.7917 514.328 94.4917 514.694 95.125C515.061 95.7417 515.553 96.2417 516.169 96.625C516.803 96.9917 517.486 97.175 518.219 97.175ZM527.007 93.05C527.007 92.1 527.232 91.2333 527.682 90.45C528.149 89.6667 528.774 89.05 529.557 88.6C530.357 88.1333 531.249 87.9 532.232 87.9C533.232 87.9 534.124 88.1333 534.907 88.6C535.691 89.05 536.307 89.6667 536.757 90.45C537.207 91.2333 537.432 92.1 537.432 93.05C537.432 94 537.207 94.8667 536.757 95.65C536.307 96.4333 535.682 97.0583 534.882 97.525C534.099 97.975 533.216 98.2 532.232 98.2C531.232 98.2 530.341 97.9833 529.557 97.55C528.774 97.1 528.149 96.4917 527.682 95.725C527.232 94.9417 527.007 94.05 527.007 93.05ZM528.182 93.075C528.182 93.8417 528.357 94.5417 528.707 95.175C529.074 95.7917 529.557 96.2833 530.157 96.65C530.774 97.0167 531.457 97.2 532.207 97.2C532.957 97.2 533.632 97.0167 534.232 96.65C534.849 96.2833 535.332 95.7917 535.682 95.175C536.049 94.5417 536.232 93.8417 536.232 93.075C536.232 92.3083 536.049 91.6167 535.682 91C535.332 90.3667 534.849 89.8667 534.232 89.5C533.632 89.1167 532.957 88.925 532.207 88.925C531.441 88.925 530.749 89.125 530.132 89.525C529.532 89.9083 529.057 90.4167 528.707 91.05C528.357 91.6833 528.182 92.3583 528.182 93.075ZM549.012 80.25L555.562 96.875L554.887 96.775L561.287 80.25H562.687L555.137 98.825L547.587 80.25H549.012ZM567.676 98.2C566.743 98.2 565.893 97.9917 565.126 97.575C564.376 97.1417 563.776 96.5417 563.326 95.775C562.893 95.0083 562.676 94.1167 562.676 93.1C562.676 92.0167 562.91 91.0917 563.376 90.325C563.843 89.5417 564.476 88.95 565.276 88.55C566.076 88.1333 566.985 87.925 568.001 87.925C568.868 87.925 569.685 88.1833 570.451 88.7C571.235 89.2167 571.793 89.8667 572.126 90.65L571.951 91L572.101 88.225H573.151V98H571.976V94.975L572.226 95.425C572.11 95.7583 571.91 96.0917 571.626 96.425C571.343 96.7417 570.993 97.0417 570.576 97.325C570.176 97.5917 569.726 97.8083 569.226 97.975C568.743 98.125 568.226 98.2 567.676 98.2ZM567.926 97.2C568.66 97.2 569.318 97.05 569.901 96.75C570.501 96.4333 570.985 96 571.351 95.45C571.718 94.9 571.926 94.2667 571.976 93.55V92.15C571.843 91.5333 571.576 90.9833 571.176 90.5C570.793 90.0167 570.318 89.6333 569.751 89.35C569.185 89.0667 568.568 88.925 567.901 88.925C567.168 88.925 566.493 89.1 565.876 89.45C565.26 89.7833 564.768 90.2583 564.401 90.875C564.035 91.4917 563.851 92.2167 563.851 93.05C563.851 93.8167 564.035 94.5167 564.401 95.15C564.768 95.7667 565.26 96.2667 565.876 96.65C566.51 97.0167 567.193 97.2 567.926 97.2ZM577.591 79H578.766V98H577.591V79ZM587.456 98.2C586.44 98.2 585.54 97.975 584.756 97.525C583.973 97.075 583.356 96.4667 582.906 95.7C582.473 94.9167 582.256 94.0417 582.256 93.075C582.256 92.125 582.49 91.2583 582.956 90.475C583.423 89.6917 584.048 89.0667 584.831 88.6C585.631 88.1333 586.515 87.9 587.481 87.9C588.648 87.9 589.623 88.2417 590.406 88.925C591.206 89.6083 591.781 90.5 592.131 91.6L583.581 94.9L583.231 94.05L591.056 91L590.806 91.35C590.523 90.6833 590.09 90.1083 589.506 89.625C588.94 89.1417 588.24 88.9 587.406 88.9C586.656 88.9 585.981 89.0833 585.381 89.45C584.781 89.8167 584.298 90.3083 583.931 90.925C583.581 91.5417 583.406 92.2417 583.406 93.025C583.406 93.7583 583.573 94.4417 583.906 95.075C584.256 95.7083 584.74 96.2167 585.356 96.6C585.973 96.9833 586.681 97.175 587.481 97.175C588.015 97.175 588.523 97.075 589.006 96.875C589.506 96.675 589.948 96.4167 590.331 96.1L590.931 96.95C590.465 97.3167 589.923 97.6167 589.306 97.85C588.706 98.0833 588.09 98.2 587.456 98.2ZM607.055 98.2C606.138 98.2 605.305 97.9833 604.555 97.55C603.805 97.1 603.205 96.4833 602.755 95.7C602.322 94.9167 602.105 94.0333 602.105 93.05C602.105 92 602.33 91.0917 602.78 90.325C603.23 89.5583 603.838 88.9667 604.605 88.55C605.388 88.1333 606.247 87.925 607.18 87.925C608.113 87.925 608.997 88.1667 609.83 88.65C610.68 89.1333 611.297 89.7667 611.68 90.55L611.48 91.1V79H612.655V98H611.455V95L611.705 95.55C611.288 96.3333 610.663 96.975 609.83 97.475C608.997 97.9583 608.072 98.2 607.055 98.2ZM607.355 97.175C608.105 97.175 608.78 97.0167 609.38 96.7C609.98 96.3667 610.463 95.925 610.83 95.375C611.197 94.8083 611.405 94.175 611.455 93.475V92.225C611.338 91.5917 611.08 91.025 610.68 90.525C610.28 90.025 609.797 89.6333 609.23 89.35C608.663 89.05 608.038 88.9 607.355 88.9C606.605 88.9 605.922 89.075 605.305 89.425C604.688 89.775 604.197 90.2583 603.83 90.875C603.463 91.4917 603.28 92.2083 603.28 93.025C603.28 93.7917 603.463 94.4917 603.83 95.125C604.197 95.7417 604.688 96.2417 605.305 96.625C605.938 96.9917 606.622 97.175 607.355 97.175ZM616.143 93.05C616.143 92.1 616.368 91.2333 616.818 90.45C617.285 89.6667 617.91 89.05 618.693 88.6C619.493 88.1333 620.385 87.9 621.368 87.9C622.368 87.9 623.26 88.1333 624.043 88.6C624.826 89.05 625.443 89.6667 625.893 90.45C626.343 91.2333 626.568 92.1 626.568 93.05C626.568 94 626.343 94.8667 625.893 95.65C625.443 96.4333 624.818 97.0583 624.018 97.525C623.235 97.975 622.351 98.2 621.368 98.2C620.368 98.2 619.476 97.9833 618.693 97.55C617.91 97.1 617.285 96.4917 616.818 95.725C616.368 94.9417 616.143 94.05 616.143 93.05ZM617.318 93.075C617.318 93.8417 617.493 94.5417 617.843 95.175C618.21 95.7917 618.693 96.2833 619.293 96.65C619.91 97.0167 620.593 97.2 621.343 97.2C622.093 97.2 622.768 97.0167 623.368 96.65C623.985 96.2833 624.468 95.7917 624.818 95.175C625.185 94.5417 625.368 93.8417 625.368 93.075C625.368 92.3083 625.185 91.6167 624.818 91C624.468 90.3667 623.985 89.8667 623.368 89.5C622.768 89.1167 622.093 88.925 621.343 88.925C620.576 88.925 619.885 89.125 619.268 89.525C618.668 89.9083 618.193 90.4167 617.843 91.05C617.493 91.6833 617.318 92.3583 617.318 93.075ZM632.357 98.2C631.79 98.2 631.199 98.1 630.582 97.9C629.965 97.6833 629.465 97.3417 629.082 96.875L629.632 96.1C629.965 96.45 630.357 96.7333 630.807 96.95C631.274 97.15 631.765 97.25 632.282 97.25C632.665 97.25 633.024 97.2 633.357 97.1C633.707 96.9833 633.99 96.7917 634.207 96.525C634.424 96.2583 634.532 95.9 634.532 95.45C634.532 94.9833 634.399 94.625 634.132 94.375C633.882 94.125 633.557 93.925 633.157 93.775C632.774 93.6083 632.365 93.4583 631.932 93.325C631.215 93.0917 630.624 92.775 630.157 92.375C629.707 91.975 629.482 91.4083 629.482 90.675C629.482 90.1417 629.607 89.675 629.857 89.275C630.124 88.875 630.482 88.5667 630.932 88.35C631.382 88.1167 631.89 88 632.457 88C632.974 88 633.482 88.0833 633.982 88.25C634.499 88.4167 634.965 88.7 635.382 89.1L634.857 89.925C634.59 89.5583 634.232 89.3083 633.782 89.175C633.349 89.0417 632.965 88.9667 632.632 88.95C632.349 88.95 632.049 89.0083 631.732 89.125C631.432 89.2417 631.174 89.4167 630.957 89.65C630.757 89.8667 630.657 90.1583 630.657 90.525C630.657 90.9083 630.765 91.225 630.982 91.475C631.199 91.7083 631.474 91.9 631.807 92.05C632.157 92.2 632.515 92.3417 632.882 92.475C633.365 92.625 633.815 92.8083 634.232 93.025C634.665 93.225 635.015 93.5 635.282 93.85C635.565 94.1833 635.707 94.6333 635.707 95.2C635.707 95.7667 635.582 96.2833 635.332 96.75C635.082 97.2 634.707 97.5583 634.207 97.825C633.724 98.075 633.107 98.2 632.357 98.2ZM656.402 82.25C655.885 82 655.252 81.7667 654.502 81.55C653.752 81.3333 653.002 81.225 652.252 81.225C651.085 81.225 650.152 81.5167 649.452 82.1C648.752 82.6833 648.402 83.4167 648.402 84.3C648.402 84.9667 648.602 85.525 649.002 85.975C649.402 86.4083 649.927 86.7833 650.577 87.1C651.227 87.4 651.919 87.6917 652.652 87.975C653.235 88.1917 653.81 88.4333 654.377 88.7C654.96 88.9667 655.485 89.2917 655.952 89.675C656.419 90.0583 656.785 90.5333 657.052 91.1C657.335 91.6667 657.477 92.3667 657.477 93.2C657.477 94.1833 657.244 95.0583 656.777 95.825C656.31 96.575 655.66 97.1583 654.827 97.575C653.994 97.9917 653.027 98.2 651.927 98.2C651.044 98.2 650.235 98.0917 649.502 97.875C648.785 97.6583 648.152 97.4083 647.602 97.125C647.069 96.825 646.644 96.575 646.327 96.375L646.902 95.375C647.269 95.6417 647.71 95.9083 648.227 96.175C648.76 96.4417 649.335 96.6667 649.952 96.85C650.569 97.0333 651.185 97.125 651.802 97.125C652.519 97.125 653.21 96.9833 653.877 96.7C654.56 96.4167 655.119 95.9917 655.552 95.425C656.002 94.8417 656.227 94.1083 656.227 93.225C656.227 92.375 656.019 91.6917 655.602 91.175C655.185 90.6417 654.652 90.2083 654.002 89.875C653.352 89.5417 652.66 89.2417 651.927 88.975C651.36 88.7583 650.794 88.5333 650.227 88.3C649.66 88.05 649.144 87.7583 648.677 87.425C648.21 87.075 647.835 86.6583 647.552 86.175C647.285 85.6917 647.152 85.1083 647.152 84.425C647.152 83.575 647.369 82.8333 647.802 82.2C648.235 81.5667 648.819 81.075 649.552 80.725C650.302 80.3583 651.152 80.1667 652.102 80.15C652.935 80.15 653.777 80.2583 654.627 80.475C655.494 80.6917 656.244 80.9667 656.877 81.3L656.402 82.25ZM661.454 88.225H662.629V98H661.454V88.225ZM661.204 84.625C661.204 84.3917 661.295 84.2 661.479 84.05C661.662 83.8833 661.862 83.8 662.079 83.8C662.312 83.8 662.512 83.8833 662.679 84.05C662.845 84.2 662.929 84.3917 662.929 84.625C662.929 84.875 662.845 85.0833 662.679 85.25C662.512 85.4 662.312 85.475 662.079 85.475C661.862 85.475 661.662 85.3917 661.479 85.225C661.295 85.0583 661.204 84.8583 661.204 84.625ZM668.094 88.225L668.219 91.3L668.069 90.7C668.352 89.85 668.885 89.1833 669.669 88.7C670.469 88.2 671.352 87.95 672.319 87.95C673.235 87.95 673.977 88.225 674.544 88.775C675.11 89.3083 675.402 90.0083 675.419 90.875V98H674.219V91.2C674.202 90.5667 674.002 90.0417 673.619 89.625C673.235 89.2083 672.677 88.9917 671.944 88.975C671.294 88.975 670.685 89.1333 670.119 89.45C669.552 89.7667 669.094 90.2083 668.744 90.775C668.41 91.3417 668.244 92 668.244 92.75V98H667.069V88.225H668.094ZM678.912 93.05C678.912 92.1 679.137 91.2333 679.587 90.45C680.053 89.6667 680.678 89.05 681.462 88.6C682.262 88.1333 683.153 87.9 684.137 87.9C685.137 87.9 686.028 88.1333 686.812 88.6C687.595 89.05 688.212 89.6667 688.662 90.45C689.112 91.2333 689.337 92.1 689.337 93.05C689.337 94 689.112 94.8667 688.662 95.65C688.212 96.4333 687.587 97.0583 686.787 97.525C686.003 97.975 685.12 98.2 684.137 98.2C683.137 98.2 682.245 97.9833 681.462 97.55C680.678 97.1 680.053 96.4917 679.587 95.725C679.137 94.9417 678.912 94.05 678.912 93.05ZM680.087 93.075C680.087 93.8417 680.262 94.5417 680.612 95.175C680.978 95.7917 681.462 96.2833 682.062 96.65C682.678 97.0167 683.362 97.2 684.112 97.2C684.862 97.2 685.537 97.0167 686.137 96.65C686.753 96.2833 687.237 95.7917 687.587 95.175C687.953 94.5417 688.137 93.8417 688.137 93.075C688.137 92.3083 687.953 91.6167 687.587 91C687.237 90.3667 686.753 89.8667 686.137 89.5C685.537 89.1167 684.862 88.925 684.112 88.925C683.345 88.925 682.653 89.125 682.037 89.525C681.437 89.9083 680.962 90.4167 680.612 91.05C680.262 91.6833 680.087 92.3583 680.087 93.075ZM695.126 98.2C694.559 98.2 693.967 98.1 693.351 97.9C692.734 97.6833 692.234 97.3417 691.851 96.875L692.401 96.1C692.734 96.45 693.126 96.7333 693.576 96.95C694.042 97.15 694.534 97.25 695.051 97.25C695.434 97.25 695.792 97.2 696.126 97.1C696.476 96.9833 696.759 96.7917 696.976 96.525C697.192 96.2583 697.301 95.9 697.301 95.45C697.301 94.9833 697.167 94.625 696.901 94.375C696.651 94.125 696.326 93.925 695.926 93.775C695.542 93.6083 695.134 93.4583 694.701 93.325C693.984 93.0917 693.392 92.775 692.926 92.375C692.476 91.975 692.251 91.4083 692.251 90.675C692.251 90.1417 692.376 89.675 692.626 89.275C692.892 88.875 693.251 88.5667 693.701 88.35C694.151 88.1167 694.659 88 695.226 88C695.742 88 696.251 88.0833 696.751 88.25C697.267 88.4167 697.734 88.7 698.151 89.1L697.626 89.925C697.359 89.5583 697.001 89.3083 696.551 89.175C696.117 89.0417 695.734 88.9667 695.401 88.95C695.117 88.95 694.817 89.0083 694.501 89.125C694.201 89.2417 693.942 89.4167 693.726 89.65C693.526 89.8667 693.426 90.1583 693.426 90.525C693.426 90.9083 693.534 91.225 693.751 91.475C693.967 91.7083 694.242 91.9 694.576 92.05C694.926 92.2 695.284 92.3417 695.651 92.475C696.134 92.625 696.584 92.8083 697.001 93.025C697.434 93.225 697.784 93.5 698.051 93.85C698.334 94.1833 698.476 94.6333 698.476 95.2C698.476 95.7667 698.351 96.2833 698.101 96.75C697.851 97.2 697.476 97.5583 696.976 97.825C696.492 98.075 695.876 98.2 695.126 98.2Z" fill="white"/>
</svg>
