<svg width="320" height="90" viewBox="0 0 320 90" fill="none" xmlns="http://www.w3.org/2000/svg">
<path d="M16.7437 47.8517H14.085C12.957 47.8517 12.1441 47.5659 11.646 46.9946C11.148 46.4087 10.8989 45.6396 10.8989 44.6875C10.8989 42.5781 12.4736 41.5234 15.6231 41.5234C18.582 41.5234 20.8086 41.963 22.3027 42.8419L21.0283 43.8087C20.0029 43.3399 18.2012 43.1055 15.6231 43.1055C14.3633 43.1055 13.5137 43.2446 13.0742 43.5229C12.6494 43.8013 12.437 44.1895 12.437 44.6875C12.437 45.1855 12.5542 45.5737 12.7886 45.8521C13.023 46.1304 13.4551 46.2696 14.085 46.2696H16.8096C18.7871 46.2696 20.5669 46.6064 22.1489 47.2803C23.7456 47.9541 25.0567 48.8771 26.082 50.0489C27.1074 51.2062 27.8911 52.5465 28.4331 54.0699C28.9751 55.5787 29.2461 57.1973 29.2461 58.9258C29.2461 60.332 29.0484 61.6651 28.6528 62.9249C28.2573 64.1847 27.6567 65.3418 26.8511 66.3965C26.0601 67.4512 25.1006 68.3667 23.9727 69.1431C22.8594 69.9048 21.5264 70.498 19.9736 70.9229C18.4356 71.3623 16.7656 71.5821 14.9639 71.5821C12.1367 71.5821 9.48535 71.1499 7.00977 70.2856C4.54883 69.436 2.49805 68.2423 0.857422 66.7042L2.13184 65.7593C3.62598 67.1069 5.49365 68.1543 7.73487 68.9014C9.99072 69.6338 12.4004 70 14.9639 70C16.9707 70 18.7798 69.7144 20.3911 69.1431C22.0171 68.5571 23.3501 67.7589 24.3901 66.7481C25.4448 65.7374 26.2505 64.5654 26.8071 63.2324C27.3784 61.8994 27.6641 60.4639 27.6641 58.9258C27.6641 56.8896 27.2539 55.0513 26.4336 53.4106C25.6133 51.7554 24.3609 50.415 22.6763 49.3896C21.0064 48.3643 19.0288 47.8517 16.7437 47.8517ZM14.085 49.4337H16.5899C19.5635 49.4337 21.8853 50.3418 23.5552 52.1582C25.2398 53.9746 26.082 56.2305 26.082 58.9258C26.082 61.6651 25.1079 63.9355 23.1597 65.7373C21.2114 67.5244 18.4795 68.418 14.9639 68.418C12.6201 68.418 10.4302 68.0958 8.39404 67.4513C6.35791 66.8067 4.66602 65.8985 3.31836 64.7267L4.54883 63.7379C5.75 64.7193 7.25879 65.4811 9.0752 66.023C10.9063 66.565 12.8692 66.8359 14.9639 66.8359C18.0547 66.8359 20.4131 66.0962 22.0391 64.6167C23.6797 63.1372 24.5 61.2402 24.5 58.9258C24.5 56.6406 23.8115 54.7511 22.4346 53.2569C21.0723 51.7628 19.1167 51.0156 16.5679 51.0156H14.085C11.9463 51.0156 10.3423 50.4298 9.27295 49.2579C8.20361 48.086 7.66895 46.5625 7.66895 44.6875C7.66895 42.8125 8.32813 41.2891 9.64649 40.1172C10.9795 38.9453 12.9717 38.3595 15.6231 38.3595C17.4834 38.3595 19.2119 38.5792 20.8086 39.0187C22.4053 39.4435 23.7236 40.0586 24.7637 40.8643L23.5112 41.8312C21.6802 40.5714 19.0508 39.9414 15.6231 39.9414C13.4111 39.9414 11.7925 40.3809 10.7671 41.2598C9.75635 42.124 9.25098 43.2666 9.25098 44.6875C9.25098 46.123 9.62451 47.2729 10.3716 48.1372C11.1333 49.0015 12.3711 49.4337 14.085 49.4337ZM14.085 52.5977H16.502C18.6406 52.5977 20.2446 53.1909 21.314 54.3774C22.3833 55.564 22.918 57.0801 22.918 58.9258C22.918 60.8008 22.2515 62.3243 20.9185 63.4962C19.6001 64.6681 17.6152 65.2539 14.9639 65.2539C13.1035 65.2539 11.3677 65.0415 9.75635 64.6167C8.15967 64.1772 6.84131 63.5548 5.80127 62.7491L7.05371 61.7822C8.88477 63.042 11.5215 63.672 14.9639 63.672C17.1758 63.672 18.7871 63.2397 19.7979 62.3755C20.8233 61.4966 21.3359 60.3467 21.3359 58.9258C21.3359 57.5049 20.9551 56.3624 20.1934 55.4981C19.4317 54.6192 18.1939 54.1797 16.48 54.1797H14.085C11.082 54.1797 8.73096 53.2862 7.03174 51.4991C5.34717 49.6974 4.50488 47.4268 4.50488 44.6875C4.50488 41.9482 5.47901 39.6851 7.42725 37.8979C9.37549 36.0962 12.1074 35.1954 15.6231 35.1954C17.9668 35.1954 20.1494 35.5177 22.1709 36.1622C24.207 36.8067 25.8989 37.7148 27.2466 38.8867L26.0161 39.8755C24.815 38.894 23.3062 38.1324 21.4898 37.5904C19.6734 37.0484 17.7178 36.7774 15.6231 36.7774C12.5322 36.7774 10.1665 37.5172 8.52588 38.9967C6.8999 40.4762 6.08692 42.373 6.08692 44.6875C6.08692 46.9873 6.77539 48.8843 8.15235 50.3784C9.5293 51.8579 11.5068 52.5977 14.085 52.5977ZM14.085 55.7617H16.502C17.6299 55.7617 18.4429 56.0547 18.9409 56.6406C19.439 57.2266 19.688 57.9883 19.688 58.9258C19.688 61.0352 18.1133 62.0899 14.9639 62.0899C11.9902 62.0899 9.75635 61.6504 8.26221 60.7715L9.53662 59.8047C10.562 60.2734 12.3711 60.5079 14.9639 60.5079C16.2236 60.5079 17.0659 60.3688 17.4907 60.0904C17.9302 59.8121 18.1499 59.4238 18.1499 58.9258C18.1499 58.4424 18.0254 58.0615 17.7764 57.7832C17.542 57.4902 17.1026 57.3438 16.458 57.3438H14.085C12.0635 57.3438 10.2324 57.0142 8.5918 56.355C6.96582 55.6958 5.62549 54.7877 4.5708 53.6305C3.53076 52.4732 2.73242 51.1329 2.17578 49.6095C1.61914 48.086 1.34082 46.4453 1.34082 44.6875C1.34082 43.2812 1.53858 41.9482 1.93408 40.6885C2.32959 39.4287 2.92285 38.2716 3.71387 37.2169C4.51953 36.1622 5.47901 35.2539 6.59229 34.4922C7.72022 33.7158 9.05322 33.1152 10.5913 32.6904C12.1441 32.251 13.8213 32.0312 15.6231 32.0312C18.4502 32.0312 21.0943 32.4634 23.5552 33.3276C26.0161 34.1772 28.0669 35.3711 29.7075 36.9092L28.4331 37.854C26.939 36.5063 25.0713 35.4663 22.8301 34.7339C20.5889 33.9868 18.1865 33.6133 15.6231 33.6133C13.6162 33.6133 11.7998 33.9062 10.1738 34.4922C8.5625 35.0635 7.22949 35.8545 6.17481 36.8652C5.13477 37.876 4.3291 39.048 3.75781 40.381C3.20117 41.714 2.92285 43.1494 2.92285 44.6875C2.92285 46.7529 3.34033 48.6134 4.17529 50.2687C5.01026 51.9239 6.28467 53.2569 7.99854 54.2677C9.7124 55.2638 11.7412 55.7617 14.085 55.7617ZM58.3818 54.0039V33.6133H59.9639V54.0039C59.9639 56.2305 59.085 58.1349 57.3272 59.7169C55.5693 61.2989 53.46 62.0899 50.999 62.0899C48.5381 62.0899 46.4287 61.2989 44.6709 59.7169C42.9131 58.1349 42.0342 56.2305 42.0342 54.0039V33.6133H43.6162V54.0039C43.6162 55.791 44.334 57.3218 45.7695 58.5962C47.2197 59.8706 48.9629 60.5079 50.999 60.5079C53.0352 60.5079 54.771 59.8706 56.2066 58.5962C57.6567 57.3218 58.3818 55.791 58.3818 54.0039ZM61.5459 54.0039V33.6133H63.1279V54.0039C63.1279 55.5273 62.8057 56.9849 62.1611 58.3765C61.5166 59.7534 60.6524 60.9473 59.5684 61.958C58.4844 62.9688 57.1953 63.7744 55.7012 64.375C54.207 64.9609 52.6397 65.2539 50.999 65.2539C49.3584 65.2539 47.791 64.9609 46.2969 64.375C44.8027 63.7744 43.5137 62.9688 42.4297 61.958C41.3457 60.9473 40.4815 59.7534 39.8369 58.3765C39.1924 56.9849 38.8701 55.5273 38.8701 54.0039V33.6133H40.4522V54.0039C40.4522 55.7471 40.9209 57.3658 41.8584 58.86C42.8106 60.3395 44.0923 61.5112 45.7036 62.3755C47.3296 63.2397 49.0947 63.672 50.999 63.672C52.9033 63.672 54.6611 63.2397 56.2725 62.3755C57.8984 61.5112 59.1802 60.3395 60.1177 58.86C61.0698 57.3658 61.5459 55.7471 61.5459 54.0039ZM64.71 54.0039V33.6133H66.292V54.0039C66.292 55.9521 65.8818 57.8198 65.0615 59.6069C64.2559 61.3794 63.1719 62.9103 61.8096 64.1993C60.4473 65.4884 58.8213 66.5137 56.9317 67.2754C55.042 68.0371 53.0645 68.418 50.999 68.418C48.9336 68.418 46.9561 68.0371 45.0664 67.2754C43.1768 66.5137 41.5508 65.4884 40.1885 64.1993C38.8262 62.9103 37.7349 61.3794 36.9146 59.6069C36.1089 57.8198 35.7061 55.9521 35.7061 54.0039V33.6133H37.2881V54.0039C37.2881 56.3184 37.9033 58.4644 39.1338 60.4419C40.3643 62.4048 42.0269 63.9649 44.1216 65.1222C46.231 66.2647 48.5234 66.8359 50.999 66.8359C53.4746 66.8359 55.7598 66.2647 57.8545 65.1222C59.9639 63.9649 61.6338 62.4048 62.8643 60.4419C64.0947 58.4644 64.71 56.3184 64.71 54.0039ZM67.874 54.0039V33.6133H69.4561V54.0039C69.4561 57.168 68.6284 60.105 66.9732 62.8149C65.3179 65.5103 63.0693 67.649 60.2276 69.2311C57.4004 70.7984 54.3242 71.5821 50.999 71.5821C47.6738 71.5821 44.5903 70.7984 41.7485 69.2311C38.9214 67.649 36.6802 65.5103 35.0249 62.8149C33.3696 60.105 32.542 57.168 32.542 54.0039V33.6133H34.124V54.0039C34.124 56.1572 34.5708 58.2227 35.4644 60.2002C36.3579 62.1777 37.5591 63.8844 39.0679 65.3199C40.5767 66.7408 42.3711 67.8761 44.4512 68.7257C46.5459 69.5753 48.7285 70 50.999 70C53.2695 70 55.4448 69.5753 57.5249 68.7257C59.6196 67.8761 61.4214 66.7408 62.9302 65.3199C64.439 63.8844 65.6401 62.1777 66.5337 60.2002C67.4273 58.2227 67.874 56.1572 67.874 54.0039ZM99.6904 56.7285L101.272 53.7402V70H99.6904V56.7285ZM102.854 50.6642L104.436 47.6758V70H102.854V50.6642ZM106.018 44.6875L107.6 41.6772V70H106.018V44.6875ZM95.4058 55.9814L94.5049 54.3335L105.403 33.6133H107.183L95.4058 55.9814ZM93.582 52.5317L92.6592 50.8619L101.799 33.6133H103.601L93.582 52.5317ZM82.9912 53.916L84.5733 56.9044V70H82.9912V53.916ZM79.8272 47.8955L81.4092 50.8839V70H79.8272V47.8955ZM76.6631 41.875L78.2451 44.8853V70H76.6631V41.875ZM89.4512 60.5079H87.6714L75.0811 36.6236V70H73.499V33.6133H75.2788L89.4512 60.5079ZM93.0327 60.5079H91.231L77.0806 33.6133H78.8823L93.0327 60.5079ZM109.182 36.6236L96.5923 60.5079H94.7905L80.6621 33.6133H82.4419L95.7134 58.8379L108.962 33.6133H110.764V70H109.182V36.6236ZM141.13 56.7285L142.712 53.7402V70H141.13V56.7285ZM144.294 50.6642L145.876 47.6758V70H144.294V50.6642ZM147.458 44.6875L149.041 41.6772V70H147.458V44.6875ZM136.846 55.9814L135.945 54.3335L146.843 33.6133H148.623L136.846 55.9814ZM135.022 52.5317L134.099 50.8619L143.24 33.6133H145.042L135.022 52.5317ZM124.431 53.916L126.013 56.9044V70H124.431V53.916ZM121.267 47.8955L122.849 50.8839V70H121.267V47.8955ZM118.103 41.875L119.685 44.8853V70H118.103V41.875ZM130.891 60.5079H129.111L116.521 36.6236V70H114.939V33.6133H116.719L130.891 60.5079ZM134.473 60.5079H132.671L118.521 33.6133H120.322L134.473 60.5079ZM150.623 36.6236L138.032 60.5079H136.23L122.102 33.6133H123.882L137.153 58.8379L150.403 33.6133H152.205V70H150.623V36.6236ZM165.872 33.6133H167.454V70H165.872V33.6133ZM162.708 33.6133H164.29V70H162.708V33.6133ZM159.543 33.6133H161.125V70H159.543V33.6133ZM156.379 33.6133H157.961V70H156.379V33.6133ZM170.925 35.1954V33.6133H194.656V35.1954H170.925ZM170.925 38.3595V36.7774H194.656V38.3595H170.925ZM170.925 41.5234V39.9414H194.656V41.5234H188.328V70H186.746V41.5234H185.164V70H183.582V41.5234H182V70H180.417V41.5234H178.835V70H177.253V41.5234H170.925ZM202.786 63.672V62.0899H224.231V63.672H202.786ZM202.786 66.8359V65.2539H224.231V66.8359H202.786ZM202.786 70V68.418H224.231V70H202.786ZM205.225 61.2109H203.379C204.404 59.8193 205.415 58.4571 206.411 57.1241C207.407 55.7911 208.235 54.6851 208.894 53.8062C209.568 52.9126 210.22 52.041 210.85 51.1914C211.479 50.3418 211.985 49.6606 212.366 49.1479C212.761 48.6353 213.135 48.1373 213.486 47.6539C213.838 47.1705 214.102 46.7969 214.277 46.5332C214.453 46.2549 214.607 45.9912 214.739 45.7422C214.885 45.4932 214.98 45.2954 215.024 45.1489C215.068 44.9878 215.09 44.834 215.09 44.6875C215.09 44.0137 214.812 43.5816 214.255 43.3912C213.699 43.2008 212.717 43.1055 211.311 43.1055C209.026 43.1055 206.741 43.4059 204.456 44.0064L204.126 42.4902C204.492 42.3291 205.415 42.124 206.895 41.875C208.389 41.6113 209.824 41.4795 211.201 41.4795C212.036 41.4795 212.761 41.5309 213.376 41.6334C213.992 41.7213 214.548 41.8823 215.046 42.1167C215.559 42.3364 215.947 42.666 216.211 43.1055C216.475 43.5303 216.606 44.0576 216.606 44.6875C216.606 45.3174 216.284 46.123 215.64 47.1045C214.995 48.0859 213.34 50.3564 210.674 53.916C208.506 56.8018 206.689 59.2334 205.225 61.2109ZM208.806 61.2109H206.96C212.424 53.8574 215.457 49.7485 216.057 48.8843C217.288 47.1265 217.976 45.874 218.123 45.127C218.167 44.9219 218.188 44.7021 218.188 44.4678C218.188 41.4355 215.889 39.9194 211.289 39.9194C209.883 39.9194 208.455 40.0439 207.004 40.293C205.554 40.542 204.492 40.7911 203.818 41.0401L203.511 39.5239C206.016 38.7476 208.616 38.3595 211.311 38.3595C212.249 38.3595 213.113 38.4253 213.904 38.5571C214.709 38.6743 215.479 38.8795 216.211 39.1725C216.943 39.4654 217.566 39.8462 218.079 40.3149C218.591 40.769 218.994 41.3477 219.287 42.0508C219.595 42.7539 219.749 43.5596 219.749 44.4678C219.749 45.4053 219.287 46.5846 218.364 48.0055C217.441 49.4264 214.68 53.2496 210.081 59.4752C209.524 60.2223 209.099 60.8008 208.806 61.2109ZM212.476 61.2109H210.63C215.625 54.3848 218.657 50.1368 219.727 48.4669C220.796 46.7823 221.331 45.3761 221.331 44.2481C221.331 42.8712 221.06 41.6846 220.518 40.6885C219.99 39.6924 219.243 38.9161 218.276 38.3595C217.324 37.8028 216.27 37.4 215.112 37.151C213.97 36.902 212.695 36.7774 211.289 36.7774C208.579 36.7774 205.876 37.1876 203.181 38.0079L202.852 36.4039C205.737 35.5543 208.528 35.1294 211.223 35.1294C212.542 35.1294 213.765 35.2247 214.893 35.4151C216.021 35.6056 217.083 35.9278 218.079 36.3819C219.089 36.8214 219.939 37.3853 220.627 38.0737C221.331 38.7622 221.887 39.6338 222.297 40.6885C222.708 41.7285 222.913 42.9151 222.913 44.2481C222.913 45.2003 222.686 46.1743 222.231 47.1704C221.792 48.1519 220.869 49.6534 219.463 51.6749C218.071 53.6964 215.742 56.875 212.476 61.2109ZM216.277 61.2109H214.431C217.522 57.124 219.756 54.0552 221.133 52.0044C222.524 49.939 223.433 48.3789 223.857 47.3242C224.282 46.2549 224.495 45.1563 224.495 44.0284C224.495 42.5929 224.275 41.2964 223.835 40.1392C223.411 38.9673 222.803 37.9859 222.012 37.1949C221.235 36.3893 220.298 35.7154 219.199 35.1734C218.101 34.6314 216.892 34.2359 215.574 33.9869C214.27 33.7379 212.856 33.6133 211.333 33.6133C208.521 33.6133 205.591 34.0527 202.544 34.9316L202.214 33.3717C205.305 32.4781 208.33 32.0312 211.289 32.0312C213.486 32.0312 215.471 32.273 217.244 32.7564C219.031 33.2252 220.583 33.9355 221.902 34.8877C223.235 35.8398 224.26 37.0924 224.978 38.6451C225.71 40.1979 226.077 41.9923 226.077 44.0284C226.077 45.3175 225.864 46.5332 225.439 47.6758C225.029 48.8184 224.121 50.437 222.715 52.5317C221.323 54.6265 219.177 57.5195 216.277 61.2109ZM231.042 62.1339C229.519 59.1163 228.757 55.6738 228.757 51.8066C228.757 47.9395 229.519 44.4971 231.042 41.4795C232.566 38.4619 234.661 36.1328 237.327 34.4922C239.993 32.8516 242.996 32.0312 246.335 32.0312C249.675 32.0312 252.678 32.8516 255.344 34.4922C258.01 36.1328 260.105 38.4619 261.628 41.4795C263.152 44.4971 263.914 47.9395 263.914 51.8066C263.914 55.6738 263.152 59.1163 261.628 62.1339C260.105 65.1515 258.01 67.4806 255.344 69.1212C252.678 70.7618 249.675 71.5821 246.335 71.5821C242.996 71.5821 239.993 70.7618 237.327 69.1212C234.661 67.4806 232.566 65.1515 231.042 62.1339ZM252.224 44.2481C253.689 46.0499 254.421 48.5693 254.421 51.8066C254.421 55.0439 253.689 57.5708 252.224 59.3872C250.774 61.189 248.811 62.0899 246.335 62.0899C243.86 62.0899 241.89 61.189 240.425 59.3872C238.975 57.5708 238.25 55.0439 238.25 51.8066C238.25 48.5693 238.975 46.0499 240.425 44.2481C241.89 42.4317 243.86 41.5234 246.335 41.5234C248.811 41.5234 250.774 42.4317 252.224 44.2481ZM254.465 42.0069C256.545 44.4386 257.585 47.7051 257.585 51.8066C257.585 55.9082 256.545 59.1748 254.465 61.6064C252.4 64.0381 249.69 65.2539 246.335 65.2539C242.981 65.2539 240.264 64.0381 238.184 61.6064C236.118 59.1748 235.085 55.9082 235.085 51.8066C235.085 47.7051 236.118 44.4386 238.184 42.0069C240.264 39.5753 242.981 38.3595 246.335 38.3595C249.69 38.3595 252.4 39.5753 254.465 42.0069ZM258.882 43.0835C260.127 45.603 260.75 48.5107 260.75 51.8066C260.75 55.1025 260.127 58.0176 258.882 60.5518C257.651 63.0713 255.945 65.0122 253.762 66.3745C251.58 67.7368 249.104 68.418 246.335 68.418C243.567 68.418 241.091 67.7368 238.909 66.3745C236.726 65.0122 235.012 63.0713 233.767 60.5518C232.537 58.0176 231.921 55.1025 231.921 51.8066C231.921 48.5107 232.537 45.603 233.767 43.0835C235.012 40.5493 236.726 38.6011 238.909 37.2388C241.091 35.8765 243.567 35.1954 246.335 35.1954C249.104 35.1954 251.58 35.8765 253.762 37.2388C255.945 38.6011 257.651 40.5493 258.882 43.0835ZM241.545 45.3467C240.403 46.8408 239.832 48.9941 239.832 51.8066C239.832 54.6191 240.403 56.7726 241.545 58.2667C242.703 59.7608 244.299 60.5079 246.335 60.5079C248.372 60.5079 249.961 59.7608 251.104 58.2667C252.261 56.7726 252.839 54.6191 252.839 51.8066C252.839 48.9941 252.261 46.8408 251.104 45.3467C249.961 43.8525 248.372 43.1055 246.335 43.1055C244.299 43.1055 242.703 43.8525 241.545 45.3467ZM239.304 43.1274C237.546 45.2368 236.667 48.1299 236.667 51.8066C236.667 55.4834 237.546 58.3839 239.304 60.5079C241.077 62.6173 243.42 63.672 246.335 63.672C249.25 63.672 251.587 62.6173 253.345 60.5079C255.117 58.3839 256.003 55.4834 256.003 51.8066C256.003 48.1299 255.117 45.2368 253.345 43.1274C251.587 41.0034 249.25 39.9414 246.335 39.9414C243.42 39.9414 241.077 41.0034 239.304 43.1274ZM237.063 40.8862C234.69 43.6255 233.503 47.2656 233.503 51.8066C233.503 56.3477 234.69 59.9878 237.063 62.7271C239.451 65.4664 242.542 66.8359 246.335 66.8359C250.129 66.8359 253.213 65.4664 255.586 62.7271C257.974 59.9878 259.167 56.3477 259.167 51.8066C259.167 47.2656 257.974 43.6255 255.586 40.8862C253.213 38.147 250.129 36.7774 246.335 36.7774C242.542 36.7774 239.451 38.147 237.063 40.8862ZM231.548 44.38C230.742 46.6505 230.339 49.126 230.339 51.8066C230.339 54.4873 230.742 56.9703 231.548 59.2555C232.354 61.526 233.459 63.4448 234.866 65.0122C236.287 66.5796 237.979 67.8028 239.941 68.6817C241.919 69.5606 244.05 70 246.335 70C248.621 70 250.745 69.5606 252.708 68.6817C254.685 67.8028 256.377 66.5796 257.783 65.0122C259.204 63.4448 260.317 61.526 261.123 59.2555C261.929 56.9703 262.332 54.4873 262.332 51.8066C262.332 49.126 261.929 46.6505 261.123 44.38C260.317 42.0948 259.204 40.1686 257.783 38.6012C256.377 37.0338 254.685 35.8105 252.708 34.9316C250.745 34.0527 248.621 33.6133 246.335 33.6133C244.05 33.6133 241.919 34.0527 239.941 34.9316C237.979 35.8105 236.287 37.0338 234.866 38.6012C233.459 40.1686 232.354 42.0948 231.548 44.38ZM266.99 63.672V62.0899H288.435V63.672H266.99ZM266.99 66.8359V65.2539H288.435V66.8359H266.99ZM266.99 70V68.418H288.435V70H266.99ZM269.429 61.2109H267.583C268.608 59.8193 269.619 58.4571 270.615 57.1241C271.611 55.7911 272.439 54.6851 273.098 53.8062C273.772 52.9126 274.424 52.041 275.054 51.1914C275.684 50.3418 276.189 49.6606 276.57 49.1479C276.965 48.6353 277.339 48.1373 277.69 47.6539C278.042 47.1705 278.306 46.7969 278.481 46.5332C278.657 46.2549 278.811 45.9912 278.943 45.7422C279.089 45.4932 279.185 45.2954 279.229 45.1489C279.272 44.9878 279.294 44.834 279.294 44.6875C279.294 44.0137 279.017 43.5816 278.46 43.3912C277.904 43.2008 276.922 43.1055 275.516 43.1055C273.231 43.1055 270.945 43.4059 268.66 44.0064L268.33 42.4902C268.696 42.3291 269.619 42.124 271.099 41.875C272.593 41.6113 274.028 41.4795 275.405 41.4795C276.24 41.4795 276.965 41.5309 277.581 41.6334C278.196 41.7213 278.752 41.8823 279.25 42.1167C279.763 42.3364 280.151 42.666 280.415 43.1055C280.679 43.5303 280.811 44.0576 280.811 44.6875C280.811 45.3174 280.488 46.123 279.844 47.1045C279.199 48.0859 277.544 50.3564 274.878 53.916C272.71 56.8018 270.894 59.2334 269.429 61.2109ZM273.01 61.2109H271.165C276.628 53.8574 279.661 49.7485 280.261 48.8843C281.492 47.1265 282.18 45.874 282.327 45.127C282.371 44.9219 282.393 44.7021 282.393 44.4678C282.393 41.4355 280.093 39.9194 275.493 39.9194C274.087 39.9194 272.659 40.0439 271.208 40.293C269.758 40.542 268.696 40.7911 268.022 41.0401L267.715 39.5239C270.22 38.7476 272.821 38.3595 275.516 38.3595C276.454 38.3595 277.317 38.4253 278.108 38.5571C278.914 38.6743 279.683 38.8795 280.415 39.1725C281.147 39.4654 281.77 39.8462 282.283 40.3149C282.795 40.769 283.198 41.3477 283.491 42.0508C283.799 42.7539 283.953 43.5596 283.953 44.4678C283.953 45.4053 283.491 46.5846 282.568 48.0055C281.646 49.4264 278.884 53.2496 274.285 59.4752C273.728 60.2223 273.303 60.8008 273.01 61.2109ZM276.68 61.2109H274.835C279.83 54.3848 282.861 50.1368 283.931 48.4669C285 46.7823 285.535 45.3761 285.535 44.2481C285.535 42.8712 285.264 41.6846 284.722 40.6885C284.194 39.6924 283.447 38.9161 282.48 38.3595C281.528 37.8028 280.474 37.4 279.316 37.151C278.174 36.902 276.899 36.7774 275.493 36.7774C272.783 36.7774 270.081 37.1876 267.385 38.0079L267.056 36.4039C269.941 35.5543 272.732 35.1294 275.427 35.1294C276.746 35.1294 277.969 35.2247 279.097 35.4151C280.225 35.6056 281.287 35.9278 282.283 36.3819C283.293 36.8214 284.143 37.3853 284.832 38.0737C285.535 38.7622 286.091 39.6338 286.501 40.6885C286.912 41.7285 287.117 42.9151 287.117 44.2481C287.117 45.2003 286.89 46.1743 286.436 47.1704C285.996 48.1519 285.073 49.6534 283.667 51.6749C282.275 53.6964 279.946 56.875 276.68 61.2109ZM280.481 61.2109H278.635C281.726 57.124 283.96 54.0552 285.337 52.0044C286.729 49.939 287.637 48.3789 288.062 47.3242C288.486 46.2549 288.699 45.1563 288.699 44.0284C288.699 42.5929 288.479 41.2964 288.04 40.1392C287.615 38.9673 287.007 37.9859 286.216 37.1949C285.439 36.3893 284.503 35.7154 283.404 35.1734C282.306 34.6314 281.097 34.2359 279.779 33.9869C278.475 33.7379 277.061 33.6133 275.537 33.6133C272.725 33.6133 269.795 34.0527 266.748 34.9316L266.418 33.3717C269.509 32.4781 272.534 32.0312 275.493 32.0312C277.69 32.0312 279.675 32.273 281.448 32.7564C283.235 33.2252 284.788 33.9355 286.106 34.8877C287.439 35.8398 288.464 37.0924 289.182 38.6451C289.915 40.1979 290.281 41.9923 290.281 44.0284C290.281 45.3175 290.069 46.5332 289.645 47.6758C289.234 48.8184 288.325 50.437 286.919 52.5317C285.527 54.6265 283.381 57.5195 280.481 61.2109ZM293.225 63.672V62.0899H314.671V63.672H293.225ZM293.225 66.8359V65.2539H314.671V66.8359H293.225ZM293.225 70V68.418H314.671V70H293.225ZM295.664 61.2109H293.818C294.844 59.8193 295.855 58.4571 296.852 57.1241C297.848 55.7911 298.674 54.6851 299.333 53.8062C300.007 52.9126 300.659 52.041 301.289 51.1914C301.919 50.3418 302.424 49.6606 302.805 49.1479C303.201 48.6353 303.574 48.1373 303.926 47.6539C304.277 47.1705 304.541 46.7969 304.717 46.5332C304.893 46.2549 305.046 45.9912 305.178 45.7422C305.325 45.4932 305.42 45.2954 305.464 45.1489C305.508 44.9878 305.53 44.834 305.53 44.6875C305.53 44.0137 305.251 43.5816 304.695 43.3912C304.138 43.2008 303.157 43.1055 301.75 43.1055C299.465 43.1055 297.18 43.4059 294.895 44.0064L294.565 42.4902C294.932 42.3291 295.855 42.124 297.335 41.875C298.829 41.6113 300.264 41.4795 301.641 41.4795C302.476 41.4795 303.201 41.5309 303.816 41.6334C304.431 41.7213 304.988 41.8823 305.486 42.1167C305.999 42.3364 306.387 42.666 306.65 43.1055C306.914 43.5303 307.046 44.0576 307.046 44.6875C307.046 45.3174 306.724 46.123 306.079 47.1045C305.435 48.0859 303.779 50.3564 301.113 53.916C298.945 56.8018 297.129 59.2334 295.664 61.2109ZM299.246 61.2109H297.4C302.864 53.8574 305.896 49.7485 306.497 48.8843C307.727 47.1265 308.417 45.874 308.562 45.127C308.606 44.9219 308.628 44.7021 308.628 44.4678C308.628 41.4355 306.328 39.9194 301.729 39.9194C300.322 39.9194 298.894 40.0439 297.444 40.293C295.994 40.542 294.932 40.7911 294.258 41.0401L293.951 39.5239C296.456 38.7476 299.055 38.3595 301.75 38.3595C302.688 38.3595 303.552 38.4253 304.343 38.5571C305.149 38.6743 305.918 38.8795 306.65 39.1725C307.383 39.4654 308.005 39.8462 308.518 40.3149C309.031 40.769 309.434 41.3477 309.727 42.0508C310.034 42.7539 310.188 43.5596 310.188 44.4678C310.188 45.4053 309.727 46.5846 308.804 48.0055C307.881 49.4264 305.12 53.2496 300.52 59.4752C299.963 60.2223 299.539 60.8008 299.246 61.2109ZM302.915 61.2109H301.069C306.064 54.3848 309.097 50.1368 310.166 48.4669C311.235 46.7823 311.77 45.3761 311.77 44.2481C311.77 42.8712 311.499 41.6846 310.957 40.6885C310.43 39.6924 309.683 38.9161 308.716 38.3595C307.764 37.8028 306.709 37.4 305.552 37.151C304.409 36.902 303.135 36.7774 301.729 36.7774C299.019 36.7774 296.316 37.1876 293.621 38.0079L293.291 36.4039C296.177 35.5543 298.967 35.1294 301.663 35.1294C302.981 35.1294 304.204 35.2247 305.332 35.4151C306.46 35.6056 307.522 35.9278 308.518 36.3819C309.529 36.8214 310.378 37.3853 311.067 38.0737C311.77 38.7622 312.327 39.6338 312.737 40.6885C313.147 41.7285 313.352 42.9151 313.352 44.2481C313.352 45.2003 313.125 46.1743 312.671 47.1704C312.231 48.1519 311.309 49.6534 309.902 51.6749C308.511 53.6964 306.182 56.875 302.915 61.2109ZM306.716 61.2109H304.871C307.961 57.124 310.195 54.0552 311.572 52.0044C312.964 49.939 313.872 48.3789 314.297 47.3242C314.722 46.2549 314.934 45.1563 314.934 44.0284C314.934 42.5929 314.714 41.2964 314.275 40.1392C313.85 38.9673 313.242 37.9859 312.451 37.1949C311.675 36.3893 310.737 35.7154 309.639 35.1734C308.54 34.6314 307.332 34.2359 306.013 33.9869C304.709 33.7379 303.296 33.6133 301.772 33.6133C298.96 33.6133 296.03 34.0527 292.983 34.9316L292.654 33.3717C295.745 32.4781 298.77 32.0312 301.729 32.0312C303.926 32.0312 305.912 32.273 307.684 32.7564C309.471 33.2252 311.023 33.9355 312.341 34.8877C313.674 35.8398 314.7 37.0924 315.417 38.6451C316.15 40.1979 316.516 41.9923 316.516 44.0284C316.516 45.3175 316.304 46.5332 315.879 47.6758C315.469 48.8184 314.561 50.437 313.154 52.5317C311.763 54.6265 309.617 57.5195 306.716 61.2109Z" fill="white"/>
</svg>
