<svg width="721" height="119" viewBox="0 0 721 119" fill="none" xmlns="http://www.w3.org/2000/svg">
<path d="M12.825 108V89.85H12.85L21.6 102.275L21.075 102.2L29.8 89.85H29.825V108H28.625V92.675L28.725 93.275L21.325 103.7H21.275L13.825 93.275L14.025 92.725V108H12.825ZM38.9313 108.2C37.9979 108.2 37.1479 107.992 36.3813 107.575C35.6313 107.142 35.0313 106.542 34.5813 105.775C34.1479 105.008 33.9313 104.117 33.9313 103.1C33.9313 102.017 34.1646 101.092 34.6313 100.325C35.0979 99.5417 35.7313 98.95 36.5313 98.55C37.3313 98.1333 38.2396 97.925 39.2562 97.925C40.1229 97.925 40.9396 98.1833 41.7063 98.7C42.4896 99.2167 43.0479 99.8667 43.3813 100.65L43.2063 101L43.3563 98.225H44.4063V108H43.2313V104.975L43.4813 105.425C43.3646 105.758 43.1646 106.092 42.8813 106.425C42.5979 106.742 42.2479 107.042 41.8313 107.325C41.4313 107.592 40.9813 107.808 40.4813 107.975C39.9979 108.125 39.4813 108.2 38.9313 108.2ZM39.1813 107.2C39.9146 107.2 40.5729 107.05 41.1563 106.75C41.7563 106.433 42.2396 106 42.6063 105.45C42.9729 104.9 43.1813 104.267 43.2313 103.55V102.15C43.0979 101.533 42.8313 100.983 42.4313 100.5C42.0479 100.017 41.5729 99.6333 41.0063 99.35C40.4396 99.0667 39.8229 98.925 39.1563 98.925C38.4229 98.925 37.7479 99.1 37.1313 99.45C36.5146 99.7833 36.0229 100.258 35.6563 100.875C35.2896 101.492 35.1063 102.217 35.1063 103.05C35.1063 103.817 35.2896 104.517 35.6563 105.15C36.0229 105.767 36.5146 106.267 37.1313 106.65C37.7646 107.017 38.4479 107.2 39.1813 107.2ZM48.8461 98.225H50.0211V108H48.8461V98.225ZM48.5961 94.625C48.5961 94.3917 48.6878 94.2 48.8711 94.05C49.0544 93.8833 49.2544 93.8 49.4711 93.8C49.7044 93.8 49.9044 93.8833 50.0711 94.05C50.2378 94.2 50.3211 94.3917 50.3211 94.625C50.3211 94.875 50.2378 95.0833 50.0711 95.25C49.9044 95.4 49.7044 95.475 49.4711 95.475C49.2544 95.475 49.0544 95.3917 48.8711 95.225C48.6878 95.0583 48.5961 94.8583 48.5961 94.625ZM53.5113 103.05C53.5113 102.1 53.7363 101.233 54.1863 100.45C54.653 99.6667 55.278 99.05 56.0613 98.6C56.8613 98.1333 57.753 97.9 58.7363 97.9C59.7363 97.9 60.628 98.1333 61.4113 98.6C62.1947 99.05 62.8113 99.6667 63.2613 100.45C63.7113 101.233 63.9363 102.1 63.9363 103.05C63.9363 104 63.7113 104.867 63.2613 105.65C62.8113 106.433 62.1863 107.058 61.3863 107.525C60.603 107.975 59.7197 108.2 58.7363 108.2C57.7363 108.2 56.8447 107.983 56.0613 107.55C55.278 107.1 54.653 106.492 54.1863 105.725C53.7363 104.942 53.5113 104.05 53.5113 103.05ZM54.6863 103.075C54.6863 103.842 54.8613 104.542 55.2113 105.175C55.578 105.792 56.0613 106.283 56.6613 106.65C57.278 107.017 57.9613 107.2 58.7113 107.2C59.4613 107.2 60.1363 107.017 60.7363 106.65C61.353 106.283 61.8363 105.792 62.1863 105.175C62.553 104.542 62.7363 103.842 62.7363 103.075C62.7363 102.308 62.553 101.617 62.1863 101C61.8363 100.367 61.353 99.8667 60.7363 99.5C60.1363 99.1167 59.4613 98.925 58.7113 98.925C57.9447 98.925 57.253 99.125 56.6363 99.525C56.0363 99.9083 55.5613 100.417 55.2113 101.05C54.8613 101.683 54.6863 102.358 54.6863 103.075ZM68.4502 98.225L68.5752 101.225L68.4252 100.85C68.6419 100.25 68.9835 99.7333 69.4502 99.3C69.9169 98.8667 70.4335 98.5333 71.0002 98.3C71.5835 98.0667 72.1419 97.95 72.6752 97.95L72.6252 99.1C71.8752 99.1 71.1919 99.2667 70.5752 99.6C69.9752 99.9333 69.4919 100.383 69.1252 100.95C68.7752 101.5 68.6002 102.125 68.6002 102.825V108H67.4252V98.225H68.4502ZM87.8861 108.2C86.8695 108.2 85.9695 107.975 85.1861 107.525C84.4028 107.075 83.7861 106.467 83.3361 105.7C82.9028 104.917 82.6861 104.042 82.6861 103.075C82.6861 102.125 82.9195 101.258 83.3861 100.475C83.8528 99.6917 84.4778 99.0667 85.2611 98.6C86.0611 98.1333 86.9445 97.9 87.9111 97.9C89.0778 97.9 90.0528 98.2417 90.8361 98.925C91.6361 99.6083 92.2111 100.5 92.5611 101.6L84.0111 104.9L83.6611 104.05L91.4861 101L91.2361 101.35C90.9528 100.683 90.5195 100.108 89.9361 99.625C89.3695 99.1417 88.6695 98.9 87.8361 98.9C87.0861 98.9 86.4111 99.0833 85.8111 99.45C85.2111 99.8167 84.7278 100.308 84.3611 100.925C84.0111 101.542 83.8361 102.242 83.8361 103.025C83.8361 103.758 84.0028 104.442 84.3361 105.075C84.6861 105.708 85.1695 106.217 85.7861 106.6C86.4028 106.983 87.1111 107.175 87.9111 107.175C88.4445 107.175 88.9528 107.075 89.4361 106.875C89.9361 106.675 90.3778 106.417 90.7611 106.1L91.3611 106.95C90.8945 107.317 90.3528 107.617 89.7361 107.85C89.1361 108.083 88.5195 108.2 87.8861 108.2ZM99.024 108.375L94.074 98.225H95.449L99.524 107.1L98.799 107.075L102.724 98.225H104.024L99.174 108.375H99.024ZM111.079 108.2C110.063 108.2 109.163 107.975 108.379 107.525C107.596 107.075 106.979 106.467 106.529 105.7C106.096 104.917 105.879 104.042 105.879 103.075C105.879 102.125 106.113 101.258 106.579 100.475C107.046 99.6917 107.671 99.0667 108.454 98.6C109.254 98.1333 110.138 97.9 111.104 97.9C112.271 97.9 113.246 98.2417 114.029 98.925C114.829 99.6083 115.404 100.5 115.754 101.6L107.204 104.9L106.854 104.05L114.679 101L114.429 101.35C114.146 100.683 113.713 100.108 113.129 99.625C112.563 99.1417 111.863 98.9 111.029 98.9C110.279 98.9 109.604 99.0833 109.004 99.45C108.404 99.8167 107.921 100.308 107.554 100.925C107.204 101.542 107.029 102.242 107.029 103.025C107.029 103.758 107.196 104.442 107.529 105.075C107.879 105.708 108.363 106.217 108.979 106.6C109.596 106.983 110.304 107.175 111.104 107.175C111.638 107.175 112.146 107.075 112.629 106.875C113.129 106.675 113.571 106.417 113.954 106.1L114.554 106.95C114.088 107.317 113.546 107.617 112.929 107.85C112.329 108.083 111.713 108.2 111.079 108.2ZM120.037 98.225L120.162 101.3L120.012 100.7C120.295 99.85 120.829 99.1833 121.612 98.7C122.412 98.2 123.295 97.95 124.262 97.95C125.179 97.95 125.92 98.225 126.487 98.775C127.054 99.3083 127.345 100.008 127.362 100.875V108H126.162V101.2C126.145 100.567 125.945 100.042 125.562 99.625C125.179 99.2083 124.62 98.9917 123.887 98.975C123.237 98.975 122.629 99.1333 122.062 99.45C121.495 99.7667 121.037 100.208 120.687 100.775C120.354 101.342 120.187 102 120.187 102.75V108H119.012V98.225H120.037ZM132.78 93.925H133.98V98.35H137.005V99.3H133.98V108H132.78V99.3H130.705V98.35H132.78V93.925ZM138.985 103.05C138.985 102.1 139.21 101.233 139.66 100.45C140.127 99.6667 140.752 99.05 141.535 98.6C142.335 98.1333 143.227 97.9 144.21 97.9C145.21 97.9 146.102 98.1333 146.885 98.6C147.668 99.05 148.285 99.6667 148.735 100.45C149.185 101.233 149.41 102.1 149.41 103.05C149.41 104 149.185 104.867 148.735 105.65C148.285 106.433 147.66 107.058 146.86 107.525C146.077 107.975 145.193 108.2 144.21 108.2C143.21 108.2 142.318 107.983 141.535 107.55C140.752 107.1 140.127 106.492 139.66 105.725C139.21 104.942 138.985 104.05 138.985 103.05ZM140.16 103.075C140.16 103.842 140.335 104.542 140.685 105.175C141.052 105.792 141.535 106.283 142.135 106.65C142.752 107.017 143.435 107.2 144.185 107.2C144.935 107.2 145.61 107.017 146.21 106.65C146.827 106.283 147.31 105.792 147.66 105.175C148.027 104.542 148.21 103.842 148.21 103.075C148.21 102.308 148.027 101.617 147.66 101C147.31 100.367 146.827 99.8667 146.21 99.5C145.61 99.1167 144.935 98.925 144.185 98.925C143.418 98.925 142.727 99.125 142.11 99.525C141.51 99.9083 141.035 100.417 140.685 101.05C140.335 101.683 140.16 102.358 140.16 103.075ZM164.565 108.2C163.648 108.2 162.815 107.983 162.065 107.55C161.315 107.1 160.715 106.483 160.265 105.7C159.832 104.917 159.615 104.033 159.615 103.05C159.615 102 159.84 101.092 160.29 100.325C160.74 99.5583 161.348 98.9667 162.115 98.55C162.898 98.1333 163.757 97.925 164.69 97.925C165.623 97.925 166.507 98.1667 167.34 98.65C168.19 99.1333 168.807 99.7667 169.19 100.55L168.99 101.1V89H170.165V108H168.965V105L169.215 105.55C168.798 106.333 168.173 106.975 167.34 107.475C166.507 107.958 165.582 108.2 164.565 108.2ZM164.865 107.175C165.615 107.175 166.29 107.017 166.89 106.7C167.49 106.367 167.973 105.925 168.34 105.375C168.707 104.808 168.915 104.175 168.965 103.475V102.225C168.848 101.592 168.59 101.025 168.19 100.525C167.79 100.025 167.307 99.6333 166.74 99.35C166.173 99.05 165.548 98.9 164.865 98.9C164.115 98.9 163.432 99.075 162.815 99.425C162.198 99.775 161.707 100.258 161.34 100.875C160.973 101.492 160.79 102.208 160.79 103.025C160.79 103.792 160.973 104.492 161.34 105.125C161.707 105.742 162.198 106.242 162.815 106.625C163.448 106.992 164.132 107.175 164.865 107.175ZM178.853 108.2C177.836 108.2 176.936 107.975 176.153 107.525C175.37 107.075 174.753 106.467 174.303 105.7C173.87 104.917 173.653 104.042 173.653 103.075C173.653 102.125 173.886 101.258 174.353 100.475C174.82 99.6917 175.445 99.0667 176.228 98.6C177.028 98.1333 177.911 97.9 178.878 97.9C180.045 97.9 181.02 98.2417 181.803 98.925C182.603 99.6083 183.178 100.5 183.528 101.6L174.978 104.9L174.628 104.05L182.453 101L182.203 101.35C181.92 100.683 181.486 100.108 180.903 99.625C180.336 99.1417 179.636 98.9 178.803 98.9C178.053 98.9 177.378 99.0833 176.778 99.45C176.178 99.8167 175.695 100.308 175.328 100.925C174.978 101.542 174.803 102.242 174.803 103.025C174.803 103.758 174.97 104.442 175.303 105.075C175.653 105.708 176.136 106.217 176.753 106.6C177.37 106.983 178.078 107.175 178.878 107.175C179.411 107.175 179.92 107.075 180.403 106.875C180.903 106.675 181.345 106.417 181.728 106.1L182.328 106.95C181.861 107.317 181.32 107.617 180.703 107.85C180.103 108.083 179.486 108.2 178.853 108.2ZM194.452 98.225H195.627V108H194.452V98.225ZM194.202 94.625C194.202 94.3917 194.293 94.2 194.477 94.05C194.66 93.8833 194.86 93.8 195.077 93.8C195.31 93.8 195.51 93.8833 195.677 94.05C195.843 94.2 195.927 94.3917 195.927 94.625C195.927 94.875 195.843 95.0833 195.677 95.25C195.51 95.4 195.31 95.475 195.077 95.475C194.86 95.475 194.66 95.3917 194.477 95.225C194.293 95.0583 194.202 94.8583 194.202 94.625ZM201.092 98.225L201.217 101.3L201.067 100.7C201.35 99.85 201.883 99.1833 202.667 98.7C203.467 98.2 204.35 97.95 205.317 97.95C206.233 97.95 206.975 98.225 207.542 98.775C208.108 99.3083 208.4 100.008 208.417 100.875V108H207.217V101.2C207.2 100.567 207 100.042 206.617 99.625C206.233 99.2083 205.675 98.9917 204.942 98.975C204.292 98.975 203.683 99.1333 203.117 99.45C202.55 99.7667 202.092 100.208 201.742 100.775C201.408 101.342 201.242 102 201.242 102.75V108H200.067V98.225H201.092ZM211.91 103.05C211.91 102.1 212.135 101.233 212.585 100.45C213.051 99.6667 213.676 99.05 214.46 98.6C215.26 98.1333 216.151 97.9 217.135 97.9C218.135 97.9 219.026 98.1333 219.81 98.6C220.593 99.05 221.21 99.6667 221.66 100.45C222.11 101.233 222.335 102.1 222.335 103.05C222.335 104 222.11 104.867 221.66 105.65C221.21 106.433 220.585 107.058 219.785 107.525C219.001 107.975 218.118 108.2 217.135 108.2C216.135 108.2 215.243 107.983 214.46 107.55C213.676 107.1 213.051 106.492 212.585 105.725C212.135 104.942 211.91 104.05 211.91 103.05ZM213.085 103.075C213.085 103.842 213.26 104.542 213.61 105.175C213.976 105.792 214.46 106.283 215.06 106.65C215.676 107.017 216.36 107.2 217.11 107.2C217.86 107.2 218.535 107.017 219.135 106.65C219.751 106.283 220.235 105.792 220.585 105.175C220.951 104.542 221.135 103.842 221.135 103.075C221.135 102.308 220.951 101.617 220.585 101C220.235 100.367 219.751 99.8667 219.135 99.5C218.535 99.1167 217.86 98.925 217.11 98.925C216.343 98.925 215.651 99.125 215.035 99.525C214.435 99.9083 213.96 100.417 213.61 101.05C213.26 101.683 213.085 102.358 213.085 103.075ZM228.98 108.375L224.03 98.225H225.405L229.48 107.1L228.755 107.075L232.68 98.225H233.98L229.13 108.375H228.98ZM240.64 108.2C239.707 108.2 238.857 107.992 238.09 107.575C237.34 107.142 236.74 106.542 236.29 105.775C235.857 105.008 235.64 104.117 235.64 103.1C235.64 102.017 235.874 101.092 236.34 100.325C236.807 99.5417 237.44 98.95 238.24 98.55C239.04 98.1333 239.949 97.925 240.965 97.925C241.832 97.925 242.649 98.1833 243.415 98.7C244.199 99.2167 244.757 99.8667 245.09 100.65L244.915 101L245.065 98.225H246.115V108H244.94V104.975L245.19 105.425C245.074 105.758 244.874 106.092 244.59 106.425C244.307 106.742 243.957 107.042 243.54 107.325C243.14 107.592 242.69 107.808 242.19 107.975C241.707 108.125 241.19 108.2 240.64 108.2ZM240.89 107.2C241.624 107.2 242.282 107.05 242.865 106.75C243.465 106.433 243.949 106 244.315 105.45C244.682 104.9 244.89 104.267 244.94 103.55V102.15C244.807 101.533 244.54 100.983 244.14 100.5C243.757 100.017 243.282 99.6333 242.715 99.35C242.149 99.0667 241.532 98.925 240.865 98.925C240.132 98.925 239.457 99.1 238.84 99.45C238.224 99.7833 237.732 100.258 237.365 100.875C236.999 101.492 236.815 102.217 236.815 103.05C236.815 103.817 236.999 104.517 237.365 105.15C237.732 105.767 238.224 106.267 238.84 106.65C239.474 107.017 240.157 107.2 240.89 107.2ZM258.105 107.05C257.655 107.417 257.147 107.7 256.58 107.9C256.013 108.1 255.422 108.2 254.805 108.2C253.805 108.2 252.913 107.983 252.13 107.55C251.347 107.1 250.73 106.492 250.28 105.725C249.83 104.958 249.605 104.083 249.605 103.1C249.605 102.117 249.838 101.242 250.305 100.475C250.772 99.7083 251.388 99.1083 252.155 98.675C252.938 98.225 253.788 98 254.705 98C255.388 98 256.022 98.1 256.605 98.3C257.188 98.5 257.697 98.7833 258.13 99.15L257.505 99.95C257.155 99.6667 256.747 99.4333 256.28 99.25C255.813 99.0667 255.313 98.975 254.78 98.975C254.047 98.975 253.372 99.1583 252.755 99.525C252.155 99.8917 251.672 100.392 251.305 101.025C250.955 101.642 250.78 102.333 250.78 103.1C250.78 103.85 250.955 104.542 251.305 105.175C251.672 105.792 252.163 106.283 252.78 106.65C253.413 107.017 254.113 107.2 254.88 107.2C255.38 107.2 255.847 107.125 256.28 106.975C256.713 106.808 257.105 106.592 257.455 106.325L258.105 107.05ZM251.805 112.175C251.988 112.358 252.23 112.508 252.53 112.625C252.847 112.758 253.213 112.825 253.63 112.825C254.213 112.825 254.697 112.7 255.08 112.45C255.48 112.217 255.68 111.883 255.68 111.45C255.68 111.067 255.53 110.733 255.23 110.45C254.93 110.167 254.447 110.025 253.78 110.025C253.513 110.025 253.205 110.058 252.855 110.125C252.505 110.208 252.23 110.292 252.03 110.375L251.655 109.75L253.405 107.8L254.305 107.975L252.63 110.025L252.205 109.75C252.388 109.633 252.655 109.533 253.005 109.45C253.355 109.383 253.688 109.35 254.005 109.35C254.855 109.333 255.522 109.5 256.005 109.85C256.488 110.217 256.73 110.742 256.73 111.425C256.73 111.908 256.597 112.308 256.33 112.625C256.063 112.942 255.705 113.175 255.255 113.325C254.805 113.475 254.305 113.55 253.755 113.55C253.238 113.55 252.772 113.475 252.355 113.325C251.955 113.175 251.63 112.992 251.38 112.775L251.805 112.175ZM265.421 108.2C264.487 108.2 263.637 107.992 262.871 107.575C262.121 107.142 261.521 106.542 261.071 105.775C260.637 105.008 260.421 104.117 260.421 103.1C260.421 102.017 260.654 101.092 261.121 100.325C261.587 99.5417 262.221 98.95 263.021 98.55C263.821 98.1333 264.729 97.925 265.746 97.925C266.612 97.925 267.429 98.1833 268.196 98.7C268.979 99.2167 269.537 99.8667 269.871 100.65L269.696 101L269.846 98.225H270.896V108H269.721V104.975L269.971 105.425C269.854 105.758 269.654 106.092 269.371 106.425C269.087 106.742 268.737 107.042 268.321 107.325C267.921 107.592 267.471 107.808 266.971 107.975C266.487 108.125 265.971 108.2 265.421 108.2ZM265.671 107.2C266.404 107.2 267.062 107.05 267.646 106.75C268.246 106.433 268.729 106 269.096 105.45C269.462 104.9 269.671 104.267 269.721 103.55V102.15C269.587 101.533 269.321 100.983 268.921 100.5C268.537 100.017 268.062 99.6333 267.496 99.35C266.929 99.0667 266.312 98.925 265.646 98.925C264.912 98.925 264.237 99.1 263.621 99.45C263.004 99.7833 262.512 100.258 262.146 100.875C261.779 101.492 261.596 102.217 261.596 103.05C261.596 103.817 261.779 104.517 262.146 105.15C262.512 105.767 263.004 106.267 263.621 106.65C264.254 107.017 264.937 107.2 265.671 107.2ZM268.146 96.55C267.646 96.55 267.237 96.4333 266.921 96.2C266.621 95.95 266.337 95.6833 266.071 95.4C265.854 95.1833 265.629 94.9833 265.396 94.8C265.179 94.6 264.921 94.5 264.621 94.5C264.421 94.5 264.221 94.575 264.021 94.725C263.837 94.8583 263.679 95.0833 263.546 95.4C263.412 95.7 263.337 96.1167 263.321 96.65L262.571 96.625C262.554 95.975 262.637 95.425 262.821 94.975C263.021 94.5083 263.279 94.1583 263.596 93.925C263.912 93.6917 264.271 93.575 264.671 93.575C265.121 93.575 265.496 93.7 265.796 93.95C266.096 94.1833 266.371 94.4333 266.621 94.7C266.837 94.95 267.062 95.175 267.296 95.375C267.529 95.575 267.804 95.675 268.121 95.675C268.454 95.675 268.729 95.5083 268.946 95.175C269.179 94.8417 269.312 94.275 269.346 93.475L270.096 93.5C270.112 94.1667 270.029 94.7333 269.846 95.2C269.679 95.65 269.446 95.9917 269.146 96.225C268.846 96.4417 268.512 96.55 268.146 96.55ZM274.385 103.05C274.385 102.1 274.61 101.233 275.06 100.45C275.527 99.6667 276.152 99.05 276.935 98.6C277.735 98.1333 278.627 97.9 279.61 97.9C280.61 97.9 281.502 98.1333 282.285 98.6C283.069 99.05 283.685 99.6667 284.135 100.45C284.585 101.233 284.81 102.1 284.81 103.05C284.81 104 284.585 104.867 284.135 105.65C283.685 106.433 283.06 107.058 282.26 107.525C281.477 107.975 280.594 108.2 279.61 108.2C278.61 108.2 277.719 107.983 276.935 107.55C276.152 107.1 275.527 106.492 275.06 105.725C274.61 104.942 274.385 104.05 274.385 103.05ZM275.56 103.075C275.56 103.842 275.735 104.542 276.085 105.175C276.452 105.792 276.935 106.283 277.535 106.65C278.152 107.017 278.835 107.2 279.585 107.2C280.335 107.2 281.01 107.017 281.61 106.65C282.227 106.283 282.71 105.792 283.06 105.175C283.427 104.542 283.61 103.842 283.61 103.075C283.61 102.308 283.427 101.617 283.06 101C282.71 100.367 282.227 99.8667 281.61 99.5C281.01 99.1167 280.335 98.925 279.585 98.925C278.819 98.925 278.127 99.125 277.51 99.525C276.91 99.9083 276.435 100.417 276.085 101.05C275.735 101.683 275.56 102.358 275.56 103.075ZM300.215 108.2C299.199 108.2 298.299 107.975 297.515 107.525C296.732 107.075 296.115 106.467 295.665 105.7C295.232 104.917 295.015 104.042 295.015 103.075C295.015 102.125 295.249 101.258 295.715 100.475C296.182 99.6917 296.807 99.0667 297.59 98.6C298.39 98.1333 299.274 97.9 300.24 97.9C301.407 97.9 302.382 98.2417 303.165 98.925C303.965 99.6083 304.54 100.5 304.89 101.6L296.34 104.9L295.99 104.05L303.815 101L303.565 101.35C303.282 100.683 302.849 100.108 302.265 99.625C301.699 99.1417 300.999 98.9 300.165 98.9C299.415 98.9 298.74 99.0833 298.14 99.45C297.54 99.8167 297.057 100.308 296.69 100.925C296.34 101.542 296.165 102.242 296.165 103.025C296.165 103.758 296.332 104.442 296.665 105.075C297.015 105.708 297.499 106.217 298.115 106.6C298.732 106.983 299.44 107.175 300.24 107.175C300.774 107.175 301.282 107.075 301.765 106.875C302.265 106.675 302.707 106.417 303.09 106.1L303.69 106.95C303.224 107.317 302.682 107.617 302.065 107.85C301.465 108.083 300.849 108.2 300.215 108.2ZM320.064 108.2C319.047 108.2 318.147 107.975 317.364 107.525C316.581 107.075 315.964 106.467 315.514 105.7C315.081 104.917 314.864 104.042 314.864 103.075C314.864 102.125 315.097 101.258 315.564 100.475C316.031 99.6917 316.656 99.0667 317.439 98.6C318.239 98.1333 319.122 97.9 320.089 97.9C321.256 97.9 322.231 98.2417 323.014 98.925C323.814 99.6083 324.389 100.5 324.739 101.6L316.189 104.9L315.839 104.05L323.664 101L323.414 101.35C323.131 100.683 322.697 100.108 322.114 99.625C321.547 99.1417 320.847 98.9 320.014 98.9C319.264 98.9 318.589 99.0833 317.989 99.45C317.389 99.8167 316.906 100.308 316.539 100.925C316.189 101.542 316.014 102.242 316.014 103.025C316.014 103.758 316.181 104.442 316.514 105.075C316.864 105.708 317.347 106.217 317.964 106.6C318.581 106.983 319.289 107.175 320.089 107.175C320.622 107.175 321.131 107.075 321.614 106.875C322.114 106.675 322.556 106.417 322.939 106.1L323.539 106.95C323.072 107.317 322.531 107.617 321.914 107.85C321.314 108.083 320.697 108.2 320.064 108.2ZM329.021 98.225L329.146 100.95L328.971 100.7C329.305 99.85 329.855 99.1833 330.621 98.7C331.405 98.2 332.255 97.95 333.171 97.95C333.721 97.95 334.213 98.0583 334.646 98.275C335.096 98.475 335.455 98.7583 335.721 99.125C336.005 99.475 336.171 99.8833 336.221 100.35L336.071 100.5C336.421 99.6667 336.971 99.0333 337.721 98.6C338.471 98.1667 339.28 97.95 340.146 97.95C341.08 97.95 341.821 98.225 342.371 98.775C342.921 99.3083 343.205 100.008 343.221 100.875V108H342.046V101.125C342.03 100.542 341.846 100.05 341.496 99.65C341.146 99.2333 340.613 99.0083 339.896 98.975C339.246 98.975 338.646 99.1417 338.096 99.475C337.546 99.8083 337.096 100.25 336.746 100.8C336.413 101.35 336.23 101.967 336.196 102.65V108H335.021V101.125C335.005 100.542 334.813 100.05 334.446 99.65C334.096 99.2333 333.563 99.0083 332.846 98.975C332.18 98.975 331.563 99.1417 330.996 99.475C330.446 99.8083 330.005 100.267 329.671 100.85C329.338 101.417 329.171 102.05 329.171 102.75V108H327.996V98.225H329.021ZM353.074 108.2C352.141 108.2 351.266 107.958 350.449 107.475C349.633 106.975 349.033 106.333 348.649 105.55L348.849 105.125V112.7H347.674V98.15H348.724L348.849 101.35L348.624 100.625C349.058 99.8417 349.691 99.2 350.524 98.7C351.358 98.1833 352.266 97.925 353.249 97.925C354.183 97.925 355.024 98.15 355.774 98.6C356.524 99.05 357.116 99.6667 357.549 100.45C357.999 101.217 358.224 102.1 358.224 103.1C358.224 104.083 357.991 104.967 357.524 105.75C357.074 106.517 356.458 107.117 355.674 107.55C354.908 107.983 354.041 108.2 353.074 108.2ZM352.874 107.225C353.641 107.225 354.333 107.042 354.949 106.675C355.583 106.308 356.083 105.817 356.449 105.2C356.833 104.567 357.024 103.867 357.024 103.1C357.024 102.317 356.841 101.617 356.474 101C356.108 100.367 355.616 99.8667 354.999 99.5C354.399 99.1333 353.716 98.95 352.949 98.95C352.216 98.95 351.549 99.1167 350.949 99.45C350.349 99.7833 349.866 100.233 349.499 100.8C349.133 101.367 348.916 102.008 348.849 102.725V103.525C348.899 104.208 349.108 104.833 349.474 105.4C349.858 105.967 350.341 106.417 350.924 106.75C351.524 107.067 352.174 107.225 352.874 107.225ZM362.737 98.225L362.862 101.225L362.712 100.85C362.929 100.25 363.271 99.7333 363.737 99.3C364.204 98.8667 364.721 98.5333 365.287 98.3C365.871 98.0667 366.429 97.95 366.962 97.95L366.912 99.1C366.162 99.1 365.479 99.2667 364.862 99.6C364.262 99.9333 363.779 100.383 363.412 100.95C363.062 101.5 362.887 102.125 362.887 102.825V108H361.712V98.225H362.737ZM374.117 108.2C373.1 108.2 372.2 107.975 371.417 107.525C370.633 107.075 370.017 106.467 369.567 105.7C369.133 104.917 368.917 104.042 368.917 103.075C368.917 102.125 369.15 101.258 369.617 100.475C370.083 99.6917 370.708 99.0667 371.492 98.6C372.292 98.1333 373.175 97.9 374.142 97.9C375.308 97.9 376.283 98.2417 377.067 98.925C377.867 99.6083 378.442 100.5 378.792 101.6L370.242 104.9L369.892 104.05L377.717 101L377.467 101.35C377.183 100.683 376.75 100.108 376.167 99.625C375.6 99.1417 374.9 98.9 374.067 98.9C373.317 98.9 372.642 99.0833 372.042 99.45C371.442 99.8167 370.958 100.308 370.592 100.925C370.242 101.542 370.067 102.242 370.067 103.025C370.067 103.758 370.233 104.442 370.567 105.075C370.917 105.708 371.4 106.217 372.017 106.6C372.633 106.983 373.342 107.175 374.142 107.175C374.675 107.175 375.183 107.075 375.667 106.875C376.167 106.675 376.608 106.417 376.992 106.1L377.592 106.95C377.125 107.317 376.583 107.617 375.967 107.85C375.367 108.083 374.75 108.2 374.117 108.2ZM386.299 108.2C385.283 108.2 384.383 107.975 383.599 107.525C382.816 107.075 382.199 106.467 381.749 105.7C381.316 104.917 381.099 104.042 381.099 103.075C381.099 102.125 381.333 101.258 381.799 100.475C382.266 99.6917 382.891 99.0667 383.674 98.6C384.474 98.1333 385.358 97.9 386.324 97.9C387.491 97.9 388.466 98.2417 389.249 98.925C390.049 99.6083 390.624 100.5 390.974 101.6L382.424 104.9L382.074 104.05L389.899 101L389.649 101.35C389.366 100.683 388.933 100.108 388.349 99.625C387.783 99.1417 387.083 98.9 386.249 98.9C385.499 98.9 384.824 99.0833 384.224 99.45C383.624 99.8167 383.141 100.308 382.774 100.925C382.424 101.542 382.249 102.242 382.249 103.025C382.249 103.758 382.416 104.442 382.749 105.075C383.099 105.708 383.583 106.217 384.199 106.6C384.816 106.983 385.524 107.175 386.324 107.175C386.858 107.175 387.366 107.075 387.849 106.875C388.349 106.675 388.791 106.417 389.174 106.1L389.774 106.95C389.308 107.317 388.766 107.617 388.149 107.85C387.549 108.083 386.933 108.2 386.299 108.2ZM395.257 98.225L395.382 101.3L395.232 100.7C395.515 99.85 396.049 99.1833 396.832 98.7C397.632 98.2 398.515 97.95 399.482 97.95C400.399 97.95 401.14 98.225 401.707 98.775C402.274 99.3083 402.565 100.008 402.582 100.875V108H401.382V101.2C401.365 100.567 401.165 100.042 400.782 99.625C400.399 99.2083 399.84 98.9917 399.107 98.975C398.457 98.975 397.849 99.1333 397.282 99.45C396.715 99.7667 396.257 100.208 395.907 100.775C395.574 101.342 395.407 102 395.407 102.75V108H394.232V98.225H395.257ZM411.025 108.2C410.108 108.2 409.275 107.983 408.525 107.55C407.775 107.1 407.175 106.483 406.725 105.7C406.291 104.917 406.075 104.033 406.075 103.05C406.075 102 406.3 101.092 406.75 100.325C407.2 99.5583 407.808 98.9667 408.575 98.55C409.358 98.1333 410.216 97.925 411.15 97.925C412.083 97.925 412.966 98.1667 413.8 98.65C414.65 99.1333 415.266 99.7667 415.65 100.55L415.45 101.1V89H416.625V108H415.425V105L415.675 105.55C415.258 106.333 414.633 106.975 413.8 107.475C412.966 107.958 412.041 108.2 411.025 108.2ZM411.325 107.175C412.075 107.175 412.75 107.017 413.35 106.7C413.95 106.367 414.433 105.925 414.8 105.375C415.166 104.808 415.375 104.175 415.425 103.475V102.225C415.308 101.592 415.05 101.025 414.65 100.525C414.25 100.025 413.766 99.6333 413.2 99.35C412.633 99.05 412.008 98.9 411.325 98.9C410.575 98.9 409.891 99.075 409.275 99.425C408.658 99.775 408.166 100.258 407.8 100.875C407.433 101.492 407.25 102.208 407.25 103.025C407.25 103.792 407.433 104.492 407.8 105.125C408.166 105.742 408.658 106.242 409.275 106.625C409.908 106.992 410.591 107.175 411.325 107.175ZM425.313 108.2C424.296 108.2 423.396 107.975 422.613 107.525C421.83 107.075 421.213 106.467 420.763 105.7C420.33 104.917 420.113 104.042 420.113 103.075C420.113 102.125 420.346 101.258 420.813 100.475C421.28 99.6917 421.905 99.0667 422.688 98.6C423.488 98.1333 424.371 97.9 425.338 97.9C426.505 97.9 427.48 98.2417 428.263 98.925C429.063 99.6083 429.638 100.5 429.988 101.6L421.438 104.9L421.088 104.05L428.913 101L428.663 101.35C428.38 100.683 427.946 100.108 427.363 99.625C426.796 99.1417 426.096 98.9 425.263 98.9C424.513 98.9 423.838 99.0833 423.238 99.45C422.638 99.8167 422.155 100.308 421.788 100.925C421.438 101.542 421.263 102.242 421.263 103.025C421.263 103.758 421.43 104.442 421.763 105.075C422.113 105.708 422.596 106.217 423.213 106.6C423.83 106.983 424.538 107.175 425.338 107.175C425.871 107.175 426.38 107.075 426.863 106.875C427.363 106.675 427.805 106.417 428.188 106.1L428.788 106.95C428.321 107.317 427.78 107.617 427.163 107.85C426.563 108.083 425.946 108.2 425.313 108.2ZM437.246 108.2C436.329 108.2 435.496 107.983 434.746 107.55C433.996 107.1 433.396 106.483 432.946 105.7C432.512 104.917 432.296 104.033 432.296 103.05C432.296 102 432.521 101.092 432.971 100.325C433.421 99.5583 434.029 98.9667 434.796 98.55C435.579 98.1333 436.437 97.925 437.371 97.925C438.304 97.925 439.187 98.1667 440.021 98.65C440.871 99.1333 441.487 99.7667 441.871 100.55L441.671 101.1V89H442.846V108H441.646V105L441.896 105.55C441.479 106.333 440.854 106.975 440.021 107.475C439.187 107.958 438.262 108.2 437.246 108.2ZM437.546 107.175C438.296 107.175 438.971 107.017 439.571 106.7C440.171 106.367 440.654 105.925 441.021 105.375C441.387 104.808 441.596 104.175 441.646 103.475V102.225C441.529 101.592 441.271 101.025 440.871 100.525C440.471 100.025 439.987 99.6333 439.421 99.35C438.854 99.05 438.229 98.9 437.546 98.9C436.796 98.9 436.112 99.075 435.496 99.425C434.879 99.775 434.387 100.258 434.021 100.875C433.654 101.492 433.471 102.208 433.471 103.025C433.471 103.792 433.654 104.492 434.021 105.125C434.387 105.742 434.879 106.242 435.496 106.625C436.129 106.992 436.812 107.175 437.546 107.175ZM446.334 103.05C446.334 102.1 446.559 101.233 447.009 100.45C447.475 99.6667 448.1 99.05 448.884 98.6C449.684 98.1333 450.575 97.9 451.559 97.9C452.559 97.9 453.45 98.1333 454.234 98.6C455.017 99.05 455.634 99.6667 456.084 100.45C456.534 101.233 456.759 102.1 456.759 103.05C456.759 104 456.534 104.867 456.084 105.65C455.634 106.433 455.009 107.058 454.209 107.525C453.425 107.975 452.542 108.2 451.559 108.2C450.559 108.2 449.667 107.983 448.884 107.55C448.1 107.1 447.475 106.492 447.009 105.725C446.559 104.942 446.334 104.05 446.334 103.05ZM447.509 103.075C447.509 103.842 447.684 104.542 448.034 105.175C448.4 105.792 448.884 106.283 449.484 106.65C450.1 107.017 450.784 107.2 451.534 107.2C452.284 107.2 452.959 107.017 453.559 106.65C454.175 106.283 454.659 105.792 455.009 105.175C455.375 104.542 455.559 103.842 455.559 103.075C455.559 102.308 455.375 101.617 455.009 101C454.659 100.367 454.175 99.8667 453.559 99.5C452.959 99.1167 452.284 98.925 451.534 98.925C450.767 98.925 450.075 99.125 449.459 99.525C448.859 99.9083 448.384 100.417 448.034 101.05C447.684 101.683 447.509 102.358 447.509 103.075ZM461.272 98.225L461.397 101.225L461.247 100.85C461.464 100.25 461.806 99.7333 462.272 99.3C462.739 98.8667 463.256 98.5333 463.822 98.3C464.406 98.0667 464.964 97.95 465.497 97.95L465.447 99.1C464.697 99.1 464.014 99.2667 463.397 99.6C462.797 99.9333 462.314 100.383 461.947 100.95C461.597 101.5 461.422 102.125 461.422 102.825V108H460.247V98.225H461.272ZM468.792 98.225H469.967V108H468.792V98.225ZM468.542 94.625C468.542 94.3917 468.634 94.2 468.817 94.05C469.001 93.8833 469.201 93.8 469.417 93.8C469.651 93.8 469.851 93.8833 470.017 94.05C470.184 94.2 470.267 94.3917 470.267 94.625C470.267 94.875 470.184 95.0833 470.017 95.25C469.851 95.4 469.651 95.475 469.417 95.475C469.201 95.475 469.001 95.3917 468.817 95.225C468.634 95.0583 468.542 94.8583 468.542 94.625ZM476.708 108.2C476.141 108.2 475.549 108.1 474.933 107.9C474.316 107.683 473.816 107.342 473.433 106.875L473.983 106.1C474.316 106.45 474.708 106.733 475.158 106.95C475.624 107.15 476.116 107.25 476.633 107.25C477.016 107.25 477.374 107.2 477.708 107.1C478.058 106.983 478.341 106.792 478.558 106.525C478.774 106.258 478.883 105.9 478.883 105.45C478.883 104.983 478.749 104.625 478.483 104.375C478.233 104.125 477.908 103.925 477.508 103.775C477.124 103.608 476.716 103.458 476.283 103.325C475.566 103.092 474.974 102.775 474.508 102.375C474.058 101.975 473.833 101.408 473.833 100.675C473.833 100.142 473.958 99.675 474.208 99.275C474.474 98.875 474.833 98.5667 475.283 98.35C475.733 98.1167 476.241 98 476.808 98C477.324 98 477.833 98.0833 478.333 98.25C478.849 98.4167 479.316 98.7 479.733 99.1L479.208 99.925C478.941 99.5583 478.583 99.3083 478.133 99.175C477.699 99.0417 477.316 98.9667 476.983 98.95C476.699 98.95 476.399 99.0083 476.083 99.125C475.783 99.2417 475.524 99.4167 475.308 99.65C475.108 99.8667 475.008 100.158 475.008 100.525C475.008 100.908 475.116 101.225 475.333 101.475C475.549 101.708 475.824 101.9 476.158 102.05C476.508 102.2 476.866 102.342 477.233 102.475C477.716 102.625 478.166 102.808 478.583 103.025C479.016 103.225 479.366 103.5 479.633 103.85C479.916 104.183 480.058 104.633 480.058 105.2C480.058 105.767 479.933 106.283 479.683 106.75C479.433 107.2 479.058 107.558 478.558 107.825C478.074 108.075 477.458 108.2 476.708 108.2ZM484.637 98.225L484.762 100.95L484.587 100.7C484.92 99.85 485.47 99.1833 486.237 98.7C487.02 98.2 487.87 97.95 488.787 97.95C489.337 97.95 489.828 98.0583 490.262 98.275C490.712 98.475 491.07 98.7583 491.337 99.125C491.62 99.475 491.787 99.8833 491.837 100.35L491.687 100.5C492.037 99.6667 492.587 99.0333 493.337 98.6C494.087 98.1667 494.895 97.95 495.762 97.95C496.695 97.95 497.437 98.225 497.987 98.775C498.537 99.3083 498.82 100.008 498.837 100.875V108H497.662V101.125C497.645 100.542 497.462 100.05 497.112 99.65C496.762 99.2333 496.228 99.0083 495.512 98.975C494.862 98.975 494.262 99.1417 493.712 99.475C493.162 99.8083 492.712 100.25 492.362 100.8C492.028 101.35 491.845 101.967 491.812 102.65V108H490.637V101.125C490.62 100.542 490.428 100.05 490.062 99.65C489.712 99.2333 489.178 99.0083 488.462 98.975C487.795 98.975 487.178 99.1417 486.612 99.475C486.062 99.8083 485.62 100.267 485.287 100.85C484.953 101.417 484.787 102.05 484.787 102.75V108H483.612V98.225H484.637ZM502.339 103.05C502.339 102.1 502.564 101.233 503.014 100.45C503.481 99.6667 504.106 99.05 504.889 98.6C505.689 98.1333 506.581 97.9 507.564 97.9C508.564 97.9 509.456 98.1333 510.239 98.6C511.023 99.05 511.639 99.6667 512.089 100.45C512.539 101.233 512.764 102.1 512.764 103.05C512.764 104 512.539 104.867 512.089 105.65C511.639 106.433 511.014 107.058 510.214 107.525C509.431 107.975 508.548 108.2 507.564 108.2C506.564 108.2 505.673 107.983 504.889 107.55C504.106 107.1 503.481 106.492 503.014 105.725C502.564 104.942 502.339 104.05 502.339 103.05ZM503.514 103.075C503.514 103.842 503.689 104.542 504.039 105.175C504.406 105.792 504.889 106.283 505.489 106.65C506.106 107.017 506.789 107.2 507.539 107.2C508.289 107.2 508.964 107.017 509.564 106.65C510.181 106.283 510.664 105.792 511.014 105.175C511.381 104.542 511.564 103.842 511.564 103.075C511.564 102.308 511.381 101.617 511.014 101C510.664 100.367 510.181 99.8667 509.564 99.5C508.964 99.1167 508.289 98.925 507.539 98.925C506.773 98.925 506.081 99.125 505.464 99.525C504.864 99.9083 504.389 100.417 504.039 101.05C503.689 101.683 503.514 102.358 503.514 103.075ZM527.919 108.2C527.003 108.2 526.169 107.983 525.419 107.55C524.669 107.1 524.069 106.483 523.619 105.7C523.186 104.917 522.969 104.033 522.969 103.05C522.969 102 523.194 101.092 523.644 100.325C524.094 99.5583 524.703 98.9667 525.469 98.55C526.253 98.1333 527.111 97.925 528.044 97.925C528.978 97.925 529.861 98.1667 530.694 98.65C531.544 99.1333 532.161 99.7667 532.544 100.55L532.344 101.1V89H533.519V108H532.319V105L532.569 105.55C532.153 106.333 531.528 106.975 530.694 107.475C529.861 107.958 528.936 108.2 527.919 108.2ZM528.219 107.175C528.969 107.175 529.644 107.017 530.244 106.7C530.844 106.367 531.328 105.925 531.694 105.375C532.061 104.808 532.269 104.175 532.319 103.475V102.225C532.203 101.592 531.944 101.025 531.544 100.525C531.144 100.025 530.661 99.6333 530.094 99.35C529.528 99.05 528.903 98.9 528.219 98.9C527.469 98.9 526.786 99.075 526.169 99.425C525.553 99.775 525.061 100.258 524.694 100.875C524.328 101.492 524.144 102.208 524.144 103.025C524.144 103.792 524.328 104.492 524.694 105.125C525.061 105.742 525.553 106.242 526.169 106.625C526.803 106.992 527.486 107.175 528.219 107.175ZM537.007 103.05C537.007 102.1 537.232 101.233 537.682 100.45C538.149 99.6667 538.774 99.05 539.557 98.6C540.357 98.1333 541.249 97.9 542.232 97.9C543.232 97.9 544.124 98.1333 544.907 98.6C545.691 99.05 546.307 99.6667 546.757 100.45C547.207 101.233 547.432 102.1 547.432 103.05C547.432 104 547.207 104.867 546.757 105.65C546.307 106.433 545.682 107.058 544.882 107.525C544.099 107.975 543.216 108.2 542.232 108.2C541.232 108.2 540.341 107.983 539.557 107.55C538.774 107.1 538.149 106.492 537.682 105.725C537.232 104.942 537.007 104.05 537.007 103.05ZM538.182 103.075C538.182 103.842 538.357 104.542 538.707 105.175C539.074 105.792 539.557 106.283 540.157 106.65C540.774 107.017 541.457 107.2 542.207 107.2C542.957 107.2 543.632 107.017 544.232 106.65C544.849 106.283 545.332 105.792 545.682 105.175C546.049 104.542 546.232 103.842 546.232 103.075C546.232 102.308 546.049 101.617 545.682 101C545.332 100.367 544.849 99.8667 544.232 99.5C543.632 99.1167 542.957 98.925 542.207 98.925C541.441 98.925 540.749 99.125 540.132 99.525C539.532 99.9083 539.057 100.417 538.707 101.05C538.357 101.683 538.182 102.358 538.182 103.075ZM559.012 90.25L565.562 106.875L564.887 106.775L571.287 90.25H572.687L565.137 108.825L557.587 90.25H559.012ZM577.676 108.2C576.743 108.2 575.893 107.992 575.126 107.575C574.376 107.142 573.776 106.542 573.326 105.775C572.893 105.008 572.676 104.117 572.676 103.1C572.676 102.017 572.91 101.092 573.376 100.325C573.843 99.5417 574.476 98.95 575.276 98.55C576.076 98.1333 576.985 97.925 578.001 97.925C578.868 97.925 579.685 98.1833 580.451 98.7C581.235 99.2167 581.793 99.8667 582.126 100.65L581.951 101L582.101 98.225H583.151V108H581.976V104.975L582.226 105.425C582.11 105.758 581.91 106.092 581.626 106.425C581.343 106.742 580.993 107.042 580.576 107.325C580.176 107.592 579.726 107.808 579.226 107.975C578.743 108.125 578.226 108.2 577.676 108.2ZM577.926 107.2C578.66 107.2 579.318 107.05 579.901 106.75C580.501 106.433 580.985 106 581.351 105.45C581.718 104.9 581.926 104.267 581.976 103.55V102.15C581.843 101.533 581.576 100.983 581.176 100.5C580.793 100.017 580.318 99.6333 579.751 99.35C579.185 99.0667 578.568 98.925 577.901 98.925C577.168 98.925 576.493 99.1 575.876 99.45C575.26 99.7833 574.768 100.258 574.401 100.875C574.035 101.492 573.851 102.217 573.851 103.05C573.851 103.817 574.035 104.517 574.401 105.15C574.768 105.767 575.26 106.267 575.876 106.65C576.51 107.017 577.193 107.2 577.926 107.2ZM587.591 89H588.766V108H587.591V89ZM597.456 108.2C596.44 108.2 595.54 107.975 594.756 107.525C593.973 107.075 593.356 106.467 592.906 105.7C592.473 104.917 592.256 104.042 592.256 103.075C592.256 102.125 592.49 101.258 592.956 100.475C593.423 99.6917 594.048 99.0667 594.831 98.6C595.631 98.1333 596.515 97.9 597.481 97.9C598.648 97.9 599.623 98.2417 600.406 98.925C601.206 99.6083 601.781 100.5 602.131 101.6L593.581 104.9L593.231 104.05L601.056 101L600.806 101.35C600.523 100.683 600.09 100.108 599.506 99.625C598.94 99.1417 598.24 98.9 597.406 98.9C596.656 98.9 595.981 99.0833 595.381 99.45C594.781 99.8167 594.298 100.308 593.931 100.925C593.581 101.542 593.406 102.242 593.406 103.025C593.406 103.758 593.573 104.442 593.906 105.075C594.256 105.708 594.74 106.217 595.356 106.6C595.973 106.983 596.681 107.175 597.481 107.175C598.015 107.175 598.523 107.075 599.006 106.875C599.506 106.675 599.948 106.417 600.331 106.1L600.931 106.95C600.465 107.317 599.923 107.617 599.306 107.85C598.706 108.083 598.09 108.2 597.456 108.2ZM617.055 108.2C616.138 108.2 615.305 107.983 614.555 107.55C613.805 107.1 613.205 106.483 612.755 105.7C612.322 104.917 612.105 104.033 612.105 103.05C612.105 102 612.33 101.092 612.78 100.325C613.23 99.5583 613.838 98.9667 614.605 98.55C615.388 98.1333 616.247 97.925 617.18 97.925C618.113 97.925 618.997 98.1667 619.83 98.65C620.68 99.1333 621.297 99.7667 621.68 100.55L621.48 101.1V89H622.655V108H621.455V105L621.705 105.55C621.288 106.333 620.663 106.975 619.83 107.475C618.997 107.958 618.072 108.2 617.055 108.2ZM617.355 107.175C618.105 107.175 618.78 107.017 619.38 106.7C619.98 106.367 620.463 105.925 620.83 105.375C621.197 104.808 621.405 104.175 621.455 103.475V102.225C621.338 101.592 621.08 101.025 620.68 100.525C620.28 100.025 619.797 99.6333 619.23 99.35C618.663 99.05 618.038 98.9 617.355 98.9C616.605 98.9 615.922 99.075 615.305 99.425C614.688 99.775 614.197 100.258 613.83 100.875C613.463 101.492 613.28 102.208 613.28 103.025C613.28 103.792 613.463 104.492 613.83 105.125C614.197 105.742 614.688 106.242 615.305 106.625C615.938 106.992 616.622 107.175 617.355 107.175ZM626.143 103.05C626.143 102.1 626.368 101.233 626.818 100.45C627.285 99.6667 627.91 99.05 628.693 98.6C629.493 98.1333 630.385 97.9 631.368 97.9C632.368 97.9 633.26 98.1333 634.043 98.6C634.826 99.05 635.443 99.6667 635.893 100.45C636.343 101.233 636.568 102.1 636.568 103.05C636.568 104 636.343 104.867 635.893 105.65C635.443 106.433 634.818 107.058 634.018 107.525C633.235 107.975 632.351 108.2 631.368 108.2C630.368 108.2 629.476 107.983 628.693 107.55C627.91 107.1 627.285 106.492 626.818 105.725C626.368 104.942 626.143 104.05 626.143 103.05ZM627.318 103.075C627.318 103.842 627.493 104.542 627.843 105.175C628.21 105.792 628.693 106.283 629.293 106.65C629.91 107.017 630.593 107.2 631.343 107.2C632.093 107.2 632.768 107.017 633.368 106.65C633.985 106.283 634.468 105.792 634.818 105.175C635.185 104.542 635.368 103.842 635.368 103.075C635.368 102.308 635.185 101.617 634.818 101C634.468 100.367 633.985 99.8667 633.368 99.5C632.768 99.1167 632.093 98.925 631.343 98.925C630.576 98.925 629.885 99.125 629.268 99.525C628.668 99.9083 628.193 100.417 627.843 101.05C627.493 101.683 627.318 102.358 627.318 103.075ZM642.357 108.2C641.79 108.2 641.199 108.1 640.582 107.9C639.965 107.683 639.465 107.342 639.082 106.875L639.632 106.1C639.965 106.45 640.357 106.733 640.807 106.95C641.274 107.15 641.765 107.25 642.282 107.25C642.665 107.25 643.024 107.2 643.357 107.1C643.707 106.983 643.99 106.792 644.207 106.525C644.424 106.258 644.532 105.9 644.532 105.45C644.532 104.983 644.399 104.625 644.132 104.375C643.882 104.125 643.557 103.925 643.157 103.775C642.774 103.608 642.365 103.458 641.932 103.325C641.215 103.092 640.624 102.775 640.157 102.375C639.707 101.975 639.482 101.408 639.482 100.675C639.482 100.142 639.607 99.675 639.857 99.275C640.124 98.875 640.482 98.5667 640.932 98.35C641.382 98.1167 641.89 98 642.457 98C642.974 98 643.482 98.0833 643.982 98.25C644.499 98.4167 644.965 98.7 645.382 99.1L644.857 99.925C644.59 99.5583 644.232 99.3083 643.782 99.175C643.349 99.0417 642.965 98.9667 642.632 98.95C642.349 98.95 642.049 99.0083 641.732 99.125C641.432 99.2417 641.174 99.4167 640.957 99.65C640.757 99.8667 640.657 100.158 640.657 100.525C640.657 100.908 640.765 101.225 640.982 101.475C641.199 101.708 641.474 101.9 641.807 102.05C642.157 102.2 642.515 102.342 642.882 102.475C643.365 102.625 643.815 102.808 644.232 103.025C644.665 103.225 645.015 103.5 645.282 103.85C645.565 104.183 645.707 104.633 645.707 105.2C645.707 105.767 645.582 106.283 645.332 106.75C645.082 107.2 644.707 107.558 644.207 107.825C643.724 108.075 643.107 108.2 642.357 108.2ZM666.402 92.25C665.885 92 665.252 91.7667 664.502 91.55C663.752 91.3333 663.002 91.225 662.252 91.225C661.085 91.225 660.152 91.5167 659.452 92.1C658.752 92.6833 658.402 93.4167 658.402 94.3C658.402 94.9667 658.602 95.525 659.002 95.975C659.402 96.4083 659.927 96.7833 660.577 97.1C661.227 97.4 661.919 97.6917 662.652 97.975C663.235 98.1917 663.81 98.4333 664.377 98.7C664.96 98.9667 665.485 99.2917 665.952 99.675C666.419 100.058 666.785 100.533 667.052 101.1C667.335 101.667 667.477 102.367 667.477 103.2C667.477 104.183 667.244 105.058 666.777 105.825C666.31 106.575 665.66 107.158 664.827 107.575C663.994 107.992 663.027 108.2 661.927 108.2C661.044 108.2 660.235 108.092 659.502 107.875C658.785 107.658 658.152 107.408 657.602 107.125C657.069 106.825 656.644 106.575 656.327 106.375L656.902 105.375C657.269 105.642 657.71 105.908 658.227 106.175C658.76 106.442 659.335 106.667 659.952 106.85C660.569 107.033 661.185 107.125 661.802 107.125C662.519 107.125 663.21 106.983 663.877 106.7C664.56 106.417 665.119 105.992 665.552 105.425C666.002 104.842 666.227 104.108 666.227 103.225C666.227 102.375 666.019 101.692 665.602 101.175C665.185 100.642 664.652 100.208 664.002 99.875C663.352 99.5417 662.66 99.2417 661.927 98.975C661.36 98.7583 660.794 98.5333 660.227 98.3C659.66 98.05 659.144 97.7583 658.677 97.425C658.21 97.075 657.835 96.6583 657.552 96.175C657.285 95.6917 657.152 95.1083 657.152 94.425C657.152 93.575 657.369 92.8333 657.802 92.2C658.235 91.5667 658.819 91.075 659.552 90.725C660.302 90.3583 661.152 90.1667 662.102 90.15C662.935 90.15 663.777 90.2583 664.627 90.475C665.494 90.6917 666.244 90.9667 666.877 91.3L666.402 92.25ZM671.454 98.225H672.629V108H671.454V98.225ZM671.204 94.625C671.204 94.3917 671.295 94.2 671.479 94.05C671.662 93.8833 671.862 93.8 672.079 93.8C672.312 93.8 672.512 93.8833 672.679 94.05C672.845 94.2 672.929 94.3917 672.929 94.625C672.929 94.875 672.845 95.0833 672.679 95.25C672.512 95.4 672.312 95.475 672.079 95.475C671.862 95.475 671.662 95.3917 671.479 95.225C671.295 95.0583 671.204 94.8583 671.204 94.625ZM678.094 98.225L678.219 101.3L678.069 100.7C678.352 99.85 678.885 99.1833 679.669 98.7C680.469 98.2 681.352 97.95 682.319 97.95C683.235 97.95 683.977 98.225 684.544 98.775C685.11 99.3083 685.402 100.008 685.419 100.875V108H684.219V101.2C684.202 100.567 684.002 100.042 683.619 99.625C683.235 99.2083 682.677 98.9917 681.944 98.975C681.294 98.975 680.685 99.1333 680.119 99.45C679.552 99.7667 679.094 100.208 678.744 100.775C678.41 101.342 678.244 102 678.244 102.75V108H677.069V98.225H678.094ZM688.912 103.05C688.912 102.1 689.137 101.233 689.587 100.45C690.053 99.6667 690.678 99.05 691.462 98.6C692.262 98.1333 693.153 97.9 694.137 97.9C695.137 97.9 696.028 98.1333 696.812 98.6C697.595 99.05 698.212 99.6667 698.662 100.45C699.112 101.233 699.337 102.1 699.337 103.05C699.337 104 699.112 104.867 698.662 105.65C698.212 106.433 697.587 107.058 696.787 107.525C696.003 107.975 695.12 108.2 694.137 108.2C693.137 108.2 692.245 107.983 691.462 107.55C690.678 107.1 690.053 106.492 689.587 105.725C689.137 104.942 688.912 104.05 688.912 103.05ZM690.087 103.075C690.087 103.842 690.262 104.542 690.612 105.175C690.978 105.792 691.462 106.283 692.062 106.65C692.678 107.017 693.362 107.2 694.112 107.2C694.862 107.2 695.537 107.017 696.137 106.65C696.753 106.283 697.237 105.792 697.587 105.175C697.953 104.542 698.137 103.842 698.137 103.075C698.137 102.308 697.953 101.617 697.587 101C697.237 100.367 696.753 99.8667 696.137 99.5C695.537 99.1167 694.862 98.925 694.112 98.925C693.345 98.925 692.653 99.125 692.037 99.525C691.437 99.9083 690.962 100.417 690.612 101.05C690.262 101.683 690.087 102.358 690.087 103.075ZM705.126 108.2C704.559 108.2 703.967 108.1 703.351 107.9C702.734 107.683 702.234 107.342 701.851 106.875L702.401 106.1C702.734 106.45 703.126 106.733 703.576 106.95C704.042 107.15 704.534 107.25 705.051 107.25C705.434 107.25 705.792 107.2 706.126 107.1C706.476 106.983 706.759 106.792 706.976 106.525C707.192 106.258 707.301 105.9 707.301 105.45C707.301 104.983 707.167 104.625 706.901 104.375C706.651 104.125 706.326 103.925 705.926 103.775C705.542 103.608 705.134 103.458 704.701 103.325C703.984 103.092 703.392 102.775 702.926 102.375C702.476 101.975 702.251 101.408 702.251 100.675C702.251 100.142 702.376 99.675 702.626 99.275C702.892 98.875 703.251 98.5667 703.701 98.35C704.151 98.1167 704.659 98 705.226 98C705.742 98 706.251 98.0833 706.751 98.25C707.267 98.4167 707.734 98.7 708.151 99.1L707.626 99.925C707.359 99.5583 707.001 99.3083 706.551 99.175C706.117 99.0417 705.734 98.9667 705.401 98.95C705.117 98.95 704.817 99.0083 704.501 99.125C704.201 99.2417 703.942 99.4167 703.726 99.65C703.526 99.8667 703.426 100.158 703.426 100.525C703.426 100.908 703.534 101.225 703.751 101.475C703.967 101.708 704.242 101.9 704.576 102.05C704.926 102.2 705.284 102.342 705.651 102.475C706.134 102.625 706.584 102.808 707.001 103.025C707.434 103.225 707.784 103.5 708.051 103.85C708.334 104.183 708.476 104.633 708.476 105.2C708.476 105.767 708.351 106.283 708.101 106.75C707.851 107.2 707.476 107.558 706.976 107.825C706.492 108.075 705.876 108.2 705.126 108.2Z" fill="white"/>
<g filter="url(#filter0_d_365_102)">
<path d="M4.85 51.675V51.59L40.805 6.965H40.89V42.325H47.605V51.675H40.89V64H28.48V51.675H4.85ZM29.075 34.08L22.53 42.835L21.34 42.325H28.48V33.485L29.075 34.08Z" fill="#3D3DF7"/>
</g>
<g filter="url(#filter1_d_365_102)">
<path d="M11.85 51.675V51.59L47.805 6.965H47.89V42.325H54.605V51.675H47.89V64H35.48V51.675H11.85ZM36.075 34.08L29.53 42.835L28.34 42.325H35.48V33.485L36.075 34.08Z" fill="white"/>
</g>
<g filter="url(#filter2_d_365_102)">
<path d="M188.57 69.68C185.227 69.68 181.968 69.0567 178.795 67.81C175.622 66.5633 173.157 65.0617 171.4 63.305L177.775 53.445C178.795 54.6917 180.24 55.74 182.11 56.59C184.037 57.3833 185.878 57.78 187.635 57.78C188.938 57.78 190.157 57.4967 191.29 56.93C192.423 56.3633 193.33 55.5133 194.01 54.38C194.69 53.2467 195.03 51.8583 195.03 50.215C195.03 48.4017 194.662 46.815 193.925 45.455C193.245 44.095 192.225 43.0467 190.865 42.31C189.562 41.5167 188.003 41.12 186.19 41.12C184.433 41.12 182.762 41.375 181.175 41.885C179.588 42.3383 177.718 43.1317 175.565 44.265H175.48V12.645H203.615V24.545H186.105V33.64L184.66 31.09C185.453 30.9767 186.218 30.8917 186.955 30.835C187.692 30.7783 188.428 30.75 189.165 30.75C193.132 30.75 196.475 31.6283 199.195 33.385C201.972 35.1417 204.097 37.465 205.57 40.355C207.043 43.245 207.78 46.39 207.78 49.79C207.78 53.53 206.93 56.9017 205.23 59.905C203.53 62.9083 201.207 65.2883 198.26 67.045C195.37 68.8017 192.14 69.68 188.57 69.68Z" fill="#3D3DF7"/>
</g>
<g filter="url(#filter3_d_365_102)">
<path d="M194.57 69.68C191.227 69.68 187.968 69.0567 184.795 67.81C181.622 66.5633 179.157 65.0617 177.4 63.305L183.775 53.445C184.795 54.6917 186.24 55.74 188.11 56.59C190.037 57.3833 191.878 57.78 193.635 57.78C194.938 57.78 196.157 57.4967 197.29 56.93C198.423 56.3633 199.33 55.5133 200.01 54.38C200.69 53.2467 201.03 51.8583 201.03 50.215C201.03 48.4017 200.662 46.815 199.925 45.455C199.245 44.095 198.225 43.0467 196.865 42.31C195.562 41.5167 194.003 41.12 192.19 41.12C190.433 41.12 188.762 41.375 187.175 41.885C185.588 42.3383 183.718 43.1317 181.565 44.265H181.48V12.645H209.615V24.545H192.105V33.64L190.66 31.09C191.453 30.9767 192.218 30.8917 192.955 30.835C193.692 30.7783 194.428 30.75 195.165 30.75C199.132 30.75 202.475 31.6283 205.195 33.385C207.972 35.1417 210.097 37.465 211.57 40.355C213.043 43.245 213.78 46.39 213.78 49.79C213.78 53.53 212.93 56.9017 211.23 59.905C209.53 62.9083 207.207 65.2883 204.26 67.045C201.37 68.8017 198.14 69.68 194.57 69.68Z" fill="#3D3DF7"/>
<path d="M194.57 69.68C191.227 69.68 187.968 69.0567 184.795 67.81C181.622 66.5633 179.157 65.0617 177.4 63.305L183.775 53.445C184.795 54.6917 186.24 55.74 188.11 56.59C190.037 57.3833 191.878 57.78 193.635 57.78C194.938 57.78 196.157 57.4967 197.29 56.93C198.423 56.3633 199.33 55.5133 200.01 54.38C200.69 53.2467 201.03 51.8583 201.03 50.215C201.03 48.4017 200.662 46.815 199.925 45.455C199.245 44.095 198.225 43.0467 196.865 42.31C195.562 41.5167 194.003 41.12 192.19 41.12C190.433 41.12 188.762 41.375 187.175 41.885C185.588 42.3383 183.718 43.1317 181.565 44.265H181.48V12.645H209.615V24.545H192.105V33.64L190.66 31.09C191.453 30.9767 192.218 30.8917 192.955 30.835C193.692 30.7783 194.428 30.75 195.165 30.75C199.132 30.75 202.475 31.6283 205.195 33.385C207.972 35.1417 210.097 37.465 211.57 40.355C213.043 43.245 213.78 46.39 213.78 49.79C213.78 53.53 212.93 56.9017 211.23 59.905C209.53 62.9083 207.207 65.2883 204.26 67.045C201.37 68.8017 198.14 69.68 194.57 69.68Z" fill="white"/>
</g>
<path d="M98.76 65.02C95.3033 65.02 92.1583 64.34 89.325 62.98C86.5483 61.5633 84.3383 59.41 82.695 56.52C81.0517 53.63 80.23 49.9467 80.23 45.47C80.23 41.2767 81.08 37.65 82.78 34.59C84.48 31.53 86.7183 29.1783 89.495 27.535C92.2717 25.835 95.2183 24.985 98.335 24.985C102.018 24.985 104.795 25.6083 106.665 26.855C108.592 28.045 110.178 29.3767 111.425 30.85L110.915 32.295L112.02 26.855H123.07V64H111.17V55.925L112.105 58.475C111.992 58.475 111.652 58.815 111.085 59.495C110.518 60.1183 109.668 60.8833 108.535 61.79C107.458 62.64 106.098 63.3767 104.455 64C102.868 64.68 100.97 65.02 98.76 65.02ZM102.16 55.33C103.577 55.33 104.852 55.1317 105.985 54.735C107.118 54.2817 108.11 53.6583 108.96 52.865C109.81 52.015 110.547 50.9667 111.17 49.72V40.625C110.717 39.3783 110.037 38.33 109.13 37.48C108.223 36.5733 107.147 35.8933 105.9 35.44C104.653 34.93 103.265 34.675 101.735 34.675C100.035 34.675 98.4483 35.1283 96.975 36.035C95.5583 36.885 94.425 38.075 93.575 39.605C92.725 41.135 92.3 42.8917 92.3 44.875C92.3 46.8583 92.7533 48.6433 93.66 50.23C94.5667 51.8167 95.7567 53.0633 97.23 53.97C98.76 54.8767 100.403 55.33 102.16 55.33Z" fill="#3D3DF7"/>
<path d="M268.25 64.78C265.607 64.78 263.245 64.1733 261.165 62.96C259.085 61.7033 257.438 59.905 256.225 57.565C255.055 55.225 254.47 52.4517 254.47 49.245C254.47 46.0383 255.12 43.3083 256.42 41.055C257.72 38.8017 259.497 37.09 261.75 35.92C264.003 34.75 266.56 34.165 269.42 34.165C271.24 34.165 272.973 34.4467 274.62 35.01C276.31 35.5733 277.718 36.44 278.845 37.61V40.47V12.715H287.88V64H278.78V58.475L279.495 60.425C278.022 61.6383 276.375 62.6783 274.555 63.545C272.735 64.3683 270.633 64.78 268.25 64.78ZM271.24 57.11C272.453 57.11 273.515 56.9583 274.425 56.655C275.378 56.3083 276.202 55.8317 276.895 55.225C277.632 54.575 278.26 53.7733 278.78 52.82V45.865C278.433 44.9117 277.892 44.11 277.155 43.46C276.462 42.7667 275.595 42.2467 274.555 41.9C273.558 41.51 272.453 41.315 271.24 41.315C269.897 41.315 268.64 41.6617 267.47 42.355C266.343 43.005 265.433 43.915 264.74 45.085C264.047 46.255 263.7 47.5983 263.7 49.115C263.7 50.6317 264.047 51.9967 264.74 53.21C265.433 54.4233 266.343 55.3767 267.47 56.07C268.64 56.7633 269.897 57.11 271.24 57.11ZM317.717 64.78C314.25 64.78 311.303 64.13 308.877 62.83C306.493 61.53 304.673 59.7317 303.417 57.435C302.16 55.1383 301.532 52.495 301.532 49.505C301.532 46.645 302.268 44.0667 303.742 41.77C305.215 39.4733 307.187 37.6533 309.657 36.31C312.127 34.9233 314.878 34.23 317.912 34.23C321.985 34.23 325.322 35.4217 327.922 37.805C330.565 40.145 332.277 43.5467 333.057 48.01L310.957 55.03L308.942 50.09L324.932 44.695L323.047 45.54C322.7 44.4133 322.072 43.4383 321.162 42.615C320.295 41.7483 318.973 41.315 317.197 41.315C315.853 41.315 314.662 41.64 313.622 42.29C312.625 42.8967 311.845 43.785 311.282 44.955C310.762 46.0817 310.502 47.425 310.502 48.985C310.502 50.7617 310.827 52.2567 311.477 53.47C312.127 54.64 313.015 55.5283 314.142 56.135C315.268 56.7417 316.525 57.045 317.912 57.045C318.908 57.045 319.862 56.8717 320.772 56.525C321.725 56.1783 322.657 55.7233 323.567 55.16L327.597 61.92C326.08 62.7867 324.433 63.48 322.657 64C320.923 64.52 319.277 64.78 317.717 64.78ZM371.597 49.44C371.597 46.5367 372.269 43.9367 373.612 41.64C374.999 39.3433 376.927 37.545 379.397 36.245C381.867 34.9017 384.705 34.23 387.912 34.23C391.162 34.23 393.979 34.9017 396.362 36.245C398.745 37.545 400.565 39.3433 401.822 41.64C403.122 43.9367 403.772 46.5367 403.772 49.44C403.772 52.3433 403.122 54.965 401.822 57.305C400.565 59.6017 398.745 61.4217 396.362 62.765C393.979 64.1083 391.119 64.78 387.782 64.78C384.662 64.78 381.867 64.1733 379.397 62.96C376.97 61.7467 375.064 59.9917 373.677 57.695C372.29 55.3983 371.597 52.6467 371.597 49.44ZM380.762 49.505C380.762 50.9783 381.065 52.3217 381.672 53.535C382.279 54.705 383.102 55.6367 384.142 56.33C385.182 57.0233 386.352 57.37 387.652 57.37C389.082 57.37 390.317 57.0233 391.357 56.33C392.397 55.6367 393.199 54.705 393.762 53.535C394.325 52.3217 394.607 50.9783 394.607 49.505C394.607 47.9883 394.325 46.645 393.762 45.475C393.199 44.305 392.397 43.3733 391.357 42.68C390.317 41.9867 389.082 41.64 387.652 41.64C386.352 41.64 385.182 41.9867 384.142 42.68C383.102 43.3733 382.279 44.305 381.672 45.475C381.065 46.645 380.762 47.9883 380.762 49.505ZM426.606 65.365C424.049 65.365 421.904 64.585 420.171 63.025C418.437 61.4217 417.527 59.3633 417.441 56.85V35.595H426.541V53.47C426.627 54.7267 426.952 55.745 427.516 56.525C428.079 57.2617 429.032 57.63 430.376 57.63C431.719 57.63 432.867 57.175 433.821 56.265C434.817 55.355 435.576 54.12 436.096 52.56C436.659 50.9567 436.941 49.1583 436.941 47.165V35.595H446.041V64H437.786L437.071 58.8L437.201 59.385C436.551 60.555 435.727 61.595 434.731 62.505C433.734 63.415 432.542 64.1083 431.156 64.585C429.812 65.105 428.296 65.365 426.606 65.365ZM464.565 23.115H473.665V35.465H480.555V42.55H473.665V64H464.565V42.55H460.145V35.465H464.565V23.115ZM503.146 65.365C500.589 65.365 498.444 64.585 496.711 63.025C494.977 61.4217 494.067 59.3633 493.981 56.85V35.595H503.081V53.47C503.167 54.7267 503.492 55.745 504.056 56.525C504.619 57.2617 505.572 57.63 506.916 57.63C508.259 57.63 509.407 57.175 510.361 56.265C511.357 55.355 512.116 54.12 512.636 52.56C513.199 50.9567 513.481 49.1583 513.481 47.165V35.595H522.581V64H514.326L513.611 58.8L513.741 59.385C513.091 60.555 512.267 61.595 511.271 62.505C510.274 63.415 509.082 64.1083 507.696 64.585C506.352 65.105 504.836 65.365 503.146 65.365ZM557.095 64.78C554.711 64.78 552.696 64.39 551.05 63.61C549.446 62.7867 548.038 61.725 546.825 60.425L547.54 58.475V64H538.44V12.715H547.475V40.47V37.545C548.601 36.5917 550.096 35.79 551.96 35.14C553.823 34.49 555.946 34.165 558.33 34.165C560.8 34.165 563.053 34.75 565.09 35.92C567.126 37.09 568.751 38.8017 569.965 41.055C571.221 43.265 571.85 45.9733 571.85 49.18C571.85 52.3867 571.156 55.16 569.77 57.5C568.426 59.84 566.628 61.6383 564.375 62.895C562.121 64.1517 559.695 64.78 557.095 64.78ZM555.08 57.11C556.423 57.11 557.658 56.7633 558.785 56.07C559.955 55.3767 560.886 54.4233 561.58 53.21C562.273 51.9967 562.62 50.6317 562.62 49.115C562.62 47.5983 562.273 46.255 561.58 45.085C560.886 43.915 559.955 43.005 558.785 42.355C557.658 41.6617 556.423 41.315 555.08 41.315C553.91 41.315 552.805 41.51 551.765 41.9C550.768 42.2467 549.901 42.7667 549.165 43.46C548.471 44.11 547.93 44.9117 547.54 45.865V52.82C548.06 53.7733 548.666 54.575 549.36 55.225C550.096 55.8317 550.941 56.3083 551.895 56.655C552.848 56.9583 553.91 57.11 555.08 57.11ZM593.691 35.595L594.536 43.395L594.341 42.225C595.165 40.535 596.291 39.105 597.721 37.935C599.151 36.7217 600.56 35.79 601.946 35.14C603.376 34.49 604.46 34.165 605.196 34.165L604.741 43.265C602.618 43.005 600.798 43.3517 599.281 44.305C597.765 45.2583 596.595 46.515 595.771 48.075C594.948 49.635 594.536 51.2383 594.536 52.885V64H585.501V35.595H593.691ZM615.182 49.44C615.182 46.5367 615.854 43.9367 617.197 41.64C618.584 39.3433 620.512 37.545 622.982 36.245C625.452 34.9017 628.29 34.23 631.497 34.23C634.747 34.23 637.564 34.9017 639.947 36.245C642.33 37.545 644.15 39.3433 645.407 41.64C646.707 43.9367 647.357 46.5367 647.357 49.44C647.357 52.3433 646.707 54.965 645.407 57.305C644.15 59.6017 642.33 61.4217 639.947 62.765C637.564 64.1083 634.704 64.78 631.367 64.78C628.247 64.78 625.452 64.1733 622.982 62.96C620.555 61.7467 618.649 59.9917 617.262 57.695C615.875 55.3983 615.182 52.6467 615.182 49.44ZM624.347 49.505C624.347 50.9783 624.65 52.3217 625.257 53.535C625.864 54.705 626.687 55.6367 627.727 56.33C628.767 57.0233 629.937 57.37 631.237 57.37C632.667 57.37 633.902 57.0233 634.942 56.33C635.982 55.6367 636.784 54.705 637.347 53.535C637.91 52.3217 638.192 50.9783 638.192 49.505C638.192 47.9883 637.91 46.645 637.347 45.475C636.784 44.305 635.982 43.3733 634.942 42.68C633.902 41.9867 632.667 41.64 631.237 41.64C629.937 41.64 628.767 41.9867 627.727 42.68C626.687 43.3733 625.864 44.305 625.257 45.475C624.65 46.645 624.347 47.9883 624.347 49.505Z" fill="#3D3DF7"/>
<defs>
<filter id="filter0_d_365_102" x="0.849609" y="6.96509" width="50.7559" height="65.0349" filterUnits="userSpaceOnUse" color-interpolation-filters="sRGB">
<feFlood flood-opacity="0" result="BackgroundImageFix"/>
<feColorMatrix in="SourceAlpha" type="matrix" values="0 0 0 0 0 0 0 0 0 0 0 0 0 0 0 0 0 0 127 0" result="hardAlpha"/>
<feOffset dy="4"/>
<feGaussianBlur stdDeviation="2"/>
<feComposite in2="hardAlpha" operator="out"/>
<feColorMatrix type="matrix" values="0 0 0 0 0 0 0 0 0 0 0 0 0 0 0 0 0 0 0.25 0"/>
<feBlend mode="normal" in2="BackgroundImageFix" result="effect1_dropShadow_365_102"/>
<feBlend mode="normal" in="SourceGraphic" in2="effect1_dropShadow_365_102" result="shape"/>
</filter>
<filter id="filter1_d_365_102" x="7.84961" y="6.96509" width="50.7559" height="65.0349" filterUnits="userSpaceOnUse" color-interpolation-filters="sRGB">
<feFlood flood-opacity="0" result="BackgroundImageFix"/>
<feColorMatrix in="SourceAlpha" type="matrix" values="0 0 0 0 0 0 0 0 0 0 0 0 0 0 0 0 0 0 127 0" result="hardAlpha"/>
<feOffset dy="4"/>
<feGaussianBlur stdDeviation="2"/>
<feComposite in2="hardAlpha" operator="out"/>
<feColorMatrix type="matrix" values="0 0 0 0 0 0 0 0 0 0 0 0 0 0 0 0 0 0 0.25 0"/>
<feBlend mode="normal" in2="BackgroundImageFix" result="effect1_dropShadow_365_102"/>
<feBlend mode="normal" in="SourceGraphic" in2="effect1_dropShadow_365_102" result="shape"/>
</filter>
<filter id="filter2_d_365_102" x="167.4" y="12.645" width="44.3799" height="65.0349" filterUnits="userSpaceOnUse" color-interpolation-filters="sRGB">
<feFlood flood-opacity="0" result="BackgroundImageFix"/>
<feColorMatrix in="SourceAlpha" type="matrix" values="0 0 0 0 0 0 0 0 0 0 0 0 0 0 0 0 0 0 127 0" result="hardAlpha"/>
<feOffset dy="4"/>
<feGaussianBlur stdDeviation="2"/>
<feComposite in2="hardAlpha" operator="out"/>
<feColorMatrix type="matrix" values="0 0 0 0 0 0 0 0 0 0 0 0 0 0 0 0 0 0 0.25 0"/>
<feBlend mode="normal" in2="BackgroundImageFix" result="effect1_dropShadow_365_102"/>
<feBlend mode="normal" in="SourceGraphic" in2="effect1_dropShadow_365_102" result="shape"/>
</filter>
<filter id="filter3_d_365_102" x="173.4" y="12.645" width="44.3799" height="65.0349" filterUnits="userSpaceOnUse" color-interpolation-filters="sRGB">
<feFlood flood-opacity="0" result="BackgroundImageFix"/>
<feColorMatrix in="SourceAlpha" type="matrix" values="0 0 0 0 0 0 0 0 0 0 0 0 0 0 0 0 0 0 127 0" result="hardAlpha"/>
<feOffset dy="4"/>
<feGaussianBlur stdDeviation="2"/>
<feComposite in2="hardAlpha" operator="out"/>
<feColorMatrix type="matrix" values="0 0 0 0 0 0 0 0 0 0 0 0 0 0 0 0 0 0 0.25 0"/>
<feBlend mode="normal" in2="BackgroundImageFix" result="effect1_dropShadow_365_102"/>
<feBlend mode="normal" in="SourceGraphic" in2="effect1_dropShadow_365_102" result="shape"/>
</filter>
</defs>
</svg>
