<svg width="364" height="92" viewBox="0 0 364 92" fill="none" xmlns="http://www.w3.org/2000/svg">
<path d="M44.7432 49.8516H42.0845C40.9565 49.8516 40.1436 49.5659 39.6455 48.9946C39.1475 48.4087 38.8984 47.6396 38.8984 46.6875C38.8984 44.5781 40.4731 43.5234 43.6226 43.5234C46.5815 43.5234 48.8081 43.9629 50.3022 44.8418L49.0278 45.8086C48.0024 45.3398 46.2007 45.1055 43.6226 45.1055C42.3628 45.1055 41.5132 45.2446 41.0737 45.5229C40.6489 45.8013 40.4365 46.1895 40.4365 46.6875C40.4365 47.1855 40.5537 47.5737 40.7881 47.8521C41.0225 48.1304 41.4546 48.2695 42.0845 48.2695H44.8091C46.7866 48.2695 48.5664 48.6064 50.1484 49.2803C51.7451 49.9541 53.0562 50.877 54.0815 52.0488C55.1069 53.2061 55.8906 54.5464 56.4326 56.0698C56.9746 57.5786 57.2456 59.1973 57.2456 60.9258C57.2456 62.332 57.0479 63.665 56.6523 64.9248C56.2568 66.1846 55.6562 67.3418 54.8506 68.3965C54.0596 69.4512 53.1001 70.3667 51.9722 71.1431C50.8589 71.9048 49.5259 72.498 47.9731 72.9229C46.4351 73.3623 44.7651 73.582 42.9634 73.582C40.1362 73.582 37.4849 73.1499 35.0093 72.2856C32.5483 71.436 30.4976 70.2422 28.8569 68.7041L30.1313 67.7593C31.6255 69.1069 33.4932 70.1543 35.7344 70.9014C37.9902 71.6338 40.3999 72 42.9634 72C44.9702 72 46.7793 71.7144 48.3906 71.1431C50.0166 70.5571 51.3496 69.7588 52.3896 68.748C53.4443 67.7373 54.25 66.5654 54.8066 65.2324C55.3779 63.8994 55.6636 62.4639 55.6636 60.9258C55.6636 58.8896 55.2534 57.0513 54.4331 55.4106C53.6128 53.7554 52.3604 52.415 50.6758 51.3896C49.0059 50.3643 47.0283 49.8516 44.7432 49.8516ZM42.0845 51.4336H44.5894C47.563 51.4336 49.8848 52.3418 51.5547 54.1582C53.2393 55.9746 54.0815 58.2305 54.0815 60.9258C54.0815 63.665 53.1074 65.9355 51.1592 67.7373C49.2109 69.5244 46.479 70.418 42.9634 70.418C40.6196 70.418 38.4297 70.0957 36.3936 69.4512C34.3574 68.8066 32.6655 67.8984 31.3179 66.7266L32.5483 65.7378C33.7495 66.7192 35.2583 67.481 37.0747 68.0229C38.9058 68.5649 40.8687 68.8359 42.9634 68.8359C46.0542 68.8359 48.4126 68.0962 50.0386 66.6167C51.6792 65.1372 52.4995 63.2402 52.4995 60.9258C52.4995 58.6406 51.811 56.751 50.4341 55.2568C49.0718 53.7627 47.1162 53.0156 44.5674 53.0156H42.0845C39.9458 53.0156 38.3418 52.4297 37.2725 51.2578C36.2031 50.0859 35.6685 48.5625 35.6685 46.6875C35.6685 44.8125 36.3276 43.2891 37.646 42.1172C38.979 40.9453 40.9712 40.3594 43.6226 40.3594C45.4829 40.3594 47.2114 40.5791 48.8081 41.0186C50.4048 41.4434 51.7231 42.0586 52.7632 42.8643L51.5107 43.8311C49.6797 42.5713 47.0503 41.9414 43.6226 41.9414C41.4106 41.9414 39.792 42.3809 38.7666 43.2598C37.7559 44.124 37.2505 45.2666 37.2505 46.6875C37.2505 48.123 37.624 49.2729 38.3711 50.1372C39.1328 51.0015 40.3706 51.4336 42.0845 51.4336ZM42.0845 54.5977H44.5015C46.6401 54.5977 48.2441 55.1909 49.3135 56.3774C50.3828 57.564 50.9175 59.0801 50.9175 60.9258C50.9175 62.8008 50.251 64.3242 48.918 65.4961C47.5996 66.668 45.6147 67.2539 42.9634 67.2539C41.103 67.2539 39.3672 67.0415 37.7559 66.6167C36.1592 66.1772 34.8408 65.5547 33.8008 64.749L35.0532 63.7822C36.8843 65.042 39.521 65.6719 42.9634 65.6719C45.1753 65.6719 46.7866 65.2397 47.7974 64.3755C48.8228 63.4966 49.3354 62.3467 49.3354 60.9258C49.3354 59.5049 48.9546 58.3623 48.1929 57.498C47.4312 56.6191 46.1934 56.1797 44.4795 56.1797H42.0845C39.0815 56.1797 36.7305 55.2861 35.0312 53.499C33.3467 51.6973 32.5044 49.4268 32.5044 46.6875C32.5044 43.9482 33.4785 41.6851 35.4268 39.8979C37.375 38.0962 40.1069 37.1953 43.6226 37.1953C45.9663 37.1953 48.1489 37.5176 50.1704 38.1621C52.2065 38.8066 53.8984 39.7148 55.2461 40.8867L54.0156 41.8755C52.8145 40.894 51.3057 40.1323 49.4893 39.5903C47.6729 39.0483 45.7173 38.7773 43.6226 38.7773C40.5317 38.7773 38.166 39.5171 36.5254 40.9966C34.8994 42.4761 34.0864 44.373 34.0864 46.6875C34.0864 48.9873 34.7749 50.8843 36.1519 52.3784C37.5288 53.8579 39.5063 54.5977 42.0845 54.5977ZM42.0845 57.7617H44.5015C45.6294 57.7617 46.4424 58.0547 46.9404 58.6406C47.4385 59.2266 47.6875 59.9883 47.6875 60.9258C47.6875 63.0352 46.1128 64.0898 42.9634 64.0898C39.9897 64.0898 37.7559 63.6504 36.2617 62.7715L37.5361 61.8047C38.5615 62.2734 40.3706 62.5078 42.9634 62.5078C44.2231 62.5078 45.0654 62.3687 45.4902 62.0903C45.9297 61.812 46.1494 61.4238 46.1494 60.9258C46.1494 60.4424 46.0249 60.0615 45.7759 59.7832C45.5415 59.4902 45.1021 59.3438 44.4575 59.3438H42.0845C40.063 59.3438 38.2319 59.0142 36.5913 58.355C34.9653 57.6958 33.625 56.7876 32.5703 55.6304C31.5303 54.4731 30.7319 53.1328 30.1753 51.6094C29.6187 50.0859 29.3403 48.4453 29.3403 46.6875C29.3403 45.2812 29.5381 43.9482 29.9336 42.6885C30.3291 41.4287 30.9224 40.2715 31.7134 39.2168C32.519 38.1621 33.4785 37.2539 34.5918 36.4922C35.7197 35.7158 37.0527 35.1152 38.5908 34.6904C40.1436 34.251 41.8208 34.0312 43.6226 34.0312C46.4497 34.0312 49.0938 34.4634 51.5547 35.3276C54.0156 36.1772 56.0664 37.3711 57.707 38.9092L56.4326 39.854C54.9385 38.5063 53.0708 37.4663 50.8296 36.7339C48.5884 35.9868 46.186 35.6133 43.6226 35.6133C41.6157 35.6133 39.7993 35.9062 38.1733 36.4922C36.562 37.0635 35.229 37.8545 34.1743 38.8652C33.1343 39.876 32.3286 41.0479 31.7573 42.3809C31.2007 43.7139 30.9224 45.1494 30.9224 46.6875C30.9224 48.7529 31.3398 50.6133 32.1748 52.2686C33.0098 53.9238 34.2842 55.2568 35.998 56.2676C37.7119 57.2637 39.7407 57.7617 42.0845 57.7617ZM86.3813 56.0039V35.6133H87.9634V56.0039C87.9634 58.2305 87.0845 60.1348 85.3267 61.7168C83.5688 63.2988 81.4595 64.0898 78.9985 64.0898C76.5376 64.0898 74.4282 63.2988 72.6704 61.7168C70.9126 60.1348 70.0337 58.2305 70.0337 56.0039V35.6133H71.6157V56.0039C71.6157 57.791 72.3335 59.3218 73.769 60.5962C75.2192 61.8706 76.9624 62.5078 78.9985 62.5078C81.0347 62.5078 82.7705 61.8706 84.2061 60.5962C85.6562 59.3218 86.3813 57.791 86.3813 56.0039ZM89.5454 56.0039V35.6133H91.1274V56.0039C91.1274 57.5273 90.8052 58.9849 90.1606 60.3765C89.5161 61.7534 88.6519 62.9473 87.5679 63.958C86.4839 64.9688 85.1948 65.7744 83.7007 66.375C82.2065 66.9609 80.6392 67.2539 78.9985 67.2539C77.3579 67.2539 75.7905 66.9609 74.2964 66.375C72.8022 65.7744 71.5132 64.9688 70.4292 63.958C69.3452 62.9473 68.481 61.7534 67.8364 60.3765C67.1919 58.9849 66.8696 57.5273 66.8696 56.0039V35.6133H68.4517V56.0039C68.4517 57.7471 68.9204 59.3657 69.8579 60.8599C70.8101 62.3394 72.0918 63.5112 73.7031 64.3755C75.3291 65.2397 77.0942 65.6719 78.9985 65.6719C80.9028 65.6719 82.6606 65.2397 84.272 64.3755C85.8979 63.5112 87.1797 62.3394 88.1172 60.8599C89.0693 59.3657 89.5454 57.7471 89.5454 56.0039ZM92.7095 56.0039V35.6133H94.2915V56.0039C94.2915 57.9521 93.8813 59.8198 93.061 61.6069C92.2554 63.3794 91.1714 64.9102 89.8091 66.1992C88.4468 67.4883 86.8208 68.5137 84.9312 69.2754C83.0415 70.0371 81.064 70.418 78.9985 70.418C76.9331 70.418 74.9556 70.0371 73.0659 69.2754C71.1763 68.5137 69.5503 67.4883 68.188 66.1992C66.8257 64.9102 65.7344 63.3794 64.9141 61.6069C64.1084 59.8198 63.7056 57.9521 63.7056 56.0039V35.6133H65.2876V56.0039C65.2876 58.3184 65.9028 60.4644 67.1333 62.4419C68.3638 64.4048 70.0264 65.9648 72.1211 67.1221C74.2305 68.2646 76.5229 68.8359 78.9985 68.8359C81.4741 68.8359 83.7593 68.2646 85.854 67.1221C87.9634 65.9648 89.6333 64.4048 90.8638 62.4419C92.0942 60.4644 92.7095 58.3184 92.7095 56.0039ZM95.8735 56.0039V35.6133H97.4556V56.0039C97.4556 59.168 96.6279 62.105 94.9727 64.8149C93.3174 67.5103 91.0688 69.6489 88.2271 71.231C85.3999 72.7983 82.3237 73.582 78.9985 73.582C75.6733 73.582 72.5898 72.7983 69.748 71.231C66.9209 69.6489 64.6797 67.5103 63.0244 64.8149C61.3691 62.105 60.5415 59.168 60.5415 56.0039V35.6133H62.1235V56.0039C62.1235 58.1572 62.5703 60.2227 63.4639 62.2002C64.3574 64.1777 65.5586 65.8843 67.0674 67.3198C68.5762 68.7407 70.3706 69.876 72.4507 70.7256C74.5454 71.5752 76.728 72 78.9985 72C81.269 72 83.4443 71.5752 85.5244 70.7256C87.6191 69.876 89.4209 68.7407 90.9297 67.3198C92.4385 65.8843 93.6396 64.1777 94.5332 62.2002C95.4268 60.2227 95.8735 58.1572 95.8735 56.0039ZM127.69 58.7285L129.272 55.7402V72H127.69V58.7285ZM130.854 52.6641L132.436 49.6758V72H130.854V52.6641ZM134.018 46.6875L135.6 43.6772V72H134.018V46.6875ZM123.405 57.9814L122.504 56.3335L133.403 35.6133H135.183L123.405 57.9814ZM121.582 54.5317L120.659 52.8618L129.799 35.6133H131.601L121.582 54.5317ZM110.991 55.916L112.573 58.9043V72H110.991V55.916ZM107.827 49.8955L109.409 52.8838V72H107.827V49.8955ZM104.663 43.875L106.245 46.8853V72H104.663V43.875ZM117.451 62.5078H115.671L103.081 38.6235V72H101.499V35.6133H103.278L117.451 62.5078ZM121.032 62.5078H119.23L105.08 35.6133H106.882L121.032 62.5078ZM137.182 38.6235L124.592 62.5078H122.79L108.662 35.6133H110.441L123.713 60.8379L136.962 35.6133H138.764V72H137.182V38.6235ZM169.13 58.7285L170.712 55.7402V72H169.13V58.7285ZM172.294 52.6641L173.876 49.6758V72H172.294V52.6641ZM175.458 46.6875L177.041 43.6772V72H175.458V46.6875ZM164.846 57.9814L163.945 56.3335L174.843 35.6133H176.623L164.846 57.9814ZM163.022 54.5317L162.099 52.8618L171.24 35.6133H173.042L163.022 54.5317ZM152.431 55.916L154.013 58.9043V72H152.431V55.916ZM149.267 49.8955L150.849 52.8838V72H149.267V49.8955ZM146.103 43.875L147.685 46.8853V72H146.103V43.875ZM158.891 62.5078H157.111L144.521 38.6235V72H142.939V35.6133H144.719L158.891 62.5078ZM162.473 62.5078H160.671L146.521 35.6133H148.322L162.473 62.5078ZM178.623 38.6235L166.032 62.5078H164.23L150.102 35.6133H151.882L165.153 60.8379L178.403 35.6133H180.205V72H178.623V38.6235ZM193.872 35.6133H195.454V72H193.872V35.6133ZM190.708 35.6133H192.29V72H190.708V35.6133ZM187.543 35.6133H189.125V72H187.543V35.6133ZM184.379 35.6133H185.961V72H184.379V35.6133ZM198.925 37.1953V35.6133H222.656V37.1953H198.925ZM198.925 40.3594V38.7773H222.656V40.3594H198.925ZM198.925 43.5234V41.9414H222.656V43.5234H216.328V72H214.746V43.5234H213.164V72H211.582V43.5234H210V72H208.417V43.5234H206.835V72H205.253V43.5234H198.925ZM230.786 65.6719V64.0898H252.231V65.6719H230.786ZM230.786 68.8359V67.2539H252.231V68.8359H230.786ZM230.786 72V70.418H252.231V72H230.786ZM233.225 63.2109H231.379C232.404 61.8193 233.415 60.457 234.411 59.124C235.407 57.791 236.235 56.6851 236.894 55.8062C237.568 54.9126 238.22 54.041 238.85 53.1914C239.479 52.3418 239.985 51.6606 240.366 51.1479C240.761 50.6353 241.135 50.1372 241.486 49.6538C241.838 49.1704 242.102 48.7969 242.277 48.5332C242.453 48.2549 242.607 47.9912 242.739 47.7422C242.885 47.4932 242.98 47.2954 243.024 47.1489C243.068 46.9878 243.09 46.834 243.09 46.6875C243.09 46.0137 242.812 45.5815 242.255 45.3911C241.699 45.2007 240.717 45.1055 239.311 45.1055C237.026 45.1055 234.741 45.4058 232.456 46.0063L232.126 44.4902C232.492 44.3291 233.415 44.124 234.895 43.875C236.389 43.6113 237.824 43.4795 239.201 43.4795C240.036 43.4795 240.761 43.5308 241.376 43.6333C241.992 43.7212 242.548 43.8823 243.046 44.1167C243.559 44.3364 243.947 44.666 244.211 45.1055C244.475 45.5303 244.606 46.0576 244.606 46.6875C244.606 47.3174 244.284 48.123 243.64 49.1045C242.995 50.0859 241.34 52.3564 238.674 55.916C236.506 58.8018 234.689 61.2334 233.225 63.2109ZM236.806 63.2109H234.96C240.424 55.8574 243.457 51.7485 244.057 50.8843C245.288 49.1265 245.976 47.874 246.123 47.127C246.167 46.9219 246.188 46.7021 246.188 46.4678C246.188 43.4355 243.889 41.9194 239.289 41.9194C237.883 41.9194 236.455 42.0439 235.004 42.293C233.554 42.542 232.492 42.791 231.818 43.04L231.511 41.5239C234.016 40.7476 236.616 40.3594 239.311 40.3594C240.249 40.3594 241.113 40.4253 241.904 40.5571C242.709 40.6743 243.479 40.8794 244.211 41.1724C244.943 41.4653 245.566 41.8462 246.079 42.3149C246.591 42.769 246.994 43.3477 247.287 44.0508C247.595 44.7539 247.749 45.5596 247.749 46.4678C247.749 47.4053 247.287 48.5845 246.364 50.0054C245.441 51.4263 242.68 55.2495 238.081 61.4751C237.524 62.2222 237.099 62.8008 236.806 63.2109ZM240.476 63.2109H238.63C243.625 56.3848 246.657 52.1367 247.727 50.4668C248.796 48.7822 249.331 47.376 249.331 46.248C249.331 44.8711 249.06 43.6846 248.518 42.6885C247.99 41.6924 247.243 40.916 246.276 40.3594C245.324 39.8027 244.27 39.3999 243.112 39.1509C241.97 38.9019 240.695 38.7773 239.289 38.7773C236.579 38.7773 233.876 39.1875 231.181 40.0078L230.852 38.4038C233.737 37.5542 236.528 37.1294 239.223 37.1294C240.542 37.1294 241.765 37.2246 242.893 37.415C244.021 37.6055 245.083 37.9277 246.079 38.3818C247.089 38.8213 247.939 39.3853 248.627 40.0737C249.331 40.7622 249.887 41.6338 250.297 42.6885C250.708 43.7285 250.913 44.915 250.913 46.248C250.913 47.2002 250.686 48.1743 250.231 49.1704C249.792 50.1519 248.869 51.6533 247.463 53.6748C246.071 55.6963 243.742 58.875 240.476 63.2109ZM244.277 63.2109H242.431C245.522 59.124 247.756 56.0552 249.133 54.0044C250.524 51.939 251.433 50.3789 251.857 49.3242C252.282 48.2549 252.495 47.1562 252.495 46.0283C252.495 44.5928 252.275 43.2964 251.835 42.1392C251.411 40.9673 250.803 39.9858 250.012 39.1948C249.235 38.3892 248.298 37.7153 247.199 37.1733C246.101 36.6313 244.892 36.2358 243.574 35.9868C242.27 35.7378 240.856 35.6133 239.333 35.6133C236.521 35.6133 233.591 36.0527 230.544 36.9316L230.214 35.3716C233.305 34.478 236.33 34.0312 239.289 34.0312C241.486 34.0312 243.471 34.2729 245.244 34.7563C247.031 35.2251 248.583 35.9355 249.902 36.8877C251.235 37.8398 252.26 39.0923 252.978 40.645C253.71 42.1978 254.077 43.9922 254.077 46.0283C254.077 47.3174 253.864 48.5332 253.439 49.6758C253.029 50.8184 252.121 52.437 250.715 54.5317C249.323 56.6265 247.177 59.5195 244.277 63.2109ZM259.042 64.1338C257.519 61.1162 256.757 57.6738 256.757 53.8066C256.757 49.9395 257.519 46.4971 259.042 43.4795C260.566 40.4619 262.661 38.1328 265.327 36.4922C267.993 34.8516 270.996 34.0312 274.335 34.0312C277.675 34.0312 280.678 34.8516 283.344 36.4922C286.01 38.1328 288.105 40.4619 289.628 43.4795C291.152 46.4971 291.914 49.9395 291.914 53.8066C291.914 57.6738 291.152 61.1162 289.628 64.1338C288.105 67.1514 286.01 69.4805 283.344 71.1211C280.678 72.7617 277.675 73.582 274.335 73.582C270.996 73.582 267.993 72.7617 265.327 71.1211C262.661 69.4805 260.566 67.1514 259.042 64.1338ZM280.224 46.248C281.689 48.0498 282.421 50.5693 282.421 53.8066C282.421 57.0439 281.689 59.5708 280.224 61.3872C278.774 63.189 276.811 64.0898 274.335 64.0898C271.86 64.0898 269.89 63.189 268.425 61.3872C266.975 59.5708 266.25 57.0439 266.25 53.8066C266.25 50.5693 266.975 48.0498 268.425 46.248C269.89 44.4316 271.86 43.5234 274.335 43.5234C276.811 43.5234 278.774 44.4316 280.224 46.248ZM282.465 44.0068C284.545 46.4385 285.585 49.7051 285.585 53.8066C285.585 57.9082 284.545 61.1748 282.465 63.6064C280.4 66.0381 277.69 67.2539 274.335 67.2539C270.981 67.2539 268.264 66.0381 266.184 63.6064C264.118 61.1748 263.085 57.9082 263.085 53.8066C263.085 49.7051 264.118 46.4385 266.184 44.0068C268.264 41.5752 270.981 40.3594 274.335 40.3594C277.69 40.3594 280.4 41.5752 282.465 44.0068ZM286.882 45.0835C288.127 47.603 288.75 50.5107 288.75 53.8066C288.75 57.1025 288.127 60.0176 286.882 62.5518C285.651 65.0713 283.945 67.0122 281.762 68.3745C279.58 69.7368 277.104 70.418 274.335 70.418C271.567 70.418 269.091 69.7368 266.909 68.3745C264.726 67.0122 263.012 65.0713 261.767 62.5518C260.537 60.0176 259.921 57.1025 259.921 53.8066C259.921 50.5107 260.537 47.603 261.767 45.0835C263.012 42.5493 264.726 40.6011 266.909 39.2388C269.091 37.8765 271.567 37.1953 274.335 37.1953C277.104 37.1953 279.58 37.8765 281.762 39.2388C283.945 40.6011 285.651 42.5493 286.882 45.0835ZM269.545 47.3467C268.403 48.8408 267.832 50.9941 267.832 53.8066C267.832 56.6191 268.403 58.7725 269.545 60.2666C270.703 61.7607 272.299 62.5078 274.335 62.5078C276.372 62.5078 277.961 61.7607 279.104 60.2666C280.261 58.7725 280.839 56.6191 280.839 53.8066C280.839 50.9941 280.261 48.8408 279.104 47.3467C277.961 45.8525 276.372 45.1055 274.335 45.1055C272.299 45.1055 270.703 45.8525 269.545 47.3467ZM267.304 45.1274C265.546 47.2368 264.667 50.1299 264.667 53.8066C264.667 57.4834 265.546 60.3838 267.304 62.5078C269.077 64.6172 271.42 65.6719 274.335 65.6719C277.25 65.6719 279.587 64.6172 281.345 62.5078C283.117 60.3838 284.003 57.4834 284.003 53.8066C284.003 50.1299 283.117 47.2368 281.345 45.1274C279.587 43.0034 277.25 41.9414 274.335 41.9414C271.42 41.9414 269.077 43.0034 267.304 45.1274ZM265.063 42.8862C262.69 45.6255 261.503 49.2656 261.503 53.8066C261.503 58.3477 262.69 61.9878 265.063 64.7271C267.451 67.4663 270.542 68.8359 274.335 68.8359C278.129 68.8359 281.213 67.4663 283.586 64.7271C285.974 61.9878 287.167 58.3477 287.167 53.8066C287.167 49.2656 285.974 45.6255 283.586 42.8862C281.213 40.147 278.129 38.7773 274.335 38.7773C270.542 38.7773 267.451 40.147 265.063 42.8862ZM259.548 46.3799C258.742 48.6504 258.339 51.126 258.339 53.8066C258.339 56.4873 258.742 58.9702 259.548 61.2554C260.354 63.5259 261.459 65.4448 262.866 67.0122C264.287 68.5796 265.979 69.8027 267.941 70.6816C269.919 71.5605 272.05 72 274.335 72C276.621 72 278.745 71.5605 280.708 70.6816C282.685 69.8027 284.377 68.5796 285.783 67.0122C287.204 65.4448 288.317 63.5259 289.123 61.2554C289.929 58.9702 290.332 56.4873 290.332 53.8066C290.332 51.126 289.929 48.6504 289.123 46.3799C288.317 44.0947 287.204 42.1685 285.783 40.6011C284.377 39.0337 282.685 37.8105 280.708 36.9316C278.745 36.0527 276.621 35.6133 274.335 35.6133C272.05 35.6133 269.919 36.0527 267.941 36.9316C265.979 37.8105 264.287 39.0337 262.866 40.6011C261.459 42.1685 260.354 44.0947 259.548 46.3799ZM294.99 65.6719V64.0898H316.435V65.6719H294.99ZM294.99 68.8359V67.2539H316.435V68.8359H294.99ZM294.99 72V70.418H316.435V72H294.99ZM297.429 63.2109H295.583C296.608 61.8193 297.619 60.457 298.615 59.124C299.611 57.791 300.439 56.6851 301.098 55.8062C301.772 54.9126 302.424 54.041 303.054 53.1914C303.684 52.3418 304.189 51.6606 304.57 51.1479C304.965 50.6353 305.339 50.1372 305.69 49.6538C306.042 49.1704 306.306 48.7969 306.481 48.5332C306.657 48.2549 306.811 47.9912 306.943 47.7422C307.089 47.4932 307.185 47.2954 307.229 47.1489C307.272 46.9878 307.294 46.834 307.294 46.6875C307.294 46.0137 307.016 45.5815 306.459 45.3911C305.903 45.2007 304.921 45.1055 303.515 45.1055C301.23 45.1055 298.945 45.4058 296.66 46.0063L296.33 44.4902C296.696 44.3291 297.619 44.124 299.099 43.875C300.593 43.6113 302.028 43.4795 303.405 43.4795C304.24 43.4795 304.965 43.5308 305.581 43.6333C306.196 43.7212 306.752 43.8823 307.25 44.1167C307.763 44.3364 308.151 44.666 308.415 45.1055C308.679 45.5303 308.811 46.0576 308.811 46.6875C308.811 47.3174 308.488 48.123 307.844 49.1045C307.199 50.0859 305.544 52.3564 302.878 55.916C300.71 58.8018 298.894 61.2334 297.429 63.2109ZM301.01 63.2109H299.165C304.628 55.8574 307.661 51.7485 308.261 50.8843C309.492 49.1265 310.18 47.874 310.327 47.127C310.371 46.9219 310.393 46.7021 310.393 46.4678C310.393 43.4355 308.093 41.9194 303.493 41.9194C302.087 41.9194 300.659 42.0439 299.208 42.293C297.758 42.542 296.696 42.791 296.022 43.04L295.715 41.5239C298.22 40.7476 300.82 40.3594 303.515 40.3594C304.453 40.3594 305.317 40.4253 306.108 40.5571C306.914 40.6743 307.683 40.8794 308.415 41.1724C309.147 41.4653 309.77 41.8462 310.283 42.3149C310.795 42.769 311.198 43.3477 311.491 44.0508C311.799 44.7539 311.953 45.5596 311.953 46.4678C311.953 47.4053 311.491 48.5845 310.568 50.0054C309.646 51.4263 306.884 55.2495 302.285 61.4751C301.728 62.2222 301.303 62.8008 301.01 63.2109ZM304.68 63.2109H302.834C307.829 56.3848 310.861 52.1367 311.931 50.4668C313 48.7822 313.535 47.376 313.535 46.248C313.535 44.8711 313.264 43.6846 312.722 42.6885C312.194 41.6924 311.447 40.916 310.48 40.3594C309.528 39.8027 308.474 39.3999 307.316 39.1509C306.174 38.9019 304.899 38.7773 303.493 38.7773C300.783 38.7773 298.081 39.1875 295.385 40.0078L295.056 38.4038C297.941 37.5542 300.732 37.1294 303.427 37.1294C304.746 37.1294 305.969 37.2246 307.097 37.415C308.225 37.6055 309.287 37.9277 310.283 38.3818C311.293 38.8213 312.143 39.3853 312.832 40.0737C313.535 40.7622 314.091 41.6338 314.501 42.6885C314.912 43.7285 315.117 44.915 315.117 46.248C315.117 47.2002 314.89 48.1743 314.436 49.1704C313.996 50.1519 313.073 51.6533 311.667 53.6748C310.275 55.6963 307.946 58.875 304.68 63.2109ZM308.481 63.2109H306.635C309.726 59.124 311.96 56.0552 313.337 54.0044C314.729 51.939 315.637 50.3789 316.062 49.3242C316.486 48.2549 316.699 47.1562 316.699 46.0283C316.699 44.5928 316.479 43.2964 316.04 42.1392C315.615 40.9673 315.007 39.9858 314.216 39.1948C313.439 38.3892 312.502 37.7153 311.403 37.1733C310.305 36.6313 309.096 36.2358 307.778 35.9868C306.474 35.7378 305.061 35.6133 303.537 35.6133C300.725 35.6133 297.795 36.0527 294.748 36.9316L294.418 35.3716C297.509 34.478 300.534 34.0312 303.493 34.0312C305.69 34.0312 307.675 34.2729 309.448 34.7563C311.235 35.2251 312.788 35.9355 314.106 36.8877C315.439 37.8398 316.464 39.0923 317.182 40.645C317.915 42.1978 318.281 43.9922 318.281 46.0283C318.281 47.3174 318.068 48.5332 317.644 49.6758C317.233 50.8184 316.325 52.437 314.919 54.5317C313.527 56.6265 311.381 59.5195 308.481 63.2109ZM321.225 65.6719V64.0898H342.67V65.6719H321.225ZM321.225 68.8359V67.2539H342.67V68.8359H321.225ZM321.225 72V70.418H342.67V72H321.225ZM323.664 63.2109H321.818C322.844 61.8193 323.854 60.457 324.851 59.124C325.847 57.791 326.674 56.6851 327.333 55.8062C328.007 54.9126 328.659 54.041 329.289 53.1914C329.919 52.3418 330.424 51.6606 330.805 51.1479C331.201 50.6353 331.574 50.1372 331.926 49.6538C332.277 49.1704 332.541 48.7969 332.717 48.5332C332.893 48.2549 333.046 47.9912 333.178 47.7422C333.325 47.4932 333.42 47.2954 333.464 47.1489C333.508 46.9878 333.53 46.834 333.53 46.6875C333.53 46.0137 333.251 45.5815 332.695 45.3911C332.138 45.2007 331.157 45.1055 329.75 45.1055C327.465 45.1055 325.18 45.4058 322.895 46.0063L322.565 44.4902C322.932 44.3291 323.854 44.124 325.334 43.875C326.828 43.6113 328.264 43.4795 329.641 43.4795C330.476 43.4795 331.201 43.5308 331.816 43.6333C332.431 43.7212 332.988 43.8823 333.486 44.1167C333.999 44.3364 334.387 44.666 334.65 45.1055C334.914 45.5303 335.046 46.0576 335.046 46.6875C335.046 47.3174 334.724 48.123 334.079 49.1045C333.435 50.0859 331.779 52.3564 329.113 55.916C326.945 58.8018 325.129 61.2334 323.664 63.2109ZM327.246 63.2109H325.4C330.864 55.8574 333.896 51.7485 334.497 50.8843C335.727 49.1265 336.416 47.874 336.562 47.127C336.606 46.9219 336.628 46.7021 336.628 46.4678C336.628 43.4355 334.328 41.9194 329.729 41.9194C328.322 41.9194 326.894 42.0439 325.444 42.293C323.994 42.542 322.932 42.791 322.258 43.04L321.95 41.5239C324.455 40.7476 327.055 40.3594 329.75 40.3594C330.688 40.3594 331.552 40.4253 332.343 40.5571C333.149 40.6743 333.918 40.8794 334.65 41.1724C335.383 41.4653 336.005 41.8462 336.518 42.3149C337.031 42.769 337.434 43.3477 337.727 44.0508C338.034 44.7539 338.188 45.5596 338.188 46.4678C338.188 47.4053 337.727 48.5845 336.804 50.0054C335.881 51.4263 333.12 55.2495 328.52 61.4751C327.963 62.2222 327.539 62.8008 327.246 63.2109ZM330.915 63.2109H329.069C334.064 56.3848 337.097 52.1367 338.166 50.4668C339.235 48.7822 339.77 47.376 339.77 46.248C339.77 44.8711 339.499 43.6846 338.957 42.6885C338.43 41.6924 337.683 40.916 336.716 40.3594C335.764 39.8027 334.709 39.3999 333.552 39.1509C332.409 38.9019 331.135 38.7773 329.729 38.7773C327.019 38.7773 324.316 39.1875 321.621 40.0078L321.291 38.4038C324.177 37.5542 326.967 37.1294 329.663 37.1294C330.981 37.1294 332.204 37.2246 333.332 37.415C334.46 37.6055 335.522 37.9277 336.518 38.3818C337.529 38.8213 338.378 39.3853 339.067 40.0737C339.77 40.7622 340.327 41.6338 340.737 42.6885C341.147 43.7285 341.352 44.915 341.352 46.248C341.352 47.2002 341.125 48.1743 340.671 49.1704C340.231 50.1519 339.309 51.6533 337.902 53.6748C336.511 55.6963 334.182 58.875 330.915 63.2109ZM334.716 63.2109H332.871C335.961 59.124 338.195 56.0552 339.572 54.0044C340.964 51.939 341.872 50.3789 342.297 49.3242C342.722 48.2549 342.934 47.1562 342.934 46.0283C342.934 44.5928 342.714 43.2964 342.275 42.1392C341.85 40.9673 341.242 39.9858 340.451 39.1948C339.675 38.3892 338.737 37.7153 337.639 37.1733C336.54 36.6313 335.332 36.2358 334.013 35.9868C332.709 35.7378 331.296 35.6133 329.772 35.6133C326.96 35.6133 324.03 36.0527 320.983 36.9316L320.654 35.3716C323.745 34.478 326.77 34.0312 329.729 34.0312C331.926 34.0312 333.911 34.2729 335.683 34.7563C337.47 35.2251 339.023 35.9355 340.341 36.8877C341.674 37.8398 342.7 39.0923 343.417 40.645C344.15 42.1978 344.516 43.9922 344.516 46.0283C344.516 47.3174 344.304 48.5332 343.879 49.6758C343.469 50.8184 342.561 52.437 341.154 54.5317C339.763 56.6265 337.617 59.5195 334.716 63.2109Z" fill="white"/>
<path d="M36.126 12.902C35.7067 12.6867 35.2477 12.4997 34.749 12.341C34.2503 12.1823 33.763 12.103 33.287 12.103C32.6297 12.103 32.1027 12.256 31.706 12.562C31.3207 12.868 31.128 13.276 31.128 13.786C31.128 14.1713 31.2527 14.5 31.502 14.772C31.7513 15.0327 32.08 15.2593 32.488 15.452C32.896 15.6447 33.321 15.826 33.763 15.996C34.1483 16.1433 34.528 16.3077 34.902 16.489C35.276 16.6703 35.6103 16.897 35.905 17.169C36.211 17.441 36.449 17.7753 36.619 18.172C36.8003 18.5687 36.891 19.0617 36.891 19.651C36.891 20.297 36.7267 20.8863 36.398 21.419C36.0807 21.9517 35.6217 22.371 35.021 22.677C34.4203 22.983 33.7063 23.136 32.879 23.136C32.335 23.136 31.8137 23.0737 31.315 22.949C30.8277 22.8243 30.3743 22.6657 29.955 22.473C29.5357 22.269 29.1617 22.0593 28.833 21.844L29.564 20.552C29.836 20.7447 30.1477 20.9317 30.499 21.113C30.8503 21.283 31.2187 21.4247 31.604 21.538C31.9893 21.64 32.3633 21.691 32.726 21.691C33.1113 21.691 33.491 21.623 33.865 21.487C34.2503 21.3397 34.5677 21.1187 34.817 20.824C35.0663 20.5293 35.191 20.1383 35.191 19.651C35.191 19.2317 35.0777 18.886 34.851 18.614C34.6357 18.3307 34.3467 18.0927 33.984 17.9C33.6213 17.696 33.236 17.5147 32.828 17.356C32.4427 17.2087 32.0517 17.05 31.655 16.88C31.2583 16.6987 30.89 16.4833 30.55 16.234C30.21 15.9733 29.938 15.656 29.734 15.282C29.53 14.908 29.428 14.4547 29.428 13.922C29.428 13.276 29.581 12.715 29.887 12.239C30.2043 11.7517 30.635 11.372 31.179 11.1C31.723 10.8167 32.3463 10.6637 33.049 10.641C33.8423 10.641 34.5393 10.7373 35.14 10.93C35.752 11.1227 36.2903 11.3607 36.755 11.644L36.126 12.902ZM40.9885 23L46.3605 10.199H46.4625L51.8175 23H49.9305L45.9185 12.783L47.0915 12.018L42.6035 23H40.9885ZM44.1335 18.342H48.7065L49.2505 19.77H43.6575L44.1335 18.342ZM59.9635 10.709C60.8588 10.709 61.6238 10.862 62.2585 11.168C62.8931 11.4627 63.3805 11.8933 63.7205 12.46C64.0718 13.0267 64.2475 13.7123 64.2475 14.517C64.2475 15.0043 64.1738 15.486 64.0265 15.962C63.8791 16.4267 63.6411 16.8517 63.3125 17.237C62.9951 17.611 62.5758 17.9113 62.0545 18.138C61.5331 18.3647 60.8985 18.478 60.1505 18.478H58.3315V23H56.6825V10.709H59.9635ZM60.1335 16.897C60.6208 16.897 61.0231 16.8177 61.3405 16.659C61.6578 16.5003 61.9071 16.302 62.0885 16.064C62.2698 15.8147 62.4001 15.554 62.4795 15.282C62.5588 15.01 62.5985 14.7663 62.5985 14.551C62.5985 14.3017 62.5588 14.0467 62.4795 13.786C62.4001 13.514 62.2641 13.2703 62.0715 13.055C61.8901 12.8283 61.6465 12.647 61.3405 12.511C61.0458 12.3637 60.6775 12.29 60.2355 12.29H58.3315V16.897H60.1335ZM69.3428 10.709H70.9918V23H69.3428V10.709ZM80.3365 10.709C80.9598 10.709 81.5322 10.794 82.0535 10.964C82.5862 11.1227 83.0452 11.3663 83.4305 11.695C83.8272 12.0123 84.1332 12.409 84.3485 12.885C84.5752 13.3497 84.6885 13.8937 84.6885 14.517C84.6885 15.0043 84.6148 15.4803 84.4675 15.945C84.3315 16.4097 84.0992 16.8347 83.7705 17.22C83.4418 17.594 83.0112 17.9 82.4785 18.138C81.9572 18.3647 81.3112 18.478 80.5405 18.478H78.7215V23H77.0725V10.709H80.3365ZM80.5065 16.897C80.9938 16.897 81.3962 16.8233 81.7135 16.676C82.0422 16.5287 82.2972 16.3417 82.4785 16.115C82.6598 15.877 82.7902 15.622 82.8695 15.35C82.9488 15.078 82.9885 14.823 82.9885 14.585C82.9885 14.3357 82.9432 14.0807 82.8525 13.82C82.7732 13.548 82.6372 13.2987 82.4445 13.072C82.2632 12.8453 82.0195 12.6583 81.7135 12.511C81.4188 12.3637 81.0562 12.29 80.6255 12.29H78.7215V16.897H80.5065ZM82.5295 17.832L85.7425 23H83.8385L80.5745 17.883L82.5295 17.832ZM89.6045 23L94.9765 10.199H95.0785L100.434 23H98.5465L94.5345 12.783L95.7075 12.018L91.2195 23H89.6045ZM92.7495 18.342H97.3225L97.8665 19.77H92.2735L92.7495 18.342ZM115.94 23.391L106.437 13.752L106.913 13.871L106.947 23H105.298V10.335H105.383L114.784 20.008L114.393 19.923L114.359 10.709H115.991V23.391H115.94ZM131.698 21.946C131.528 22.0933 131.29 22.2407 130.984 22.388C130.678 22.524 130.338 22.6487 129.964 22.762C129.601 22.8753 129.222 22.966 128.825 23.034C128.44 23.102 128.077 23.136 127.737 23.136C126.751 23.136 125.861 22.983 125.068 22.677C124.286 22.371 123.612 21.946 123.045 21.402C122.49 20.858 122.059 20.2177 121.753 19.481C121.458 18.7443 121.311 17.9453 121.311 17.084C121.311 16.064 121.475 15.1517 121.804 14.347C122.144 13.531 122.603 12.8453 123.181 12.29C123.77 11.7233 124.445 11.2983 125.204 11.015C125.963 10.7203 126.768 10.573 127.618 10.573C128.332 10.573 128.995 10.658 129.607 10.828C130.219 10.998 130.757 11.2133 131.222 11.474L130.661 12.987C130.434 12.851 130.151 12.7263 129.811 12.613C129.482 12.4997 129.142 12.409 128.791 12.341C128.44 12.2617 128.111 12.222 127.805 12.222C127.08 12.222 126.422 12.3353 125.833 12.562C125.244 12.7773 124.739 13.0947 124.32 13.514C123.901 13.922 123.578 14.4207 123.351 15.01C123.124 15.588 123.011 16.2397 123.011 16.965C123.011 17.6337 123.124 18.2457 123.351 18.801C123.578 19.3563 123.901 19.838 124.32 20.246C124.739 20.6427 125.238 20.9543 125.816 21.181C126.405 21.3963 127.051 21.504 127.754 21.504C128.173 21.504 128.587 21.4643 128.995 21.385C129.403 21.2943 129.754 21.1697 130.049 21.011V18.563H127.601V16.982H131.698V21.946ZM136.169 23L141.541 10.199H141.643L146.998 23H145.111L141.099 12.783L142.272 12.018L137.784 23H136.169ZM139.314 18.342H143.887L144.431 19.77H138.838L139.314 18.342Z" fill="white"/>
<path d="M35.3 90.23L29.71 84.56L29.99 84.63L30.01 90H29.04V82.55H29.09L34.62 88.24L34.39 88.19L34.37 82.77H35.33V90.23H35.3ZM38.3091 82.77H43.0091V83.7H39.2791V85.9H42.6091V86.83H39.2791V89.07H43.1491V90H38.3091V82.77ZM45.1026 82.81H46.2226L48.1826 88.33L48.0126 88.26L49.4426 84.56L49.8926 85.87L47.9826 90.33L45.1026 82.81ZM48.5726 82.81H49.5426L51.6626 88.25L51.4626 88.21L53.3326 82.81H54.3626L51.5226 90.32L48.5726 82.81ZM60.7748 82.77H65.0648V83.7H61.7448V86.01H64.6548V86.93H61.7448V90H60.7748V82.77ZM67.5634 82.77H68.5334V89.07H72.2034V90H67.5634V82.77ZM74.6841 82.77H75.6541V90H74.6841V82.77ZM84.291 89.38C84.191 89.4667 84.051 89.5533 83.871 89.64C83.691 89.72 83.491 89.7933 83.271 89.86C83.0577 89.9267 82.8343 89.98 82.601 90.02C82.3743 90.06 82.161 90.08 81.961 90.08C81.381 90.08 80.8577 89.99 80.391 89.81C79.931 89.63 79.5343 89.38 79.201 89.06C78.8743 88.74 78.621 88.3633 78.441 87.93C78.2677 87.4967 78.181 87.0267 78.181 86.52C78.181 85.92 78.2777 85.3833 78.471 84.91C78.671 84.43 78.941 84.0267 79.281 83.7C79.6277 83.3667 80.0243 83.1167 80.471 82.95C80.9177 82.7767 81.391 82.69 81.891 82.69C82.311 82.69 82.701 82.74 83.061 82.84C83.421 82.94 83.7377 83.0667 84.011 83.22L83.681 84.11C83.5477 84.03 83.381 83.9567 83.181 83.89C82.9877 83.8233 82.7877 83.77 82.581 83.73C82.3743 83.6833 82.181 83.66 82.001 83.66C81.5743 83.66 81.1877 83.7267 80.841 83.86C80.4943 83.9867 80.1977 84.1733 79.951 84.42C79.7043 84.66 79.5143 84.9533 79.381 85.3C79.2477 85.64 79.181 86.0233 79.181 86.45C79.181 86.8433 79.2477 87.2033 79.381 87.53C79.5143 87.8567 79.7043 88.14 79.951 88.38C80.1977 88.6133 80.491 88.7967 80.831 88.93C81.1777 89.0567 81.5577 89.12 81.971 89.12C82.2177 89.12 82.461 89.0967 82.701 89.05C82.941 88.9967 83.1477 88.9233 83.321 88.83V87.39H81.881V86.46H84.291V89.38ZM92.7608 82.77V90H91.8008V86.83H88.0108V90H87.0408V82.77H88.0108V85.91H91.8008V82.77H92.7608ZM95.2135 82.77H100.014V83.7H98.0735V90H97.1035V83.7H95.2135V82.77ZM106.194 84.06C105.947 83.9333 105.677 83.8233 105.384 83.73C105.091 83.6367 104.804 83.59 104.524 83.59C104.137 83.59 103.827 83.68 103.594 83.86C103.367 84.04 103.254 84.28 103.254 84.58C103.254 84.8067 103.327 85 103.474 85.16C103.621 85.3133 103.814 85.4467 104.054 85.56C104.294 85.6733 104.544 85.78 104.804 85.88C105.031 85.9667 105.254 86.0633 105.474 86.17C105.694 86.2767 105.891 86.41 106.064 86.57C106.244 86.73 106.384 86.9267 106.484 87.16C106.591 87.3933 106.644 87.6833 106.644 88.03C106.644 88.41 106.547 88.7567 106.354 89.07C106.167 89.3833 105.897 89.63 105.544 89.81C105.191 89.99 104.771 90.08 104.284 90.08C103.964 90.08 103.657 90.0433 103.364 89.97C103.077 89.8967 102.811 89.8033 102.564 89.69C102.317 89.57 102.097 89.4467 101.904 89.32L102.334 88.56C102.494 88.6733 102.677 88.7833 102.884 88.89C103.091 88.99 103.307 89.0733 103.534 89.14C103.761 89.2 103.981 89.23 104.194 89.23C104.421 89.23 104.644 89.19 104.864 89.11C105.091 89.0233 105.277 88.8933 105.424 88.72C105.571 88.5467 105.644 88.3167 105.644 88.03C105.644 87.7833 105.577 87.58 105.444 87.42C105.317 87.2533 105.147 87.1133 104.934 87C104.721 86.88 104.494 86.7733 104.254 86.68C104.027 86.5933 103.797 86.5 103.564 86.4C103.331 86.2933 103.114 86.1667 102.914 86.02C102.714 85.8667 102.554 85.68 102.434 85.46C102.314 85.24 102.254 84.9733 102.254 84.66C102.254 84.28 102.344 83.95 102.524 83.67C102.711 83.3833 102.964 83.16 103.284 83C103.604 82.8333 103.971 82.7433 104.384 82.73C104.851 82.73 105.261 82.7867 105.614 82.9C105.974 83.0133 106.291 83.1533 106.564 83.32L106.194 84.06ZM109.784 89.13C109.638 89.4767 109.491 89.82 109.344 90.16C109.204 90.5067 109.061 90.8567 108.914 91.21H108.164C108.298 90.8567 108.428 90.5067 108.554 90.16C108.681 89.82 108.811 89.4767 108.944 89.13H109.784ZM122.43 90.23L116.84 84.56L117.12 84.63L117.14 90H116.17V82.55H116.22L121.75 88.24L121.52 88.19L121.5 82.77H122.46V90.23H122.43ZM125.439 82.77H130.139V83.7H126.409V85.9H129.739V86.83H126.409V89.07H130.279V90H125.439V82.77ZM132.232 82.81H133.352L135.312 88.33L135.142 88.26L136.572 84.56L137.022 85.87L135.112 90.33L132.232 82.81ZM135.702 82.81H136.672L138.792 88.25L138.592 88.21L140.462 82.81H141.492L138.652 90.32L135.702 82.81ZM147.904 82.77H148.874V90H147.904V82.77ZM151.851 90V82.77H153.821C154.535 82.77 155.141 82.88 155.641 83.1C156.148 83.32 156.555 83.61 156.861 83.97C157.168 84.33 157.391 84.73 157.531 85.17C157.678 85.6033 157.751 86.0367 157.751 86.47C157.751 87.0167 157.655 87.5067 157.461 87.94C157.275 88.3733 157.015 88.7433 156.681 89.05C156.348 89.3567 155.965 89.5933 155.531 89.76C155.105 89.92 154.651 90 154.171 90H151.851ZM152.821 89.07H153.981C154.381 89.07 154.748 89.01 155.081 88.89C155.421 88.77 155.715 88.5967 155.961 88.37C156.215 88.1433 156.411 87.8667 156.551 87.54C156.691 87.2067 156.761 86.83 156.761 86.41C156.761 85.9633 156.688 85.5733 156.541 85.24C156.395 84.9 156.195 84.6167 155.941 84.39C155.688 84.1633 155.401 83.9933 155.081 83.88C154.761 83.76 154.425 83.7 154.071 83.7H152.821V89.07ZM160.281 82.77H164.981V83.7H161.251V85.9H164.581V86.83H161.251V89.07H165.121V90H160.281V82.77ZM166.984 90L170.144 82.47H170.204L173.354 90H172.244L169.884 83.99L170.574 83.54L167.934 90H166.984ZM168.834 87.26H171.524L171.844 88.1H168.554L168.834 87.26ZM179.356 84.06C179.109 83.9333 178.839 83.8233 178.546 83.73C178.252 83.6367 177.966 83.59 177.686 83.59C177.299 83.59 176.989 83.68 176.756 83.86C176.529 84.04 176.416 84.28 176.416 84.58C176.416 84.8067 176.489 85 176.636 85.16C176.782 85.3133 176.976 85.4467 177.216 85.56C177.456 85.6733 177.706 85.78 177.966 85.88C178.192 85.9667 178.416 86.0633 178.636 86.17C178.856 86.2767 179.052 86.41 179.226 86.57C179.406 86.73 179.546 86.9267 179.646 87.16C179.752 87.3933 179.806 87.6833 179.806 88.03C179.806 88.41 179.709 88.7567 179.516 89.07C179.329 89.3833 179.059 89.63 178.706 89.81C178.352 89.99 177.932 90.08 177.446 90.08C177.126 90.08 176.819 90.0433 176.526 89.97C176.239 89.8967 175.972 89.8033 175.726 89.69C175.479 89.57 175.259 89.4467 175.066 89.32L175.496 88.56C175.656 88.6733 175.839 88.7833 176.046 88.89C176.252 88.99 176.469 89.0733 176.696 89.14C176.922 89.2 177.142 89.23 177.356 89.23C177.582 89.23 177.806 89.19 178.026 89.11C178.252 89.0233 178.439 88.8933 178.586 88.72C178.732 88.5467 178.806 88.3167 178.806 88.03C178.806 87.7833 178.739 87.58 178.606 87.42C178.479 87.2533 178.309 87.1133 178.096 87C177.882 86.88 177.656 86.7733 177.416 86.68C177.189 86.5933 176.959 86.5 176.726 86.4C176.492 86.2933 176.276 86.1667 176.076 86.02C175.876 85.8667 175.716 85.68 175.596 85.46C175.476 85.24 175.416 84.9733 175.416 84.66C175.416 84.28 175.506 83.95 175.686 83.67C175.872 83.3833 176.126 83.16 176.446 83C176.766 82.8333 177.132 82.7433 177.546 82.73C178.012 82.73 178.422 82.7867 178.776 82.9C179.136 83.0133 179.452 83.1533 179.726 83.32L179.356 84.06ZM186.4 82.77H190.69V83.7H187.37V86.01H190.28V86.93H187.37V90H186.4V82.77ZM192.592 86.39C192.592 85.89 192.686 85.42 192.872 84.98C193.066 84.5333 193.332 84.14 193.672 83.8C194.012 83.4533 194.402 83.1833 194.842 82.99C195.289 82.79 195.769 82.69 196.282 82.69C196.789 82.69 197.262 82.79 197.702 82.99C198.149 83.1833 198.542 83.4533 198.882 83.8C199.229 84.14 199.499 84.5333 199.692 84.98C199.886 85.42 199.982 85.89 199.982 86.39C199.982 86.9033 199.886 87.3833 199.692 87.83C199.499 88.2767 199.229 88.67 198.882 89.01C198.542 89.3433 198.149 89.6067 197.702 89.8C197.262 89.9867 196.789 90.08 196.282 90.08C195.769 90.08 195.289 89.9867 194.842 89.8C194.402 89.6133 194.012 89.3533 193.672 89.02C193.332 88.6867 193.066 88.2967 192.872 87.85C192.686 87.4033 192.592 86.9167 192.592 86.39ZM193.592 86.4C193.592 86.78 193.662 87.1367 193.802 87.47C193.942 87.7967 194.136 88.0867 194.382 88.34C194.629 88.5933 194.916 88.7933 195.242 88.94C195.569 89.08 195.922 89.15 196.302 89.15C196.676 89.15 197.026 89.08 197.352 88.94C197.679 88.7933 197.962 88.5933 198.202 88.34C198.442 88.0867 198.632 87.7967 198.772 87.47C198.912 87.1367 198.982 86.7767 198.982 86.39C198.982 86.01 198.912 85.6533 198.772 85.32C198.632 84.98 198.439 84.6833 198.192 84.43C197.946 84.1767 197.659 83.98 197.332 83.84C197.006 83.6933 196.656 83.62 196.282 83.62C195.902 83.62 195.549 83.6933 195.222 83.84C194.896 83.9867 194.609 84.1867 194.362 84.44C194.116 84.6933 193.926 84.99 193.792 85.33C193.659 85.6633 193.592 86.02 193.592 86.4ZM204.437 82.77C204.803 82.77 205.14 82.82 205.447 82.92C205.76 83.0133 206.03 83.1567 206.257 83.35C206.49 83.5367 206.67 83.77 206.797 84.05C206.93 84.3233 206.997 84.6433 206.997 85.01C206.997 85.2967 206.953 85.5767 206.867 85.85C206.787 86.1233 206.65 86.3733 206.457 86.6C206.263 86.82 206.01 87 205.697 87.14C205.39 87.2733 205.01 87.34 204.557 87.34H203.487V90H202.517V82.77H204.437ZM204.537 86.41C204.823 86.41 205.06 86.3667 205.247 86.28C205.44 86.1933 205.59 86.0833 205.697 85.95C205.803 85.81 205.88 85.66 205.927 85.5C205.973 85.34 205.997 85.19 205.997 85.05C205.997 84.9033 205.97 84.7533 205.917 84.6C205.87 84.44 205.79 84.2933 205.677 84.16C205.57 84.0267 205.427 83.9167 205.247 83.83C205.073 83.7433 204.86 83.7 204.607 83.7H203.487V86.41H204.537ZM205.727 86.96L207.617 90H206.497L204.577 86.99L205.727 86.96ZM213.542 82.77H218.342V83.7H216.402V90H215.432V83.7H213.542V82.77ZM226.503 82.77V90H225.543V86.83H221.753V90H220.783V82.77H221.753V85.91H225.543V82.77H226.503ZM229.486 82.77H234.186V83.7H230.456V85.9H233.786V86.83H230.456V89.07H234.326V90H229.486V82.77ZM247.233 90.23L241.643 84.56L241.923 84.63L241.943 90H240.973V82.55H241.023L246.553 88.24L246.323 88.19L246.303 82.77H247.263V90.23H247.233ZM250.242 82.77H254.942V83.7H251.212V85.9H254.542V86.83H251.212V89.07H255.082V90H250.242V82.77ZM257.036 82.81H258.156L260.116 88.33L259.946 88.26L261.376 84.56L261.826 85.87L259.916 90.33L257.036 82.81ZM260.506 82.81H261.476L263.596 88.25L263.396 88.21L265.266 82.81H266.296L263.456 90.32L260.506 82.81ZM278.368 89.38C278.268 89.4667 278.128 89.5533 277.948 89.64C277.768 89.72 277.568 89.7933 277.348 89.86C277.135 89.9267 276.911 89.98 276.678 90.02C276.451 90.06 276.238 90.08 276.038 90.08C275.458 90.08 274.935 89.99 274.468 89.81C274.008 89.63 273.611 89.38 273.278 89.06C272.951 88.74 272.698 88.3633 272.518 87.93C272.345 87.4967 272.258 87.0267 272.258 86.52C272.258 85.92 272.355 85.3833 272.548 84.91C272.748 84.43 273.018 84.0267 273.358 83.7C273.705 83.3667 274.101 83.1167 274.548 82.95C274.995 82.7767 275.468 82.69 275.968 82.69C276.388 82.69 276.778 82.74 277.138 82.84C277.498 82.94 277.815 83.0667 278.088 83.22L277.758 84.11C277.625 84.03 277.458 83.9567 277.258 83.89C277.065 83.8233 276.865 83.77 276.658 83.73C276.451 83.6833 276.258 83.66 276.078 83.66C275.651 83.66 275.265 83.7267 274.918 83.86C274.571 83.9867 274.275 84.1733 274.028 84.42C273.781 84.66 273.591 84.9533 273.458 85.3C273.325 85.64 273.258 86.0233 273.258 86.45C273.258 86.8433 273.325 87.2033 273.458 87.53C273.591 87.8567 273.781 88.14 274.028 88.38C274.275 88.6133 274.568 88.7967 274.908 88.93C275.255 89.0567 275.635 89.12 276.048 89.12C276.295 89.12 276.538 89.0967 276.778 89.05C277.018 88.9967 277.225 88.9233 277.398 88.83V87.39H275.958V86.46H278.368V89.38ZM281.118 82.77H285.818V83.7H282.088V85.9H285.418V86.83H282.088V89.07H285.958V90H281.118V82.77ZM294.801 90.23L289.211 84.56L289.491 84.63L289.511 90H288.541V82.55H288.591L294.121 88.24L293.891 88.19L293.871 82.77H294.831V90.23H294.801ZM297.81 82.77H302.51V83.7H298.78V85.9H302.11V86.83H298.78V89.07H302.65V90H297.81V82.77ZM307.154 82.77C307.52 82.77 307.857 82.82 308.164 82.92C308.477 83.0133 308.747 83.1567 308.974 83.35C309.207 83.5367 309.387 83.77 309.514 84.05C309.647 84.3233 309.714 84.6433 309.714 85.01C309.714 85.2967 309.67 85.5767 309.584 85.85C309.504 86.1233 309.367 86.3733 309.174 86.6C308.98 86.82 308.727 87 308.414 87.14C308.107 87.2733 307.727 87.34 307.274 87.34H306.204V90H305.234V82.77H307.154ZM307.254 86.41C307.54 86.41 307.777 86.3667 307.964 86.28C308.157 86.1933 308.307 86.0833 308.414 85.95C308.52 85.81 308.597 85.66 308.644 85.5C308.69 85.34 308.714 85.19 308.714 85.05C308.714 84.9033 308.687 84.7533 308.634 84.6C308.587 84.44 308.507 84.2933 308.394 84.16C308.287 84.0267 308.144 83.9167 307.964 83.83C307.79 83.7433 307.577 83.7 307.324 83.7H306.204V86.41H307.254ZM308.444 86.96L310.334 90H309.214L307.294 86.99L308.444 86.96ZM312.006 90L315.166 82.47H315.226L318.376 90H317.266L314.906 83.99L315.596 83.54L312.956 90H312.006ZM313.856 87.26H316.546L316.866 88.1H313.576L313.856 87.26ZM319.541 82.77H324.341V83.7H322.401V90H321.431V83.7H319.541V82.77ZM326.781 82.77H327.751V90H326.781V82.77ZM330.278 86.39C330.278 85.89 330.372 85.42 330.558 84.98C330.752 84.5333 331.018 84.14 331.358 83.8C331.698 83.4533 332.088 83.1833 332.528 82.99C332.975 82.79 333.455 82.69 333.968 82.69C334.475 82.69 334.948 82.79 335.388 82.99C335.835 83.1833 336.228 83.4533 336.568 83.8C336.915 84.14 337.185 84.5333 337.378 84.98C337.572 85.42 337.668 85.89 337.668 86.39C337.668 86.9033 337.572 87.3833 337.378 87.83C337.185 88.2767 336.915 88.67 336.568 89.01C336.228 89.3433 335.835 89.6067 335.388 89.8C334.948 89.9867 334.475 90.08 333.968 90.08C333.455 90.08 332.975 89.9867 332.528 89.8C332.088 89.6133 331.698 89.3533 331.358 89.02C331.018 88.6867 330.752 88.2967 330.558 87.85C330.372 87.4033 330.278 86.9167 330.278 86.39ZM331.278 86.4C331.278 86.78 331.348 87.1367 331.488 87.47C331.628 87.7967 331.822 88.0867 332.068 88.34C332.315 88.5933 332.602 88.7933 332.928 88.94C333.255 89.08 333.608 89.15 333.988 89.15C334.362 89.15 334.712 89.08 335.038 88.94C335.365 88.7933 335.648 88.5933 335.888 88.34C336.128 88.0867 336.318 87.7967 336.458 87.47C336.598 87.1367 336.668 86.7767 336.668 86.39C336.668 86.01 336.598 85.6533 336.458 85.32C336.318 84.98 336.125 84.6833 335.878 84.43C335.632 84.1767 335.345 83.98 335.018 83.84C334.692 83.6933 334.342 83.62 333.968 83.62C333.588 83.62 333.235 83.6933 332.908 83.84C332.582 83.9867 332.295 84.1867 332.048 84.44C331.802 84.6933 331.612 84.99 331.478 85.33C331.345 85.6633 331.278 86.02 331.278 86.4ZM346.463 90.23L340.873 84.56L341.153 84.63L341.173 90H340.203V82.55H340.253L345.783 88.24L345.553 88.19L345.533 82.77H346.493V90.23H346.463Z" fill="white"/>
<path d="M254.385 -1.53625C225.365 -1.13252 187.286 -0.373295 183.635 -0.113294C181.344 0.0292237 178.641 0.174951 177.651 0.182652C175.731 0.197574 174.865 0.329021 175.032 0.577155C175.22 0.825129 176.727 0.884678 183.292 0.940551C186.822 0.966562 191.219 1.03928 193.098 1.11376C194.977 1.20605 198.467 1.33928 200.841 1.42772C209.823 1.76768 217.918 2.13236 222.317 2.41887C224.258 2.54631 226.716 2.66974 227.79 2.71485C232.064 2.89542 240.986 3.53873 246.44 4.08429C247.597 4.20001 247.743 4.43049 246.9 4.8112C246.571 4.97411 245.378 5.53569 244.267 6.07882C243.157 6.62195 241.862 7.25561 241.388 7.47308C240.545 7.8716 235.915 9.68926 234.844 10.0361C234.288 10.2364 230.756 9.85408 225.816 9.07291C224.514 8.86923 223.419 8.75302 223.358 8.80695C223.193 8.95076 223.359 8.98511 227.328 9.77382C229.272 10.1685 231.215 10.5632 231.67 10.6487L232.477 10.8384L231.984 11.163C231.203 11.6679 231.637 11.7714 232.728 11.3532C233.798 10.9172 233.674 10.9182 238.076 11.4898C239.439 11.6573 240.927 11.8061 241.381 11.7848L242.206 11.7783L241.276 11.5362C240.759 11.4155 239.249 11.1065 237.905 10.8497C236.562 10.5929 235.486 10.3518 235.527 10.3159C235.753 10.1181 241.248 8.00867 242.546 7.62444C244.378 7.07569 247.137 6.10997 247.877 5.7657C248.638 5.40345 249.134 5.43523 248.992 5.81048C248.932 5.98912 248.69 6.77493 248.449 7.56074C248.228 8.34638 247.906 9.38225 247.765 9.88221C247.624 10.3644 247.262 11.5431 246.98 12.4717C245.994 15.7755 245.289 18.0258 245.207 18.0799C245.187 18.0979 244.734 18.2796 244.219 18.4618C242.758 19.0254 240.353 20.3447 239.903 20.8471C239.678 21.0983 239.495 21.456 239.496 21.6164C239.5 22.0618 240.927 22.5139 242.807 22.6775C243.654 22.76 245.596 22.923 247.104 23.0538C249.582 23.284 249.933 23.2813 250.468 23.0277C251.784 22.4295 256.432 22.7675 257.532 23.5429C258.009 23.8777 258.257 23.9292 259.082 23.8516C259.618 23.7939 260.465 23.823 260.982 23.9259C262.656 24.2336 262.654 24.002 260.856 21.0227C259.999 19.5863 259.287 18.2912 259.286 18.1665C259.285 18.0418 259.117 17.758 258.889 17.5282C258.222 16.8029 251.967 6.10806 251.964 5.68048C251.962 5.4667 251.879 5.34263 251.755 5.39704C251.653 5.45129 251.549 5.39864 251.548 5.25612C251.545 4.89981 253.613 5.3826 259.199 7.01394C261.537 7.70843 264.454 8.54096 265.716 8.88748C266.957 9.23417 268.219 9.63414 268.509 9.7566C268.799 9.87906 269.151 9.98323 269.296 9.98211C269.461 9.98082 270.661 10.3278 271.985 10.7629C273.33 11.1979 275.379 11.8768 276.579 12.2595C277.779 12.6421 279.228 13.1297 279.787 13.3213C280.367 13.5128 281.67 13.9303 282.684 14.2431C283.719 14.5558 285.209 15.0609 285.995 15.3398C288.19 16.1245 291.832 17.2899 293.445 17.7228C297.582 18.8309 298.016 18.8988 300.329 18.9521C302.496 19.0065 302.641 18.9876 302.638 18.6669C302.636 18.4175 301.806 17.8894 299.692 16.7478C293.619 13.5167 287.734 10.5871 280.358 7.11672C278.887 6.43331 276.546 5.32906 275.179 4.68047C273.811 4.03188 272.092 3.22568 271.346 2.89297C270.6 2.54243 269.916 2.20923 269.792 2.13893C269.688 2.06847 268.611 1.57798 267.409 1.035C266.208 0.509839 264.406 -0.331349 263.37 -0.822162C262.085 -1.43576 261.319 -1.69706 260.886 -1.67587C260.556 -1.63767 257.625 -1.57926 254.385 -1.53625ZM251.161 5.97179C251.559 6.68136 251.602 6.94828 251.49 8.48138C251.436 9.42608 251.372 11.8496 251.367 13.8451C251.353 17.3195 251.333 17.4622 250.921 17.5901C250.509 17.7358 246.278 17.6975 246.111 17.574C246.07 17.5387 246.21 16.9497 246.432 16.2709C246.633 15.6102 247.016 14.4135 247.237 13.6278C248.906 8.02041 249.793 5.19849 249.956 5.00124C250.222 4.69629 250.596 4.97845 251.161 5.97179ZM254.905 12.2141L257.603 16.8077L256.904 17.1873C256.514 17.3863 256.185 17.6383 256.186 17.763C256.188 17.9946 252.801 17.8249 252.201 17.5623C251.849 17.4047 251.826 17.0842 251.852 12.5051C251.872 9.81465 251.938 7.6227 252.02 7.62206C252.124 7.62126 253.399 9.69589 254.905 12.2141ZM260.427 21.525C261.075 22.5889 261.536 23.5296 261.475 23.6192C261.393 23.7267 261.269 23.7277 261.145 23.6217C261.02 23.5158 260.648 23.4831 260.277 23.5394C258.854 23.7464 257.849 21.8835 258.769 20.7361C258.953 20.503 259.095 20.1278 259.093 19.8784C259.088 19.2905 259.109 19.3081 260.427 21.525ZM257.254 22.387L257.259 22.9571L256.308 22.8398C254.924 22.6902 254.82 22.5484 255.829 22.2021C257.125 21.7466 257.249 21.7634 257.254 22.387Z" fill="white"/>
<circle cx="8.5" cy="13.5" r="0.5" transform="rotate(90 8.5 13.5)" fill="white"/>
<circle cx="4.5" cy="18.5" r="0.5" transform="rotate(90 4.5 18.5)" fill="white"/>
<circle cx="4.5" cy="13.5" r="0.5" transform="rotate(90 4.5 13.5)" fill="white"/>
<circle cx="0.5" cy="23.5" r="0.5" transform="rotate(90 0.5 23.5)" fill="white"/>
<circle cx="0.5" cy="18.5" r="0.5" transform="rotate(90 0.5 18.5)" fill="white"/>
<circle cx="0.5" cy="13.5" r="0.5" transform="rotate(90 0.5 13.5)" fill="white"/>
<circle cx="4.5" cy="23.5" r="0.5" transform="rotate(90 4.5 23.5)" fill="white"/>
<circle cx="8.5" cy="18.5" r="0.5" transform="rotate(90 8.5 18.5)" fill="white"/>
<circle cx="8.5" cy="23.5" r="0.5" transform="rotate(90 8.5 23.5)" fill="white"/>
</svg>
